<svg xmlns="http://www.w3.org/2000/svg" width="900" height="600" viewBox="0 0 900 600"><path fill="#b31942" d="M0 0h900v600H0"/><path stroke="#FFF" stroke-width="46.15" d="M0 69.23h900m0 92.31H0m0 92.31h900m0 92.31H0m0 92.31h900m0 92.31H0"/><path fill="#0a3161" d="M0 0h360v323.08H0"/><defs><path id="s" d="M0,-1L.225,-.309L.951,-.309L.363,.118L.588,.809L0,.382L-.588,.809L-.363,.118L-.951,-.309L-.225,-.309Z"/><g id="r6"><use href="#s" transform="translate(30,0)scale(10)"/><use href="#s" transform="translate(90,0)scale(10)"/><use href="#s" transform="translate(150,0)scale(10)"/><use href="#s" transform="translate(210,0)scale(10)"/><use href="#s" transform="translate(270,0)scale(10)"/><use href="#s" transform="translate(330,0)scale(10)"/></g><g id="r5"><use href="#s" transform="translate(36,0)scale(10)"/><use href="#s" transform="translate(108,0)scale(10)"/><use href="#s" transform="translate(180,0)scale(10)"/><use href="#s" transform="translate(252,0)scale(10)"/><use href="#s" transform="translate(324,0)scale(10)"/></g></defs><g fill="#FFF"><use href="#r6" y="17.95"/><use href="#r5" y="53.85"/><use href="#r6" y="89.74"/><use href="#r5" y="125.64"/><use href="#r6" y="161.54"/><use href="#r5" y="197.44"/><use href="#r6" y="233.33"/><use href="#r5" y="269.23"/><use href="#r6" y="305.13"/></g></svg>
