<svg t="1634926761966" class="icon" viewBox="0 0 1024 1024" version="1.1" xmlns="http://www.w3.org/2000/svg" p-id="20668" width="200" height="200"><path d="M810.666667 85.333333H213.333333c-46.933333 0-85.333333 38.4-85.333333 85.333334v682.666666c0 46.933333 38.4 85.333333 85.333333 85.333334h597.333334c46.933333 0 85.333333-38.4 85.333333-85.333334V170.666667c0-46.933333-38.4-85.333333-85.333333-85.333334z m0 768H213.333333V170.666667h597.333334v682.666666z" fill="#1C1C1C" p-id="20669"></path><path d="M298.666667 298.666667h426.666666v42.666666H298.666667zM298.666667 426.666667h426.666666v42.666666H298.666667zM298.666667 554.666667h213.333333v42.666666H298.666667z" fill="#1C1C1C" p-id="20670"></path><path d="M618.666667 618.666667l-64 64-42.666667-42.666667-30.165333 30.165333 72.832 72.832L648.832 648.832z" fill="#1C1C1C" p-id="20671"></path></svg>
