<?xml version="1.0" encoding="UTF-8"?>
<svg width="11" height="14" xmlns="http://www.w3.org/2000/svg">
    <path d="M10.98 8.47c.013.145.02.29.02.438C11 11.72 8.538 14 5.5 14S0 11.72 0 8.908C0 7.63.508 6.463 1.347 5.569l-.009-.007.079-.066c.13-.133.266-.26.41-.38C2.962 3.98 3.654 2.46 3.654.792L3.649.578 3.637.34c0-.187.164-.339.367-.339a.38.38 0 01.19.05l.052.035c1.361.893 2.318 2.279 2.568 3.877.055.285.08.576.08.872 0 .286-.048.686-.144 1.198l-.043.226a.411.411 0 00-.013.103c0 .244.213.441.476.441.122 0 .264-.078.425-.235.352-.656.594-1.37.701-2.125a.36.36 0 01.366-.3.38.38 0 01.268.107c1.28 1.723 1.963 3.13 2.05 4.222zM2.218 6.698a3.435 3.435 0 00-.818 2.21c0 2.015 1.813 3.693 4.1 3.693s4.1-1.678 4.1-3.692a3.38 3.38 0 00-.014-.31l-.019-.165c-.062-.41-.253-.92-.576-1.524l-.08.161-.185.349-.153.15c-.397.387-.84.633-1.403.633-1.013 0-1.876-.799-1.876-1.841 0-.122.012-.244.028-.325l.012-.052c.108-.54.16-.934.16-1.15 0-.22-.018-.421-.063-.656a4.074 4.074 0 00-.605-1.575A7.624 7.624 0 012.82 6.105l-.097.088a4.14 4.14 0 00-.311.288l-.193.216z" fill="#FFF" fill-opacity="1" />
</svg>
