<svg xmlns="http://www.w3.org/2000/svg" viewBox="0 0 24 24" fill="currentColor">
  <defs>
    <linearGradient id="serviceGradient" x1="0%" y1="0%" x2="100%" y2="100%">
      <stop offset="0%" style="stop-color:var(--color-amber-500);stop-opacity:1" />
      <stop offset="100%" style="stop-color:var(--color-amber-fbbf24);stop-opacity:1" />
    </linearGradient>
  </defs>
  <path d="M21 11.5a8.38 8.38 0 0 1-.9 3.8 8.5 8.5 0 0 1-7.6 4.7 8.38 8.38 0 0 1-3.8-.9L3 21l1.9-5.7a8.38 8.38 0 0 1-.9-3.8 8.5 8.5 0 0 1 4.7-7.6 8.38 8.38 0 0 1 3.8-.9h.5a8.48 8.48 0 0 1 8 8v.5z" fill="url(#serviceGradient)" />
  <path d="M12 12v.01" stroke="white" stroke-width="3" stroke-linecap="round" />
  <path d="M11 16h2" stroke="white" stroke-width="2" stroke-linecap="round" />
</svg>