<svg xmlns="http://www.w3.org/2000/svg" fill="none" version="1.1" width="737" height="386" viewBox="0 0 737 386"><path d="M325.9913034375,101C309.4410434375,100.9979639696,294.9855334375,112.364362,290.8463134375,128.634548L249.2382334375,128.634548C231.5046834375,128.631042,216.3674434375,141.64458100000002,213.4469634375,159.404415L211.9676334375,168.50412799999998C210.5074034375,177.384033,202.9387634375,183.8908,194.0719934375,183.889053L179.6951434375,183.889053C175.5525034375,167.625801,161.1018334375,156.265381,144.5573334375,156.265381C128.0128434375,156.265381,113.5621794375,167.625801,109.4195324375,183.889053L88.9960784375,183.889053C82.6726224375,159.033123,53.8823204375,148.194073,33.1275744375,162.855534C12.3728280375,177.51698299999998,12.372841337499999,208.69391000000002,33.1275994375,223.35534C53.8823624375,238.0168,82.6726534375,227.17771,88.9960784375,202.3218L109.4195254375,202.3218C113.5521694375,218.59888,128.0093234375,229.97371,144.5645134375,229.97371C161.1196934375,229.97371,175.5768434375,218.59888,179.7095034375,202.3218L194.0719734375,202.3218C202.9441834375,202.31293,210.5208434375,208.82139,211.9819834375,217.70673L213.4613234375,226.79185999999999C216.3755334375,244.55748,231.5144534375,257.57861,249.2526134375,257.57631000000003L254.5667234375,257.57631000000003C260.88565343749997,282.43561,289.6775534375,293.27979,310.4349634375,278.61856C331.1924734375,263.95736999999997,331.1925034375,232.77713,310.4350234375,218.11588999999998C289.6775834375,203.45466,260.8856834375,214.29883999999998,254.5667234375,239.15814L249.2526134375,239.15814C240.3812234375,239.15869,232.8109434375,232.64432,231.3569634375,223.75862L229.8776534375,214.67349000000002C228.5081934375,206.31744,224.3376134375,198.698334,218.0716734375,193.105431C224.3298634375,187.504333,228.4902534375,179.88012700000002,229.8488934375,171.522781L231.3426234375,162.452229C232.7965834375,153.566525,240.3668834375,147.052147,249.2382334375,147.052708L290.8319734375,147.052708C295.5419634375,165.597771,313.4576734375,177.388481,332.0536534375,174.18152600000002C350.6496534375,170.974571,363.7265634375,153.83902,362.1419034375,134.754978C360.5572234375,115.670935,344.8392334375,101.00036047754,325.9913034375,101ZM325.9769334375,119.418165C335.9953034375,119.418159,344.1167634375,127.66425699999999,344.1167634375,137.836338C344.1246334375,148.014099,336.0008534375,156.269093,325.9769334375,156.269093C315.9530034375,156.269093,307.8292534375,148.014099,307.8371534375,137.836338C307.8371534375,127.658569,315.9673734375,119.410114,325.9769334375,119.418165ZM53.8511234375,174.687263C63.8750644375,174.67922199999998,72.0052684375,182.927673,72.0052684375,193.105431C72.0052684375,203.28321,63.8750424375,211.53167000000002,53.8510974375,211.52361000000002C43.8327544375,211.52361000000002,35.7112884375,203.27751,35.7112884375,193.105431C35.7112864375,182.93336499999998,43.832752437500005,174.687271,53.8511234375,174.687263ZM144.5645134375,174.687263C154.5828434375,174.687271,162.7043334375,182.93336499999998,162.7043334375,193.105431C162.7043334375,203.27751,154.5828434375,211.52361000000002,144.5645134375,211.52361000000002C134.5517734375,211.51556,126.4390534375,203.27179999999998,126.4390634375,193.105431C126.4390734375,182.93336499999998,134.5605434375,174.687271,144.5645134375,174.687263ZM289.7117334375,229.95634C299.7356534375,229.94832,307.8659034375,238.19676,307.8659034375,248.37451C307.8658434375,258.5466,299.7444134375,266.79269,289.7260734375,266.79266C279.7021434375,266.8007,271.5719334375,258.55226,271.5719334375,248.37451C271.5640234375,238.19676,279.6878034375,229.94177,289.7117334375,229.95634Z" fill="var(--el-text-color-primary)" fill-opacity="1" style="mix-blend-mode:passthrough"/><path d="M481.599998,162.279999L481.599998,172.68Q487.52,167.560005,495.119999,164.68Q502.719997,161.800003,510.239998,161.800003Q522.559998,161.800003,529.839996,169Q537.119995,176.200005,537.119995,187.720001L537.119995,248.67999L511.52,248.67999L511.52,192.04000100000002Q511.52,187.400002,507.68,184.440002Q503.84000000000003,181.480003,498.559998,181.480003Q495.200001,181.480003,490.15999999999997,183.720001Q485.119999,185.96000700000002,481.599998,189.16000400000001L481.599998,248.67999L456,248.67999L456,162.279999L481.599998,162.279999ZM592,251.08Q573.92,251.08,563.03999,243.24Q552.16,235.4,551.84,220.51999999999998Q551.52,208.04000100000002,557.52,200.520004Q563.52,193,573.92,190.760002Q565.92,188.83999599999999,560.56,181.239998Q555.2,173.639999,555.2,165.32Q555.2,151.080002,565.12,143Q575.03999,134.920006,592.31999,134.920006Q609.5999899999999,134.920006,619.51999,142.520004Q629.44,150.120003,629.44,164.200005Q629.44,173.16000400000001,623.91998,180.840004Q618.39999,188.520004,609.91998,190.760002Q620.48,193,626.79999,200.520004Q633.12,208.04000100000002,632.79999,220.36Q632.48,234.6,621.75999,242.84Q611.03999,251.08,592,251.08ZM578.23999,167.400002Q578.23999,172.360001,581.75999,176.120003Q585.28,179.88000499999998,592.31999,179.88000499999998Q598.72,179.88000499999998,602.56,176.279999Q606.39999,172.68,606.39999,167.400002Q606.39999,160.200005,602.79999,157.16000400000001Q599.2,154.120003,592.31999,154.120003Q585.5999899999999,154.120003,581.92,157.080002Q578.23999,160.040001,578.23999,167.400002ZM609.12,216.360001Q609.12,210.600006,604.48,206.600006Q599.84,202.600006,592.31999,202.600006Q584.79999,202.600006,580.16,206.600006Q575.52,210.600006,575.52,216.360001Q575.52,224.68,580,228.28Q584.48,231.88,592.31999,231.88Q600,231.88,604.56,228.44Q609.12,225,609.12,216.360001ZM673.12,162.279999L673.12,172.68Q679.03999,167.560005,686.63998,164.68Q694.23999,161.800003,701.75998,161.800003Q714.07999,161.800003,721.3599899999999,169Q728.6399799999999,176.200005,728.6399799999999,187.720001L728.6399799999999,248.67999L703.03999,248.67999L703.03999,192.04000100000002Q703.03999,187.400002,699.19998,184.440002Q695.35999,181.480003,690.07999,181.480003Q686.71999,181.480003,681.67999,183.720001Q676.63998,185.96000700000002,673.12,189.16000400000001L673.12,248.67999L647.51999,248.67999L647.51999,162.279999L673.12,162.279999Z" fill="var(--el-text-color-primary)" fill-opacity="1"/></svg>
