<?xml version="1.0" standalone="no"?><!DOCTYPE svg PUBLIC "-//W3C//DTD SVG 1.1//EN" "http://www.w3.org/Graphics/SVG/1.1/DTD/svg11.dtd"><svg t="1763026678351" class="icon" viewBox="0 0 1024 1024" version="1.1" xmlns="http://www.w3.org/2000/svg" p-id="1295" width="200" height="200"><path d="M358.4 537.6A128 128 0 0 1 486.4 665.6v153.6A128 128 0 0 1 358.4 947.2H204.8A128 128 0 0 1 76.8 819.2v-153.6A128 128 0 0 1 204.8 537.6h153.6zM204.8 614.4a51.2 51.2 0 0 0-51.2 51.2v153.6a51.2 51.2 0 0 0 51.2 51.2h153.6a51.2 51.2 0 0 0 51.2-51.2v-153.6a51.2 51.2 0 0 0-51.2-51.2H204.8z" p-id="1296" fill="#2c2c2c"></path><path d="M678.5024 598.3744a27.3408 27.3408 0 0 1 47.2576-12.6464l58.7264 66.4064c3.9424 4.4544 9.216 7.5264 15.0528 8.704l86.9376 17.664c22.1184 4.5056 29.5424 32.256 12.6464 47.2064l-66.4576 58.7264a27.3408 27.3408 0 0 0-8.704 15.0528l-17.6128 86.9888a27.3408 27.3408 0 0 1-47.2576 12.6464l-58.7264-66.56a27.2896 27.2896 0 0 0-15.0016-8.6016l-87.04-17.664a27.3408 27.3408 0 0 1-12.5952-47.2576l66.4576-58.6752a27.392 27.392 0 0 0 8.704-15.0528l17.6128-86.9376z" p-id="1297" fill="#2c2c2c"></path><path d="M358.4 76.8A128 128 0 0 1 486.4 204.8v153.6A128 128 0 0 1 358.4 486.4H204.8A128 128 0 0 1 76.8 358.4V204.8A128 128 0 0 1 204.8 76.8h153.6zM204.8 153.6a51.2 51.2 0 0 0-51.2 51.2v153.6a51.2 51.2 0 0 0 51.2 51.2h153.6a51.2 51.2 0 0 0 51.2-51.2V204.8a51.2 51.2 0 0 0-51.2-51.2H204.8zM819.2 76.8A128 128 0 0 1 947.2 204.8v153.6A128 128 0 0 1 819.2 486.4h-153.6A128 128 0 0 1 537.6 358.4V204.8A128 128 0 0 1 665.6 76.8h153.6zM665.6 153.6a51.2 51.2 0 0 0-51.2 51.2v153.6a51.2 51.2 0 0 0 51.2 51.2h153.6a51.2 51.2 0 0 0 51.2-51.2V204.8a51.2 51.2 0 0 0-51.2-51.2h-153.6z" p-id="1298" fill="#2c2c2c"></path></svg>