<?xml version="1.0" standalone="no"?><!DOCTYPE svg PUBLIC "-//W3C//DTD SVG 1.1//EN" "http://www.w3.org/Graphics/SVG/1.1/DTD/svg11.dtd"><svg t="1769430222601" class="icon" viewBox="0 0 1024 1024" version="1.1" xmlns="http://www.w3.org/2000/svg" p-id="15101" xmlns:xlink="http://www.w3.org/1999/xlink" width="200" height="200"><path d="M650.24 471.04c-22.528 0-39.936-18.432-39.936-39.936 0-54.272-44.032-98.304-98.304-98.304-22.528 0-39.936-18.432-39.936-39.936s18.432-39.936 39.936-39.936c98.304 0 178.176 79.872 178.176 178.176 0 22.528-17.408 39.936-39.936 39.936z" p-id="15102"></path><path d="M512 1024c-93.184 0-176.128-65.536-196.608-156.672l-1.024-5.12H98.304c-14.336 0-27.648-8.192-35.84-21.504-3.072-8.192-9.216-26.624 4.096-41.984C71.68 791.552 174.08 642.048 174.08 431.104c0-168.96 125.952-314.368 293.888-336.896l5.12-1.024V39.936C472.064 18.432 490.496 0 512 0c22.528 0 39.936 18.432 39.936 39.936v53.248l5.12 1.024c167.936 22.528 293.888 167.936 293.888 336.896 0 212.992 102.4 361.472 106.496 367.616 8.192 12.288 10.24 28.672 4.096 43.008-6.144 13.312-19.456 21.504-35.84 21.504H709.632l-1.024 5.12C689.152 958.464 606.208 1024 512 1024zM401.408 871.424c19.456 44.032 63.488 72.704 111.616 72.704s92.16-28.672 111.616-72.704l4.096-8.192H397.312l4.096 8.192z m453.632-89.088l-4.096-8.192c-53.248-113.664-79.872-228.352-79.872-343.04 0-143.36-116.736-259.072-259.072-259.072S252.928 288.768 252.928 431.104c0 114.688-26.624 229.376-79.872 343.04l-4.096 8.192h686.08z" p-id="15103"></path></svg>