<svg xmlns="http://www.w3.org/2000/svg" viewBox="0 0 1324 1024" width="259" height="200"><path d="M90.080207 223.213454c0-30.468305 25.831824-54.97542 56.962484-54.97542h1030.623544c31.793014 0 56.962484 24.507115 56.962484 54.97542v576.248383c0 30.468305-25.831824 54.97542-56.962484 54.97542H147.042691c-31.793014 0-56.962484-24.507115-56.962484-54.97542v-576.248383z" fill="#FFFFFF"/><path d="M90.080207 798.799483c0 31.13066 25.831824 56.300129 56.962484 56.300129h1030.623544c31.793014 0 56.962484-25.16947 56.962484-56.300129v-55.637775H90.080207v55.637775z" fill="#F8B600"/><path d="M90.080207 280.175938h1144.548512v-55.637775c0-31.13066-25.831824-56.300129-56.962484-56.300129H147.042691c-31.793014 0-56.962484 25.16947-56.962484 56.300129v55.637775z m561.01423 113.924968l-60.274256 270.902975h-72.858991l60.274256-270.902975h72.858991z m307.332471 174.861578l38.416559-102.002587 21.857697 102.002587h-60.274256z m81.469599 96.041397h67.560155l-58.949547-270.902975h-62.261319c-13.909444 0-25.831824 7.948254-31.13066 19.870633l-109.950841 251.032342h76.833118l15.234152-40.403622h94.054334l8.610608 40.403622z m-190.758085-88.093144c0-71.534282-103.327296-75.508409-102.664942-107.301423 0-9.935317 9.935317-19.870634 31.13066-22.520051 10.597671-1.324709 39.078913-1.987063 72.196636 11.92238l12.584735-57.624838c-17.883571-5.96119-40.403622-11.92238-68.22251-11.922381-72.196636 0-123.19793 37.09185-123.19793 89.417853-0.662354 39.078913 36.429495 60.936611 64.248383 73.521345 28.481242 13.247089 37.754204 21.857697 37.754204 33.780078 0 17.883571-22.520052 26.494179-43.715394 26.494178-37.09185 0.662354-58.287193-9.272962-74.846054-17.221216l-13.24709 59.611902c17.221216 7.285899 48.351876 13.909444 81.469599 14.571798 76.170763 0 125.847348-36.429495 126.509703-92.729625zM546.442432 394.100906l-118.561449 270.902975H351.047865l-58.287192-216.589909c-3.311772-13.247089-6.623545-18.545925-17.221216-23.844761-17.883571-9.272962-46.364812-17.883571-72.196637-23.182406l1.987064-7.948254h124.522639c15.896507 0 29.805951 9.935317 33.780077 27.818888l30.468306 156.978007L470.271669 393.438551l76.170763 0.662355z" fill="#1A1F71"/></svg>
