<svg xmlns="http://www.w3.org/2000/svg" xmlns:xlink="http://www.w3.org/1999/xlink" fill="none" version="1.1" width="42" height="53" viewBox="0 0 42 53"><g><g><g><path d="M29.448219,52C27.69721,52,26.050941,51.322216,24.812775,50.091072L5.9149405,31.298838C4.6459319,30.037729,3.951567329,28.292068,4.0027929849,26.502249C3.950098518,24.710152,4.64516944,22.963793,5.9149405,21.701221L24.813599,2.9088688C26.051706,1.6777248999999999,27.697271,1,29.448278,1C31.199995,1,32.845556,1.6777248999999999,34.08296,2.9088688C36.639011,5.450542,36.639011,9.5858793,34.08296,12.127552L19.629123,26.500031L34.082844,40.872448C36.638897,43.414177,36.638897,47.549515,34.082844,50.091133C32.844792999999996,51.322273,31.199173,52,29.448219,52ZM29.448219,4.0673447C28.521166,4.0673447,27.649801,4.4260678,26.994505,5.0775652L8.4612403,23.869974C7.7743948,24.554417,7.8188636,25.468018,7.8188636,26.443075C7.8188636,26.482037,7.8188636,26.520239,7.8188636,26.559204C7.8188636,27.533499,7.7743936,28.446341,8.461239299999999,29.130081L27.176908,47.922379C27.832031,48.573875,28.613045,48.932652,29.539394,48.932652C30.46727,48.932652,31.292637,48.573872,31.947876,47.922379C33.301184,46.576683,33.277922000000004,44.386955,31.924555,43.041145L16.368896,27.584377C15.766408,26.985277,15.761123,26.014662,16.363669,25.415621L31.904936,9.9587955C33.257481,8.613042799999999,33.256775000000005,6.4233165,31.904114,5.0775633C31.24893,4.4260678,30.375334,4.0673447,29.448219,4.0673447Z" fill="#333333" fill-opacity="1" style="mix-blend-mode:passthrough"/></g></g></g></svg>