<svg xmlns="http://www.w3.org/2000/svg" xmlns:xlink="http://www.w3.org/1999/xlink" fill="none" version="1.1" width="600" height="600" viewBox="0 0 600 600"><g><g><rect x="20" y="20" width="560" height="560" rx="70" fill-opacity="0" stroke-opacity="1" stroke="#000000" fill="none" stroke-width="40"/></g><g transform="matrix(0,1,-1,0,258.0009765625,-20.0009765625)"><path d="M139.0009765625,139L501.0010065625,139Q501.4920065625,139,501.9823565625,138.975908Q502.4727765625,138.951818,502.9613665625,138.903696Q503.4499465625,138.855572,503.9356065625,138.783529Q504.4212665625,138.711489,504.9027965625,138.615705Q505.3843365625,138.51992,505.8605965625,138.400625Q506.3368565625,138.28133,506.8067065625,138.13880699999999Q507.2765465625,137.996284,507.7387965625,137.830881Q508.2010465625,137.665478,508.6546665625,137.477591Q509.1082765625,137.289703,509.5521265625,137.079786Q509.9959365625,136.869869,510.4289565625,136.638426Q510.8619365625,136.406982,511.2830165625,136.154573Q511.7041665625,135.902163,512.1123965625,135.629393Q512.5206265625,135.356623,512.9150065625,135.064152Q513.3093865625,134.771679,513.6889065625,134.460211Q514.0684165625,134.148741,514.4321865625,133.819023Q514.7959565625,133.489305,515.1431265625,133.142136Q515.4902965625,132.794966,515.8200365625,132.431179Q516.1497465625,132.067392,516.4612465625,131.68786599999999Q516.7727065624999,131.308338,517.0651565625001,130.913985Q517.3576065625,130.519632,517.6303665625001,130.111404Q517.9031365625,129.70317599999998,518.1555465624999,129.282055Q518.4079565625,128.8609333,518.6394365625,128.42793460000001Q518.8708465625,127.994936,519.0807765625,127.5511017Q519.2907065625,127.1072674,519.4785765624999,126.6536684Q519.6664465625,126.200069,519.8318765624999,125.7377968Q519.9972565625001,125.2755251,520.1397965625,124.8056936Q520.2823165625,124.3358622,520.4016065625,123.8596034Q520.5209065624999,123.3833447,520.6166965625,122.9018064Q520.7124665625,122.4202678,520.7845465625,121.9346094Q520.8565665625,121.4489512,520.9046965625,120.9603429Q520.9528165625,120.4717345,520.9769265625,119.98135352Q521.0010065624999,119.49097246,521.0010065624999,119Q521.0010065624999,118.50902754,520.9769265625,118.01864648Q520.9528165625,117.5282655,520.9046965625,117.0396571Q520.8565665625,116.5510488,520.7845465625,116.0653906Q520.7124665625,115.5797322,520.6166965625,115.0981936Q520.5209065624999,114.6166553,520.4016065625,114.1403966Q520.2823165625,113.6641378,520.1397965625,113.1943064Q519.9972565625001,112.7244749,519.8318765624999,112.2622032Q519.6664465625,111.799931,519.4785765624999,111.3463316Q519.2907065625,110.8927326,519.0807765625,110.4488983Q518.8708465625,110.005064,518.6394065625,109.5720654Q518.4079565625,109.1390667,518.1555465624999,108.717946Q517.9031365625,108.296824,517.6303665625001,107.888596Q517.3576065625,107.480368,517.0651565625001,107.086015Q516.7727065624999,106.69166200000001,516.4612465625,106.312134Q516.1497465625,105.932608,515.8200065625,105.568821Q515.4902965625,105.205034,515.1431265625,104.857864Q514.7959565625,104.510695,514.4321865625,104.180978Q514.0684165625,103.851261,513.6889065625,103.539791Q513.3093865625,103.228323,512.9149765625,102.935852Q512.5206265625,102.643379,512.1123965625,102.370609Q511.7041665625,102.097839,511.2830765625,101.845428Q510.8619365625,101.593018,510.4289565625,101.361574Q509.9959365625,101.130133,509.5521265625,100.920216Q509.1082765625,100.71029899999999,508.6546665625,100.522411Q508.2010465625,100.33452199999999,507.7387965625,100.169119Q507.2765465625,100.003716,506.8067065625,99.861193Q506.3368565625,99.71867,505.8605965625,99.599375Q505.3843365625,99.48008,504.9027965625,99.384296Q504.4212665625,99.288513,503.9356065625,99.21647300000001Q503.4499465625,99.14443,502.9613665625,99.096304Q502.4727765625,99.048182,501.9823565625,99.02409Q501.4920065625,99,501.0010065625,99L139.0009765625,99Q138.5100041025,99,138.0196230425,99.024092Q137.5292420625,99.048182,137.0406336625,99.096304Q136.5520253625,99.144428,136.0663671625,99.216471Q135.5807087625,99.288511,135.0991701625,99.38429500000001Q134.6176318625,99.48008,134.1413731625,99.599375Q133.6651143625,99.71867,133.1952829625,99.861193Q132.7254514625,100.003716,132.2631797625,100.169119Q131.8009075625,100.33452199999999,131.3473081625,100.522409Q130.8937091625,100.710297,130.4498748625,100.920214Q130.0060405625,101.130131,129.57304196249999,101.361574Q129.1400432625,101.593018,128.7189225625,101.845427Q128.29780056250002,102.097837,127.8895725625,102.370607Q127.4813445625,102.643377,127.0869915625,102.935848Q126.69263856250001,103.228321,126.3131105625,103.539789Q125.9335845625,103.851259,125.5697975625,104.180977Q125.2060105625,104.510695,124.8588405625,104.857864Q124.5116715625,105.205034,124.1819545625,105.568821Q123.8522375625,105.932608,123.5407675625,106.312134Q123.2292995625,106.69166200000001,122.9368285625,107.086015Q122.6443555625,107.480368,122.3715855625,107.888596Q122.0988155625,108.296824,121.8464045625,108.717945Q121.5939945625,109.1390667,121.3625505625,109.5720654Q121.1311095625,110.005064,120.9211925625,110.4488983Q120.71127556249999,110.8927326,120.5233875625,111.3463316Q120.33549856249999,111.799931,120.1700955625,112.2622032Q120.0046925625,112.7244749,119.8621695625,113.1943064Q119.7196465625,113.6641378,119.6003515625,114.1403966Q119.4810565625,114.6166553,119.3852725625,115.0981936Q119.2894895625,115.5797322,119.21744956250001,116.0653906Q119.1454065625,116.5510488,119.0972805625,117.0396571Q119.0491565625,117.5282655,119.0250665625,118.01864648Q119.0009765625,118.50902754,119.0009765625,119Q119.0009765625,119.49097246,119.0250665625,119.98135352Q119.0491565625,120.4717345,119.0972805625,120.9603429Q119.1454045625,121.4489512,119.2174475625,121.9346094Q119.2894875625,122.4202678,119.38527156250001,122.9018064Q119.4810565625,123.3833447,119.6003515625,123.8596034Q119.7196465625,124.3358622,119.8621695625,124.8056936Q120.0046925625,125.2755251,120.1700955625,125.7377968Q120.33549856249999,126.200069,120.5233855625,126.6536684Q120.7112735625,127.1072674,120.9211905625,127.5511017Q121.1311075625,127.994936,121.3625505625,128.42793460000001Q121.5939945625,128.8609333,121.8464035625,129.282054Q122.0988135625,129.70317599999998,122.3715835625,130.111404Q122.6443535625,130.519632,122.9368245625,130.913985Q123.2292975625,131.308338,123.5407655625,131.68786599999999Q123.8522355625,132.067392,124.1819535625,132.431179Q124.5116715625,132.794966,124.8588405625,133.142136Q125.2060105625,133.489305,125.5697975625,133.819022Q125.9335845625,134.148739,126.3131105625,134.460209Q126.69263856250001,134.771677,127.0869915625,135.064148Q127.4813445625,135.356621,127.8895725625,135.629391Q128.29780056250002,135.902161,128.7189215625,136.154572Q129.1400432625,136.406982,129.57304196249999,136.638426Q130.0060405625,136.869867,130.4498748625,137.079784Q130.8937091625,137.289701,131.3473081625,137.477589Q131.8009075625,137.665478,132.2631797625,137.830881Q132.7254514625,137.996284,133.1952829625,138.13880699999999Q133.6651143625,138.28133,134.1413731625,138.400625Q134.6176318625,138.51992,135.0991701625,138.615704Q135.5807087625,138.711487,136.0663671625,138.783527Q136.5520253625,138.85557,137.0406336625,138.903696Q137.5292420625,138.951818,138.0196230425,138.97591Q138.5100041025,139,139.0009765625,139Z" fill-rule="evenodd" fill="#000000" fill-opacity="1"/></g></g></svg>