<svg xmlns="http://www.w3.org/2000/svg" xmlns:xlink="http://www.w3.org/1999/xlink" fill="none" version="1.1" width="200" height="200" viewBox="0 0 200 200"><path d="M122.163444625,64.82370758056638C119.739913625,64.82370758056638,117.76344262500001,67.44723515117188,117.76344262500001,70.70606235117188L117.76344262500001,129.5295869511719C117.76344262500001,132.77664195117188,119.739913625,135.41194195117185,122.163444625,135.41194195117185L131.010505625,135.41194195117185C133.434028625,135.41194195117185,135.410499625,132.77664195117188,135.410499625,129.5295869511719L135.410499625,70.70605465117187C135.410499625,67.44723515117188,133.434028625,64.82369995117188,131.010505625,64.82369995117188L122.163444625,64.82370758056638ZM69.222267125,64.82370758056638C66.798736525,64.82370758056638,64.822265625,67.44723515117188,64.822265625,70.70606235117188L64.822265625,129.5295869511719C64.822265625,132.77664195117188,66.798736525,135.41194195117185,69.222267125,135.41194195117185L78.069328625,135.41194195117185C80.492858625,135.41194195117185,82.469329625,132.77664195117188,82.469329625,129.5295869511719L82.469329625,70.70605465117187C82.469329625,67.44723515117188,80.492858625,64.82369995117188,78.069328625,64.82369995117188L69.222267125,64.82370758056638Z" fill="#000000" fill-opacity="1" style="mix-blend-mode:passthrough"/><path d="M48.941181,21.294121C33.677513000000005,21.307096,21.3071,33.677505,21.294123,48.941177L21.294123,151.29413C21.307087,166.5578,33.677505,178.92822,48.941181,178.94119L151.29413,178.94119C166.5578,178.92822,178.92822,166.5578,178.94119,151.29413L178.94119,48.941177C178.92822,33.677502000000004,166.5578,21.307088999999998,151.29413,21.294119000000002L48.941181,21.294121ZM151.29413,194.23529L48.941177,194.23529C25.236172,194.20938,6.025939465,174.99915,6,151.29413L6,48.941177C6.025934219,25.236168,25.236168,6.025935173,48.941177,6L151.29413,6C174.99915,6.025930405,194.20938,25.236168,194.23529,48.941177L194.23529,151.29413C194.20935,174.99915,174.99911,194.20938,151.29413,194.23529Z" fill="#060101" fill-opacity="1" style="mix-blend-mode:passthrough"/></svg>