<svg xmlns="http://www.w3.org/2000/svg" xmlns:xlink="http://www.w3.org/1999/xlink" fill="none" version="1.1" width="200" height="200" viewBox="0 0 200 200"><defs><clipPath id="master_svg0_2038_34546"><rect x="0" y="0" width="200" height="200" rx="0"/></clipPath></defs><g clip-path="url(#master_svg0_2038_34546)"><path d="M48.941181,21.294121C33.677513000000005,21.307096,21.3071,33.677505,21.294123,48.941177L21.294123,151.29413C21.307087,166.5578,33.677505,178.92822,48.941181,178.94119L151.29413,178.94119C166.5578,178.92822,178.92822,166.5578,178.94119,151.29413L178.94119,48.941177C178.92822,33.677502000000004,166.5578,21.307088999999998,151.29413,21.294119000000002L48.941181,21.294121ZM151.29413,194.23529L48.941177,194.23529C25.236172,194.20938,6.025939465,174.99915,6,151.29413L6,48.941177C6.025934219,25.236168,25.236168,6.025935173,48.941177,6L151.29413,6C174.99915,6.025930405,194.20938,25.236168,194.23529,48.941177L194.23529,151.29413C194.20935,174.99915,174.99911,194.20938,151.29413,194.23529Z" fill="#060101" fill-opacity="1" style="mix-blend-mode:passthrough"/><path d="M88.86012600000001,136C79.0003157,135.96911599999999,71.018502485,127.97726800000001,71,118.117413L71,81.88044500000001C71.0048163026,68.1402545,85.874619,59.551450700000004,97.77895699999999,66.412899L129.230747,84.542608C141.127068,91.413219,141.127068,108.584629,129.230747,115.45522700000001L97.77895699999999,133.584946C95.072018,135.164787,91.994375,135.99816900000002,88.86012600000001,136ZM88.86012600000001,75.230649C87.677141,75.237942,86.516189,75.551404,85.490292,76.140501C83.405929,77.297785,82.115169,79.496375,82.120457,81.880453L82.120457,118.117413C82.125032,123.21073899999999,87.634315,126.395405,92.050232,123.857365L123.502022,105.727654C127.910458,103.180672,127.910458,96.817204,123.502022,94.270222L92.162567,76.19666C91.178463,75.589293,90.049994,75.255793,88.893822,75.23064L88.86012600000001,75.230649Z" fill="#000000" fill-opacity="1" style="mix-blend-mode:passthrough"/></g></svg>