<svg xmlns="http://www.w3.org/2000/svg" xmlns:xlink="http://www.w3.org/1999/xlink" fill="none" version="1.1" width="42" height="42" viewBox="0 0 42 42"><defs><clipPath id="master_svg0_1096_23181"><rect x="0" y="0" width="42" height="42" rx="0"/></clipPath></defs><g clip-path="url(#master_svg0_1096_23181)"><path d="M22.0429988125,36.86369740039063C21.5210758125,36.86369740039063,21.2610338125,36.86369740039063,21.0009118125,36.86369740039063C20.7425958125,36.86369740039063,20.4807928125,36.86369740039063,20.2206348125,36.86369740039063L19.9605088125,36.86369740039063C19.7003898125,36.86369740039063,19.1802288125,36.86369740039063,18.9201508125,37.12201340039063C17.8797888125,38.16409340039063,16.059186812500002,38.68429940039063,13.7183428125,38.68429940039063C12.1578197125,38.68429940039063,10.8573799125,38.42249640039063,9.5568137125,37.904018400390626C8.5164518125,37.38390340039062,7.9962921125,36.86193440039062,7.9962921125,36.083332400390624C7.9962921125,35.30305140039062,8.5164113125,34.782936400390625,9.8169756125,34.26092940039062C10.5972576125,34.002609400390625,10.8573379125,33.742534400390625,10.8573379125,33.21884540039063C10.8573379125,32.70044740039062,10.8573379125,32.18020440039062,10.5972166125,31.918443400390625C10.077096412500001,31.403450400390625,9.816935512499999,30.621446400390624,9.2968159125,30.103008400390625C9.0366945125,29.582889400390624,8.5165343125,29.321045400390624,7.9964151125,29.321045400390624C7.4762959125,29.321045400390624,7.2161336125,29.582849400390625,6.6960144125,29.844732400390626C6.1758950125,30.363128400390625,5.9157333125000005,30.621528400390623,5.6556525125,30.621528400390623C5.3955312125,30.621528400390623,5.137256112499999,29.844732400390626,5.137256112499999,28.544250400390624C5.137256112499999,27.243770400390623,5.395613712499999,25.681524400390625,5.6539709125,24.119199400390624C6.1740901125,22.560400400390623,6.9543719125,21.259960400390625,8.2548542125,19.959478400390626C8.514975512500001,19.701162400390626,8.7749734125,19.179195400390626,8.7749734125,18.659078400390626C8.7749734125,18.400762400390626,8.7749734125,18.400762400390626,8.7749734125,18.140680400390625C8.7749734125,17.358717400390624,9.035093812500001,16.580160400390625,9.5552540125,15.799838400390625C9.815375312499999,15.539715400390625,9.815375312499999,15.279718400390625,9.815375312499999,15.019556400390625L9.815375312499999,14.759436400390625C9.8170991125,11.636588400390625,10.8557377125,9.035705600390624,13.1983028125,6.694863300390625C15.2790668125,4.352296800390625,17.8799108125,3.313658200390625,21.0010358125,3.313658200390625C24.1221158125,3.313658200390625,26.7230418125,4.354019200390625,29.0638448125,6.694863300390625C31.1462898125,9.035705600390624,32.4467738125,11.636588400390625,32.4467738125,14.755949400390625C32.4467738125,14.755949400390625,32.4467738125,14.755949400390625,32.4467738125,15.016070400390625C32.4467738125,15.276192400390626,32.4467738125,15.536189400390626,32.7050878125,15.796351400390625C33.2252118125,16.576633400390627,33.4853688125,17.355150400390624,33.4853688125,18.137195400390624C33.4853688125,18.397317400390627,33.4853688125,18.397317400390627,33.4853688125,18.655592400390624C33.4853688125,19.175710400390624,33.4853688125,19.697675400390626,34.0054878125,19.955991400390626C35.3058858125,21.256391400390626,36.0862498125,22.556873400390625,36.6063688125,24.115711400390627C37.1264878125,25.677997400390623,37.3866538125,27.240240400390626,37.1264878125,28.540765400390626C37.1264878125,29.841165400390626,36.8663708125,30.359603400390625,36.3478888125,30.618045400390624C36.0877728125,30.618045400390624,35.8259698125,30.359684400390623,35.3058088125,29.841245400390626C35.0474548125,29.581125400390626,34.5255278125,29.317558400390624,34.0054088125,29.317558400390624L33.7470508125,29.317558400390624C33.225125812499996,29.317558400390624,32.704969812499996,29.579359400390626,32.446647812500004,30.099521400390625C32.186530812499996,30.879804400390626,31.6646828125,31.399921400390625,31.1462458125,31.918359400390624C30.8861278125,32.18016440039062,30.6243248125,32.70032140039063,30.8861278125,33.21875740039062C30.8861278125,33.74244640039063,31.4062518125,34.000721400390624,31.6647258125,34.26084540039062C32.9634838125,34.784526400390625,33.4854128125,35.30469540039063,33.4854128125,36.08492640039063C33.4854128125,36.86349140039062,32.9634838125,37.385334400390626,31.9248888125,37.90561340039063C30.8845248125,38.424011400390626,29.3240068125,38.68589440039062,27.7633608125,38.68589440039062C25.4225178125,38.68589440039062,23.8619938125,38.16397440039062,22.5615538125,37.12361140039062C22.8216728125,37.12361140039062,22.3014298125,36.86349140039062,22.0431598125,36.86349140039062L22.0429988125,36.86369740039063ZM28.0234068125,41.807190400390624C30.6242888125,41.807190400390624,32.7050128125,41.28707140039062,34.2655758125,40.24838640039062C35.8260958125,39.20630640039062,36.8664548125,37.905822400390626,36.8664548125,36.086864400390624C36.8664548125,35.04650540039062,36.6081008125,34.264457400390626,36.0878978125,33.48598440039063C36.3480228125,33.48598440039063,36.8664548125,33.48598440039063,37.1282618125,33.224182400390625C38.6887818125,32.70578340039062,39.4691048125,31.405344400390625,39.7291378125,29.322813400390626C39.9892658125,27.503976400390624,39.7291378125,25.421447400390626,38.9505878125,23.082328400390626C38.4286618125,21.259922400390625,37.3900638125,19.701124400390626,36.0896188125,18.140600400390625C36.0896188125,16.840202400390623,35.8295018125,15.799759400390625,35.3093418125,14.499357400390625C35.3093418125,10.597993400390624,34.0089418125,7.216788300390625,31.1496178125,4.354062600390625C28.2833648125,1.493099700390625,24.9022428125,0.192535400390625,21.0009178125,0.192535400390625C17.0995488125,0.192535400390625,13.7183468125,1.492935800390625,10.8573418125,4.352258200390625C8.2546949125,7.214983000390625,6.6958136125,10.596188400390625,6.6958136125,14.497552400390624C6.1756945125,15.537913400390625,5.9155319125000005,16.838396400390625,5.9155319125000005,18.138797400390626L5.9155319125000005,18.398920400390626C4.3550103125,19.699319400390625,3.5746878124999997,21.520004400390626,3.0545687125,23.080522400390624C2.2742872835,25.419603400390624,2.0142073325,27.502088400390626,2.2742872835,29.321008400390625C2.5344083925,31.403455400390627,3.5746878124999997,32.70393740039062,4.8751705125,33.22237740039063C5.1352913125,33.22237740039063,5.6554515125,33.48417640039062,5.9155319125000005,33.48417640039062C5.395412712500001,34.26273340039062,5.1352506125,35.04469640039063,5.1352506125,36.085060400390624C5.1352506125,37.645576400390624,5.9155319125000005,39.206142400390625,7.7361336125,40.24658540039062C9.2966556125,41.28694540039063,11.3773785125,41.80710640039062,13.7181828125,41.80710640039062C16.319063812499998,41.80710640039062,18.6599098125,41.28698740039062,20.2204708125,39.98641940039062L21.5208718125,39.98641940039062C23.3432788125,41.286823400390624,25.4222378125,41.80710640039062,28.0231608125,41.80710640039062L28.0234068125,41.807190400390624Z" fill="#000000" fill-opacity="1" style="mix-blend-mode:passthrough"/></g></svg>