<?xml version="1.0" standalone="no"?><!DOCTYPE svg PUBLIC "-//W3C//DTD SVG 1.1//EN" "http://www.w3.org/Graphics/SVG/1.1/DTD/svg11.dtd"><svg t="1768199739027" class="icon" viewBox="0 0 1024 1024" version="1.1" xmlns="http://www.w3.org/2000/svg" p-id="15226" xmlns:xlink="http://www.w3.org/1999/xlink" width="200" height="200"><path d="M868.266667 18.645333l29.269333 121.002667 110.933333 56.576-121.002666 29.269333-56.533334 110.933334-29.312-121.002667-110.933333-56.533333 121.002667-29.312 56.533333-110.933334z m152.661333 60.970667a32 32 0 1 1-64 0 32 32 0 0 1 64 0z m-390.954667 118.570667A118.058667 118.058667 0 0 0 512 82.005333h-1.962667a118.058667 118.058667 0 0 0-116.053333 118.144v149.162667H190.933333A64 64 0 0 0 128 413.397333v73.130667a64 64 0 0 0 64 63.018667h20.608L164.266667 855.893333l-0.128 1.024a64 64 0 0 0 63.36 73.088H797.568c2.986667-0.085333 5.973333-0.341333 8.96-0.810666l1.066667-0.170667a64.085333 64.085333 0 0 0 52.181333-73.130667l-48.384-306.346666h21.674667A64.042667 64.042667 0 0 0 896 485.461333V412.330667a64 64 0 0 0-64-63.018667h-201.984V198.186667z m-171.946666 1.066666A54.016 54.016 0 0 1 512 146.048h0.853333l0.938667 0.042667c29.013333 0.938667 52.224 24.746667 52.224 54.058666v149.162667h-108.032V199.253333zM192 413.397333h201.984v0.981334h236.032v-0.981334H832v72.106667h-640v-72.106667z m85.418667 136.106667h469.162666l49.962667 316.416H417.493333l26.88-169.642667a36.010667 36.010667 0 0 0-71.125333-11.264l-28.629333 180.906667H227.413333l49.962667-316.373333z" p-id="15227" fill="#515151"></path></svg>