<?xml version="1.0" standalone="no"?><!DOCTYPE svg PUBLIC "-//W3C//DTD SVG 1.1//EN" "http://www.w3.org/Graphics/SVG/1.1/DTD/svg11.dtd"><svg t="1770196176077" class="icon" viewBox="0 0 1024 1024" version="1.1" xmlns="http://www.w3.org/2000/svg" p-id="5870" xmlns:xlink="http://www.w3.org/1999/xlink" width="200" height="200"><path d="M763.904 690.176c89.088-122.368 77.312-291.84-30.208-398.336-58.368-58.368-135.68-90.112-218.112-90.112s-159.744 32.256-218.112 90.112c-57.344 58.368-89.6 135.68-89.6 218.112s32.256 159.232 90.112 217.6c58.368 58.368 135.68 90.112 218.112 90.112 65.024 0 127.488-20.48 180.736-59.904l160.256 159.744c8.704 8.704 20.48 13.824 33.28 13.824s24.576-5.12 33.28-13.824c18.432-18.432 18.432-48.128 0-66.56l-159.744-160.768z m-398.848-29.696c-83.456-83.456-83.456-218.624 0-301.568 40.448-40.448 93.696-62.464 151.04-62.464s110.592 22.016 151.04 62.464c83.456 83.456 83.456 218.624 0 301.568-80.384 80.384-221.184 80.384-302.08 0z m389.12-644.608h-483.84c-139.264 0-252.416 112.64-252.416 252.416v483.328c0 138.752 113.152 252.416 252.416 252.416h262.656c26.112 0 47.104-20.992 47.104-47.104s-20.992-47.104-47.104-47.104h-262.656c-86.528 0-157.184-70.656-157.184-157.184v-483.328c0-86.528 70.656-157.184 157.184-157.184h483.84c86.528 0 157.184 70.656 157.184 157.184v257.024c0 26.112 20.992 47.104 47.104 47.104s47.104-20.992 47.104-47.104v-258.56c0.512-139.264-112.128-251.904-251.392-251.904z" fill="#210910" p-id="5871"></path></svg>