<svg xmlns="http://www.w3.org/2000/svg" xmlns:xlink="http://www.w3.org/1999/xlink" fill="none" version="1.1" width="939" height="726" viewBox="0 0 939 726"><g><g><rect x="0" y="0" width="939" height="726" rx="138" fill="#D8D8D8" fill-opacity="0"/><rect x="22" y="22" width="895" height="682" rx="116" fill-opacity="0" stroke-opacity="1" stroke="#000000" fill="none" stroke-width="44"/></g><g><path d="M452.33733,186Q452.33733,185.50912577,452.36142,185.01884282Q452.3855,184.5285599,452.43361,184.0400493Q452.48172,183.5515389,452.55374,183.0659776Q452.62576,182.5804167,452.72153000000003,182.0989745Q452.81729,181.6175323,452.93655,181.1413689Q453.05584999999996,180.6652055,453.19833,180.1954679Q453.34082,179.7257309,453.50620000000004,179.2635512Q453.67157,178.8013716,453.85941,178.3478632Q454.04726,177.8943548,454.25714,177.4506092Q454.46700999999996,177.0068645,454.69840999999997,176.5739517Q454.92981,176.1410398,455.18216,175.720003Q455.43452,175.298966,455.70724,174.89082Q455.97997,174.482672,456.27238,174.088398Q456.56479,173.694123,456.87621,173.314672Q457.18762000000004,172.935222,457.51727,172.571508Q457.84692,172.207794,458.19402,171.860694Q458.54111,171.513594,458.90483,171.183943Q459.26854000000003,170.854292,459.64799,170.54288400000002Q460.02744,170.231477,460.42170999999996,169.939064Q460.81597999999997,169.64665,461.22411999999997,169.37393600000001Q461.63228000000004,169.101221,462.05331,168.848862Q462.47437,168.5965,462.90727000000004,168.365105Q463.34018000000003,168.133709,463.78391999999997,167.923832Q464.22766,167.713957,464.68118000000004,167.526108Q465.13469,167.338257,465.59686,167.172888Q466.05905,167.007517,466.52881,166.865023Q466.99854,166.72253,467.47469,166.603256Q467.95087,166.483984,468.43231000000003,166.388218Q468.91376,166.292454,469.39931,166.220427Q469.88487,166.148399,470.37338,166.100286Q470.86189,166.052174,471.35217,166.028088Q471.84245,166.004002,472.33333,166.004Q472.82419,166.004002,473.31448,166.028086Q473.80478,166.05217199999998,474.29329,166.10028499999999Q474.7818,166.148399,475.26734999999996,166.220425Q475.7529,166.292454,476.23434,166.388218Q476.71578999999997,166.483982,477.19196,166.603256Q477.66812,166.722528,478.13784999999996,166.865021Q478.60757,167.007515,479.06976,167.172886Q479.53192,167.338257,479.98544000000004,167.526106Q480.43893,167.713955,480.88269,167.923832Q481.32645,168.13370700000002,481.75935000000004,168.365105Q482.19226000000003,168.5965,482.6133,168.848862Q483.03433,169.101221,483.44249,169.37393600000001Q483.85063,169.64665,484.24490000000003,169.939064Q484.63919,170.231477,485.01865,170.54288400000002Q485.3981,170.854292,485.76180999999997,171.183943Q486.12552,171.513594,486.47263,171.860694Q486.81973,172.207794,487.14938,172.571508Q487.47902999999997,172.935222,487.79044,173.314672Q488.10184000000004,173.694123,488.39426000000003,174.088398Q488.68668,174.482672,488.95938,174.890819Q489.2321,175.298965,489.48447,175.720002Q489.73681999999997,176.1410389,489.96822,176.5739517Q490.19962,177.0068645,490.4095,177.4506092Q490.61937,177.8943548,490.80722000000003,178.3478632Q490.99507,178.8013716,491.16043,179.2635517Q491.32581,179.7257309,491.46831,180.1954679Q491.61079,180.6652055,491.73006,181.1413689Q491.84933,181.6175323,491.9451,182.0989745Q492.04086,182.5804167,492.11288,183.0659776Q492.18492000000003,183.5515389,492.23305,184.0400493Q492.28116,184.5285599,492.30524,185.01884282Q492.32933,185.50912577,492.32933,186L492.33333,186L492.33333,335.31511L645.13333,336.33376999999996L645.1333,336.33777Q645.62207,336.34103,646.1101100000001,336.36816Q646.5981400000001,336.39531,647.0843199999999,336.44627Q647.57043,336.49721999999997,648.0535,336.57185000000004Q648.53656,336.6465,649.01541,336.74466Q649.4942,336.8428,649.96768,336.96423Q650.4411299999999,337.08565999999996,650.9081100000001,337.23009Q651.3750600000001,337.37451,651.83438,337.54156Q652.29376,337.70862,652.74442,337.89793Q653.19507,338.08725000000004,653.6359299999999,338.29834Q654.07678,338.50945,654.50684,338.74184Q654.93683,338.97420999999997,655.3549499999999,339.22734Q655.7731,339.48045,656.17841,339.75371Q656.58368,340.02695,656.9751,340.31967Q657.36658,340.6124,657.74326,340.9239Q658.1198999999999,341.23537999999996,658.4809,341.56493Q658.8418899999999,341.89444000000003,659.18637,342.24123Q659.53082,342.58801,659.85797,342.9512Q660.18506,343.31439,660.4940799999999,343.69315Q660.8030699999999,344.07187,661.09317,344.46526Q661.3833,344.85864000000004,661.65387,345.26575Q661.9243799999999,345.67282,662.1747399999999,346.09265Q662.42505,346.51248,662.6545699999999,346.94405Q662.88406,347.37559999999996,663.0921900000001,347.81784Q663.30035,348.26009999999997,663.48663,348.71199Q663.67291,349.16388,663.83691,349.62433999999996Q664.00092,350.08481,664.14224,350.55273Q664.28354,351.02065,664.40179,351.49490000000003Q664.52008,351.96918,664.61505,352.44867Q664.7099900000001,352.92814999999996,664.78143,353.41168Q664.85284,353.89522999999997,664.90057,354.38167999999996Q664.9482399999999,354.86812,664.9721099999999,355.35632Q664.996,355.84452999999996,664.996,356.33333Q664.9959699999999,356.8242,664.97189,357.31448Q664.94781,357.80478,664.89969,358.29329Q664.8515600000001,358.78178,664.77954,359.26733Q664.7075199999999,359.7529,664.61176,360.23433Q664.51599,360.71577,664.3967299999999,361.19196Q664.27747,361.66811,664.13498,362.13784999999996Q663.99249,362.60757,663.8271199999999,363.06975Q663.66174,363.53192,663.47388,363.98544000000004Q663.28601,364.43893,663.07617,364.88269Q662.86627,365.32642999999996,662.63489,365.75935000000004Q662.40347,366.19226000000003,662.1510900000001,366.6133Q661.89874,367.03433,661.62604,367.44246999999996Q661.35333,367.85062,661.0609099999999,368.24490000000003Q660.7684899999999,368.63919,660.45709,369.01865Q660.1456900000001,369.3981,659.8160399999999,369.76180999999997Q659.48639,370.12552,659.13928,370.47263Q658.7921799999999,370.81973,658.4284700000001,371.14938Q658.06476,371.47902999999997,657.6853,371.79044Q657.30585,372.10184000000004,656.91156,372.39423999999997Q656.51727,372.68665,656.10913,372.95937000000004Q655.70099,373.23208999999997,655.27994,373.48445000000004Q654.85892,373.73681999999997,654.4260300000001,373.96822Q653.9931,374.19962,653.5493799999999,374.40947Q653.10559,374.61935,652.6521,374.80721Q652.1986099999999,374.99505999999997,651.73642,375.16042Q651.27423,375.32581,650.8045,375.46829Q650.33478,375.61078,649.85861,375.73006Q649.3824500000001,375.84933,648.9010000000001,375.9451Q648.41956,376.04086,647.9340199999999,376.11288Q647.4484600000001,376.18492000000003,646.95996,376.23305Q646.47144,376.28116,645.98117,376.30525Q645.4908800000001,376.32933,645,376.32933Q644.93335,376.32933,644.8667,376.32889L644.86667,376.33289L492.33333,375.31599L492.33333,536L492.32933,536Q492.32933,536.4908800000001,492.30524,536.98114Q492.28116,537.47144,492.23305,537.95996Q492.18492000000003,538.4484600000001,492.11289999999997,538.9340199999999Q492.04086,539.41956,491.9451,539.9010000000001Q491.84933,540.3824500000001,491.73007,540.85861Q491.61079,541.33478,491.46831,541.8045Q491.32581,542.27423,491.16044999999997,542.73645Q490.99507,543.1986099999999,490.80722000000003,543.6521Q490.61937,544.10559,490.40948000000003,544.54935Q490.19962,544.9931,489.96822,545.4260300000001Q489.73681999999997,545.85892,489.48447,546.27997Q489.2321,546.70099,488.95938,547.10913Q488.68668,547.51727,488.39426000000003,547.91156Q488.10185,548.30585,487.79044999999996,548.6853Q487.47902999999997,549.06476,487.14938,549.4284700000001Q486.81973,549.7921799999999,486.47263,550.13928Q486.12552,550.48639,485.76180999999997,550.8160399999999Q485.3981,551.1456900000001,485.01865,551.45709Q484.63919,551.7684899999999,484.24490000000003,552.06088Q483.85063,552.3532700000001,483.44249,552.62601Q483.03433,552.89874,482.6133,553.15112Q482.19226000000003,553.40344,481.75935000000004,553.63486Q481.32645,553.86627,480.88269,554.07614Q480.43893,554.28601,479.98544000000004,554.4738500000001Q479.53192,554.6616799999999,479.06976,554.82709Q478.60757,554.9924599999999,478.13784999999996,555.13498Q477.66812,555.27747,477.19196,555.3967299999999Q476.71578999999997,555.51599,476.23434,555.61176Q475.7529,555.7075199999999,475.26736,555.77954Q474.7818,555.8515600000001,474.2933,555.89972Q473.80478,555.94781,473.31448,555.97192Q472.82419,555.9959699999999,472.33333,555.996Q471.84245,555.9959699999999,471.35217,555.97189Q470.86189,555.94781,470.37338,555.89969Q469.88486,555.8515600000001,469.39931,555.77954Q468.91373,555.7075199999999,468.43228,555.61176Q467.95083999999997,555.51599,467.47469,555.3967299999999Q466.99854,555.27747,466.52878999999996,555.13498Q466.05905,554.99249,465.59686,554.8271199999999Q465.13467,554.66174,464.68117,554.47388Q464.22766,554.28601,463.78391999999997,554.07617Q463.34018000000003,553.86627,462.90727000000004,553.63489Q462.47437,553.40347,462.05331,553.1510900000001Q461.63229,552.89874,461.22414000000003,552.62604Q460.81597999999997,552.35333,460.42170999999996,552.0609099999999Q460.02744,551.7684899999999,459.64799,551.45709Q459.26854000000003,551.1456900000001,458.90483,550.8160399999999Q458.54111,550.48639,458.19402,550.13928Q457.84692,549.7921799999999,457.51727,549.4284700000001Q457.18762000000004,549.06476,456.87621,548.6853Q456.56479,548.30585,456.27238,547.91156Q455.97997,547.51727,455.70724,547.10913Q455.43453999999997,546.70099,455.18217000000004,546.27994Q454.92981,545.85892,454.69843000000003,545.4260300000001Q454.46703,544.9931,454.25714,544.5493799999999Q454.04727,544.10559,453.85942,543.6521Q453.67157,543.1986099999999,453.50620000000004,542.73642Q453.34082,542.27423,453.19833,541.8045Q453.05584999999996,541.33478,452.93656999999996,540.85861Q452.81729,540.3824500000001,452.72153000000003,539.9010000000001Q452.62576,539.41956,452.55374,538.9340199999999Q452.48172,538.4484600000001,452.43361,537.95996Q452.3855,537.47144,452.3614,536.98117Q452.33733,536.4908800000001,452.33733,536L452.33333,536L452.33333,375.04933L294.86666992,373.99956L294.86669658,373.99556Q294.37791735,373.99231,293.8898811,373.96518000000003Q293.4018447,373.93805,292.9157171,373.88710000000003Q292.4295897,373.83615,291.9465318,373.76151Q291.4634743,373.68686,290.9846401,373.58871Q290.5058064,373.49055,290.03234,373.36913000000004Q289.5588741,373.24771,289.0919061,373.1033Q288.624939,372.95885999999996,288.1655855,372.79179Q287.7062321,372.62473,287.2555895,372.43542Q286.8049469,372.24611,286.3640919,372.03502000000003Q285.9232378,371.82391,285.4932232,371.59155Q285.06320949999997,371.35916,284.645063,371.10603000000003Q284.226917,370.85291,283.821638,370.57966999999996Q283.41636,370.3064,283.024916,370.01367Q282.633471,369.72095,282.256796,369.40945Q281.88012200000003,369.09793,281.519118,368.76840000000004Q281.158113,368.43887,280.813641,368.09209999999996Q280.469168,367.74532999999997,280.142051,367.38214Q279.814932,367.01895,279.505949,366.64023Q279.196968,366.26147000000003,278.90686,365.86809Q278.616753,365.4747,278.34621,365.06761Q278.07567,364.66052,277.825344,364.24069Q277.575016,363.82086000000004,277.345499,363.38931Q277.115984,362.95776,276.907827,362.5155Q276.699673,362.07324,276.513374,361.62135Q276.327076,361.16945999999996,276.163078,360.709Q275.999081,360.24855,275.857777,359.78064Q275.716475,359.31271000000004,275.598202,358.83844Q275.479931,358.36417,275.384972,357.8847Q275.290012,357.40521,275.218594,356.92166Q275.147175,356.43813,275.099468,355.95168Q275.051762,355.46521,275.027882,354.97699Q275.004,354.48878,275.004,354Q275.004002,353.50912,275.028086,353.01883Q275.052172,352.52855,275.100285,352.04004Q275.148399,351.55153,275.220425,351.06597999999997Q275.292454,350.58041000000003,275.388218,350.09897Q275.483982,349.61752,275.603256,349.14137Q275.722528,348.66519,275.865021,348.19547Q276.007515,347.72572,276.172886,347.26353Q276.338257,346.80136,276.526106,346.34785Q276.713955,345.89435000000003,276.923832,345.45061Q277.133707,345.00687,277.36510499999997,344.57394Q277.5965,344.14102,277.848862,343.72Q278.101221,343.29895,278.373936,342.89081Q278.64665,342.48267,278.939064,342.08839Q279.231477,341.69412,279.542884,341.31467Q279.854292,340.93521,280.183943,340.5715Q280.513594,340.20779,280.860694,339.86069Q281.207794,339.51358,281.571508,339.18393000000003Q281.935222,338.85428,282.314672,338.54287999999997Q282.694123,338.23145999999997,283.088398,337.93904Q283.482672,337.64664,283.890819,337.37392Q284.298965,337.1012,284.720002,336.84883Q285.1410389,336.59648000000004,285.5739517,336.3651Q286.0068645,336.1337,286.4506092,335.92381Q286.8943548,335.71393,287.3478632,335.52609Q287.8013716,335.33824000000004,288.2635517,335.17287Q288.7257309,335.00751,289.1954679,334.86501999999996Q289.6652055,334.72253,290.1413689,334.60324Q290.6175323,334.48398,291.0989745,334.38820999999996Q291.5804167,334.29245000000003,292.0659776,334.22042999999996Q292.5515389,334.14841,293.0400493,334.1003Q293.5285599,334.05217,294.01884282,334.02808Q294.50912577,334.004,295,334.004Q295.066652447,334.004,295.13330342,334.00444L295.13333008,334.00044L452.33333,335.04845L452.33333,186L452.33733,186Z" fill-rule="evenodd" fill="#000000" fill-opacity="1"/></g></g></svg>