<svg xmlns="http://www.w3.org/2000/svg" xmlns:xlink="http://www.w3.org/1999/xlink" fill="none" version="1.1" width="991" height="817" viewBox="0 0 991 817"><g><g><path d="M690.45056,475.19337525878905C672.2211,450.11338525878904,579.33224,460.56333525878904,565.1666299999999,432.00001525878906C537.06778,375.3378152587891,548.56277,385.55558525878905,566.7922100000001,371.85444525878904C585.02161,358.15333525878907,583.16385,324.016645258789,593.7299499999999,311.7088952587891C604.2960800000001,299.4011252587891,609.2888800000001,263.2905752587891,605.34109,249.82167525878907C599.9999399999999,231.94056525878906,591.87222,241.69389525878904,590.59494,228.10890525878906C587.9244100000001,198.96501125878905,595.23941,175.04612325878907,578.98386,160.88056525878906C562.7282700000001,146.71500925878905,543.22165,118.50001525878906,510.94277999999997,118.50001525878906C497.24742000000003,118.83932867878906,483.89432,122.84927035878906,472.27777000000003,130.11112625878906C402.61111,122.68001465878906,402.61111,198.96501125878905,400.405,228.10890525878906C399.12775999999997,241.69389525878904,390.99999,231.94056525878906,385.658882,249.82167525878907C381.711105,263.2905752587891,386.58777,299.16889525878906,397.27,311.7088952587891C407.95223,324.24891525878905,407.02334,358.73390525878904,424.20778,371.85444525878904C441.3922,384.9749952587891,453.93221,375.3378152587891,425.83331,432.00001525878906C411.66778,460.56333525878904,318.778889,450.11338525878904,300.549443,475.19337525878905C286.5,494.23551525878906,286.5,536.4999852587891,286.5,536.4999852587891L704.4999700000001,536.4999852587891C704.4999700000001,536.4999852587891,704.4999700000001,494.23551525878906,690.45056,475.19337525878905Z" fill="#000000" fill-opacity="1" style="mix-blend-mode:passthrough"/></g><g><path d="M849.33347,577.123505L624.562042,577.123505C605.374451,577.123505,589.819831,589.699913,589.819831,609.065254C589.819831,628.43056,605.37446,641.00647,624.562054,641.00647L934.9325,641.00647C944.2019700000001,641.00647,952.59314,637.21489,958.66769,631.08413C964.7421899999999,624.95336,968.4998800000001,619.60595,968.49982,610.250725C968.4650300000001,601.029457,964.70694,595.3432310000001,958.0936300000001,588.980591L890.95767,521.224264C877.6930199999999,506.9252462,855.21234,506.9252462,841.9479699999999,521.224264C835.41791,527.505287,831.6681100000001,536.174364,831.54263,545.277672C831.39207,554.733929,835.16422,563.823589,841.9479699999999,570.348019L849.33347,577.123505ZM932.91876,685.19496L624.897415,685.19496C610.340963,683.95267,596.6599026,689.23224,591.063077,702.85097C585.4662507,716.46974,589.23893583,729.05571,600.393295,738.57625L667.52774,806.3326099999999C673.96965,812.96793,682.82859,816.642,692.03185,816.49585C701.23512,816.642,710.09404,812.96793,716.5359599999999,806.3326099999999C723.1492499999999,799.96991,726.90639,791.16196,726.94125,781.9407C727.09189,772.4845,723.3197299999999,763.3947900000001,716.5359599999999,756.87036L710.15804,746.70712L934.9325,746.70712C953.47147,746.70712,968.4999700000001,734.66148,968.49982,715.951C968.5348200000001,696.41707,952.23883,684.02286,932.91876,685.19496Z" fill="#000000" fill-opacity="1" style="mix-blend-mode:passthrough"/></g><g><path d="M944,157.00001525878906L944,441.50001525878906L944.0047,441.50001525878906Q944.00464,442.07679525878905,944.03296,442.65284525878906Q944.06128,443.2289552587891,944.1178,443.80293525878903Q944.17432,444.37690525878907,944.25891,444.94746525878907Q944.34357,445.51798525878905,944.45605,446.0836952587891Q944.5686,446.6493652587891,944.70874,447.20884525878904Q944.84888,447.76838525878907,945.01636,448.32032525878907Q945.18378,448.87226525878907,945.37811,449.41532525878904Q945.57239,449.9583552587891,945.79309,450.4912252587891Q946.01379,451.0240952587891,946.2605,451.5454852587891Q946.50708,452.06690525878906,946.77893,452.57557525878906Q947.05078,453.08424525878905,947.34723,453.5789652587891Q947.6438,454.07368525878906,947.96423,454.5532352587891Q948.28467,455.0328552587891,948.6283,455.4961352587891Q948.97192,455.9593952587891,949.33783,456.40525525878905Q949.70374,456.85108525878906,950.091,457.2784852587891Q950.47839,457.70582525878905,950.88623,458.11369525878905Q951.29407,458.52152525878904,951.7215,458.90885525878906Q952.14886,459.29621525878906,952.59473,459.66212525878905Q953.04053,460.0279952587891,953.50378,460.37159525878906Q953.96704,460.71516525878906,954.44659,461.03559525878904Q954.92615,461.35603525878906,955.4209,461.65257525878906Q955.91565,461.94911525878905,956.42432,462.22102525878904Q956.93298,462.49290525878905,957.45435,462.7395152587891Q957.97571,462.9860952587891,958.50861,463.20683525878906Q959.0415,463.42756525878906,959.58453,463.6218752587891Q960.12762,463.8161752587891,960.67957,463.98362525878906Q961.23151,464.15104525878905,961.79102,464.29121525878907Q962.35046,464.43135525878904,962.9162,464.5438652587891Q963.48193,464.65638525878904,964.05243,464.7410452587891Q964.62299,464.82566525878906,965.19702,464.8822152587891Q965.771,464.93873525878905,966.34711,464.9670252587891Q966.92322,464.99531525878905,967.5,464.99531525878905Q968.07678,464.99531525878905,968.65289,464.96699525878904Q969.229,464.93870525878907,969.80298,464.88218525878904Q970.37695,464.8256352587891,970.94745,464.74101525878905Q971.51794,464.65638525878904,972.08362,464.54383525878904Q972.64929,464.4313152587891,973.2088,464.2911852587891Q973.76831,464.1510152587891,974.32031,463.9835952587891Q974.87219,463.8161752587891,975.41522,463.62184525878905Q975.95825,463.42750525878904,976.49115,463.2068052587891Q977.02405,462.98606525878904,977.54547,462.73945525878906Q978.06689,462.49287525878907,978.57556,462.22099525878906Q979.08423,461.94911525878905,979.57892,461.65260525878904Q980.07361,461.35603525878906,980.55322,461.03559525878904Q981.03284,460.71516525878906,981.49609,460.3715652587891Q981.95935,460.0279952587891,982.40527,459.66212525878905Q982.85107,459.29621525878906,983.27844,458.90885525878906Q983.70581,458.52152525878904,984.11365,458.11369525878905Q984.52148,457.70582525878905,984.90887,457.2784852587891Q985.29614,456.85111525878904,985.66211,456.40528525878904Q986.02795,455.95942525878905,986.37152,455.49610525878904Q986.71509,455.0328552587891,987.03552,454.55329525878903Q987.35596,454.07371525878904,987.65259,453.57899525878906Q987.9491,453.08427525878903,988.22101,452.57560525878904Q988.49292,452.06690525878906,988.7395,451.54551525878907Q988.98608,451.0240952587891,989.20679,450.4912252587891Q989.42749,449.9583552587891,989.62183,449.41529525878906Q989.81616,448.87226525878907,989.98364,448.3202952587891Q990.15106,447.7683552587891,990.29114,447.20884525878904Q990.43134,446.6493652587891,990.54382,446.08366525878904Q990.65637,445.5179552587891,990.74097,444.9474352587891Q990.82562,444.37690525878907,990.8822,443.80293525878903Q990.93872,443.2289552587891,990.96704,442.65284525878906Q990.9953,442.07679525878905,990.9953,441.50001525878906L991,441.50001525878906L991,157.00001525878906Q991,125.07402525878906,978.65253,95.88130925878906Q966.73383,67.70232425878906,945.01575,45.98424925878906Q923.29773,24.266208648789064,895.11871,12.347500258789063Q865.92596,0.000004258789061850621,834,2.587890612915089e-7L156.99998,0.0000152587890625Q125.07404,0.0000152587890625,95.881294,12.347501258789062Q67.70224,24.266238208789062,45.984232,45.98424925878906Q24.26621437,67.70227025878907,12.347485,95.88131725878907Q0.000004000000000559112,125.07403525878907,0,157.00001525878906L0,620.0000152587891Q0,651.112195258789,12.033146,679.561725258789Q23.64826107,707.0229652587891,44.812658,728.1873352587891Q65.977097,749.3517652587891,93.438286,760.9668752587891Q121.887833,773.0000152587891,153,773.0000152587891L526.6007999999999,773.0000152587891L526.6007999999999,772.9953152587891Q527.17755,772.995255258789,527.7536600000001,772.9669952587891Q528.32974,772.9386752587891,528.90375,772.8821552587891Q529.47772,772.825635258789,530.04825,772.740985258789Q530.61877,772.6563852587891,531.18445,772.543835258789Q531.75018,772.4312852587891,532.30966,772.291095258789Q532.8692,772.150955258789,533.4211399999999,771.9835352587891Q533.97308,771.8161152587891,534.51611,771.621785258789Q535.05917,771.4275052587891,535.59204,771.206745258789Q536.12488,770.985975258789,536.6463,770.739395258789Q537.16772,770.492815258789,537.67639,770.2209652587891Q538.18506,769.949055258789,538.67975,769.652545258789Q539.17444,769.355975258789,539.65399,769.0355352587891Q540.13354,768.7151052587891,540.59686,768.3715352587891Q541.06018,768.0279652587891,541.50604,767.662125258789Q541.9519,767.2961552587891,542.37921,766.9088252587891Q542.80658,766.5214952587891,543.21442,766.1136652587891Q543.62225,765.7058252587891,544.00958,765.2784552587891Q544.39697,764.8510852587891,544.76288,764.4052252587891Q545.12878,763.959365258789,545.47229,763.4960452587891Q545.81592,763.0327952587891,546.13635,762.5532352587891Q546.45679,762.0736252587891,546.75336,761.5789352587891Q547.04993,761.0842452587891,547.32178,760.5755752587891Q547.59363,760.066905258789,547.84021,759.5454852587891Q548.08679,759.024065258789,548.3075,758.4912252587891Q548.5282,757.958385258789,548.7226,757.4152952587891Q548.91687,756.8722052587891,549.08435,756.320325258789Q549.25177,755.7683252587891,549.39191,755.2088152587891Q549.53204,754.649305258789,549.64453,754.0836352587891Q549.75708,753.517955258789,549.84167,752.9474652587891Q549.92639,752.376965258789,549.98291,751.8029952587891Q550.03943,751.2290152587891,550.06775,750.652905258789Q550.09607,750.076795258789,550.09607,749.5000152587891Q550.09607,748.9232352587891,550.06775,748.3471852587891Q550.03943,747.7711352587891,549.98291,747.1970952587891Q549.92639,746.6230652587891,549.84174,746.0525652587891Q549.75708,745.4820052587891,549.64453,744.916275258789Q549.53204,744.3506052587891,549.39191,743.791095258789Q549.25177,743.2315852587891,549.08435,742.6797052587891Q548.91687,742.1277052587891,548.7226,741.5846052587891Q548.5282,741.0415152587891,548.3075,740.5086852587891Q548.08679,739.975845258789,547.84021,739.454365258789Q547.59363,738.9329952587891,547.32178,738.424335258789Q547.04993,737.9156652587891,546.75336,737.420915258789Q546.45679,736.926225258789,546.13635,736.446675258789Q545.81592,735.9670552587891,545.47235,735.5037952587891Q545.12878,735.040545258789,544.76288,734.5947452587891Q544.39697,734.1488752587891,544.00958,733.721515258789Q543.62225,733.2941452587891,543.21442,732.8863052587891Q542.80658,732.4785352587891,542.37921,732.0911452587891Q541.9519,731.703875258789,541.50604,731.3379052587891Q541.06018,730.972065258789,540.59686,730.6284352587891Q540.13354,730.2848052587891,539.65399,729.9643752587891Q539.17444,729.643935258789,538.67969,729.347425258789Q538.185,729.050915258789,537.67633,728.7790052587891Q537.16766,728.507095258789,536.6463,728.2604552587891Q536.12488,728.013935258789,535.59198,727.793165258789Q535.0591099999999,727.5724652587891,534.51608,727.378185258789Q533.97302,727.1838552587891,533.4210800000001,727.0164952587891Q532.86914,726.8490152587891,532.30963,726.7088152587891Q531.7501199999999,726.5686752587891,531.18442,726.4561352587891Q530.61874,726.3435852587891,530.04822,726.258985258789Q529.4776899999999,726.174335258789,528.90369,726.117875258789Q528.32971,726.0612952587891,527.7536299999999,726.033035258789Q527.17755,726.004715258789,526.60077,726.004715258789L526.6007999999999,726.0000152587891L153,726.0000152587891Q131.41881,726.0000152587891,111.747231,717.679645258789Q92.728935,709.6355752587891,78.046677,694.953325258789Q63.364418,680.2710752587891,55.320353999999995,661.252765258789Q47,641.581255258789,47,620.0000152587891L47,157.00001525878906Q47.000004000000004,134.60496525878906,55.634693,114.19026225878906Q63.982361,94.45416225878907,79.218254,79.21826525878906Q94.454132,63.982380258789064,114.190239,55.634712258789065Q134.60496,47.00001525878906,156.99998,47.00001525878906L834,47.00000025878906Q856.39502,47.00000425878906,876.80975,55.63470825878906Q896.54584,63.98237225878906,911.78174,79.21826525878906Q927.01764,94.45416225878907,935.3653,114.19025425878907Q944,134.60499525878907,944,157.00001525878906Z" fill-rule="evenodd" fill="#000000" fill-opacity="1"/></g></g></svg>