<svg xmlns="http://www.w3.org/2000/svg" xmlns:xlink="http://www.w3.org/1999/xlink" fill="none" version="1.1" width="42" height="42.000003814697266" viewBox="0 0 42 42.000003814697266"><g><path d="M13.5,0C14.3284,0,15,0.671572,15,1.5C15,1.5,15,3,15,3C15,3,19.5,3,19.5,3C19.5,3,19.5,1.5,19.5,1.5C19.5,0.671572,20.1716,0,21,0C21.8284,0,22.5,0.671572,22.5,1.5C22.5,1.5,22.5,3,22.5,3C22.5,3,27,3,27,3C27,3,27,1.5,27,1.5C27,0.671572,27.6716,0,28.5,0C29.3284,0,30,0.671572,30,1.5C30,1.5,30,3,30,3C30,3,33,3,33,3C36.3138,3,39,5.6863,39,9C39,9,39,12,39,12C39,12,40.5,12,40.5,12C41.3284,12,42,12.6716,42,13.5C42,14.3284,41.3284,15,40.5,15C40.5,15,39,15,39,15C39,15,39,19.5,39,19.5C39,19.5,40.5,19.5,40.5,19.5C41.3284,19.5,42,20.1716,42,21C42,21.8284,41.3284,22.5,40.5,22.5C40.5,22.5,39,22.5,39,22.5C39,22.5,39,27,39,27C39,27,40.5,27,40.5,27C41.3284,27,42,27.6716,42,28.5C42,29.3284,41.3284,30,40.5,30C40.5,30,39,30,39,30C39,30,39,33,39,33C39,36.3138,36.3138,39,33,39C33,39,30,39,30,39C30,39,30,40.5,30,40.5C30,41.3284,29.3284,42,28.5,42C27.6716,42,27,41.3284,27,40.5C27,40.5,27,39,27,39C27,39,22.5,39,22.5,39C22.5,39,22.5,40.5,22.5,40.5C22.5,41.3284,21.8284,42,21,42C20.1716,42,19.5,41.3284,19.5,40.5C19.5,40.5,19.5,39,19.5,39C19.5,39,15,39,15,39C15,39,15,40.5,15,40.5C15,41.3284,14.3284,42,13.5,42C12.6716,42,12,41.3284,12,40.5C12,40.5,12,39,12,39C12,39,9,39,9,39C5.6863,39,3,36.3138,3,33C3,33,3,30,3,30C3,30,1.5,30,1.5,30C0.671572,30,0,29.3284,0,28.5C0,27.6716,0.671572,27,1.5,27C1.5,27,3,27,3,27C3,27,3,22.5,3,22.5C3,22.5,1.5,22.5,1.5,22.5C0.671572,22.5,0,21.8284,0,21C0,20.1716,0.671572,19.5,1.5,19.5C1.5,19.5,3,19.5,3,19.5C3,19.5,3,15,3,15C3,15,1.5,15,1.5,15C0.671572,15,0,14.3284,0,13.5C0,12.6716,0.671572,12,1.5,12C1.5,12,3,12,3,12C3,12,3,9,3,9C3,5.6863,5.6863,3,9,3C9,3,12,3,12,3C12,3,12,1.5,12,1.5C12,0.671572,12.6716,0,13.5,0C13.5,0,13.5,0,13.5,0ZM9,6C7.34314,6,6,7.34314,6,9C6,9,6,33,6,33C6,34.6568,7.34314,36,9,36C9,36,33,36,33,36C34.6568,36,36,34.6568,36,33C36,33,36,9,36,9C36,7.34314,34.6568,6,33,6C33,6,9,6,9,6C9,6,9,6,9,6ZM9,12C9,10.3431,10.3431,9,12,9C12,9,30,9,30,9C31.6568,9,33,10.3431,33,12C33,12,33,30,33,30C33,31.6568,31.6568,33,30,33C30,33,12,33,12,33C10.3431,33,9,31.6568,9,30C9,30,9,12,9,12C9,12,9,12,9,12ZM30,12C30,12,12,12,12,12C12,12,12,30,12,30C12,30,30,30,30,30C30,30,30,12,30,12C30,12,30,12,30,12Z" fill-rule="evenodd" fill="#373737" fill-opacity="1"/></g></svg>