<svg xmlns="http://www.w3.org/2000/svg" xmlns:xlink="http://www.w3.org/1999/xlink" fill="none" version="1.1" width="42" height="42" viewBox="0 0 42 42"><defs><clipPath id="master_svg0_1096_26613"><rect x="-0.5" y="-0.5" width="43" height="43" rx="0"/></clipPath></defs><g clip-path="url(#master_svg0_1096_26613)"><rect x="0" y="0" width="42" height="42" rx="0" fill="#FFFFFF" fill-opacity="0"/><path d="M20.79155870625,14.188298221679688C21.82757210625,14.188298221679688,22.51971080625,13.494478721679688,22.51971080625,12.461253621679688C22.51971080625,11.416298861679687,21.82867910625,10.740402221679688,20.79155870625,10.740402221679688C19.75390390625,10.740402221679688,18.71337890625,11.416340231679687,18.71337890625,12.461253621679688C18.71452796445,13.495011821679688,19.75554480625,14.188298221679688,20.79155870625,14.188298221679688Z" fill="#000000" fill-opacity="1" style="mix-blend-mode:passthrough"/><path d="M11.1251759875,10.740402221679688C10.0891621875,10.740402221679688,9.0419921875,11.416340231679687,9.0419921875,12.461253621679688C9.0419921875,13.494437221679688,10.0892030875,14.188298221679688,11.1251759875,14.188298221679688C12.1572522875,14.188298221679688,12.8483240875,13.494477321679687,12.8483240875,12.461253621679688C12.8477499875,11.416298861679687,12.1578676875,10.740402221679688,11.1251759875,10.740402221679688Z" fill="#000000" fill-opacity="1" style="mix-blend-mode:passthrough"/><path d="M41.45186259375,25.2448119453125C41.45186259375,19.7814449453125,36.38384659375,15.1261709453125,30.16284159375,14.6417769453125C30.17125359375,14.5740189453125,30.17518759375,14.5034319453125,30.16005359375,14.4329259453125C28.91293159375,8.6173205453125,22.65887259375,4.2325439453125,15.61181359375,4.2325439453125C7.64863009375,4.2325439453125,1.16943359375,9.785525845312499,1.16943359375,16.6107719453125C1.16943359375,20.2726059453125,3.03867969375,23.5721509453125,6.58128069375,26.1738929453125L5.34646419375,29.8861349453125C5.26693539375,30.1275139453125,5.33920479375,30.3935009453125,5.53128049375,30.5609279453125C5.64829829375,30.6617409453125,5.79562659375,30.7143669453125,5.94455389375,30.7143669453125C6.04032609375,30.7143669453125,6.13720509375,30.6919709453125,6.22620869375,30.6477169453125L10.86245059375,28.3276649453125L11.43363359375,28.4436189453125C12.86105959375,28.7370449453125,14.09362059375,28.9913039453125,15.61181359375,28.9913039453125C16.058677593749998,28.9913039453125,17.28845059375,28.8277719453125,17.39205559375,28.6967259453125C19.06364459375,32.8799129453125,23.67129859375,35.8994829453125,29.09270459375,35.8994829453125C30.48149459375,35.8994829453125,31.88710059375,35.5646289453125,33.14878259375,35.248727945312496L36.72271759375,37.2025489453125C36.81733659375,37.2541049453125,36.92151659375,37.2809259453125,37.02455159375,37.2809259453125C37.16568359375,37.2809259453125,37.30678559375,37.2333109453125,37.41989859375,37.1409379453125C37.61870159375,36.9796679453125,37.70048859375,36.7142179453125,37.62653759375,36.4711569453125L36.71373359375,33.4359589453125C39.77358259375,31.0178829453125,41.45190059375,28.1249289453125,41.45186259375,25.2448119453125L41.45186259375,25.2448119453125ZM16.807377593749997,27.3061729453125C16.41255959375,27.3403399453125,16.012166593750003,27.3571549453125,15.61456159375,27.3571549453125C14.27392459375,27.3571549453125,13.13992559375,27.1253339453125,11.82840959375,26.8543029453125L11.06625649375,26.7002869453125C10.93521119375,26.6722759453125,10.79690839375,26.6902409453125,10.67648599375,26.7523379453125L7.32604309375,28.4295449453125L8.19684599375,25.8137739453125C8.28199479375,25.5578379453125,8.188437493750001,25.2783969453125,7.96838949375,25.1238479453125C4.60223679375,22.7774699453125,2.89643809375,19.919212945312502,2.89643809375,16.6297999453125C2.89643809375,10.7162075453125,8.60117819375,5.9035577453125,15.61402859375,5.9035577453125C21.81320959375,5.9035577453125,27.30179559375,9.6751499453125,28.43464859375,14.6916059453125C21.93469959375,14.7767549453125,16.67522559375,19.346347945312502,16.67522559375,24.9586369453125C16.67522559375,25.7745609453125,16.799011593750002,26.5652619453125,17.007862593749998,27.3279879453125C16.94461659375,27.3123169453125,16.877924593750002,27.2999709453125,16.807377593749997,27.3061729453125L16.807377593749997,27.3061729453125ZM35.28790259375,32.3490009453125C35.08795159375,32.499652945312505,35.00346359375,32.759446945312504,35.07511859375,32.9991799453125L35.64130059375,34.8819219453125L33.31789059375,33.6107249453125C33.22941959375,33.5619979453125,33.12971259375,33.5367779453125,33.03061659375,33.5367779453125C32.98188959375,33.5367779453125,32.932628593749996,33.5429269453125,32.88443159375,33.5558069453125C31.63841859375,33.8705619453125,30.34876059375,34.1953619453125,29.09323659375,34.1953619453125C23.26138859375,34.1953619453125,18.51707259375,30.1874409453125,18.51707259375,25.2617089453125C18.51707259375,20.3359389453125,23.26085659375,16.3296969453125,29.09323659375,16.3296969453125C34.81364459375,16.3296969453125,39.64757959375,20.4199369453125,39.64757959375,25.2617089453125C39.64757959375,27.7173159453125,38.09973159375,30.2350619453125,35.28799059375,32.3490869453125L35.28790259375,32.3490009453125Z" fill="#000000" fill-opacity="1" style="mix-blend-mode:passthrough"/><path d="M37.28959659375,33.614656945312504L38.10488559375,36.3256149453125Q38.32536359375,37.0502509453125,37.73616359375,37.5282059453125Q37.42670459375,37.7809259453125,37.02455159375,37.7809259453125Q36.73918559375,37.7809259453125,36.48287559375,37.6412739453125L33.079906593749996,35.7809139453125Q30.55658759375,36.3994829453125,29.09270459375,36.3994829453125Q24.93531059375,36.3994829453125,21.57064859375,34.290454945312504Q18.49583959375,32.3631119453125,17.127955593750002,29.3516289453125Q16.57261859375,29.4913059453125,15.61181459375,29.4913059453125Q14.04707559375,29.4913059453125,11.34509859375,28.9358729453125L11.33415959375,28.9336239453125L10.93198199375,28.8519799453125L6.44882439375,31.0954249453125Q6.20961669375,31.2143669453125,5.94455429375,31.2143669453125Q5.52370549375,31.2143669453125,5.20273919375,30.9378399453125Q4.63621569375,30.4440159453125,4.87202309375,29.7283209453125L5.99304629375,26.3581789453125Q0.66943353375,22.2984519453125,0.66943228375,16.610772945312497Q0.66943264375,11.2618894453125,5.07904979375,7.4825484453125Q9.45443819375,3.7325439453125,15.61181459375,3.7325439453125Q21.05498159375,3.7325435853125,25.34795359375,6.7424848453125Q29.60245359375,9.7254486453125,30.61642659375,14.1809692453125Q35.20967859375,14.6587109453125,38.48128859375,17.7105599453125Q41.95186659375,20.9480109453125,41.95186659375,25.2448059453125Q41.95192359375,29.8054889453125,37.28959659375,33.614656945312504ZM40.95186659375,25.2448199453125Q40.95191559375,29.4494129453125,36.40372459375,33.043668945312504L36.13702359375,33.2544309453125L37.14818959375,36.6166989453125Q37.17279459375,36.6975669453125,37.10363759375,36.7536699453125Q37.07026259375,36.7809259453125,37.02455159375,36.7809259453125Q36.99393859375,36.7809259453125,36.96256259375,36.7638319453125L33.21704059375,34.716205945312495L33.027341593749995,34.7637009453125Q30.48806759375,35.3994829453125,29.09270459375,35.3994829453125Q25.22281459375,35.3994829453125,22.10175359375,33.4431499453125Q19.06703559375,31.5409369453125,17.85635959375,28.5111919453125L17.65329759375,28.0030249453125L17.71531859375,28.0183929453125L17.49011259375,27.1959379453125Q17.17522659375,26.0459809453125,17.17522959375,24.9586369453125Q17.17522859375,20.9807279453125,20.44602159375,18.1293349453125Q23.74533659375,15.2530789453125,28.44119859375,15.1915629453125L29.05831859375,15.1834789453125L28.92236859375,14.5814669453125Q28.02909859375,10.6259231453125,24.20705059375,8.0040965453125Q20.41603459375,5.4035577453125,15.61402859375,5.4035581453125Q10.17191889375,5.4035577453125,6.30303909375,8.666885345312501Q2.39643809375,11.9620304453125,2.3964373937500003,16.6297969453125Q2.3964373937500003,21.8493999453125,7.68101599375,25.5330139453125Q7.74772169375,25.5798649453125,7.72244359375,25.6558439453125L6.47031499375,29.4170669453125L10.90564629375,27.1967349453125Q10.93235679375,27.1829609453125,10.96721749375,27.1903799453125L11.72722059375,27.3439599453125Q14.21059059375,27.8571549453125,15.61456159375,27.8571549453125Q16.23984859375,27.8571549453125,16.85117159375,27.8042509453125L16.88761559375,27.8133139453125L17.36047559375,27.9304729453125L16.99983259375,28.3866309453125Q16.91707559375,28.4913059453125,15.61181459375,28.4913059453125Q14.14879159375,28.4913059453125,11.54645359375,27.9563559453125L11.53310859375,27.9536129453125L10.79291819375,27.8033509453125L6.00359349375,30.2000079453125Q5.97471619375,30.2143669453125,5.94455429375,30.2143669453125Q5.89506009375,30.2143669453125,5.85982229375,30.1840189453125Q5.79373689375,30.1264149453125,5.82090569375,30.0439489453125L7.17060229375,25.9863469453125L6.87724639375,25.7709009453125Q1.66943359375,21.9461979453125,1.66943234375,16.610772945312497Q1.66943329375,11.7218503453125,5.72980879375,8.2418336453125Q9.82433889375,4.7325439453125,15.61181459375,4.7325439453125Q20.73933759375,4.7325429953125,24.77386859375,7.5612809453125Q28.77698559375,10.3679952453125,29.67119259375,14.5378619453125Q29.67164459375,14.5399689453125,29.66665259375,14.5801719453125L29.60215759375,15.0996339453125L30.12402759375,15.1402679453125Q34.63656659375,15.4916329453125,37.79917159375,18.4417989453125Q40.95186659375,21.3827229453125,40.95186659375,25.2448199453125ZM16.37482759375,26.8358689453125Q15.99797759375,26.8571549453125,15.61456159375,26.8571549453125Q14.31284359375,26.8571549453125,11.92959759375,26.3646509453125L11.16529559375,26.2101959453125Q10.79177279375,26.1303229453125,10.44732569375,26.3079449453125L8.18176789375,27.4420399453125L8.67124889375,25.9717059453125Q8.93154809375,25.1893139453125,8.255763493749999,24.7146839453125Q3.39643769375,21.3274839453125,3.39643739375,16.6297969453125Q3.39643809375,12.4267768453125,6.94779019375,9.4312782453125Q10.53734399375,6.4035575453125,15.61402859375,6.4035582453124995Q20.10601259375,6.4035577453125,23.64137659375,8.828725345312499Q26.84742159375,11.0279898453125,27.79312659375,14.2122716453125Q23.13867559375,14.4553019453125,19.78889459375,17.3755529453125Q16.17522759375,20.5258519453125,16.17522959375,24.9586369453125Q16.17522759375,25.8807759453125,16.37482759375,26.8358689453125ZM39.14757959375,25.2617089453125Q39.14757959375,28.8216759453125,34.98751859375,31.9494439453125L35.29952959375,32.364434945312496L34.98702259375,31.9496649453125Q34.37695659375,32.4093169453125,34.59630159375,33.1431729453125L34.81121059375,33.8578149453125L33.55910859375,33.1727599453125Q33.31221359375,33.0367789453125,33.03061659375,33.0367789453125Q32.88998459375,33.0367789453125,32.76197459375,33.071034945312505Q30.29046259375,33.6953639453125,29.09323659375,33.6953639453125Q24.90235159375,33.6953639453125,21.94086459375,31.1937239453125Q19.01707259375,28.7239289453125,19.01707259375,25.2617089453125Q19.01707259375,21.7995829453125,21.94062459375,19.3305379453125Q24.90182259375,16.8296969453125,29.09323659375,16.8296969453125Q33.20050859375,16.8296969453125,36.19256959375,19.3617149453125Q39.14757959375,21.8623769453125,39.14757959375,25.2617089453125ZM35.58839459375,32.7486359453125L35.58846259375,32.748729945312505Q40.14757959375,29.3209339453125,40.14757959375,25.2617089453125Q40.14757959375,21.3986129453125,36.83855059375,18.5983639453125Q33.56684159375,15.8296969453125,29.09323659375,15.8296969453125Q24.53604859375,15.8296969453125,21.29540059375,18.5665429453125Q18.01707259375,21.3352109453125,18.01707259375,25.2617089453125Q18.01707259375,29.1882319453125,21.29555859375,31.9576489453125Q24.53651859375,34.6953639453125,29.09323659375,34.6953639453125Q30.41481359375,34.6953639453125,33.00689359375,34.040578945312504Q33.02129759375,34.0367789453125,33.03061659375,34.0367789453125Q33.055045593749995,34.0367789453125,33.07667559375,34.0486909453125L36.47139359375,35.906032945312504L35.55393959375,32.8551899453125Q35.53434759375,32.789647945312495,35.58839459375,32.7486359453125Z" fill-rule="evenodd" fill="#000000" fill-opacity="1"/><path d="M25.28391746875,20.75421142578125C24.59288513875,20.75421142578125,23.90185546875,21.45028674578125,23.90185546875,22.14021252578125C23.90185546875,22.835182425781248,24.59288763875,23.52116772578125,25.28391746875,23.52116772578125C26.32214526875,23.52116772578125,27.00813336875,22.835182425781248,27.00813336875,22.14021252578125C27.00813336875,21.44918024578125,26.32214786875,20.75421267747875,25.28391746875,20.75421142578125Z" fill="#000000" fill-opacity="1" style="mix-blend-mode:passthrough"/><path d="M32.87640783125,20.75421142578125C32.19542420125,20.75421142578125,31.50439453125,21.45028674578125,31.50439453125,22.14021252578125C31.50439453125,22.835182425781248,32.19542670125,23.52116772578125,32.87640783125,23.52116772578125C33.91127393125,23.52116772578125,34.60960583125,22.835182425781248,34.60960583125,22.14021252578125C34.60960583125,21.44918024578125,33.91242293125,20.75421267747875,32.87640783125,20.75421142578125Z" fill="#000000" fill-opacity="1" style="mix-blend-mode:passthrough"/></g></svg>