<?xml version="1.0" standalone="no"?><!DOCTYPE svg PUBLIC "-//W3C//DTD SVG 1.1//EN" "http://www.w3.org/Graphics/SVG/1.1/DTD/svg11.dtd"><svg t="1763022347089" class="icon" viewBox="0 0 1024 1024" version="1.1" xmlns="http://www.w3.org/2000/svg" p-id="21315" width="200" height="200"><path d="M513.536 20.48C399.872 20.48 307.712 112.64 307.712 226.304V476.16c0 113.664 92.16 205.824 205.824 205.824 113.664 0 205.824-92.16 205.824-205.824V226.304c0-113.664-92.16-205.824-205.824-205.824z m124.416 452.608c0 68.608-55.296 123.904-123.904 123.904-68.608 0-123.904-55.296-123.904-123.904V229.888c0-68.608 55.296-123.904 123.904-123.904 68.608 0 123.904 55.296 123.904 123.904v243.2z" fill="#ffffff" stroke="none" p-id="21316"></path><path d="M883.712 470.528c-3.072-19.968-19.968-35.328-40.96-35.328s-37.888 15.36-40.96 35.328c0 0-0.512 7.168-0.512 7.68-4.096 157.184-131.072 283.136-287.744 283.136s-283.648-125.952-287.744-283.136c0-0.512-0.512-7.168-0.512-7.68-3.072-19.968-19.968-35.328-40.96-35.328s-37.888 15.36-40.96 35.328c0 0-0.512 9.728 0 11.264 5.632 185.344 147.456 336.384 328.704 356.352v84.992H326.144c-23.04 0-41.472 18.432-41.472 40.96s18.432 40.96 41.472 40.96h374.272c23.04 0 41.472-18.432 41.472-40.96s-18.432-40.96-41.472-40.96h-145.408v-84.992c181.248-19.968 323.072-171.008 328.704-356.352v-11.264z" fill="#ffffff" stroke="none" p-id="21317"></path></svg>