<?xml version="1.0" standalone="no"?><!DOCTYPE svg PUBLIC "-//W3C//DTD SVG 1.1//EN" "http://www.w3.org/Graphics/SVG/1.1/DTD/svg11.dtd"><svg t="1763024651667" class="icon" viewBox="0 0 1024 1024" version="1.1" xmlns="http://www.w3.org/2000/svg" p-id="41416" width="200" height="200"><path d="M831.488 184.32l124.416 71.68v176.64l-211.456 122.368-0.512-171.52L612.352 307.2l219.136-122.88zM737.28 130.048l-217.088 124.416-224.256-129.536L512 0l225.28 130.048zM284.16 892.416L68.608 768v-233.984l216.064 123.904-0.512 234.496zM373.76 944.128v-235.008l140.288 80.384 139.264-80.384-1.024 233.984L512 1024l-138.24-79.872zM431.104 305.152L285.184 388.608l-0.512 164.352-216.064-125.952V256l138.752-79.872 223.744 129.024z m90.624 52.224l133.12 76.8-1.024 172.032-139.776 80.896-140.288-81.92V439.808l147.968-82.432z m433.664 177.152V768l-210.432 121.344-0.512-232.96 210.944-121.856z" fill="#ffffff" stroke="none" p-id="41417"></path></svg>