<?xml version="1.0" standalone="no"?><!DOCTYPE svg PUBLIC "-//W3C//DTD SVG 1.1//EN" "http://www.w3.org/Graphics/SVG/1.1/DTD/svg11.dtd"><svg t="1763638116942" class="icon" viewBox="0 0 1024 1024" version="1.1" xmlns="http://www.w3.org/2000/svg" p-id="57326" width="200" height="200"><path d="M0 0h1024v1024h-1024z" fill="#FFFFFF" opacity=".01" p-id="57327"></path><path d="M291.372365 98.323185c-90.579635 0-164.271663 73.692028-164.271662 164.271663v498.810304c0 90.579635 73.692028 164.271663 164.271662 164.271663h442.454333c90.579635 0 164.271663-73.692028 164.271663-164.271663v-498.810304c0-90.579635-73.692028-164.271663-164.271663-164.271663h-442.454333m0-57.555035h442.454333c122.511888 0 221.826698 99.31481 221.826698 221.826698v498.810304c0 122.511888-99.31481 221.826698-221.826698 221.826698h-442.454333c-122.511888 0-221.826698-99.31481-221.826698-221.826698v-498.810304c0-122.511888 99.31481-221.826698 221.826698-221.826698z" fill="#333333" p-id="57328"></path><path d="M393.29274 726.632319m37.17096 0l165.470726 0q37.17096 0 37.17096 37.17096l0 0q0 37.17096-37.17096 37.17096l-165.470726 0q-37.17096 0-37.17096-37.17096l0 0q0-37.17096 37.17096-37.17096Z" fill="#333333" p-id="57329"></path></svg>