<?xml version="1.0" standalone="no"?><!DOCTYPE svg PUBLIC "-//W3C//DTD SVG 1.1//EN" "http://www.w3.org/Graphics/SVG/1.1/DTD/svg11.dtd"><svg t="1763022492435" class="icon" viewBox="0 0 1024 1024" version="1.1" xmlns="http://www.w3.org/2000/svg" p-id="24150" width="200" height="200"><path d="M800 96h-576a128 128 0 0 0-128 128v576a128 128 0 0 0 128 128h576a128 128 0 0 0 128-128v-576a128 128 0 0 0-128-128z m-576 64h576a64 64 0 0 1 64 64v576a64 64 0 0 1-64 64h-576a64 64 0 0 1-64-64v-576a64 64 0 0 1 64-64z" fill="#ffffff" stroke="none" p-id="24151"></path><path d="M512 309.312a32 32 0 0 1 31.488 26.24l0.512 5.76v341.376a32 32 0 0 1-63.488 5.76l-0.512-5.76V341.312a32 32 0 0 1 32-32z" fill="#ffffff" stroke="none" p-id="24152"></path><path d="M682.688 480a32 32 0 0 1 5.76 63.488l-5.76 0.512H341.312a32 32 0 0 1-5.76-63.488l5.76-0.512h341.376z" fill="#ffffff" stroke="none" p-id="24153"></path></svg>