<?xml version="1.0" standalone="no"?><!DOCTYPE svg PUBLIC "-//W3C//DTD SVG 1.1//EN" "http://www.w3.org/Graphics/SVG/1.1/DTD/svg11.dtd"><svg t="1766058454492" class="icon" viewBox="0 0 1024 1024" version="1.1" xmlns="http://www.w3.org/2000/svg" p-id="1625" xmlns:xlink="http://www.w3.org/1999/xlink" width="200" height="200"><path d="M903.074909 563.316364l-351.441454-0.139637a37.003636 37.003636 0 0 0-35.886546 38.562909v336.896A37.422545 37.422545 0 0 0 551.424 977.454545h351.534545a36.770909 36.770909 0 0 0 35.467637-37.888V602.065455a37.748364 37.748364 0 0 0-35.397818-38.749091h0.046545zM875.054545 914.176h-296.02909V626.594909h295.889454V914.152727h0.139636zM487.610182 58.437818A37.073455 37.073455 0 0 0 461.684364 46.545455H110.429091c-20.247273 0.698182-36.072727 17.640727-35.421091 37.888v336.081454a36.770909 36.770909 0 0 0 34.606545 38.772364h352.116364a37.003636 37.003636 0 0 0 35.909818-38.562909V85.224727a37.888 37.888 0 0 0-10.007272-26.856727v0.069818zM434.152727 395.869091H138.286545V109.893818h295.796364V395.869091h0.069818z m341.038546-82.385455h56.32a3.211636 3.211636 0 0 0 2.56-1.140363 3.723636 3.723636 0 0 0 0.721454-2.676364 228.654545 228.654545 0 0 0-216.343272-190.370909 35.677091 35.677091 0 0 1-28.06691-34.071273 33.815273 33.815273 0 0 1 33.675637-34.001454 292.189091 292.189091 0 0 1 274.152727 259.397818c0.186182 1.582545 1.536 2.792727 3.141818 2.792727h63.930182l-95.069091 141.521455-95.022545-141.498182v0.046545zM389.981091 971.310545c-157.579636-7.656727-280.901818-138.565818-279.086546-296.331636a3.025455 3.025455 0 0 0-0.930909-2.327273 3.351273 3.351273 0 0 0-2.327272-0.954181H46.545455l95.138909-141.591273 95.092363 141.591273H176.104727a3.258182 3.258182 0 0 0-3.351272 3.258181 226.722909 226.722909 0 0 0 220.858181 228.189091 34.210909 34.210909 0 0 1-3.560727 68.165818h-0.069818z" fill="#2c2c2c" fill-opacity=".5" p-id="1626"></path></svg>
