<svg xmlns="http://www.w3.org/2000/svg" viewBox="0 0 1024 1024" width="200" height="200"><path d="M512 64C264.6 64 64 264.6 64 512s200.6 448 448 448 448-200.6 448-448S759.4 64 512 64z m0 832c-212.1 0-384-171.9-384-384s171.9-384 384-384 384 171.9 384 384-171.9 384-384 384z"/><path d="M512 320c-105.9 0-192 86.1-192 192s86.1 192 192 192 192-86.1 192-192-86.1-192-192-192z m0 320c-70.7 0-128-57.3-128-128s57.3-128 128-128 128 57.3 128 128-57.3 128-128 128z"/><path d="M480 192h64v96h-64zM480 736h64v96h-64zM192 480h96v64h-96zM736 480h96v64h-96z"/></svg>
