<svg xmlns="http://www.w3.org/2000/svg" xmlns:xlink="http://www.w3.org/1999/xlink" fill="none" version="1.1" width="842" height="842" viewBox="0 0 842 842"><defs><filter id="master_svg0_1956_34539" filterUnits="objectBoundingBox" color-interpolation-filters="sRGB" x="-0.03807106598984772" y="-0.03807106598984772" width="1.0913705583756346" height="1.0913705583756346"><feFlood flood-opacity="0" result="BackgroundImageFix"/><feColorMatrix in="SourceAlpha" type="matrix" values="0 0 0 0 0 0 0 0 0 0 0 0 0 0 0 0 0 0 127 0"/><feOffset dy="6" dx="6"/><feGaussianBlur stdDeviation="9"/><feColorMatrix type="matrix" values="0 0 0 0 0 0 0 0 0 0 0 0 0 0 0 0 0 0 0.10000000149011612 0"/><feBlend mode="normal" in2="BackgroundImageFix" result="effect1_dropShadow"/><feBlend mode="normal" in="SourceGraphic" in2="effect1_dropShadow" result="shape"/><feColorMatrix in="SourceAlpha" type="matrix" result="hardAlpha" values="0 0 0 0 0 0 0 0 0 0 0 0 0 0 0 0 0 0 127 0"/><feOffset dy="0" dx="0"/><feGaussianBlur stdDeviation="9"/><feComposite in2="hardAlpha" operator="arithmetic" k2="-1" k3="1"/><feColorMatrix type="matrix" values="0 0 0 0 0 0 0 0 0 0.05098039284348488 0 0 0 0 1 0 0 0 0.10000000149011612 0"/><feBlend mode="normal" in2="shape" result="effect2_innerShadow"/></filter></defs><g><g filter="url(#master_svg0_1956_34539)"><rect x="21" y="21" width="788" height="788" rx="160"  fill-opacity="1"/></g><g><path d="M193.53125,197.76562Q185.71875,197.76562,184.546875,197.375Q181.8125,196.59375,180.640625,195.42188Q179.078125,194.64062,178.6875,193.85938Q177.125,193.07812,175.953125,192.29688Q173.21875,191.125,173.21875,188.39062Q171.65625,185.26562,171.65625,176.671875L171.65625,174.328125Q166.578125,174.328125,164.625,171.984375Q163.84375,171.203125,163.84375,170.8125Q160.71875,170.03125,159.9375,168.859375Q158.765625,167.6875,159.546875,165.734375L164.234375,153.234375Q163.0625,152.453125,163.0625,151.28125L162.671875,150.5L160.71875,150.5Q158.375,150.5,158.375,148.15625L157.59375,145.8125Q157.203125,143.46875,157.59375,141.125L158.765625,139.5625Q155.25,137.21875,154.859375,136.828125Q154.078125,135.265625,154.46875,133.703125L164.625,112.609375Q165.015625,111.4375,166.96875,110.65625Q167.75,110.265625,168.921875,110.265625Q171.65625,110.265625,174,111.828125Q174.78125,112.21875,176.34375,113.78125L178.6875,114.953125Q181.03125,116.125,181.8125,118.46875L182.203125,120.03125L198.21875,122.375Q200.5625,122.375,200.5625,125.109375Q201.34375,124.328125,201.734375,124.328125Q204.078125,123.546875,206.8125,123.546875Q209.9375,123.546875,210.71875,124.328125Q211.109375,122.765625,213.0625,122.765625L232.59375,121.984375Q236.890625,121.984375,237.671875,125.109375Q242.75,125.109375,242.75,130.1875L243.53125,146.59375L243.53125,151.28125L243.140625,154.40625Q243.140625,155.96875,242.359375,156.75Q240.40625,158.703125,236.109375,158.703125Q234.15625,158.703125,233.375,158.3125Q232.984375,159.484375,231.03125,159.484375L224.390625,159.875L225.5625,160.65625L226.734375,161.828125Q227.125,161.828125,227.710938,162.023438Q228.296875,162.21875,229.078125,163L230.25,163.78125Q232.984375,166.515625,232.984375,168.859375L233.375,177.453125Q233.375,182.53125,232.984375,184.875Q231.8125,193.85938,231.03125,194.25Q229.859375,195.8125,224.390625,195.8125Q223.21875,195.8125,220.875,195.03125L219.3125,193.85938L219.3125,194.25Q218.53125,196.20312,216.96875,196.20312L206.8125,197.375Q202.515625,197.76562,193.53125,197.76562ZM188.84375,192.29688Q197.828125,192.29688,201.734375,191.90625L212.28125,190.73438Q212.671875,189.95312,212.671875,188.39062Q212.671875,186.04688,211.5,184.09375L208.375,184.09375L203.6875,184.875L186.890625,186.04688Q185.71875,186.04688,184.546875,184.875Q183.375,183.3125,182.984375,182.921875Q182.203125,179.015625,182.203125,174.71875Q182.203125,167.296875,183.375,163.390625Q183.375,162.21875,179.078125,162.21875Q175.171875,162.21875,175.171875,163Q174.78125,163.390625,174.78125,164.5625Q174.78125,166.515625,174.390625,167.6875Q174,168.859375,174,171.59375L174,176.671875Q174,184.875,175.5625,188Q175.5625,189.95312,177.125,190.34375Q178.296875,191.51562,180.25,191.90625Q181.421875,192.29688,188.84375,192.29688ZM182.203125,159.875L181.03125,159.484375L180.640625,159.875L182.203125,159.875ZM210.71875,180.1875Q211.890625,180.1875,211.890625,177.0625Q211.890625,174.71875,210.71875,174.328125Q209.9375,173.9375,203.6875,173.9375Q191.1875,173.9375,188.453125,175.5L187.671875,179.015625Q187.671875,179.796875,188.0625,180.1875Q188.453125,180.578125,193.921875,180.578125L210.71875,180.1875ZM219.703125,190.34375Q224,190.34375,224.78125,189.5625Q225.5625,188,225.953125,181.359375Q226.34375,179.015625,226.34375,173.9375Q226.34375,168.46875,225.953125,165.734375Q225.953125,164.171875,224,162.21875L222.046875,161.046875Q220.484375,161.046875,220.09375,160.65625Q210.71875,160.65625,199.78125,161.828125Q192.359375,162.609375,186.890625,163.78125Q186.5,164.171875,186.5,166.90625Q186.5,169.25,187.671875,170.421875L199,169.25L206.421875,168.078125Q210.328125,168.078125,212.28125,167.6875Q214.625,166.90625,216.1875,168.46875Q218.140625,169.640625,217.75,171.203125Q218.53125,182.921875,216.578125,189.5625Q217.359375,190.34375,219.703125,190.34375ZM191.96875,160.265625Q193.53125,157.53125,193.53125,152.453125L182.59375,149.71875Q179.859375,151.28125,179.859375,156.75L191.96875,160.265625ZM166.96875,168.859375Q168.921875,168.859375,169.3125,168.46875L177.125,147.375L192.75,146.203125L193.53125,142.296875Q193.53125,140.734375,192.359375,139.5625L179.859375,140.34375L183.375,130.1875L196.265625,132.140625Q198.21875,129.015625,198.21875,124.71875L172.828125,121.203125L175.171875,116.515625Q174.78125,114.953125,172.828125,113.78125Q170.875,112.609375,168.53125,112.609375L166.96875,113L156.421875,134.875Q159.9375,138.390625,163.0625,138.390625L164.625,138L169.3125,128.234375L175.5625,129.015625L171.265625,140.734375L159.9375,141.515625Q159.546875,143.078125,159.9375,145.03125Q160.328125,146.203125,160.328125,148.15625L162.671875,148.15625Q165.796875,148.15625,168.53125,147.765625L161.5,167.296875Q163.0625,168.859375,166.96875,168.859375ZM215.40625,173.546875L213.0625,173.546875L213.84375,174.71875L215.40625,175.109375L215.40625,173.546875ZM206.8125,158.703125Q206.03125,158.3125,205.25,156.75L204.859375,156.75Q201.34375,156.75,200.171875,152.453125L199.78125,149.328125L199.78125,149.71875Q199,151.671875,197.4375,151.671875L195.484375,151.671875L195.875,152.453125L198.609375,153.234375Q200.5625,154.015625,200.5625,157.140625L200.171875,159.484375L206.8125,158.703125ZM199.390625,139.171875L199.390625,137.21875L189.625,136.046875L189.234375,137.609375L191.578125,137.21875Q193.53125,137.21875,194.3125,138.390625Q195.484375,139.5625,195.484375,140.34375L196.265625,140.34375Q198.21875,140.34375,199,141.515625L199.390625,141.90625L199.390625,139.171875ZM226.34375,154.015625Q226.34375,147.375,225.171875,146.203125L210.328125,146.59375L210.328125,126.671875Q210.328125,125.890625,206.8125,125.890625Q202.90625,125.890625,202.125,126.671875L202.125,130.96875Q201.734375,132.140625,201.734375,134.875L201.734375,139.171875Q201.734375,143.46875,202.125,145.421875Q202.125,150.109375,202.515625,152.0625Q203.296875,154.40625,204.859375,154.40625L226.34375,154.015625ZM225.5625,138.390625L218.53125,138.78125L217.359375,138.78125L217.359375,144.25L223.609375,143.859375Q225.171875,143.859375,225.953125,144.25L225.5625,138.390625ZM231.421875,153.234375Q234.9375,153.234375,236.109375,152.0625Q236.109375,150.5,236.5,149.328125L236.5,143.46875L235.71875,127.0625Q235.71875,124.328125,232.59375,124.328125L213.0625,125.109375L212.671875,128.234375Q212.671875,130.1875,213.453125,133.3125L227.90625,132.921875L228.296875,152.453125Q229.078125,153.234375,231.421875,153.234375ZM308.76562,195.42188Q300.17188,195.42188,298.21875,195.03125Q295.48438,195.03125,293.53125,191.90625Q291.1875,191.51562,289.625,189.5625Q288.0625,187.60938,287.67188,184.875Q287.28125,182.921875,287.28125,179.796875Q286.89062,178.625,286.89062,175.890625L286.5,162.21875L286.89062,150.890625Q286.89062,142.6875,287.67188,134.09375Q288.0625,121.984375,288.84375,118.078125Q289.23438,116.90625,290.99219,116.515625Q292.75,116.125,295.09375,116.125Q298.21875,116.125,301.73438,117.296875Q303.29688,117.6875,303.29688,119.640625Q304.07812,119.640625,305.64062,120.421875Q306.03125,120.03125,306.03125,119.25Q307.20312,117.6875,308.76562,117.6875L335.71875,120.03125Q337.67188,120.03125,338.84375,122.765625L338.84375,123.15625L340.40625,123.15625Q342.35938,123.15625,343.53125,125.890625Q343.92188,127.453125,343.92188,129.796875Q343.92188,132.921875,341.96875,134.875Q341.1875,136.046875,339.23438,136.046875L312.67188,133.3125Q310.71875,133.3125,309.9375,131.359375Q309.9375,130.578125,309.54688,130.578125L307.98438,130.1875L307.20312,130.1875Q304.85938,147.765625,305.64062,178.625L305.64062,179.796875L333.375,178.234375Q335.32812,178.234375,336.5,179.796875L337.28125,181.359375L338.0625,181.359375Q340.01562,181.359375,341.1875,182.921875Q342.75,186.4375,342.35938,191.51562Q342.35938,193.85938,340.01562,193.85938L327.51562,195.03125Q325.17188,195.42188,319.70312,195.42188L308.76562,195.42188ZM277.90625,175.890625L277.90625,174.71875Q277.90625,170.421875,272.82812,168.078125L258.375,178.625L258.375,179.40625Q258.375,183.3125,263.45312,186.04688L277.90625,175.890625ZM266.57812,191.125Q265.01562,190.34375,264.23438,189.5625Q263.45312,188.78125,262.67188,188.39062Q262.67188,188,261.89062,188Q256.03125,185.26562,256.03125,179.40625Q256.03125,177.453125,257.59375,176.28125L270.875,166.515625Q272.4375,165.734375,272.82812,165.734375Q275.17188,165.734375,278.29688,168.859375L279.07812,169.25Q284.9375,171.984375,284.9375,177.84375Q284.9375,180.1875,283.375,181.359375L270.09375,190.73438Q268.53125,191.90625,266.57812,191.125ZM271.65625,160.65625Q275.17188,158.3125,274,151.671875L259.15625,148.15625Q254.85938,152.453125,256.8125,156.75L271.65625,160.65625ZM261.5,162.21875Q259.54688,161.4375,259.15625,160.265625L259.15625,159.875L256.8125,159.09375Q254.85938,158.3125,254.46875,157.140625Q254.07812,156.359375,254.07812,154.015625Q254.07812,149.71875,257.20312,146.984375Q257.98438,145.8125,260.32812,145.8125L274,149.328125Q275.95312,149.71875,276.34375,151.671875L278.6875,152.453125Q281.03125,152.84375,281.03125,155.578125Q281.42188,156.359375,281.42188,157.921875Q281.42188,163,277.90625,165.34375Q277.125,166.125,275.17188,165.734375L261.5,162.21875ZM273.60938,138Q277.125,136.046875,275.95312,129.40625L261.10938,125.5Q257.20312,129.40625,258.76562,133.703125L273.60938,138ZM263.45312,139.171875Q261.5,138.390625,261.10938,137.21875L261.10938,136.828125L258.76562,136.046875Q256.8125,135.265625,256.42188,134.09375Q256.03125,133.3125,256.03125,131.359375Q256.03125,127.0625,259.15625,124.328125Q260.32812,122.765625,262.28125,123.546875L275.95312,127.0625Q277.90625,127.453125,278.29688,129.40625L280.64062,130.1875Q282.98438,130.578125,282.98438,133.3125Q283.375,134.09375,283.375,135.65625Q283.375,140.734375,279.85938,143.078125Q278.6875,143.859375,276.73438,143.078125L263.45312,139.171875ZM315.01562,189.95312Q320.48438,189.95312,322.4375,189.5625L335.32812,188.39062L335.32812,186.04688Q335.32812,182.921875,334.15625,180.578125L304.85938,182.140625L302.51562,182.140625Q300.5625,182.140625,299.78125,181.359375Q298.60938,179.40625,298.60938,175.5Q297.82812,140.34375,300.95312,119.640625Q297.82812,118.46875,295.09375,118.46875Q291.57812,118.46875,291.1875,118.859375Q290.79688,121.59375,290.01562,134.09375Q289.23438,142.6875,289.23438,150.890625L288.84375,162.21875L289.23438,175.890625Q289.23438,178.234375,289.625,179.40625Q289.625,182.53125,290.01562,184.48438Q290.40625,188.78125,293.53125,189.5625Q294.3125,189.95312,304.07812,189.95312L315.01562,189.95312ZM335.32812,130.578125Q336.89062,129.015625,336.89062,126.671875Q336.89062,125.5,336.10938,122.375L308.375,120.03125Q306.42188,124.328125,307.59375,127.84375L335.32812,130.578125ZM364.23438,188.39062Q362.67188,188.78125,361.10938,188.39062L357.59375,187.60938Q356.03125,187.21875,354.46875,185.65625Q351.73438,184.48438,350.95312,182.53125Q350.5625,181.359375,350.95312,179.796875L369.70312,124.71875Q370.48438,122.765625,372.04688,122.765625Q373.21875,122.375,375.95312,122.375Q379.07812,122.375,381.03125,122.765625Q382.59375,122.765625,383.375,124.71875L384.15625,124.71875Q385.71875,124.71875,386.5,126.671875L404.46875,180.1875L404.85938,182.140625Q404.85938,184.48438,401.73438,186.4375Q399.39062,188,396.26562,188L394.3125,188Q392.75,188,391.96875,186.04688L391.1875,186.04688Q389.625,186.04688,388.84375,184.09375L382.59375,164.171875L373.60938,164.953125L366.96875,186.4375Q366.57812,187.60938,364.625,188.39062L364.23438,188.39062ZM361.5,184.09375L368.92188,160.65625L381.03125,159.875L381.03125,157.921875Q381.03125,154.015625,379.07812,151.671875L372.04688,152.453125L376.34375,135.65625L391.1875,183.703125L393.14062,183.703125Q395.48438,183.703125,397.4375,182.53125Q399.39062,181.359375,399.39062,180.1875L381.03125,125.109375Q379.07812,124.71875,375.95312,124.71875Q373.21875,124.71875,372.04688,125.109375L352.90625,181.359375Q353.29688,182.53125,355.25,183.3125L359.54688,184.48438L361.5,184.09375ZM416.96875,188Q415.01562,188,413.0625,186.82812L412.28125,186.04688L409.9375,184.875Q408.375,183.703125,408.375,171.59375L407.98438,144.640625Q407.98438,125.5,409.9375,124.71875Q411.5,123.546875,415.40625,123.15625Q420.48438,123.15625,421.65625,125.5Q425.95312,126.28125,425.17188,129.796875Q425.5625,134.09375,425.5625,154.015625L425.5625,173.9375L425.5625,182.921875Q426.34375,184.875,425.17188,185.65625Q423.60938,187.21875,421.65625,187.60938Q420.48438,188,416.96875,188ZM413.84375,183.703125Q416.96875,183.703125,417.75,183.3125Q419.70312,182.921875,420.48438,182.140625Q420.09375,180.578125,420.09375,171.984375L420.09375,152.0625Q420.09375,127.0625,419.70312,126.671875Q419.3125,125.5,415.79688,125.5L411.10938,126.671875Q410.32812,127.453125,410.32812,146.203125L410.71875,182.53125Q412.28125,183.703125,413.84375,183.703125ZM450.5625,184.09375Q449,183.703125,448.60938,182.53125L447.4375,182.140625Q445.48438,181.359375,445.48438,179.40625L445.875,165.34375Q436.10938,165.34375,435.32812,164.171875L434.9375,163Q432.98438,163,432.20312,162.21875Q431.42188,160.65625,431.42188,155.96875Q431.42188,154.796875,432.00781,153.234375Q432.59375,151.671875,432.98438,151.28125Q434.15625,150.109375,445.875,150.109375L446.26562,136.828125Q446.26562,135.265625,447.4375,134.09375Q449.78125,131.75,453.6875,131.75Q454.85938,131.75,457.98438,132.53125Q459.54688,132.921875,459.9375,134.09375L461.10938,134.484375Q463.0625,135.265625,463.0625,137.21875L463.0625,150.109375L468.14062,150.109375Q470.09375,150.109375,470.875,150.5Q470.875,150.5,472.4375,152.0625Q473.60938,152.0625,474,152.453125Q476.34375,154.015625,476.34375,157.921875Q476.34375,162.21875,474.39062,164.171875Q473.21875,165.34375,471.65625,165.34375L462.67188,165.34375L462.67188,180.1875Q462.67188,181.75,461.10938,182.921875Q458.375,184.48438,454.46875,184.48438Q451.73438,184.48438,450.5625,184.09375ZM447.82812,179.796875Q449,180.1875,451.34375,180.1875Q454.46875,180.1875,457.20312,178.625L457.20312,161.046875L469.3125,161.046875Q470.875,159.484375,470.875,155.96875Q470.875,152.84375,469.3125,152.453125L457.59375,152.453125L457.59375,134.875Q454.46875,134.09375,453.6875,134.09375Q450.5625,134.09375,448.60938,136.046875L448.21875,152.453125Q436.89062,152.453125,434.54688,153.234375Q433.76562,154.015625,433.76562,155.96875Q433.76562,159.875,434.15625,160.65625Q434.54688,161.046875,448.21875,161.046875L447.82812,179.796875ZM544.70312,195.8125L543.53125,195.42188L541.1875,194.25Q539.625,193.85938,538.45312,191.90625L536.5,191.125Q532.20312,189.17188,533.375,185.65625L527.51562,186.04688L527.51562,186.82812L527.125,189.5625L527.125,190.73438L526.73438,193.46875Q526.34375,194.64062,524.5859399999999,195.03125Q522.82812,195.42188,520.875,195.42188Q515.40625,195.42188,513.45312,193.07812L512.67188,191.90625Q509.9375,191.125,508.76562,189.95312Q507.98438,189.17188,507.98438,188L503.29688,188.78125Q500.95312,188.78125,500.5625,186.82812L500.17188,185.26562L498.60938,185.65625Q496.26562,185.65625,495.875,183.703125L495.48438,182.53125L495.09375,182.53125Q491.1875,181.359375,489.23438,179.015625Q483.375,177.0625,483.375,171.984375Q483.375,170.421875,484.54688,168.859375L497.82812,154.015625Q497.82812,151.671875,499.78125,151.28125L500.5625,150.890625L496.65625,150.5Q495.09375,150.5,494.3125,149.71875Q493.14062,149.328125,492.75,147.765625L491.96875,147.375Q490.40625,147.375,489.625,146.59375Q488.45312,145.8125,488.45312,144.640625L488.0625,141.515625Q488.0625,139.5625,489.23438,137.21875Q490.40625,135.65625,492.35938,135.65625L500.5625,136.4375L499.39062,135.265625L499.39062,134.484375L499,134.09375L498.60938,134.09375Q497.4375,134.09375,495.875,133.3125L494.70312,132.140625L494.70312,131.359375Q493.92188,129.796875,493.92188,128.234375L493.92188,127.0625Q493.92188,124.328125,495.09375,122.765625Q495.875,121.59375,497.82812,121.59375L502.51562,121.59375L503.29688,116.125Q503.29688,115.34375,504.46875,114.171875Q505.64062,113,506.8125,113L507.59375,113Q514.23438,113,515.40625,116.515625Q520.48438,117.296875,520.48438,121.59375L520.875,121.59375Q522.82812,121.59375,523.60938,123.546875L524,124.71875L524.78125,124.71875L527.125,122.375Q527.90625,121.203125,529.07812,121.203125Q531.03125,121.203125,533.375,123.546875L534.54688,124.328125L534.9375,124.71875L537.28125,125.890625L537.67188,123.546875Q539.625,118.859375,539.625,118.46875Q540.40625,116.515625,541.57812,116.125Q543.14062,115.734375,543.14062,115.34375L544.70312,115.34375Q547.4375,115.34375,549.39062,116.90625Q550.5625,117.6875,551.34375,118.859375Q551.73438,118.859375,554.07812,120.03125Q557.59375,121.984375,556.42188,125.109375L556.8125,125.109375L567.75,127.0625L570.09375,127.84375Q571.26562,128.625,571.26562,129.40625L571.65625,130.1875L572.4375,130.1875L574.78125,130.96875Q575.95312,131.75,575.95312,132.53125Q576.73438,134.09375,576.73438,135.265625L576.34375,137.609375L576.34375,138L575.17188,140.34375L573.60938,142.296875Q572.04688,143.46875,570.875,142.6875L569.3125,142.6875L566.57812,142.296875L563.0625,141.90625Q563.45312,141.90625,564.23438,142.6875L564.625,143.078125L567.35938,144.25L568.92188,145.8125Q569.70312,146.59375,570.48438,148.15625Q570.48438,150.109375,570.09375,150.890625L562.67188,166.515625L561.10938,169.640625L566.1875,173.9375Q567.35938,175.109375,569.70312,176.671875L571.65625,178.625L574.78125,181.359375L576.73438,182.921875L577.125,184.48438Q577.125,186.4375,575.17188,189.17188Q572.4375,191.90625,570.875,192.29688Q569.70312,193.46875,568.14062,191.90625L565.01562,189.5625L563.45312,188.78125L554.85938,182.140625L552.51562,187.21875Q547.82812,195.8125,546.26562,195.8125L544.70312,195.8125ZM508.76562,171.984375L507.98438,170.421875L506.42188,171.984375L508.76562,171.984375ZM516.1875,189.95312Q519.3125,189.95312,519.70312,189.5625L520.48438,184.875L520.48438,180.96875L530.64062,179.796875L531.03125,176.671875Q531.03125,173.9375,529.85938,171.59375L519.70312,172.765625Q519.70312,171.984375,518.92188,169.640625L522.04688,166.90625Q523.21875,166.515625,526.34375,161.828125Q529.07812,158.3125,527.90625,154.015625Q526.34375,151.28125,514.625,151.28125L517.75,147.765625L532.20312,148.9375Q533.76562,146.203125,532.98438,141.515625L524,140.734375L534.54688,129.015625Q534.54688,128.625,532.59375,125.890625Q530.64062,123.9375,529.07812,123.546875L514.23438,139.953125L513.45312,139.953125L513.45312,131.75L521.26562,131.75Q522.04688,129.40625,522.04688,127.84375Q522.04688,126.28125,521.26562,123.9375L513.45312,123.9375Q513.45312,117.296875,513.0625,116.90625Q511.89062,115.34375,507.59375,115.34375L505.64062,115.34375L504.85938,123.9375L497.04688,123.9375Q495.48438,125.890625,496.26562,127.84375Q496.26562,128.625,497.04688,131.75L504.46875,131.75L504.46875,139.171875L491.57812,138Q490.40625,139.5625,490.40625,141.515625Q490.40625,144.25,490.79688,145.03125L507.98438,146.59375L502.90625,152.453125L500.17188,153.625L500.17188,155.1875L485.71875,171.203125L485.71875,171.984375Q485.71875,175.890625,491.1875,177.0625L507.98438,158.703125Q509.15625,158.3125,512.67188,158.3125Q517.35938,157.53125,517.35938,158.703125Q517.35938,160.265625,513.45312,163Q509.15625,166.125,509.15625,167.296875Q510.32812,169.25,511.10938,172.375Q511.10938,173.546875,511.5,173.9375L497.4375,175.5Q496.65625,178.234375,497.04688,179.40625L498.21875,183.3125L511.10938,181.75L511.10938,185.26562L510.32812,188.39062Q511.89062,189.95312,516.1875,189.95312ZM539.23438,171.984375L540.01562,170.8125L539.625,170.421875L534.9375,166.515625L533.76562,165.34375L532.98438,166.125L530.64062,169.25Q532.20312,170.8125,532.20312,170.8125L532.59375,172.375L533.76562,172.375Q535.71875,172.375,536.89062,173.9375L537.28125,175.890625L539.23438,171.984375ZM549.78125,175.109375L565.40625,187.21875Q566.96875,186.82812,568.53125,184.48438Q570.09375,182.921875,570.09375,181.359375L570.09375,180.96875Q569.3125,180.578125,563.45312,175.5L553.6875,167.296875L556.03125,162.21875L563.84375,145.421875L561.10938,143.078125Q559.54688,141.90625,557.59375,141.90625Q556.03125,141.90625,555.25,142.6875L551.73438,150.890625L549.39062,155.96875Q547.82812,159.875,546.65625,161.828125L539.23438,156.359375Q538.45312,156.359375,536.5,158.703125L534.9375,160.65625L533.76562,162.609375L536.5,164.5625L542.75,170.03125L541.96875,171.59375Q541.57812,171.984375,541.57812,172.570312Q541.57812,173.15625,541.1875,173.546875Q534.9375,186.4375,535.32812,186.82812Q535.32812,188,537.67188,189.17188Q538.45312,189.95312,539.625,189.95312Q540.01562,190.34375,540.6015600000001,190.34375Q541.1875,190.34375,541.57812,190.73438L549.78125,175.109375ZM547.4375,154.796875Q549,151.28125,549.39062,150.109375L552.51562,143.078125L553.29688,141.515625L553.6875,141.125L554.46875,140.34375L552.125,139.953125L551.34375,139.953125L551.34375,141.515625Q548.60938,148.9375,547.04688,150.5L546.26562,150.890625L545.875,151.28125L545.09375,151.28125Q543.14062,151.28125,540.01562,149.328125Q540.01562,150.5,539.23438,152.84375Q538.0625,154.40625,536.10938,154.40625L532.59375,154.015625L534.15625,155.1875L534.9375,156.75Q537.67188,154.015625,539.23438,154.015625Q540.01562,154.015625,540.79688,154.601562Q541.57812,155.1875,541.96875,155.578125L544.3125,157.140625Q545.09375,157.140625,545.875,157.921875L547.4375,154.796875ZM541.1875,145.421875Q541.96875,144.640625,545.09375,135.265625L545.48438,134.484375L545.48438,134.09375L553.6875,135.65625L562.28125,136.828125Q563.45312,137.21875,564.8203100000001,137.21875Q566.1875,137.21875,567.35938,137.609375Q568.14062,136.828125,568.92188,135.265625L569.70312,132.140625Q569.70312,130.578125,568.92188,129.796875L556.42188,127.453125Q551.34375,126.28125,547.82812,126.28125Q549.39062,121.984375,549.39062,121.203125Q550.17188,120.03125,548.21875,118.859375Q546.26562,117.6875,544.3125,117.6875L541.96875,118.46875Q541.57812,120.421875,540.01562,124.328125L537.67188,132.140625Q535.32812,140.734375,535.32812,143.46875Q538.84375,145.8125,540.40625,145.8125L541.1875,145.421875ZM657.20312,199.32812Q654.46875,199.32812,651.34375,196.98438Q650.5625,196.20312,650.5625,195.8125Q647.82812,195.03125,646.65625,193.85938Q645.48438,193.46875,645.48438,191.51562L626.73438,190.73438Q624.39062,190.73438,624,189.17188L623.60938,187.60938L622.04688,187.60938L620.875,187.60938L621.26562,192.6875Q621.26562,194.25,620.875,195.03125Q620.09375,196.20312,619.3125,196.59375Q616.96875,197.76562,613.45312,197.76562Q608.76562,197.76562,607.98438,196.59375Q607.20312,195.8125,607.20312,194.64062Q604.46875,194.64062,603.29688,193.46875Q602.51562,192.6875,602.51562,190.73438L601.73438,154.796875L601.73438,154.015625L601.73438,153.625Q599.78125,153.234375,597.82812,151.28125Q595.09375,148.9375,595.09375,144.25Q595.09375,142.6875,595.875,139.5625Q595.875,139.5625,595.09375,138.78125L594.70312,137.21875L593.53125,137.21875Q591.57812,137.21875,590.40625,135.65625Q589.625,132.53125,589.625,130.578125Q589.625,129.015625,590.40625,125.890625Q590.79688,123.9375,593.14062,123.9375L624,121.59375L623.60938,121.59375Q622.04688,121.59375,620.875,120.421875L620.48438,120.03125Q618.53125,118.859375,619.70312,116.90625Q621.65625,112.21875,626.73438,109.875Q627.90625,109.09375,629.85938,110.265625L632.59375,112.609375L634.54688,113.390625L642.75,120.8125L648.21875,120.421875L662.28125,119.25Q663.84375,119.25,665.01562,120.8125L665.40625,122.375L666.96875,122.375Q668.53125,122.375,669.70312,123.9375Q670.48438,125.890625,670.48438,129.40625Q670.48438,131.75,670.09375,133.3125Q669.3125,135.265625,667.35938,135.265625L663.45312,135.65625L669.3125,143.46875Q670.09375,145.03125,670.09375,145.421875Q670.09375,147.765625,665.79688,150.5L661.5,153.234375L660.71875,153.234375L661.89062,154.796875Q664.23438,158.703125,664.23438,179.796875Q664.23438,188,663.45312,195.8125Q663.45312,197.375,661.5,198.15625Q659.15625,199.32812,657.20312,199.32812ZM608.76562,192.29688Q613.0625,192.29688,614.23438,191.125L613.45312,173.9375L613.0625,166.125L612.67188,154.796875L608.375,154.015625L604.07812,154.796875L604.85938,191.90625Q605.25,192.29688,608.76562,192.29688ZM620.48438,175.890625Q621.26562,175.109375,622.4375,175.109375L624.39062,175.109375L624,174.328125L622.4375,174.328125Q621.26562,174.328125,620.48438,173.546875L620.48438,175.890625ZM641.1875,186.04688Q642.35938,182.921875,642.35938,180.96875Q642.35938,180.1875,641.57812,177.84375L622.04688,177.453125Q620.875,179.796875,620.875,182.140625L621.65625,185.26562L641.1875,186.04688ZM640.40625,172.375Q641.57812,171.203125,641.57812,167.296875L641.1875,164.171875L622.4375,163.78125Q621.26562,166.515625,621.26562,168.859375Q621.26562,169.640625,622.04688,171.984375L640.40625,172.375ZM652.51562,193.85938Q654.07812,193.85938,656.42188,192.6875Q657.20312,187.21875,657.20312,176.671875Q657.20312,155.96875,655.25,152.84375Q653.6875,150.5,648.60938,150.890625L615.79688,153.234375Q615.40625,153.625,615.40625,155.96875Q615.40625,159.09375,615.79688,161.046875L647.4375,159.484375Q648.21875,161.046875,648.60938,171.203125Q648.21875,177.84375,648.21875,186.4375Q648.21875,192.29688,647.82812,192.6875Q650.95312,193.85938,652.51562,193.85938ZM645.875,177.453125Q645.48438,177.84375,643.92188,177.84375L644.3125,178.625L645.875,178.625L645.875,177.453125ZM622.4375,139.953125L639.23438,137.21875Q635.32812,137.21875,618.53125,138.78125L616.96875,140.734375L622.4375,139.953125ZM612.28125,151.671875Q625.5625,150.5,646.26562,146.984375L646.26562,144.25Q646.26562,140.34375,644.70312,138.390625Q634.15625,140.734375,622.82812,142.296875L612.28125,143.46875L610.32812,143.46875Q607.59375,143.46875,607.20312,141.90625L607.20312,141.515625Q607.20312,139.5625,612.67188,133.3125L663.0625,129.796875Q663.45312,128.625,663.45312,126.28125Q663.45312,123.15625,662.67188,121.59375L648.60938,122.765625L635.71875,123.546875Q637.28125,121.984375,637.67188,120.421875L627.90625,111.828125Q624,113.390625,621.65625,118.078125L628.29688,123.9375L625.5625,123.9375L592.75,126.28125Q591.96875,128.625,591.96875,130.578125Q591.96875,131.75,592.75,134.875L600.95312,134.09375Q597.82812,138.390625,597.4375,144.25Q597.4375,147.765625,599.39062,149.71875Q602.90625,152.453125,609.15625,152.0625L612.28125,151.671875ZM654.07812,148.9375L653.29688,148.15625L653.29688,148.546875L654.07812,148.9375ZM658.76562,152.0625L657.20312,149.71875L656.8125,150.109375L656.03125,150.109375L657.20312,151.671875L658.76562,152.0625ZM656.03125,147.765625Q657.59375,147.375,659.9375,145.421875Q662.28125,144.25,663.0625,142.296875L655.25,131.75Q651.73438,132.140625,647.82812,136.828125L656.03125,147.765625Z" fill="#7C5FFF" fill-opacity="1"/></g></g></svg>