<svg xmlns="http://www.w3.org/2000/svg" xmlns:xlink="http://www.w3.org/1999/xlink" fill="none" version="1.1" width="1527" height="493" viewBox="0 0 1527 493"><defs><linearGradient x1="568" y1="359" x2="1453" y2="359" gradientUnits="userSpaceOnUse" id="master_svg0_1937_38746"><stop offset="0%" stop-color="#FFFFFF" stop-opacity="0.20000000298023224"/><stop offset="49.31506812572479%" stop-color="#FFFFFF" stop-opacity="0.6054794788360596"/><stop offset="99.28571581840515%" stop-color="#FFFFFF" stop-opacity="0.20000000298023224"/></linearGradient><filter id="master_svg1_1937_48024" filterUnits="objectBoundingBox" color-interpolation-filters="sRGB" x="-0.003872216844143272" y="-0.01" width="1.0077444336882866" height="1.04"><feFlood flood-opacity="0" result="BackgroundImageFix"/><feColorMatrix in="SourceAlpha" type="matrix" values="0 0 0 0 0 0 0 0 0 0 0 0 0 0 0 0 0 0 127 0"/><feOffset dy="2" dx="0"/><feGaussianBlur stdDeviation="1"/><feColorMatrix type="matrix" values="0 0 0 0 0 0 0 0 0 0 0 0 0 0 0 0 0 0 0.30000001192092896 0"/><feBlend mode="normal" in2="BackgroundImageFix" result="effect1_dropShadow"/><feBlend mode="normal" in="SourceGraphic" in2="effect1_dropShadow" result="shape"/></filter></defs><g><g><path d="M583,406L583,331L613,331L613,406L583,406ZM643,406L643,331L673,331L673,361L688,361L688,331L718,331L718,406L688,406L688,376L673,376L673,406L643,406ZM763,406L763,391L748,391L748,331L778,331L778,391L793,391L793,331L823,331L823,391L808,391L808,406L763,406ZM853,406L853,331L883,331L883,406L853,406ZM973,406L973,331L1003,331L1003,406L973,406ZM1033,406L1033,331L1063,331L1063,346L1078,346L1078,361L1093,361L1093,331L1123,331L1123,406L1093,406L1093,391L1078,391L1078,376L1063,376L1063,406L1033,406ZM1153,406L1153,331L1213,331L1213,346L1183,346L1183,361L1213,361L1213,376L1183,376L1183,406L1153,406ZM1243,406L1243,391L1273,391L1273,406L1243,406ZM1303,406L1303,346L1318,346L1318,331L1363,331L1363,346L1378,346L1378,406L1348,406L1348,376L1333,376L1333,406L1303,406ZM1333,361L1348,361L1348,346.600002L1333,346.600002L1333,361ZM1408,406L1408,331L1438,331L1438,406L1408,406Z" fill="url(#master_svg0_1937_38746)" fill-opacity="1"/></g><g filter="url(#master_svg1_1937_48024)"><path d="M649.60001,176Q648,173.599998,645.2,165.599998Q632,166.400002,626.4000100000001,167.199997Q626.4000100000001,171,624.3,174.5Q622.2,178,619.3,180.1Q616.4,182.2,614,182.2Q611.8,182.2,609.1,179.799995Q606.4,177.400002,604.6,173.799995Q602.8,170.199997,603.2,167Q604,161.400002,604,153.799995Q604,142.199997,602.9,129.299995Q601.8,116.39999399999999,600.2,111.599991Q599.8,110.39999399999999,599.8,110.199997Q599.8,108.599991,601.6,108.599991Q610,108.599991,615.1,109.5Q620.2,110.39999399999999,622.8,113Q633.4000100000001,111.599991,641.60001,109.599991Q645,109,647.60001,107.5Q650.2,106,651.2,105.599991Q652.8,104.599991,654.8,104.599991Q656.2,104.599991,657,105.199997Q660.2,106.199997,665.10001,109.199997Q670,112.199997,673.2,115Q674.4000100000001,115.800003,675,117.599991Q675.60001,119.400002,675.60001,121.199997Q675.60001,123.400002,675,124.599998Q674,126.400002,672.8,130.299995Q671.60001,134.199997,671.2,136.400002Q670.60001,139.799995,669.60001,150.400002Q669.2,158.599998,668.4000100000001,163.599998Q667.60001,168.199997,665.5,170.799995Q663.4000100000001,173.400002,659.4000100000001,176.599998Q656.8,178.599998,654,178.599998Q652.4000100000001,178.599998,651.2,177.900002Q650,177.199997,649.60001,176ZM510.800001,156.799995Q510.4,156,510.4,155.400002Q510.4,153.199997,513.6,153Q529.600002,151.799995,540.600002,149.199997Q543.799999,148.599998,550.200001,147Q552,139.199997,552.600002,132.199997L552.600002,128.799995Q550.600002,128.799995,548.200001,127L546.799999,126Q536.799999,138,521.6,150.199997Q520.6,151,519.200001,151Q518.200001,151,517.800001,150.400002Q517.4,149.799995,518,148.799995Q527.400002,131.799995,531.400002,116.699997Q535.400002,101.599991,535.400002,91L535.200001,86.1999969Q535.200001,83.8000031,536.900002,82.8000031Q538.600002,81.8000031,540.799999,82.1999969Q546.799999,83.3999939,552.5,86.5999908Q558.200005,89.8000031,561.8000030000001,93.599991Q563.200005,95,563.200005,96.800003Q563.200005,98.199997,562.200005,100.199997Q561.200005,102.199997,561,102.800003Q559.400002,107.199997,556.600002,111.800003L572,107L580,104.599991Q581.599998,104,582.8000030000001,104Q584.200005,104,586.599998,105.39999399999999Q589.400002,107.199997,592.3000030000001,110Q595.2,112.800003,596,114.800003Q596.8,116.800003,596.8,117.39999399999999Q596.8,120.199997,592.200005,121.599998L573.8000030000001,125.400002Q575.599998,127.199997,575.200005,129.599998Q575,130.799995,574.5,134.299995Q574,137.799995,573.200005,141.400002L575.200005,141L579.400002,139.799995Q580.599998,139.599998,584.5,138.5Q588.400002,137.400002,590.599998,137.400002Q592.400002,137.400002,593.200005,138Q599,141.400002,602.2,146.400002Q603,147.799995,603,149.199997Q603,151.799995,597.8,152.599998Q595.8,153,592.200005,153.400002Q590.200005,153.799995,585.400002,154.5Q580.599998,155.199997,575.8000030000001,156.400002Q575.200005,156.400002,569,157.799995Q568.8000030000001,158.400002,568,160.599998Q576.200005,160.599998,580.700005,161.299995Q585.200005,162,588.8000030000001,163.799995Q594,166.199997,595.5,169.400002Q597,172.599998,596.4,177.799995Q596,182.6,593.5,186Q591,189.39999,588,189.39999Q586,189.39999,584.200005,187.6Q582.599998,186,581.099998,184.2Q579.599998,182.4,578,180.6Q570.200005,171.199997,565.599998,167Q550.799999,201.2,517.800001,214Q517.4,214.2,515.800001,214.2Q514.800001,214.2,513.800001,213.89999Q512.800001,213.60001,512.800001,213Q512.800001,212.2,514.200001,211Q534.799999,193.8,545.600002,163.599998Q538.400002,165.400002,530,168.199997Q527.400002,169,523.200001,168.599998Q518.200001,167.199997,510.800001,156.799995ZM556,190Q555.799999,189.39999,555.799999,188.6Q555.799999,187,557.400002,187Q564,186.8,570.3000030000001,188.1Q576.599998,189.39999,581.200005,191.8Q581.599998,192,582.400002,192.8Q594.2,190.2,606.1,187.2Q618,184.2,621.8,182.6Q623.4000100000001,182,624.4000100000001,182Q626,182,628.8,183.39999Q633.60001,185.39999,639.7,189.3Q645.8,193.2,648,195.8Q649.4000100000001,197.2,649.4000100000001,199.2Q649.4000100000001,200.6,648,203.8Q647.8,204.2,647,205.89999Q646.2,207.6,646.2,209.39999Q646.2,240,644.2,255.60001Q641.4000100000001,271.8,629.2,276Q627.60001,276.39999,627,276.39999Q624.4000100000001,276.39999,621.2,272.60001Q619.8,270.60001,617.8,266Q615.8,261.39999,615.2,260Q594.8,260.39999,582.200005,261.39999Q581.400002,267,579.099998,270.5Q576.8000030000001,274,573,274Q571,274,567.099998,271.60001Q563.200005,269.2,560.200005,265.7Q557.200001,262.2,557.200001,259Q557.200001,257.39999,557.799999,254.60001Q558.400002,251.8,558.599998,249Q559,234.60001,559,224Q559,195.2,556,190ZM581.8000030000001,218.2Q588.599998,217.60001,595.3,216.5Q602,215.39999,605.2,214.2Q606.8,213.60001,608.2,213.60001Q609.8,213.60001,610.6,214.39999Q614.8,216.8,617.8,223.8Q618.2,226,617.2,227.8Q616.2,229.60001,613.6,230Q608.8,230.60001,601.2,231.3Q593.599998,232,587,232.39999L586,232.39999Q583.599998,232.39999,582,231.39999Q582,240.8,582.200005,245.2Q592.400002,244.60001,601.4,243.60001Q603.8,243.39999,607,242.60001Q610.2,241.8,612.4,241.8Q614.2,241.8,616.3,243.3Q618.4,244.8,619.8,246.8Q620.4,238.8,620.8,226.10001Q621.2,213.39999,621.2,205.39999Q621.2,204.2,620.4,203.39999Q619.6,202.6,618.2,202.8Q594.2,205.39999,582,208Q582,214.39999,581.8000030000001,218.2ZM626,149.799995Q641.60001,148.400002,646.60001,148.199997Q647.4000100000001,139.400002,647.8,128.599998Q647.8,127.599998,647.3,127.199997Q646.8,126.799995,645.2,126.799995Q636.2,127,625.4000100000001,129L626,149.799995ZM721.39999,260.60001Q717.2,256.60001,712.8,248.2Q708.39999,239.8,706.39999,233.2L706,231.2Q706,230,706.8,229.5Q707.60001,229,709.2,228.60001Q710.8,228.2,712,227.8Q717.60001,225.60001,722.2,219Q740.2,191.8,752.60001,161.599998Q753.20001,160.400002,754,160.400002Q754.60001,160.400002,754.89999,160.900002Q755.20001,161.400002,755,162.199997Q750,184,745,208.2Q741.2,228,738.60001,238.5Q736,249,732.2,257.2Q731.39999,259.39999,729.5,260.7Q727.60001,262,725.39999,262Q723,262,721.39999,260.60001ZM705.8,144.799995Q705.2,143.799995,705.2,143.400002Q705.2,142.599998,706.8,142.199997Q712,141.799995,714.8,141.799995Q724.8,141.799995,731.3,145.5Q737.8,149.199997,737.8,158.599998Q737.8,163,735.7,167.199997Q733.60001,171.400002,730.60001,174.299995Q727.60001,177.199997,724.8,177.599998L724.2,177.599998Q721.60001,177.599998,720.2,174.599998Q719.2,172.400002,718.2,170.299995Q717.2,168.199997,716.39999,166.199997Q708.60001,149.199997,705.8,144.799995ZM724,100.199997Q723.60001,99.39999399999999,723.60001,98.800003Q723.60001,97.599991,725.39999,97.39999399999999Q727.2,97.199997,731,97.199997Q742,97.199997,748.7,100.89999399999999Q755.39999,104.599991,755.39999,113Q755.39999,115.199997,755.20001,116.39999399999999Q754.20001,122.400002,751.70001,125.599998Q749.2,128.799995,744.8,131Q743.2,131.799995,741.2,130.799995Q739.2,129.799995,737.8,127.599998Q734.60001,122.599998,731.39999,116.099991Q728.2,109.599991,726.39999,105.699997Q724.60001,101.800003,724,100.199997ZM768.60001,246.39999Q767.60001,244.60001,767.60001,242.8Q767.60001,241.39999,768.39999,240.39999Q769.20001,239.39999,770.79999,238.2Q772.60001,237,773.5,234.89999Q774.39999,232.8,774.60001,229Q777,201.39999,777,170.599998Q777,132.400002,772.39999,112.39999399999999L772.20001,111.199997Q772.20001,108.199997,776.39999,108.199997Q783.20001,108.199997,790.20001,110.5Q797.20001,112.800003,799,116.199997Q799.79999,117.800003,800,118.599991Q813,116.800003,826.90002,113.699997Q840.79999,110.599991,851.79999,107Q854.20001,106,856.40002,106Q859.40002,106,861.40002,107.800003Q863.40002,109.199997,864.90002,111.39999399999999Q866.40002,113.599991,867.70001,116.199997Q869,118.800003,869.79999,120.199997Q871.60001,123,871.60001,125.799995Q871.60001,128.199997,870.20001,129.799995Q869,131.400002,867.60001,131.699997Q866.20001,132,861.79999,131.799995Q854.20001,131.400002,849.20001,131.400002Q836.40002,131.400002,822.90002,132.900002Q809.39999,134.400002,799.79999,137.199997Q798.79999,169.199997,797.60001,234.60001Q848,226.8,869.60001,225.8Q872.40002,225.60001,875.79999,227.5Q879.20001,229.39999,881.90002,234Q884.60001,238.60001,885.20001,245.8Q885.40002,248.60001,883.70001,250.8Q882,253,879.60001,252.8Q862,251,847,251Q825,251,799.39999,255Q789.39999,256.2,786.10001,257.39999Q782.79999,258.60001,782.20001,258.8Q780.20001,259.8,778.79999,259.8Q777.39999,259.8,776.39999,258.8Q772.79999,255.8,768.60001,246.39999ZM948.6875,247L892.4375,247L892.4375,239.1875Q910.40625,236.84375,919,213.40625L963.53125,107.15625L973.6875,107.15625L1025.25,225.90625Q1029.9375,239.1875,1044,239.1875L1044,247L972.125,247L972.125,239.1875L979.9375,239.1875Q992.4375,239.96875,991.65625,232.15625Q991.65625,230.59375,990.875,225.90625Q991.65625,229.03125,990.09375,224.34375L979.9375,201.6875L936.1875,201.6875L929.9375,217.3125Q927.59375,221.21875,926.8125,229.8125Q927.59375,239.1875,938.53125,239.1875L948.6875,239.1875L948.6875,247ZM975.25,190.75L957.28125,148.5625L940.09375,190.75L975.25,190.75ZM1120.5625,247L1047.90625,247L1047.90625,239.1875Q1069,239.96875,1067.4375,225.90625L1067.4375,130.59375Q1069,116.53125,1047.90625,117.3125L1047.90625,109.5L1120.5625,109.5L1120.5625,117.3125Q1099.46875,116.53125,1101.03125,130.59375L1101.03125,225.90625Q1099.46875,239.96875,1120.5625,239.1875L1120.5625,247ZM1130.8125,225.8Q1129.41248,226,1128.51251,225.3Q1127.61249,224.60001,1127.61249,223.39999Q1127.61249,221.60001,1129.61249,219.8Q1147.21252,204.6,1164.11249,186.3Q1181.01251,168,1184.61249,157.799995Q1184.8125,157.400002,1184.61249,157Q1184.41248,156.599998,1183.8125,156.799995Q1178.21252,158.599998,1169.61249,162.400002L1165.61249,164.199997Q1161.61249,165.799995,1158.41248,165.799995Q1155.41248,165.799995,1151.41248,163.799995Q1146.41248,160.400002,1141.61249,149.599998Q1141.21252,148.400002,1141.21252,147.799995Q1141.21252,146.599998,1142.41248,145.699997Q1143.61249,144.799995,1145.8125,144.799995L1151.01251,144.799995Q1154.8125,144.799995,1156.41248,144.599998Q1162.61249,143.799995,1173.91248,139.699997Q1185.21252,135.599998,1190.61249,132.599998Q1193.8125,130.599998,1197.01251,130.599998Q1198.61249,130.599998,1199.8125,131.199997Q1203.41248,132.799995,1208.3125,137.5Q1213.21252,142.199997,1215.8125,146.199997Q1217.01251,147.599998,1217.01251,149.799995Q1217.01251,152,1215.61249,153.400002Q1211.61249,157.199997,1208.61249,162.400002Q1204.8125,169.199997,1200.21252,175.599998Q1208.8125,177,1212.61249,178.799995Q1224.61249,183.39999,1224.61249,192.6Q1224.61249,199.6,1218.41248,206.6Q1216.41248,209,1213.41248,209Q1211.41248,209,1209.8125,207.2Q1203.41248,199.8,1197.8125,193.6Q1197.8125,195.2,1197.41248,200.39999Q1197.21252,202.8,1197.21252,209Q1197.21252,214.8,1197.61249,228.39999L1197.8125,246.39999Q1197.8125,256.8,1196.3125,262.39999Q1194.8125,268,1191.21252,268Q1187.61249,268,1183.8125,265.8Q1180.01251,263.60001,1177.01251,259Q1175.41248,255.8,1175.41248,249.2Q1175.41248,244.2,1175.8125,241.8Q1176.61249,234.8,1176.61249,227Q1176.61249,218.39999,1175.41248,202.8Q1153.21252,221.60001,1130.8125,225.8ZM1168.01251,97.39999399999999Q1167.21252,96.599991,1167.21252,95.199997Q1167.21252,94,1167.91248,93.099991Q1168.61249,92.199997,1169.61249,92.199997Q1174.8125,92,1183.3125,93.39999399999999Q1191.8125,94.800003,1196.41248,97Q1201.61249,99.39999399999999,1204.3125,103.099991Q1207.01251,106.800003,1207.01251,111.39999399999999Q1207.01251,117.39999399999999,1202.01251,125Q1201.41248,126,1200.11249,126.699997Q1198.8125,127.400002,1197.41248,127.400002Q1194.8125,127.400002,1193.61249,125.599998Q1188.01251,118.800003,1180.51251,110.599991Q1173.01251,102.39999399999999,1168.01251,97.39999399999999ZM1204.01251,238.2Q1202.41248,236,1202.41248,234.39999Q1202.41248,232.8,1203.91248,231.89999Q1205.41248,231,1207.8125,231Q1221.41248,231,1247.21252,226.8Q1247.61249,214.2,1247.61249,183Q1237.8125,185.39999,1235.41248,186.2Q1233.41248,186.6,1232.61249,186.6Q1227.41248,186.6,1222.51251,182.2Q1217.61249,177.799995,1216.21252,171.599998Q1215.61249,169,1216.8125,167.199997Q1218.01251,165.400002,1221.41248,165.400002Q1229.41248,165.400002,1247.41248,162.400002Q1246.8125,134.799995,1245.8125,117.39999399999999Q1245.21252,107.599991,1241.8125,99L1241.41248,96.599991Q1241.41248,92,1249.21252,92.800003Q1257.41248,93.39999399999999,1262.21252,94.89999399999999Q1267.01251,96.39999399999999,1271.01251,99Q1273.01251,100.39999399999999,1273.8125,102.199997Q1274.61249,104,1274.61249,107Q1274.61249,109.599991,1274.41248,111.199997Q1273.21252,119,1272.41248,157.599998Q1280.01251,156.199997,1285.01251,154.799995Q1288.61249,153.799995,1291.01251,153.799995Q1293.8125,153.799995,1296.01251,154.5Q1298.21252,155.199997,1299.21252,156.199997Q1303.41248,160.599998,1306.01251,167.599998Q1306.8125,169.400002,1306.8125,171.400002Q1306.8125,175.599998,1302.41248,175.599998Q1291.21252,175.599998,1272.21252,178.599998Q1272.21252,211.8,1272.41248,222.39999Q1276.8125,221.60001,1295.01251,217.8Q1296.61249,217.39999,1299.61249,217.39999Q1306.8125,217.39999,1311.61249,222.60001Q1314.8125,226.8,1316.91248,230.2Q1319.01251,233.60001,1320.01251,237.39999Q1320.61249,239.2,1320.61249,240.60001Q1320.61249,245,1315.8125,244.60001Q1312.8125,244.39999,1305.8125,244.39999Q1286.61249,244.39999,1263.21252,246.5Q1239.8125,248.60001,1225.61249,252.2Q1223.21252,252.60001,1222.41248,252.60001Q1217.01251,252.60001,1212.8125,248.8Q1208.61249,245,1204.01251,238.2ZM1361.8125,264.8Q1359.8125,263.60001,1357.8125,260.7Q1355.8125,257.8,1353.01251,252.2Q1352.01251,250.2,1352.01251,248Q1352.01251,244.60001,1355.41248,240.8Q1357.61249,238,1358.11249,235.39999Q1358.61249,232.8,1359.01251,227Q1360.61249,200.6,1360.61249,171.400002Q1360.61249,125.799995,1355.41248,104Q1355.01251,102.800003,1355.01251,102.199997Q1355.01251,100.599991,1356.21252,100.099991Q1357.41248,99.599991,1359.8125,99.599991Q1366.41248,99.599991,1375.01251,102.699997Q1383.61249,105.800003,1386.01251,109.199997Q1410.61249,107.199997,1434.8125,103.89999399999999Q1459.01251,100.599991,1471.41248,96.199997Q1474.61249,95.39999399999999,1476.61249,95.39999399999999Q1480.01251,95.39999399999999,1482.21252,97Q1487.41248,101,1492.21252,110.599991Q1493.8125,113.39999399999999,1493.8125,116.599991Q1493.8125,120.199997,1491.8125,122.400002Q1490.61249,124.599998,1488.8125,125Q1487.01251,125.400002,1482.61249,125Q1475.41248,124.599998,1468.61249,124.599998Q1449.8125,124.599998,1426.51251,126.199997Q1403.21252,127.799995,1393.41248,130Q1390.41248,130.599998,1387.61249,130.599998L1387.61249,136Q1386.8125,174,1386.8125,220.60001L1386.8125,230.60001L1387.41248,230Q1408.61249,209,1425.61249,178.199997Q1408.61249,156.799995,1392.01251,145.400002Q1390.01251,143.599998,1390.01251,142Q1390.01251,140.799995,1391.3125,140Q1392.61249,139.199997,1394.61249,139.400002Q1414.8125,144.400002,1435.21252,158.799995Q1442.21252,142.400002,1445.21252,128.599998Q1445.61249,127.199997,1446.61249,126.199997Q1447.61249,125.199997,1449.01251,125.199997Q1450.41248,125.199997,1451.21252,125.599998Q1459.21252,129,1463.11249,132.099998Q1467.01251,135.199997,1470.01251,141.400002Q1470.61249,142.799995,1470.61249,144.199997Q1470.61249,146,1468.41248,149.400002Q1468.41248,149.599998,1463.41248,157.199997Q1461.41248,160,1460.61249,161.400002Q1457.01251,166.799995,1453.61249,173.799995Q1462.01251,181.6,1468.21252,189.2Q1476.8125,200,1476.8125,208.2Q1476.8125,211.8,1475.3125,215.2Q1473.8125,218.60001,1470.8125,222.60001Q1467.8125,226.8,1463.61249,226.8Q1460.8125,226.8,1458.41248,224.39999Q1452.41248,215.8,1448.61249,210.2L1439.41248,196.8Q1420.21252,221.60001,1387.8125,232.60001Q1387.41248,232.8,1386.8125,232.8L1386.8125,239.2Q1402.61249,236.2,1434.91248,232.89999Q1467.21252,229.60001,1481.21252,229.60001Q1486.01251,229.60001,1488.01251,230Q1490.01251,230.39999,1492.01251,232.2Q1496.8125,236,1501.0125,241.2Q1505.2125,246.39999,1506.0125,252.2Q1506.4125,256.39999,1504.6125,258.3Q1502.8125,260.2,1500.2125,259.60001Q1494.8125,258.60001,1480.21252,257.89999Q1465.61249,257.2,1448.41248,257.2Q1429.61249,257.2,1412.71252,258Q1395.8125,258.8,1386.21252,260.39999Q1377.8125,261.60001,1374.41248,262.5Q1371.01251,263.39999,1367.8125,264.60001Q1367.21252,264.8,1366.01251,265.2Q1364.8125,265.60001,1364.01251,265.60001Q1362.61249,265.60001,1361.8125,264.8Z" fill="#FFFFFF" fill-opacity="1"/></g><g></g></g></svg>
