<svg xmlns="http://www.w3.org/2000/svg" xmlns:xlink="http://www.w3.org/1999/xlink" fill="none" version="1.1" width="1930" height="657" viewBox="0 0 1930 657"><defs><clipPath id="master_svg0_1865_36948"><rect x="0" y="0" width="1930" height="657" rx="0"/></clipPath><clipPath id="master_svg1_1831_35323"><rect x="1556.5615234375" y="123" width="344.7103271484375" height="184.24267578125" rx="0"/></clipPath><clipPath id="master_svg4_1865_34640"><rect x="540" y="103" width="300" height="300" rx="0"/></clipPath></defs><g clip-path="url(#master_svg0_1865_36948)"><g><g><rect x="1539" y="22" width="386" height="386" rx="60" fill="#B9B9B9" fill-opacity="1"/></g><g><g><path d="M1587.099998,523.909995727539L1587.099998,537.5599977275391Q1594.869999,530.8399967275391,1604.844997,527.0599977275391Q1614.82,523.279998727539,1624.689995,523.279998727539Q1640.860001,523.279998727539,1650.41499,532.7299957275391Q1659.96999,542.1800007275391,1659.96999,557.299995727539L1659.96999,637.3099957275391L1626.369995,637.3099957275391L1626.369995,562.9700007275391Q1626.369995,556.879997727539,1621.329994,552.994994727539Q1616.290001,549.110000727539,1609.360001,549.110000727539Q1604.949997,549.110000727539,1598.334999,552.0499957275391Q1591.719997,554.989997727539,1587.099998,559.1899947275391L1587.099998,637.3099957275391L1553.5,637.3099957275391L1553.5,523.909995727539L1587.099998,523.909995727539ZM1732,640.4599957275391Q1708.26999,640.4599957275391,1693.98999,630.1699957275391Q1679.70999,619.8799857275391,1679.28999,600.3499957275391Q1678.87,583.9700007275391,1686.745,574.0999987275391Q1694.62,564.2299957275391,1708.26999,561.2900007275391Q1697.76999,558.769996727539,1690.73499,548.7949977275391Q1683.7,538.8199997275391,1683.7,527.9000017275391Q1683.7,509.21000672753905,1696.72,498.60499572753906Q1709.73999,487.9999999975391,1732.4199800000001,487.9999999975391Q1755.09999,487.9999999975391,1768.12,497.9750061275391Q1781.13998,507.9499967275391,1781.13998,526.4300007275391Q1781.13998,538.1900027275391,1773.89499,548.269996727539Q1766.64999,558.3499987275391,1755.51999,561.2900007275391Q1769.37999,564.2299957275391,1777.67499,574.0999987275391Q1785.97,583.9700007275391,1785.54999,600.139995727539Q1785.12999,618.8300057275391,1771.06,629.644985727539Q1756.98999,640.4599957275391,1732,640.4599957275391ZM1713.93999,530.629997727539Q1713.93999,537.139999727539,1718.56,542.0749967275391Q1723.17999,547.010001727539,1732.4199800000001,547.010001727539Q1740.81999,547.010001727539,1745.85999,542.284995727539Q1750.89999,537.5599977275391,1750.89999,530.629997727539Q1750.89999,521.1800007275391,1746.17499,517.1900027275391Q1741.44998,513.1999967275391,1732.4199800000001,513.1999967275391Q1723.59999,513.1999967275391,1718.76999,517.0849987275391Q1713.93999,520.9700007275391,1713.93999,530.629997727539ZM1754.47,594.889995727539Q1754.47,587.3300017275391,1748.37999,582.0800017275391Q1742.28999,576.8300017275391,1732.4199800000001,576.8300017275391Q1722.54999,576.8300017275391,1716.45999,582.0800017275391Q1710.37,587.3300017275391,1710.37,594.889995727539Q1710.37,605.8099957275391,1716.25,610.5349957275391Q1722.12999,615.259995727539,1732.4199800000001,615.259995727539Q1742.5,615.259995727539,1748.48499,610.744995727539Q1754.47,606.2299957275391,1754.47,594.889995727539ZM1838.47,523.909995727539L1838.47,537.5599977275391Q1846.23999,530.8399967275391,1856.215,527.0599977275391Q1866.19,523.279998727539,1876.06,523.279998727539Q1892.22998,523.279998727539,1901.78497,532.7299957275391Q1911.34,542.1800007275391,1911.34,557.299995727539L1911.34,637.3099957275391L1877.73999,637.3099957275391L1877.73999,562.9700007275391Q1877.73999,556.879997727539,1872.6999799999999,552.994994727539Q1867.66,549.110000727539,1860.72998,549.110000727539Q1856.32001,549.110000727539,1849.70499,552.0499957275391Q1843.09,554.989997727539,1838.47,559.1899947275391L1838.47,637.3099957275391L1804.87,637.3099957275391L1804.87,523.909995727539L1838.47,523.909995727539Z" fill="#000000" fill-opacity="1"/></g></g><g clip-path="url(#master_svg1_1831_35323)"><g><path d="M1864.9913034375,123C1848.4410434375,122.9979639696,1833.9855334375,134.364362,1829.8463134375,150.634548L1788.2382334375,150.634548C1770.5046834375,150.631042,1755.3674434375,163.64458100000002,1752.4469634375,181.404415L1750.9676334375,190.50412799999998C1749.5074034375,199.384033,1741.9387634375,205.8908,1733.0719934375,205.889053L1718.6951434375,205.889053C1714.5525034375,189.625801,1700.1018334375,178.265381,1683.5573334375,178.265381C1667.0128434375,178.265381,1652.5621794375,189.625801,1648.4195324375,205.889053L1627.9960784375,205.889053C1621.6726224375,181.033123,1592.8823204375,170.194073,1572.1275744375,184.855534C1551.3728280375,199.51698299999998,1551.3728413375,230.69391000000002,1572.1275994375,245.35534C1592.8823624375,260.0168,1621.6726534375,249.17771,1627.9960784375,224.3218L1648.4195254375,224.3218C1652.5521694375,240.59888,1667.0093234375,251.97371,1683.5645134375,251.97371C1700.1196934375,251.97371,1714.5768434375,240.59888,1718.7095034375,224.3218L1733.0719734375,224.3218C1741.9441834375,224.31293,1749.5208434375,230.82139,1750.9819834375,239.70673L1752.4613234375,248.79185999999999C1755.3755334375,266.55748,1770.5144534375,279.57861,1788.2526134375,279.57631000000003L1793.5667234375,279.57631000000003C1799.8856534375,304.43561,1828.6775534375001,315.27979,1849.4349634375,300.61856C1870.1924734375,285.95736999999997,1870.1925034375,254.77713,1849.4350234375,240.11588999999998C1828.6775834375,225.45466,1799.8856834375001,236.29883999999998,1793.5667234375,261.15814L1788.2526134375,261.15814C1779.3812234375,261.15869,1771.8109434375,254.64432,1770.3569634375,245.75862L1768.8776534375,236.67349000000002C1767.5081934375,228.31744,1763.3376134375,220.698334,1757.0716734375,215.105431C1763.3298634375,209.504333,1767.4902534375,201.88012700000002,1768.8488934375,193.522781L1770.3426234375,184.452229C1771.7965834375,175.566525,1779.3668834375,169.052147,1788.2382334375,169.052708L1829.8319734375,169.052708C1834.5419634375,187.597771,1852.4576734375,199.388481,1871.0536534375,196.18152600000002C1889.6496534375,192.974571,1902.7265634374999,175.83902,1901.1419034374999,156.754978C1899.5572234375,137.670935,1883.8392334375,123.00036047754,1864.9913034375,123ZM1864.9769334375,141.418165C1874.9953034375,141.418159,1883.1167634375001,149.664257,1883.1167634375001,159.836338C1883.1246334375,170.014099,1875.0008534375,178.269093,1864.9769334375,178.269093C1854.9530034375,178.269093,1846.8292534375,170.014099,1846.8371534375,159.836338C1846.8371534375,149.658569,1854.9673734375,141.410114,1864.9769334375,141.418165ZM1592.8511234375,196.687263C1602.8750644375,196.67922199999998,1611.0052684375,204.927673,1611.0052684375,215.105431C1611.0052684375,225.28321,1602.8750424375,233.53167000000002,1592.8510974375,233.52361000000002C1582.8327544375,233.52361000000002,1574.7112884375,225.27751,1574.7112884375,215.105431C1574.7112864375,204.93336499999998,1582.8327524375,196.687271,1592.8511234375,196.687263ZM1683.5645134375,196.687263C1693.5828434375,196.687271,1701.7043334375,204.93336499999998,1701.7043334375,215.105431C1701.7043334375,225.27751,1693.5828434375,233.52361000000002,1683.5645134375,233.52361000000002C1673.5517734375,233.51556,1665.4390534375,225.27179999999998,1665.4390634375,215.105431C1665.4390734375,204.93336499999998,1673.5605434375,196.687271,1683.5645134375,196.687263ZM1828.7117334375,251.95634C1838.7356534374999,251.94832,1846.8659034375,260.19676000000004,1846.8659034375,270.37451C1846.8658434375,280.5466,1838.7444134375,288.79269,1828.7260734375,288.79266C1818.7021434375001,288.8007,1810.5719334375,280.55226,1810.5719334375,270.37451C1810.5640234375,260.19676000000004,1818.6878034375,251.94177,1828.7117334375,251.95634Z" fill="#000000" fill-opacity="1" style="mix-blend-mode:passthrough"/></g></g></g><g><rect x="989" y="22" width="391" height="635" rx="0"  fill-opacity="1"/></g><g><rect x="0" y="27" width="391" height="630" rx="0"  fill-opacity="1"/></g><g clip-path="url(#master_svg4_1865_34640)"><g><path d="M624.294632,249.31279025C630.1216890000001,243.48573325,623.607697,243.48573325,618.128052,240.74590325C612.648415,238.00608025,618.128052,235.94528925,618.128052,235.94528925C652.39559,235.94528925,656.50137,233.20546725,665.41567,226.00454725C674.32999,218.80362725,677.06979,195.85070025,677.06979,195.85070025C685.46428,199.11551624999998,694.46747,200.51906625,703.45737,199.96438225C712.71118,235.59787725,729.84494,233.20546725,729.84494,233.20546725C736.35895,233.54498325,732.21367,219.84587125000002,729.84494,214.35832225000001C727.47623,208.87078125,727.79205,188.65767625,724.01788,183.17803025C720.24373,177.69838525,705.51816,173.23728925,697.2908,168.44457245C692.34164,165.56034085,686.86472,163.69711167,681.1834699999999,162.9649269124C659.93601,162.9649269124,613.335335,179.07224225,613.335335,179.07224225C607.855682,186.26526625,590.721924,253.42646825,590.721924,260.96690325C590.721924,268.50733125,600.315254,272.96054125,600.315254,272.96054125C600.315254,272.96054125,618.475464,255.13984725,624.302521,249.32067825000001L624.294632,249.31279025ZM540.03125,254.15287825000001L562.186707,162.95703125L599.809929,172.10030265L577.654469,263.29615125L540.03125,254.15287825000001ZM781.00146,171.83974265L818.70361,163.028092913L840.06161,254.42133325L802.35944,263.23298124999997L781.00146,171.83974265Z" fill="#8074FF" fill-opacity="1" style="mix-blend-mode:passthrough"/></g><g><path d="M769.89261203125,192.09287475C764.06555203125,170.33220435,735.28557203125,173.75895739,731.20346203125,173.93266296C727.12137203125,174.10636854,736.00407203125,181.29939225,736.00407203125,190.51372675C737.25685203125,200.34816775000002,739.20407203125,210.08161175,741.83113203125,219.64112875C742.17065203125,223.58900075,745.9448220312499,240.37535075,728.63733203125,240.37535075C711.32985203125,240.37535075,698.99671903125,219.98853275,696.94380903125,213.98776974999998C694.89091503125,207.98699975,693.17754403125,207.13426175,688.03741503125,207.13426175C681.35761303125,207.13426175,678.27037803125,223.71532475,672.61702703125,228.72122174999998C666.96368403125,233.72711974999999,661.82354703125,237.62762475,655.14374503125,242.76775375C648.46394303125,247.90788275,641.26302703125,246.02079774999999,638.87061703125,247.56836675C636.47820703125,249.11593675,612.48303703125,271.72933975,607.69032573125,276.69575875C602.89761523125,281.66216875,596.20991733125,286.11538874999997,600.83682053125,292.48724875C604.77477793125,297.80966875,611.63841103125,300.07435875,617.97058103125,298.14058875C628.04686403125,290.00410875,637.65549503125,281.30492875,646.75057203125,272.08463274999997C651.20377303125,267.45773275,660.45758103125,251.35041775000002,664.57126603125,254.91928875000002C668.68494403125,258.48816675,656.17808503125,274.13751875,648.63765303125,282.19118875C638.84063303125,290.70283875,628.48168203125,298.54524875,617.63106903125,305.66523874999996C614.03061003125,308.57876875,624.65827903125,317.31145875000004,628.59825703125,317.31145875000004C633.09514203125,318.02358875,637.70002403125,317.55004875,641.95785503125,315.93758875000003C646.41106003125,313.56887875,663.20529603125,298.80383875,665.94512903125,296.57722875C668.68495903125,294.35064875,676.0516740312501,283.89667875,681.19180303125,286.81019875C686.33192403125,289.72372875,680.50486803125,295.20336875,671.59847303125,302.91750875C662.6920740312501,310.63164875,645.04508203125,320.73820875,642.98429903125,323.13061875C640.92351503125,325.52302875,653.60406903125,330.49735875,658.40468203125,331.02636874999996C663.20529603125,331.55538875,666.11093103125,329.44723875,671.76428203125,326.39945875C677.41764103125,323.35171875000003,685.97662403125,315.26646875,689.7507930312499,317.49306875C693.52496303125,319.71966875,676.61227403125,331.88702875,676.61227403125,331.88702875C672.49859603125,334.62682874999996,671.58268703125,336.22965875,678.43618803125,336.22965875C685.7755580312501,335.12955875,692.00970503125,330.28110875,694.88301803125,323.43854875C696.93591303125,317.95891875,701.0496020312501,316.33239875000004,703.33146203125,308.58666875C705.6133220312499,300.84095875,706.18972203125,295.74029874999997,710.81663203125,292.65304875C715.44353203125,289.56582875,725.2105820312499,291.62660875,728.80313203125,287.17341875C732.39570203125,282.72019875,740.7967720312499,284.43358875,748.16351203125,278.09330875C755.53026203125,271.75300575,761.18359203125,262.15969075,767.3501720312499,262.15969075C773.51675203125,262.15969075,775.24591203125,266.61289975,778.6568620312501,269.18690475C782.06782203125,271.76090275,788.42389203125,271.92672775,787.91067203125,267.60775775C787.39744203125,263.28878775,775.74333203125,213.81405275,769.92418203125,192.05338075L769.89261203125,192.09287475Z" fill="#8074FF" fill-opacity="1" style="mix-blend-mode:passthrough"/></g><g><path d="M703.25269336875,317.4998173125C700.68657299875,317.4998173125,701.02609634475,326.7536243125,701.02609634475,331.3805393125C701.02609634475,336.0074543125,702.39995966875,343.0346523125,707.70589876875,343.0346523125C713.01183746875,343.0346523125,715.60164746875,343.0346523125,715.60164746875,333.9545443125C715.14574946875,326.5005953125,710.29625796875,320.0335733125,703.26849766875,317.5077133125L703.25269336875,317.4998173125ZM716.78599646875,303.2874793125C712.50650146875,305.8535993125,714.41727546875,316.3075603125,716.78599646875,320.7607653125C719.15471846875,325.2139703125,727.91899346875,333.4413333125,733.31178246875,328.9881283125C738.70455946875,324.5349233125,734.43298346875,314.4283833125,730.84041746875,309.9672813125C727.24785446875,305.5061793125,720.78124446875,300.8871723125,716.78599646875,303.2874793125ZM755.15930946875,295.3917313125C750.43848446875,291.3915753125,743.83542646875,290.4693643125,738.19925646875,293.0230103125C735.83053546875,295.5891303125,738.02555846875,303.6427843125,739.39939846875,306.7300223125C740.77323946875,309.8172603125,752.24578046875,322.3241193125,759.44670146875,313.7572323125C766.64762146875,305.19034531249997,755.15930946875,295.3996273125,755.15930946875,295.3996273125L755.15930946875,295.3917313125ZM761.8154224687501,275.6523666125C759.10749846875,279.0001297125,759.10749846875,283.7850303125,761.8154224687501,287.1327823125C765.04478446875,292.0992093125,773.31952646875,298.2657773125,778.29383846875,294.3258053125C783.26815046875,290.3858333125,780.52044646875,282.4821892125,776.40675346875,278.0526733125C773.18224346875,273.1285896325,766.42432446875,272.0388374125,761.8154224687501,275.6997452125L761.8154224687501,275.6523666125Z" fill="#8074FF" fill-opacity="1" style="mix-blend-mode:passthrough"/></g></g><g><path d="M462.4,59.639999L454.0799999,59.639999L454.0799999,42.200001L484.719997,42.200001L484.719997,37.400002L495.279999,37.400002L495.279999,42.200001L525.919998,42.200001L525.919998,59.639999L516.159996,59.639999L516.159996,80.919998L472.799999,80.919998L472.799999,85.239998L523.439995,85.239998L523.439995,110.36L462.4,110.36L462.4,59.639999ZM515.519997,56.440002L515.519997,51.960003L464.48,51.960003L464.48,56.440002L515.519997,56.440002ZM513.039997,100.76L513.039997,94.839996L472.799999,94.839996L472.799999,100.76L513.039997,100.76ZM505.759998,71.400002L505.759998,65.800003L472.799999,65.800003L472.799999,71.400002L505.759998,71.400002ZM578.72,100.6L590.16,100.6L590.16,76.760002L559.28,76.760002Q558.48,89.400002,552.12,98.400002Q545.760002,107.4,533.040001,111.4L533.040001,99.480003Q541.279999,96.199997,545.160004,89.040001Q549.040001,81.880005,549.040001,72.120003L549.040001,55.32L534,55.32L534,45.080002L564.72,45.080002L564.72,37.400002L575.28,37.400002L575.28,45.080002L606,45.080002L606,55.32L559.44,55.32L559.44,66.520004L600.48,66.520004L600.48,111L578.72,111L578.72,100.6ZM612.39999,111Q624.32001,87.160004,632.9599900000001,61.48L615.52,61.48L622.08,39.560001L632.64,39.560001L629.03999,51.48L636.24001,51.48Q638,46.040001,640.48,37.400002L651.75999,37.400002Q651.0400099999999,39.960003,650.32001,42.200001Q649.60001,44.440002,649.0400099999999,46.360001L647.44,51.48L686,51.48L686,61.48L644.16,61.48Q643.36,64.040001,642.16,67.32L641.60001,68.839996L681.51999,68.839996Q678.72,84.599998,667.28,95.32Q675.36,99.559998,685.51999,101.88L685.51999,111.96Q669.60001,108.52,658.8,101.8Q648,108.52,632.08,111.96L632.08,101.88Q642.23999,99.559998,650.32001,95.32Q642.16,87.639999,638.48,77.639999Q631.92,95.32,624.64,111L612.39999,111ZM649.67999,78.440002Q653.0400099999999,84.839996,658.8,89.639999Q664.56,84.839996,667.92,78.440002L649.67999,78.440002ZM672.9599900000001,38.599998L676.08,49.880001L665.67999,49.880001L662.56,38.599998L672.9599900000001,38.599998ZM705.92,80.279999Q700.16,85.080002,693.2,88.599998L693.2,76.68Q706.48001,68.040001,712.88,55L694,55L694,44.760002L716.6400100000001,44.760002Q717.60001,41.080002,718.07999,37.400002L728.23999,37.400002Q727.8399999999999,41.800003,727.12,44.760002L766,44.760002L766,55L724.07999,55Q721.8399999999999,60.84,718.39999,66.199997L729.8399999999999,66.199997L729.8399999999999,57.639999L739.91998,57.639999L739.91998,66.199997L763.8399999999999,66.199997L763.8399999999999,105.08L753.67999,105.08L753.67999,76.440002L739.91998,76.440002L739.91998,111L729.8399999999999,111L729.8399999999999,76.440002L716.07999,76.440002L716.07999,105.08L705.92,105.08L705.92,80.279999ZM797.0400099999999,39.640003L844.39999,39.640003L844.39999,48.200001L807.28,48.200001L807.28,50.920002L841.51999,50.920002L841.51999,66.839996L807.28,66.839996L807.28,69.559998L844.39999,69.559998L844.39999,78.120003L797.0400099999999,78.120003L797.0400099999999,39.640003ZM774,100.68Q783.8399999999999,98.279999,788.07999,92.120003L774,92.120003L774,82.520004L804.72,82.520004L804.72,79.639999L815.28,79.639999L815.28,82.520004L846,82.520004L846,92.120003L831.91998,92.120003Q836.1600000000001,98.279999,846,100.68L846,110.76Q826.23999,106.04,820.9599900000001,92.120003L815.12,92.120003L815.12,111L804.88,111L804.88,92.120003L799.0400099999999,92.120003Q793.76001,106.04,774,110.76L774,100.68ZM774,69.160004L794.1600000000001,66.520004L794.1600000000001,76.199997L774,78.919998L774,69.160004ZM774,53L794.1600000000001,55.16L794.1600000000001,64.360001L774,62.280003L774,53ZM775.92001,39.16L794.1600000000001,41.400002L794.1600000000001,50.920002L775.92001,48.600002L775.92001,39.16ZM831.51999,60.52L831.51999,57.240002L807.28,57.240002L807.28,60.52L831.51999,60.52ZM923.91998,96.199997L877.12,96.199997L877.12,54.360001L894.72,54.360001L895.3599899999999,50.360001L874.88,50.360001L874.88,41.880001L883.8399999999999,41.880001L882.32001,37.639999L891.8399999999999,37.639999L893.3599899999999,41.880001L907.76001,41.880001L909.28,37.639999L918.79999,37.639999L917.28,41.880001L926.23999,41.880001L926.23999,50.360001L905.67999,50.360001L905.0400099999999,54.360001L924,54.360001L923.91998,96.199997ZM852.39999,61.799999L872.23999,61.799999Q872.23999,72.120003,871.51999,80.279999Q870.79999,88.440002,869.0400099999999,96.519997Q872.6400100000001,98.519997,877,99.360001Q881.3599899999999,100.2,887.60001,100.2L926.79999,100.2L926.79999,110.2L887.60001,110.2Q880.23999,110.2,875.3599899999999,109.36Q870.48001,108.52,866.56,106.52Q866,108.44,865.76001,109Q865.3599899999999,110.52,865.20001,111L854.1600000000001,111Q857.92001,100.52,859.67999,91.559998Q861.44,82.599998,861.8399999999999,72.199997L852.39999,72.199997L852.39999,61.799999ZM866.48001,39L872,56.360001L861.20001,56.360001L855.67999,39L866.48001,39ZM913.91998,88.440002L913.91998,84.599998L887.20001,84.599998L887.20001,88.440002L913.91998,88.440002ZM913.91998,77.239998L913.91998,73.400002L887.28,73.400002L887.20001,77.239998L913.91998,77.239998ZM913.91998,66.040001L913.91998,62.200001L887.28,62.200001L887.28,66.040001L913.91998,66.040001Z" fill="#000000" fill-opacity="1"/></g></g></svg>