<svg xmlns="http://www.w3.org/2000/svg" xmlns:xlink="http://www.w3.org/1999/xlink" fill="none" version="1.1" width="384" height="88.0047607421875" viewBox="0 0 384 88.0047607421875"><g><path d="M120.0240002,38.514936Q120.0240002,32.735996,125.802938,32.735996L166.197067,32.735996Q171.976002,32.735996,171.976002,38.514936L171.976002,52.185062Q171.976002,57.964001,166.197067,57.964001L125.802938,57.964001Q120.0240002,57.964001,120.0240002,52.185062L120.0240002,38.514936ZM163.816002,40.623999L128.184,40.623999L128.184,50.075998L163.816002,50.075998L163.816002,40.623999ZM133.720688,56.542374Q134.426189,53.407999000000004,137.492563,53.896749L139.275438,54.14325Q142.45019,54.632,141.74469,57.752563Q139.651564,66.365189,133.536877,71.514061Q127.422189,76.664001,119.0645628,77.535252Q115.9301877,78.078186,115.4966877,74.84925100000001L115.3033128,73.03875Q115.0865626,71.451374,115.7984376,70.549313Q116.5113754,69.647251,118.0987501,69.375252Q124.714938,68.178875,128.531439,65.001999Q132.347939,61.825127,133.720688,56.542374ZM156.697254,54.02Q159.872002,54.02,159.872002,57.194748L159.872002,68.844002L174.553627,68.844002Q177.620003,68.844002,177.620003,71.91037399999999L177.620003,73.73362399999999Q177.620003,76.799999,174.553627,76.799999L157.545128,76.799999Q154.65618899999998,76.799999,153.183563,75.327377Q151.71200199999998,73.855812,151.71200199999998,70.96687299999999L151.71200199999998,57.194748Q151.71200199999998,54.02,154.886753,54.02L156.697254,54.02ZM146.919064,14.3759956Q150.14800300000002,14.3759956,150.14800300000002,17.6049347L150.14800300000002,33.451060999999996Q150.14800300000002,36.679996,146.919064,36.679996L145.08094,36.679996Q141.852001,36.679996,141.852001,33.451060999999996L141.852001,17.6049347Q141.852001,14.3759956,145.08094,14.3759956L146.919064,14.3759956ZM173.247814,19.3399963Q176.260002,19.3399963,176.260002,22.3521843L176.260002,24.1478119Q176.260002,27.159996,173.247814,27.159996L118.8063755,27.159996Q115.7400002,27.159996,115.7400002,24.0936241L115.7400002,22.40637207Q115.7400002,19.3399963,118.8063755,19.3399963L173.247814,19.3399963ZM211.91218600000002,14.9199982Q214.816,14.9199982,214.816,17.8238106L214.70763,18.2519989L237.87544,18.2519989Q240.33087,18.2519989,241.57932,19.3442459Q242.82776,20.4364967,242.39319,22.50518417Q241.95863,24.5738716,239.517,27.287498499999998Q233.81775,33.813373999999996,225.88936999999999,37.878498Q217.96206999999998,41.943623,208.798004,43.440685Q207.428436,43.657436000000004,206.65493800000002,43.053936Q205.881439,42.449373,205.664688,41.079811L205.471313,39.488186Q205.092003,36.802185,207.832191,36.368687Q215.21976,35.185062,221.11662,32.478874Q227.01456000000002,29.772686,231.68000999999998,25.3919983L212.62725,25.3919983Q207.33599900000002,25.3919983,207.33599900000002,20.1007462L207.33599900000002,17.605999Q207.33599900000002,14.9199982,210.239815,14.9199982L211.91218600000002,14.9199982ZM216.76888,25.143371600000002Q222.56482,28.9269371,229.23094,31.6894341Q235.89812999999998,34.450874,243.274,36.205059Q246.028,36.76181,245.37669,39.501999L245.04732,41.065998Q244.396,43.806187,241.65582,43.154872999999995Q232.96244000000002,41.101061,225.29649999999998,37.891247Q217.63057,34.680374,212.41688,30.9913712Q210.00181600000002,29.3901863,211.751755,27.151496899999998L212.71224999999998,25.8084984Q214.42181,23.6101837,216.76888,25.143371600000002ZM235.57513,41.371998000000005Q237.936,41.371998000000005,237.936,43.732873999999995L237.936,45.131124Q237.936,47.491999,235.57513,47.491999L216.08888000000002,47.491999Q213.728,47.491999,213.728,45.131124L213.728,43.732873999999995Q213.728,41.371998000000005,216.08888000000002,41.371998000000005L235.57513,41.371998000000005ZM242.662,70.20399900000001Q245.34801,70.20399900000001,245.34801,72.889999L245.34801,74.454002Q245.34801,77.139999,242.662,77.139999L207.438004,77.139999Q204.751999,77.139999,204.751999,74.454002L204.751999,72.889999Q204.751999,70.20399900000001,207.438004,70.20399900000001L242.662,70.20399900000001ZM226.24743999999998,46.811998Q229.368,46.811998,229.368,49.932562000000004L229.368,70.55143699999999Q229.368,73.672001,226.24743999999998,73.672001L224.46456999999998,73.672001Q221.344,73.672001,221.344,70.55143699999999L221.344,49.932562000000004Q221.344,46.811998,224.46456999999998,46.811998L226.24743999999998,46.811998ZM240.93332,60.411999Q243.24001,60.411999,243.24001,62.718689L243.24001,64.089314Q243.24001,66.396,240.93332,66.396L210.05069,66.396Q207.74400300000002,66.396,207.74400300000002,64.089314L207.74400300000002,62.718689Q207.74400300000002,60.411999,210.05069,60.411999L240.93332,60.411999ZM210.96019,46.811998Q213.864,46.811998,213.864,49.715811L213.864,50.483999L241.642,50.483999Q244.328,50.483999,244.328,53.169998L244.328,54.734001Q244.328,57.419998,241.642,57.419998L211.566879,57.419998Q209.001999,57.419998,207.69300099999998,56.111Q206.384003,54.801998,206.384003,52.237123L206.384003,49.715811Q206.384003,46.811998,209.287811,46.811998L210.96019,46.811998ZM199.122879,16.1439972Q202.01181,16.1439972,203.51100200000002,17.6431847Q205.01019300000002,19.1423721,204.95600100000001,22.031311035Q204.69993599999998,32.363060000000004,201.692001,40.895998Q203.99124899999998,45.058874,204.82,49.656311Q205.649811,54.25375,204.95494100000002,59.104061Q204.261124,63.953312,202.138252,68.959812Q200.91637400000002,71.700001,198.190002,70.383564L196.62599899999998,69.616436Q193.994186,68.340374,195.202248,65.559811Q196.971313,61.368248,197.44838,57.571938Q197.92543799999999,53.775622999999996,197.14238,50.387312Q196.35931399999998,46.998999,194.250252,44.059061Q192.94762400000002,42.010560999999996,193.721123,39.988623000000004Q196.768372,32.629749000000004,197.204002,23.6239967L191.492004,23.6239967L191.492004,74.46781200000001Q191.492004,77.47999999999999,188.47981299999998,77.47999999999999L186.75218999999998,77.47999999999999Q183.739998,77.47999999999999,183.739998,74.46781200000001L183.739998,21.65199661Q183.739998,18.925621,185.130814,17.5348091Q186.52162199999998,16.1439972,189.248001,16.1439972L199.122879,16.1439972ZM255.82001,51.176748Q255.82001,48.396187,257.265,46.924623Q258.71001,45.451998,261.54475,45.451998L302.45526,45.451998Q305.23581,45.451998,306.70738,46.896999Q308.18001000000004,48.341999,308.18001000000004,51.176748L308.18001000000004,70.46324899999999Q308.18001000000004,73.243813,306.735,74.715374Q305.29001,76.188,302.45526,76.188L261.54475,76.188Q258.76419,76.188,257.29156,74.743Q255.82001,73.298,255.82001,70.46324899999999L255.82001,51.176748ZM299.884,53.067999L264.116,53.067999L264.116,68.571999L299.884,68.571999L299.884,53.067999ZM301.23762999999997,57.284Q304.03200000000004,57.284,304.03200000000004,60.078377L304.03200000000004,61.697624Q304.03200000000004,64.492001,301.23762999999997,64.492001L262.76237000000003,64.492001Q259.96799999999996,64.492001,259.96799999999996,61.697624L259.96799999999996,60.078377Q259.96799999999996,57.284,262.76237000000003,57.284L301.23762999999997,57.284ZM268.05362,26.7222481Q271.052,25.731998400000002,272.16444,28.798374199999998L273.67957,33.409622Q274.77818,36.462185,271.65762,37.466248L269.90237,38.069748000000004Q266.90400999999997,39.059998,265.79156,35.993622L264.27644,31.3823738Q263.17781,28.3298111,266.29837,27.325748400000002L268.05362,26.7222481ZM309.58781,33.891998Q312.60001,33.891998,312.60001,36.904185999999996L312.60001,38.631811Q312.60001,41.643999,309.58781,41.643999L254.41219,41.643999Q251.39999,41.643999,251.39999,38.631811L251.39999,36.904185999999996Q251.39999,33.891998,254.41219,33.891998L309.58781,33.891998ZM307.41182000000003,18.3199959Q310.42401,18.3199959,310.42401,21.33218384L310.42401,23.0598106Q310.42401,26.0719986,307.41182000000003,26.0719986L256.72418,26.0719986Q253.71201,26.0719986,253.71201,23.0598106L253.71201,21.33218384Q253.71201,18.3199959,256.72418,18.3199959L307.41182000000003,18.3199959ZM283.38018999999997,14.6479988Q286.284,14.6479988,286.284,17.5518112L286.284,19.2921829Q286.284,22.19599915,283.38018999999997,22.19599915L280.81,22.19599915Q277.85201,22.19599915,277.85201,19.237999L277.85201,17.605999Q277.85201,14.6479988,280.81,14.6479988L283.38018999999997,14.6479988ZM297.83763,27.325748400000002Q300.95819,28.3298111,299.85956,31.3823738L298.34443999999996,35.993622Q297.23199,39.059998,294.23363,38.069748000000004L292.47838,37.466248Q289.35782,36.462185,290.45644,33.409622L291.97156,28.798374199999998Q293.084,25.731998400000002,296.08238,26.7222481L297.83763,27.325748400000002ZM379.11038,16.6199989Q381.96002,16.6199989,381.96002,19.4696236L381.96002,21.11437225Q381.96002,23.9639969,379.11038,23.9639969L352.44162,23.9639969Q349.59200999999996,23.9639969,349.59200999999996,21.11437225L349.59200999999996,19.4696236Q349.59200999999996,16.6199989,352.44162,16.6199989L379.11038,16.6199989ZM375.26837,29.063999199999998Q377.88638,29.063999199999998,379.27719,30.427185100000003Q380.668,31.790374800000002,380.668,34.463623L380.668,60.514Q380.668,63.472,377.70999,63.472L376.01001,63.472Q373.052,63.472,373.052,60.514L373.052,36.407997L358.09200999999996,36.407997L358.09200999999996,60.514Q358.09200999999996,63.472,355.134,63.472L353.43401,63.472Q350.476,63.472,350.476,60.514L350.476,34.463623Q350.476,31.845623,351.83919000000003,30.4548111Q353.20238,29.063999199999998,355.87563,29.063999199999998L375.26837,29.063999199999998ZM366.422,39.467999Q369.38,39.467999,369.38,42.425999000000004L369.38,50.823999Q369.38,59.814873,365.70587,66.25574900000001Q362.03281000000004,72.69556399999999,353.298,77.101749Q350.62581,78.41819000000001,349.4592,75.678001L348.77281,74.11399800000001Q347.62,71.495998,350.30600000000004,70.165749Q354.79718,67.881374,357.30788,65.16775100000001Q359.81857,62.454124,360.79076,59.067936Q361.76401,55.680687,361.76401,50.823999L361.76401,42.425999000000004Q361.76401,39.467999,364.722,39.467999L366.422,39.467999ZM380.5777,70.49406400000001Q382.65381,72.515999,380.6319,74.64631299999999L379.48013,75.825687Q377.40399,78.010189,375.27368,75.93406300000001L368.92633,69.777939Q366.85019,67.756001,368.87213,65.625687L370.02386,64.446312Q372.10001,62.26181,374.23032,64.337936L380.5777,70.49406400000001ZM366.40819,20.291996Q369.31201,20.291996,369.31201,23.1958084L369.31201,29.8321838Q369.31201,32.735996,366.40819,32.735996L364.73581,32.735996Q361.832,32.735996,361.832,29.8321838L361.832,23.1958084Q361.832,20.291996,364.73581,20.291996L366.40819,20.291996ZM336.21619,14.9199982Q339.12,14.9199982,339.12,17.8238106L339.12,35.612186Q339.12,38.515999,336.21619,38.515999L334.54381,38.515999Q331.64,38.515999,331.64,35.612186L331.64,17.8238106Q331.64,14.9199982,334.54381,14.9199982L336.21619,14.9199982ZM323.67763,19.067997Q326.472,19.067997,326.472,21.86237335L326.472,34.639999L345.42381,34.639999Q348.43600000000004,34.639999,348.43600000000004,37.652187L348.43600000000004,39.37981Q348.43600000000004,42.391998,345.42381,42.391998L324.66362000000004,42.391998Q322.04562,42.391998,320.65482,41.028811000000005Q319.26401,39.665623,319.26401,36.992374L319.26401,21.86237335Q319.26401,19.067997,322.05838,19.067997L323.67763,19.067997ZM344.73,20.9719963Q347.688,20.9719963,347.688,23.9299965L347.688,25.6299973Q347.688,28.5879974,344.73,28.5879974L338.33799999999997,28.5879974Q335.38,28.5879974,335.38,25.6299973L335.38,23.9299965Q335.38,20.9719963,338.33799999999997,20.9719963L344.73,20.9719963ZM334.14963,37.155998Q336.94399999999996,37.155998,336.94399999999996,39.950373L336.94399999999996,58.909622Q336.94399999999996,61.703999,334.14963,61.703999L332.53038000000004,61.703999Q329.73600999999996,61.703999,329.73600999999996,58.909622L329.73600999999996,39.950373Q329.73600999999996,37.155998,332.53038000000004,37.155998L334.14963,37.155998ZM345.87219,46.853436Q347.297,46.961811,347.98231999999996,47.728937Q348.66763000000003,48.494999,348.50507,49.919810999999996Q347.71668999999997,57.320126,344.48669,63.285Q341.25667999999996,69.249874,335.62437,72.977127Q329.99207,76.705437,322.18163000000004,77.372688Q320.75681,77.589439,319.92912,76.930687Q319.10144,76.272999,318.99306,74.848186L318.85492999999997,73.17581200000001Q318.63818000000003,70.326187,321.48780999999997,69.89268899999999Q327.78844000000004,68.926876,331.92474000000004,66.179249Q336.06107,63.431625,338.23706000000004,59.234749Q340.41306,55.036812,341.02507,49.525622999999996Q341.35019,46.607997999999995,344.19981,46.770561L345.87219,46.853436ZM325.00999,47.248686Q327.696,47.9,327.04469,50.640186L324.87932,59.371811Q324.228,62.152374,321.474,61.392685L319.90999999999997,60.995312Q317.224,60.344002,317.87531,57.603813L320.04068,48.872187Q320.692,46.091623,323.446,46.851310999999995L325.00999,47.248686Z" fill="#000000" fill-opacity="1"/></g><path d="M0.0000037474761,46.04898273791504C0.0000037474761,36.97016673791504,-0.0081826141,29.85202073791504,0.73678756,24.30158073791504C1.4940376,18.66927773791504,3.0781219,14.19536373791504,6.5901256,10.68336243791504C10.10213,7.171360237915039,14.571951,5.591368237915039,20.208349,4.830024477915039C25.75469,4.089147557515039,32.872841,4.093240737915039,41.95575,4.093240737915039L48.103798,4.101427098715039L48.41898,4.117799819915039C49.982998,4.285193937915039,51.167458,5.607645437915039,51.162189,7.180585637915039C51.156921,8.75352713791504,49.963619,10.068009837915039,48.398514,10.22491883791504L48.083332,10.241291537915039L41.95166,10.233104737915038C32.700928,10.233104737915038,26.069876,10.23719833791504,21.027,10.91667703791504C16.074175,11.58387513791504,13.110665,12.844594037915039,10.928967,15.026292737915039C8.7513609,17.207991737915037,7.4906425,20.16740573791504,6.8193502,25.12432473791504C6.1439648,30.167196737915038,6.1357789,36.798249737915036,6.1357789,46.04898273791504C6.1357789,55.29971073791504,6.1439648,61.93076473791504,6.8193502,66.97363473791503C7.4865489,71.92646173791503,8.7472668,74.88997073791504,10.928967,77.07167273791504C13.110665,79.25336673791504,16.074173,80.51408573791504,21.027,81.18128373791504C26.069876,81.86076573791505,32.700928,81.86486273791503,41.95166,81.86486273791503C51.206482,81.86486273791503,57.833439,81.86076573791505,62.880405,81.18128373791504C67.833229,80.51408573791504,70.796738,79.25336673791504,72.978439,77.07167273791504C75.156044,74.88997073791504,76.416771,71.93055873791504,77.083969,66.97363473791503C77.763443,61.93076473791504,77.771629,55.29971073791504,77.771629,46.04898273791504L77.763443,39.91730273791504L77.775719,39.606218737915036C77.922905,38.03229373791504,79.241241,36.82744073791504,80.822037,36.82214973791504C82.402817,36.81685873791504,83.729202,38.01284173791504,83.886925,39.58575673791504L83.903313,39.90093373791504L83.911491,46.04898273791504C83.911491,55.12779773791504,83.915588,62.24593973791504,83.170616,67.79638473791505C82.413361,73.42868973791504,80.829285,77.90260473791504,77.317276,81.41461373791503C73.805275,84.92660673791504,69.335449,86.50660873791504,63.699051,87.26795373791504C58.152706,88.00882873791504,51.034561,88.00473173791504,41.951656,88.00473173791504C32.876934,88.00473173791504,25.75469,88.01291873791504,20.208345,87.26795373791504C14.576043,86.50660873791504,10.098035,84.92661473791505,6.5901246,81.41461373791503C3.0781219,77.90261273791504,1.4940368,73.43278673791504,0.7367866,67.79229573791504C-0.008183551,62.24594673791504,0.0000028106072,55.12780573791504,0.0000037474761,46.04898273791504Z" fill="#000000" fill-opacity="1" style="mix-blend-mode:passthrough"/><path d="M70.60863897045898,0C71.89292897045898,0.00084037142,73.04096597045898,0.80103558,73.48618697045899,2.0056889L74.53815097045899,4.8586793L75.479598970459,7.355557C76.27777897045898,9.3858061,76.687102970459,10.147148,77.26834497045898,10.728388L77.587611970459,11.006728C78.37352397045899,11.641181,79.64651897045898,12.165115,83.14624397045898,13.462673L85.99922597045898,14.518731L86.43310197045898,14.719299C87.47595597045898,15.304877,88.08378197045899,16.442797,87.99064997045899,17.635172C87.89750297045899,18.827547,87.12034997045899,19.857285,85.99922597045898,20.27383L83.14624397045898,21.329887C79.13894697045899,22.811642,78.050147970459,23.282364,77.27243397045899,24.060081C76.49471997045899,24.837797,76.02399397045897,25.930693,74.54223997045898,29.933884L73.48618697045899,32.79097C73.06983597045898,33.913902,72.03846397045899,34.692192,70.84439897045898,34.784515C69.65033297045898,34.876839,68.511580970459,34.266338,67.92756697045898,33.22076L67.72699397045898,32.79097L66.67503397045898,29.933884C65.37747597045899,26.430071,64.85353897045898,25.15707,64.21908597045899,24.375261L63.944839970458986,24.064177C63.163032970458985,23.286461,62.070132970458985,22.815737,58.066943970458986,21.333982L55.213954970458985,20.273834C54.01143597045898,19.826824,53.21369197045898,18.679193,53.21369197045898,17.396282C53.21369197045898,16.113373,54.01143597045898,14.965742,55.213954970458985,14.518734L58.066943970458986,13.462677L60.56381997045899,12.521231C62.59815997045899,11.727142,63.35541197045898,11.313725,63.940745970458984,10.732483L64.21908597045899,10.417304C64.85353897045898,9.631403,65.37338297045898,8.3584032,66.67093997045899,4.8586817L67.72699397045898,2.0015979L67.93165997045898,1.5718075C68.47382697045899,0.60207367,69.49763097045899,0.00094061636,70.60863897045898,0ZM70.60045597045898,11.592063C69.97008897045899,12.938739,69.257865970459,14.097126,68.27957897045899,15.071319C67.30538897045898,16.053696,66.15109997045899,16.761826,64.80032697045898,17.39628C66.15109997045899,18.030733,67.30539297045898,18.747049,68.28367597045899,19.721243C69.257865970459,20.699526,69.97418197045899,21.849728,70.60454597045899,23.196405C71.23900197045899,21.84973,71.95531797045899,20.699528,72.93360097045898,19.71715C73.90779497045898,18.742958,75.06208397045899,18.026642,76.40876397045898,17.392189C75.06208397045899,16.757734,73.90779497045898,16.045513,72.92950797045899,15.07132C71.95503197045898,14.057205,71.16665297045898,12.879488,70.60045597045898,11.592063ZM42.97924597045898,68.688705L42.97924597045898,24.686344C42.979239970458984,22.99087,44.35369497045899,21.616411,46.04917297045898,21.616411C47.74465197045898,21.616411,49.11910597045898,22.99087,49.119109970458986,24.686344L49.119109970458986,68.688705C49.11910597045898,70.384178,47.74465197045898,71.758636,46.04917297045898,71.758636C44.35369497045899,71.758636,42.979239970458984,70.384178,42.97924597045898,68.688705ZM28.906673970458982,55.516651L28.906673970458982,34.915363C28.906673970458982,33.219883,30.281128970458987,31.84543,31.976605970458984,31.84543C33.672086970458984,31.84543,35.04653897045898,33.219883,35.04653897045898,34.915363L35.04653897045898,55.508469C35.04653897045898,57.203941,33.672086970458984,58.578392,31.976605970458984,58.578392C30.281128970458987,58.578392,28.906673970458982,57.203941,28.906673970458982,55.508469L28.906673970458982,55.516651ZM56.53606797045899,58.840363L56.53606797045899,31.722633C56.53841397045898,30.028809,57.91218197045898,28.656937,59.60600297045898,28.656937C61.299827970458985,28.656937,62.673594970458986,30.028809,62.675933970458985,31.722633L62.675933970458985,58.840363C62.673594970458986,60.534184,61.299827970458985,61.906052,59.60600297045898,61.906052C57.91218197045898,61.906052,56.538409970458986,60.534184,56.53606797045899,58.840363ZM15.730525970458984,52.061954L15.730525970458984,41.570972C15.731695182958985,39.876328,17.105808470458985,38.503162,18.800456570458984,38.503162C20.495106170458985,38.503162,21.869219770458983,39.876328,21.870390870458984,41.570972L21.870390870458984,52.061958L21.854018170458986,52.37714C21.691789670458984,53.941639,20.373345370458985,55.130436,18.800456570458984,55.130436C17.227567670458985,55.130436,15.909125060458985,53.941635,15.746898694458984,52.37714L15.730525970458984,52.061954Z" fill="#000000" fill-opacity="1" style="mix-blend-mode:passthrough"/></svg>