<svg xmlns="http://www.w3.org/2000/svg" xmlns:xlink="http://www.w3.org/1999/xlink" fill="none" version="1.1" width="68" height="38.53333282470703" viewBox="0 0 68 38.53333282470703"><path d="M66.75528,45.84227652470703C68.414917,44.17025562470703,68.414917,41.45936732470703,66.75528,39.78734562470703C65.095642,38.115328554707034,62.404541,38.115328554707034,60.744923,39.78734562470703C60.744923,39.78734562470703,66.75528,45.84227652470703,66.75528,45.84227652470703C66.75528,45.84227652470703,66.75528,45.84227652470703,66.75528,45.84227652470703ZM34.00005,72.78518282470702C34.00005,72.78518282470702,30.994827,75.81266782470703,30.994827,75.81266782470703C32.654583,77.48466082470702,35.345516,77.48466082470702,37.005276,75.81266782470703C37.005276,75.81266782470703,34.00005,72.78518282470702,34.00005,72.78518282470702C34.00005,72.78518282470702,34.00005,72.78518282470702,34.00005,72.78518282470702ZM7.2552128,39.78734562470703C5.5954833,38.115328554707034,2.9045236,38.115328554707034,1.244794,39.78734562470703C-0.41493133,41.45936732470703,-0.41493133,44.17025562470703,1.244794,45.84227652470703C1.244794,45.84227652470703,7.2552128,39.78734562470703,7.2552128,39.78734562470703C7.2552128,39.78734562470703,7.2552128,39.78734562470703,7.2552128,39.78734562470703ZM60.744923,39.78734562470703C60.744923,39.78734562470703,30.994827,69.75770182470703,30.994827,69.75770182470703C30.994827,69.75770182470703,37.005276,75.81266782470703,37.005276,75.81266782470703C37.005276,75.81266782470703,66.75528,45.84227652470703,66.75528,45.84227652470703C66.75528,45.84227652470703,60.744923,39.78734562470703,60.744923,39.78734562470703C60.744923,39.78734562470703,60.744923,39.78734562470703,60.744923,39.78734562470703ZM37.005276,69.75770182470703C37.005276,69.75770182470703,7.2552128,39.78734562470703,7.2552128,39.78734562470703C7.2552128,39.78734562470703,1.244794,45.84227652470703,1.244794,45.84227652470703C1.244794,45.84227652470703,30.994827,75.81266782470703,30.994827,75.81266782470703C30.994827,75.81266782470703,37.005276,69.75770182470703,37.005276,69.75770182470703C37.005276,69.75770182470703,37.005276,69.75770182470703,37.005276,69.75770182470703Z" fill="#000000" fill-opacity="0.800000011920929" transform="matrix(1,0,0,-1,0,77.06666564941406)"/></svg>