<svg xmlns="http://www.w3.org/2000/svg" xmlns:xlink="http://www.w3.org/1999/xlink" fill="none" version="1.1" width="385" height="86" viewBox="0 0 385 86"><path d="M35.9383435,5.5443678C37.1096115,5.4686379,38.2617225,5.8698192,39.1326295,6.6566634C39.8342325,7.2841125,40.3133735,8.116909,40.2164075,9.0409698C40.2164075,9.0694904,40.2164075,9.0923071,40.2278135,9.1151228L40.2791485,9.4972963L40.6270985,9.7482758C40.7044065,10.935477,40.3155935,12.106014,39.5433195,13.01101C38.7817765,13.90588,37.6922795,14.456799,36.5201565,14.539705C23.0585265,15.463766,12.4489355,26.655174,11.9355679,40.464756C11.427906,54.274338,21.1932925,66.247208,34.5522495,68.209404C47.9055025,70.165909,60.5571635,61.484291,63.8598285,48.085407C64.41751049999999,45.692444,66.8256645,44.2188,69.2102585,44.81126C71.5914845,45.455223,73.0159225,47.890232,72.4102405,50.281475C71.2009815,55.192688,68.9877925,59.790184,65.8961795,63.366638L80.3845445,78.19725C81.5632785,79.335617,82.0421145,81.018066,81.6394425,82.606506C81.2535175,84.189117,80.0355605,85.435501,78.4622655,85.857834C76.8969265,86.265091,75.2349775,85.768272,74.1499865,84.56871L60.0666085,69.760918C41.4484865,84.785469,13.9434055,77.045029,5.4386208,54.399826C-3.0604606,31.754623,12.2892227,7.1643267,35.9383435,5.5443678ZM62.2227555,0C62.9357645,0,63.5746235,0.46773469,63.8027835,1.1522245L67.1282655,11.111551C67.9211275,13.484449,69.7407375,15.349684,72.0508805,16.159664L81.7877505,19.559298C82.4722365,19.793163,82.9285655,20.44343,82.9285655,21.173552C82.9285655,21.903675,82.4722365,22.559643,81.7877505,22.787807L72.0508805,26.193144C69.7184755,27.022182,67.9010005,28.883894,67.1282655,31.235552L63.8027835,41.194878C63.5797005,41.88031,62.9435575,42.346512,62.2227555,42.352806C61.4998475,42.348961,60.8607635,41.882298,60.6370205,41.194878L57.3172375,31.235552C56.5448305,28.881718,54.7244565,27.019203,52.3889125,26.193142L42.6577495,22.79351C41.9706495,22.552425,41.5123975,21.901705,41.5169335,21.173552C41.5169335,20.44343,41.9789655,19.793163,42.6577495,19.559298L52.3889125,16.159664C54.7047655,15.349684,56.5243685,13.490153,57.3172375,11.111551L60.6370205,1.1522247C60.8627545,0.4670597,61.5013695,0.0030297711,62.2227555,0Z" fill="#000000" fill-opacity="1" style="mix-blend-mode:passthrough"/><g><path d="M140.275438,13.3479958Q143.396002,13.3479958,143.396002,16.4685593L143.396002,18.25143433Q143.396002,21.3719978,140.275438,21.3719978L118.0245628,21.3719978Q114.904,21.3719978,114.904,18.25143433L114.904,16.4685593Q114.904,13.3479958,118.0245628,13.3479958L140.275438,13.3479958ZM122.2001877,17.3599968Q125.104001,17.3599968,125.104001,20.2638092L125.104001,60.628189Q125.104001,63.532001,122.2001877,63.532001L120.527813,63.532001Q117.6240001,63.532001,117.6240001,60.628189L117.6240001,20.2638092Q117.6240001,17.3599968,120.527813,17.3599968L122.2001877,17.3599968ZM133.76125100000002,43.268Q136.936001,43.268,136.936001,46.442749L136.936001,48.253248Q136.936001,51.428001,133.76125100000002,51.428001L124.538751,51.428001Q121.3640003,51.428001,121.3640003,48.253248L121.3640003,46.442749Q121.3640003,43.268,124.538751,43.268L133.76125100000002,43.268ZM133.76125100000002,29.395996Q136.936001,29.395996,136.936001,32.570747L136.936001,34.381248Q136.936001,37.555998,133.76125100000002,37.555998L124.538751,37.555998Q121.3640003,37.555998,121.3640003,34.381248L121.3640003,32.570747Q121.3640003,29.395996,124.538751,29.395996L133.76125100000002,29.395996ZM137.772188,17.3599968Q140.67600099999999,17.3599968,140.67600099999999,20.2638092L140.67600099999999,71.78019Q140.67600099999999,74.68400199999999,137.772188,74.68400199999999L136.099813,74.68400199999999Q133.196001,74.68400199999999,133.196001,71.78019L133.196001,20.2638092Q133.196001,17.3599968,136.099813,17.3599968L137.772188,17.3599968ZM133.815439,59.52Q136.936001,59.52,136.936001,62.640564L136.936001,64.423439Q136.936001,67.543999,133.815439,67.543999L117.7525625,67.543999Q114.6320001,67.543999,114.6320001,64.423439L114.6320001,62.640564Q114.6320001,59.52,117.7525625,59.52L133.815439,59.52ZM170.943439,11.553436300000001Q174.064003,11.933811200000001,173.62944,15.1085587L173.002567,20.0874367Q172.62219199999998,23.2079964,169.447441,22.7734337L167.664566,22.5545616Q164.544003,22.1741867,164.978565,18.9994354248L165.60544199999998,14.0205612Q165.985817,10.8999977,169.160564,11.3345604L170.943439,11.553436300000001ZM152.17543799999999,11.3345604Q155.350189,10.8999977,155.73056400000002,14.0205612L156.357441,18.9994354248Q156.792004,22.1741867,153.67144,22.5545616L151.888565,22.7734337Q148.713814,23.2079964,148.333439,20.0874367L147.706566,15.1085587Q147.27200299999998,11.933811200000001,150.392563,11.553436300000001L152.17543799999999,11.3345604ZM164.769253,45.347311000000005Q166.356628,45.130562,167.25869,45.843498Q168.160751,46.555374,168.432755,48.14275Q169.465504,53.410625,171.900753,58.064377Q174.337067,62.718124,178.13550600000002,66.801311Q180.333817,69.16218599999999,178.149315,71.400875L176.914692,72.66312400000001Q174.621815,75.010189,172.423504,72.649315Q167.103565,67.00425,163.980877,60.725937Q160.858189,54.446564,160.326939,49.108562Q160.000751,47.521187,160.65843999999998,46.639311Q161.317188,45.757436999999996,162.958752,45.540686L164.769253,45.347311000000005ZM160.757252,27.559997600000003Q163.932003,27.559997600000003,163.932003,30.734749L163.932003,38.439999Q163.932003,48.7505,160.14950199999998,57.864624Q156.36700100000002,66.977688,148.163441,73.45150000000001Q145.708,75.41819000000001,143.83587599999998,72.786377L142.820127,71.277626Q141.070189,68.768002,143.539438,66.787498Q150.043003,61.523876,152.907501,54.362625Q155.77200299999998,47.200312,155.77200299999998,38.439999L155.77200299999998,30.734749Q155.77200299999998,27.559997600000003,158.946751,27.559997600000003L160.757252,27.559997600000003ZM175.553627,41.975998000000004Q178.620003,41.975998000000004,178.620003,45.042373999999995L178.620003,46.797625Q178.620003,49.863997999999995,175.553627,49.863997999999995L145.578377,49.863997999999995Q142.512001,49.863997999999995,142.512001,46.797625L142.512001,45.042373999999995Q142.512001,41.975998000000004,145.578377,41.975998000000004L175.553627,41.975998000000004ZM174.737629,23.6159973Q177.804001,23.6159973,177.804001,26.682373L177.804001,28.4376221Q177.804001,31.503998,174.737629,31.503998L146.258377,31.503998Q143.192001,31.503998,143.192001,28.4376221L143.192001,26.682373Q143.192001,23.6159973,146.258377,23.6159973L174.737629,23.6159973ZM244.58,19.19493484Q244.58,13.4159966,238.80106999999998,13.4159966L191.198936,13.4159966Q185.41999800000002,13.4159966,185.41999800000002,19.19493484L185.41999800000002,71.359436Q185.41999800000002,74.47999999999999,188.54056500000002,74.47999999999999L190.323441,74.47999999999999Q193.44400000000002,74.47999999999999,193.44400000000002,71.359436L193.44400000000002,21.3719978L236.55599999999998,21.3719978L236.55599999999998,65.91199900000001L233.76057,65.91199900000001Q230.64,65.91199900000001,230.64,69.032562L230.64,70.74743699999999Q230.64,73.868,233.76057,73.868L238.80106999999998,73.868Q244.58,73.868,244.58,68.089062L244.58,19.19493484ZM214.50037,26.50354Q214.06823,25.6356583,212.77619199999998,25.1959343L211.239815,24.62006Q209.87948599999999,24.1435432,208.979546,24.5916367Q208.11166400000002,25.0237694,207.67193600000002,26.3158112L205.038002,33.556381L202.404068,26.3158112Q201.96434,25.0237694,201.09645799999998,24.5916367Q200.196518,24.1435432,198.836189,24.62006L197.299812,25.1959343Q196.00777399999998,25.6356583,195.575638,26.50354Q195.127541,27.403488199999998,195.604065,28.7638092L201.192741,44.126818L194.992065,61.172188Q194.51554099999998,62.532513,194.963638,63.432457Q195.39577500000001,64.300343,196.687813,64.74006299999999L198.22419,65.31593699999999Q199.584518,65.79245800000001,200.48445900000002,65.34436Q201.352341,64.912228,201.792061,63.620186L205.038002,54.697258L208.28393599999998,63.620186Q208.723663,64.912228,209.591545,65.34436Q210.491486,65.79245800000001,211.851814,65.31593699999999L213.38818,64.74006299999999Q214.52971,64.35157000000001,215,63.628868Q215.4703,64.35157000000001,216.61182,64.74006299999999L218.14819,65.31593699999999Q219.50851,65.79245800000001,220.40846,65.34436Q221.27634,64.912228,221.71606,63.620186L224.96201000000002,54.697258L228.20794,63.620186Q228.64766,64.912228,229.51555000000002,65.34436Q230.4155,65.79245800000001,231.77582,65.31593699999999L233.31219,64.74006299999999Q234.60423,64.30033900000001,235.03636,63.432457Q235.48446,62.532513,235.00794000000002,61.172188L228.80727000000002,44.126818L234.39594,28.7638092Q234.87246,27.403488199999998,234.42435999999998,26.50354Q233.99223,25.6356583,232.7002,25.1959343L231.16382,24.62006Q229.80349,24.1435432,228.90355,24.5916367Q228.03566,25.0237694,227.59593999999998,26.3158112L224.96201000000002,33.556381L222.32806,26.3158112Q221.88834,25.0237694,221.02046,24.5916367Q220.12051,24.1435432,218.76019,24.62006L217.22382,25.1959343Q215.93178,25.6356583,215.49964,26.50354Q215.05154,27.403488199999998,215.52805999999998,28.7638092L221.11674,44.126818L215,60.941448L208.883263,44.126818L214.47194000000002,28.7638092Q214.94846,27.403488199999998,214.50037,26.50354ZM267.62563,22.4599991Q270.692,22.4599991,270.692,25.526371L270.692,27.3496246Q270.692,30.415997,267.62563,30.415997L255.04456,30.415997Q251.924,30.415997,251.924,27.2954369L251.924,25.5805588Q251.924,22.4599991,255.04456,22.4599991L267.62563,22.4599991ZM267.62563,42.383999Q270.692,42.383999,270.692,45.450375L270.692,47.273624Q270.692,50.339998,267.62563,50.339998L255.04456,50.339998Q251.924,50.339998,251.924,47.219437L251.924,45.50456Q251.924,42.383999,255.04456,42.383999L267.62563,42.383999ZM262.40344,11.7839966Q265.524,11.7839966,265.524,14.904560100000001L265.524,67.912689Q265.524,70.801624,264.05138,72.30081200000001Q262.57982000000004,73.799999,259.63669,73.799999L256.17294000000004,73.799999Q252.944,73.799999,252.944,70.571064L252.944,68.73293699999999Q252.944,65.504002,256.17294000000004,65.504002L257.43201,65.504002L257.43201,14.958747899999999Q257.43201,11.7839966,260.60675000000003,11.7839966L262.40344,11.7839966ZM283.82237,25.3839989Q286.672,25.3839989,286.672,28.2336235L286.672,29.878372Q286.672,32.727997,283.82237,32.727997L279.59362999999996,32.727997Q276.744,32.727997,276.744,29.878372L276.744,28.2336235Q276.744,25.3839989,279.59362999999996,25.3839989L283.82237,25.3839989ZM306.60239,25.3839989Q309.452,25.3839989,309.452,28.2336235L309.452,29.878372Q309.452,32.727997,306.60239,32.727997L302.23762999999997,32.727997Q299.38800000000003,32.727997,299.38800000000003,29.878372L299.38800000000003,28.2336235Q299.38800000000003,25.3839989,302.23762999999997,25.3839989L306.60239,25.3839989ZM293.99582,11.9199982Q297.00800000000004,11.9199982,297.00800000000004,14.9321861L297.00800000000004,48.755812Q297.00800000000004,51.767998,293.99582,51.767998L292.26819,51.767998Q289.256,51.767998,289.256,48.755812L289.256,14.9321861Q289.256,11.9199982,292.26819,11.9199982L293.99582,11.9199982ZM283.48238000000003,12.694561Q286.332,12.3141861,286.82076,15.109623L287.06726000000003,16.7543716Q287.55600000000004,19.60399628,284.70637999999997,20.0927467L280.552,20.7599983L280.552,37.147999L305.64401,37.147999L305.64401,20.8959961L302.22382,20.8959961Q299.32001,20.8959961,299.32001,17.9921837L299.32001,16.319809Q299.32001,13.4159966,302.22382,13.4159966L307.80618000000004,13.4159966Q313.26000999999997,13.4159966,313.26000999999997,18.8698082L313.26000999999997,39.174187Q313.26000999999997,44.627998000000005,307.80618000000004,44.627998000000005L278.38982,44.627998000000005Q272.93600000000004,44.627998000000005,272.93600000000004,39.174187L272.93600000000004,19.062122345Q272.93600000000004,14.3679962,277.52176,13.6624985L283.48238000000003,12.694561ZM282.08412,55.39431Q288.34012,60.592064,295.96463,63.626564Q303.59019,66.66,311.60782,67.286877Q314.416,67.612,314.14507000000003,70.406376L314.00694,72.025627Q313.73599,74.82,310.94162,74.494877Q300.92757,73.29744,292.35001,69.81456399999999Q283.77243,66.33274800000001,277.18813,60.712124Q274.98981000000003,58.894188,276.9565,56.763874L278.02750000000003,55.612125Q279.88581999999997,53.590187,282.08412,55.39431ZM304.51562,48.164Q309.95563000000004,48.164,311.26463,50.558874Q312.57362,52.952686,309.08757,57.144249Q302.81775,64.826126,293.94482,69.183437Q285.07294,73.540749,275.2002,74.494877Q272.392,74.82,272.12106,72.025627L271.98294,70.406376Q271.71200999999996,67.612,274.50638000000004,67.286877Q283.06375,66.117062,289.74262999999996,63.213249Q296.42256,60.309437,301.36,55.372002L274.84637,55.372002Q272.052,55.372002,272.052,52.577625L272.052,50.958374Q272.052,48.164,274.84637,48.164L304.51562,48.164ZM351.85105999999996,11.579998Q355.08000000000004,11.579998,355.08000000000004,14.8089333L355.08000000000004,26.6430588Q355.08000000000004,29.871997999999998,351.85105999999996,29.871997999999998L350.01293999999996,29.871997999999998Q346.784,29.871997999999998,346.784,26.6430588L346.784,14.8089333Q346.784,11.579998,350.01293999999996,11.579998L351.85105999999996,11.579998ZM378.80563,15.5239983Q381.60001,15.5239983,381.60001,18.31837082L381.60001,19.93762207Q381.60001,22.731998400000002,378.80563,22.731998400000002L323.12637,22.731998400000002Q320.332,22.731998400000002,320.332,19.93762207L320.332,18.31837082Q320.332,15.5239983,323.12637,15.5239983L378.80563,15.5239983ZM375.42474,26.4719963Q380.716,26.4719963,380.716,31.763248L380.716,37.19581Q380.716,40.207998,377.70383,40.207998L375.9762,40.207998Q372.96399,40.207998,372.96399,37.19581L372.96399,33.271999L329.036,33.271999L329.036,37.19581Q329.036,40.207998,326.02382,40.207998L324.29619,40.207998Q321.284,40.207998,321.284,37.19581L321.284,31.763248Q321.284,26.4719963,326.57525999999996,26.4719963L375.42474,26.4719963ZM331.74857,62.03175Q334.31237999999996,60.390186,336.02194,62.805248L337.01007000000004,64.25875099999999Q338.76000999999997,66.76837499999999,336.23656,68.42375200000001Q332.33931,70.932312,325.86018,74.305752Q323.188,75.62218899999999,321.91299000000004,72.827812L321.19901,71.236187Q319.93781,68.509811,322.73219,67.179562Q325.50957,65.791939,328.13606,64.281063Q330.76363000000003,62.770187,331.74857,62.03175ZM364.91769,37.294624Q367.10219,35.923998,368.48663,38.122310999999996L369.28137,39.437687Q370.65201,41.622187,368.45369,43.006624L344.90231,57.741375Q342.71781999999996,59.112,341.33337,56.913689L340.53862000000004,55.598312Q339.168,53.413811,341.36632,52.029373L364.91769,37.294624ZM352.73506,56.256001Q355.964,56.256001,355.964,59.484936L355.964,69.257812Q355.964,71.984188,354.57318,73.401562Q353.18237,74.82,350.40181,74.82L343.45837,74.82Q340.664,74.82,340.664,72.025627L340.664,70.474377Q340.664,67.68,343.45837,67.68L347.668,67.68L347.668,59.484936Q347.668,56.256001,350.89694,56.256001L352.73506,56.256001ZM372.01199,51.026375Q372.01199,47.959998999999996,375.07837,47.959998999999996L376.83362,47.959998999999996Q379.89999,47.959998999999996,379.89999,51.026375L379.89999,54.36475Q379.89999,59.655998,374.60876,59.655998L323.03181,59.655998Q320.39999,59.655998,320.39999,57.024185L320.39999,55.487812Q320.39999,52.855999,323.03181,52.855999L372.01199,52.855999L372.01199,51.026375ZM345.53769,32.602623Q347.72218,31.231998,349.10663,33.430309L349.90138,34.745686Q351.272,36.930185,349.07367999999997,38.314623L343.92801,41.431999000000005L357.05838,41.431999000000005Q359.63599999999997,41.431999000000005,359.63599999999997,44.009624L359.63599999999997,45.518373Q359.63599999999997,48.095999,357.05838,48.095999L331.25238,48.095999Q328.81075,48.095999,327.63669,47.227936Q326.46368,46.359875,327.01300000000003,44.969060999999996Q327.56232,43.578249,329.89557,42.167248L345.53769,32.602623ZM370.19727,62.03175Q372.9183,63.800812,375.5448,65.264938Q378.17236,66.728001,379.26782,67.179562Q382.06219,68.509811,380.80099,71.236187L380.08701,72.827812Q378.81201,75.56800100000001,376.13983,74.251564Q370.86664,71.63674900000001,365.70926,68.28775Q363.24001,66.632374,364.98994,64.17693700000001L365.97806,62.75106Q367.74181999999996,60.335999,370.19727,62.03175Z" fill="#000000" fill-opacity="1"/></g></svg>