<svg xmlns="http://www.w3.org/2000/svg" xmlns:xlink="http://www.w3.org/1999/xlink" fill="none" version="1.1" width="384" height="90.958740234375" viewBox="0 0 384 90.958740234375"><path d="M5.2663918,90.91146401385498C3.9380071,90.91146401385498,2.609622,90.41959701385498,1.6256334,89.57001001385498C0.59244502,88.67570801385499,0.051251553,87.46838701385498,0.0020517288,86.17167201385499L0.0020517288,84.38306701385498C-0.047148094,81.65544401385498,0.78924322,78.92781401385498,2.4128246,76.55791801385499C3.9872069,74.23273001385499,6.2011828,72.22055701385497,8.759553,70.78967201385498C12.351111,68.86692301385497,16.188669,67.61489001385499,20.223022,67.07831101385497C22.191,66.81001601385498,24.208179,66.45229601385498,26.176159,66.04986101385498C27.84894,65.64742201385498,28.88213,65.28969501385498,29.521721,65.06612701385498C29.321196,61.18715601385498,27.468637,57.53110401385498,24.35578,54.871078013854984C23.322588,53.88735101385498,22.535395,53.03776501385498,21.797405,52.14346201385498C19.78023,49.46055101385498,18.599443,46.50934901385498,18.304247,43.42400801385498C18.255045,41.769549013854984,18.796238,40.29394801385498,19.731031,39.13135601385498C19.180799,35.57053101385498,19.197372,31.95626501385498,19.78023,28.399727013854978C20.272219,24.95666201385498,22.191,21.73717311385498,25.093769,19.41198781385498C25.044569,18.83069131385498,25.044569,18.20467951385498,25.142971,17.62338401385498C25.782564,15.11933561385498,27.79974,13.42016244385498,30.308914,13.06244075385498C30.899305,12.92829536385498,31.784893,12.838864433854981,32.621284,12.838864433854981C34.638458,12.704719066854981,36.950836,12.704719066854981,39.164806,12.79414999885498C55.695827,13.91202751385498,61.84576,19.54613261385498,62.485348,20.172145813854982C64.256523,22.05018041385498,65.437317,24.19650601385498,66.076904,26.47697701385498C66.273697,27.05827301385498,66.421295,27.72900001385498,66.519699,28.399727013854978C66.962494,31.03791901385498,67.110085,33.81026001385498,66.86409,36.537879013854976C66.814896,37.34275001385498,66.716492,38.147622013854985,66.568893,39.13135601385498C66.962494,39.62322301385498,67.306892,40.20451801385498,67.503685,40.830529013854985C67.798882,41.72483201385498,67.897278,42.44027401385498,67.897278,43.200433013854976C67.602089,46.50934901385498,66.421295,49.50526701385498,64.502518,52.09873901385498C63.666119,53.12718901385498,62.878937,53.97677101385498,61.993351,54.82636901385498C59.041378,57.33040901385498,57.221001,60.54989901385498,56.77821,63.99296501385498C56.729004,64.39540001385498,56.67981,64.75312301385497,56.67981,65.15555901385498C57.270203,65.42385001385497,58.352592,65.73686101385498,60.074566,66.13929301385498C61.993351,66.58644001385498,63.961319,66.89944701385498,65.880096,67.16774701385498C70.012856,67.74903401385498,73.899612,69.00106301385497,77.49118,70.92380801385498C80.098747,72.35469701385497,82.312714,74.36688101385498,83.887093,76.69206101385498C85.461479,79.06196101385498,86.297859,81.74486801385498,86.199463,84.51721501385498L86.199463,86.17167201385499C86.150261,87.55783401385499,85.609077,88.76514001385497,84.575882,89.61473401385499C83.542694,90.46432001385499,82.214325,91.00089501385499,80.787521,90.95618001385498L5.36479,90.95618001385498C5.3155904,90.91146401385498,5.3155904,90.91146401385498,5.2663918,90.91146401385498ZM5.3155918,84.20418801385497C5.3647909,84.20418801385497,5.3647909,84.20418801385497,5.3155918,84.20418801385497ZM32.572083,19.50141001385498C32.818077,20.26156811385498,32.768883,21.02172281385498,32.424484,21.78188231385498C32.326088,21.960742013854983,32.178486,22.18431761385498,32.030891,22.36317821385498C31.440496,23.16805001385498,30.653305,23.83877701385498,29.816916,24.464789013854983C28.340931,25.62738201385498,27.307743,27.37127401385498,27.01255,29.33873701385498C26.471357,32.60294101385498,26.52055,35.91186001385498,27.110949,39.17606601385498C27.307743,39.57850201385498,27.307743,40.47280201385498,27.01255,41.32239101385498C26.766554,42.03783501385498,26.274555,42.663844013854984,25.634962,43.066283013854985C25.78256,44.76545201385498,26.52055,46.64348901385498,27.750538,48.20851801385498C28.242535,48.78981701385498,28.882126,49.46054701385498,29.521721,50.08656201385498C33.408474,53.35076001385498,36.065247,58.00113601385498,36.754036,63.05394601385498C36.950836,64.30596101385498,36.950836,65.60269801385499,36.803238,66.94415601385498C36.754036,67.34659101385498,36.606434,67.74902601385497,36.409645,68.15146201385498C35.622456,70.02949801385498,33.014881,71.37095201385497,27.99654,72.57826101385498C25.782564,73.07013201385499,23.51939,73.47256801385498,21.305414,73.78557101385499C18.255051,74.18800601385499,15.303082,75.12702101385497,12.597114,76.60262201385498C11.071933,77.45220501385498,9.6943464,78.70424201385498,8.7103596,80.13511901385498C7.8739672,81.38712601385498,7.4311724,82.81801901385498,7.4311724,84.29362001385498L78.770363,84.29362001385498C78.770363,82.81801901385498,78.37677,81.43185701385498,77.54039,80.22455101385498C76.556389,78.79365801385498,75.228012,77.54163601385498,73.604431,76.69205401385497C70.89846,75.21645301385499,67.897293,74.23272201385498,64.748535,73.83029101385497C62.583759,73.56199901385497,60.369778,73.15956801385498,58.204998,72.66769701385499C53.235859,71.50509501385498,50.628284,70.16364601385499,49.791897,68.33032901385498C49.742695,68.24089701385498,49.693501,68.15146901385498,49.693501,68.06203701385499C49.543495,67.73319901385497,49.444157,67.38711801385497,49.398308,67.03358701385498C49.250702,65.73684601385497,49.250702,64.39539201385497,49.447506,63.09865901385498C50.136295,58.13528301385498,52.743862,53.48490401385498,56.827423,50.04183901385498C57.319416,49.54997901385498,57.959003,48.87925201385498,58.500198,48.20851801385498C59.63179,46.68820901385498,60.369778,44.810168013854984,60.51738,42.88742201385498C60.51738,42.84270801385498,60.025383,42.57441801385498,59.976189,42.52970201385498C59.116474,41.636098013854976,58.770107,40.42664401385498,59.041389,39.26549801385498C59.238194,38.10290601385498,59.33659,37.11917201385498,59.43499,36.13543801385498C59.63179,33.85496801385498,59.533386,31.57449401385498,59.13979,29.38345801385498C58.904785,27.62462301385498,58.119301,25.964045013854978,56.876614,24.59893601385498C56.876614,24.59893601385498,52.104267,20.39571521385498,38.623623,19.50141291385498C36.754047,19.36726661385498,34.786068,19.36726661385498,32.86729,19.50141291385498L32.572083,19.50141001385498ZM80.738342,84.20418801385497C80.787529,84.20418801385497,80.738342,84.20418801385497,80.738342,84.20418801385497ZM19.829426,40.115083013854985C19.829426,40.29394401385498,19.878628,40.51752001385498,19.927828,40.69638001385498C19.927828,40.47280601385498,19.878628,40.29394401385498,19.829426,40.115083013854985ZM31.686493,19.59084131385498L31.637293,19.59084131385498L31.686493,19.59084131385498Z" fill="#000000" fill-opacity="1" style="mix-blend-mode:passthrough"/><path d="M77.77690528955078,0L82.07637828955077,13.404549L96.82521828955078,17.312147L82.07637828955077,21.219744L77.77690528955078,34.62429L73.47743028955078,21.21974L58.72858428955078,17.312143L73.47743028955078,13.404546L77.77690528955078,0ZM88.93377728955079,39.669544L88.11742228955077,48.177231L96.60752828955077,51.788048L87.24664128955078,51.046104L83.27371028955078,58.762375L84.09006928955078,50.254684L75.59995628955079,46.643864L84.96084228955078,47.385815L88.93377728955079,39.669544Z" fill="#000000" fill-opacity="1" style="mix-blend-mode:passthrough"/><g><path d="M219.04897642382812,31.0519981Q222.16953642382813,31.0519981,222.16953642382813,34.1725616L222.16953642382813,44.923998Q222.16953642382813,56.336310999999995,217.52322342382814,65.980625Q212.87797542382813,75.623875,203.81697442382813,82.35587699999999Q201.41572542382812,84.21418800000001,199.59778642382813,81.582375L198.63728742382813,80.073624Q196.94153642382813,77.618187,199.46497342382813,75.69187500000001Q206.90778742382813,70.03406100000001,210.52666042382813,62.301186Q214.14553842382813,54.568312,214.14553842382813,44.923998L214.14553842382813,34.1725616Q214.14553842382813,31.0519981,217.26610142382813,31.0519981L219.04897642382812,31.0519981ZM204.3609734238281,38.395996Q207.48153642382812,38.395996,207.48153642382812,41.51656L207.48153642382812,44.923998Q207.48153642382812,54.636311,211.37241342382814,62.321373Q215.26328642382813,70.006439,223.4137264238281,75.610062Q225.99134842382813,77.37381400000001,224.45816042382813,80.04600099999999L223.5529094238281,81.610001Q221.95172542382812,84.350189,219.33372542382813,82.546062Q209.44291342382812,75.814064,204.45022542382813,66.102814Q199.45753442382812,56.390499,199.45753442382812,44.923998L199.45753442382812,41.51656Q199.45753442382812,38.395996,202.57809842382812,38.395996L204.3609734238281,38.395996ZM204.37478642382814,20.783996600000002Q207.54953742382813,20.783996600000002,207.54953742382813,23.9587479L207.54953742382813,26.9719963L221.71478642382812,26.9719963Q224.88954142382812,26.9719963,224.88954142382812,30.1467476L224.88954142382812,31.9572487Q224.88954142382812,35.1319962,221.71478642382812,35.1319962L205.27684742382812,35.1319962Q202.38791242382814,35.1319962,200.88872542382813,33.660434699999996Q199.38953742382813,32.187809,199.38953742382813,29.2446861L199.38953742382813,23.9587479Q199.38953742382813,20.783996600000002,202.56428542382812,20.783996600000002L204.37478642382814,20.783996600000002ZM194.10572442382812,33.159996Q197.00953642382814,33.159996,197.00953642382814,36.0638084L197.00953642382814,37.736187Q197.00953642382814,40.639999,194.10572442382812,40.639999L165.50534722382812,40.639999Q162.60153462382812,40.639999,162.60153462382812,37.736187L162.60153462382812,36.0638084Q162.60153462382812,33.159996,165.50534722382812,33.159996L194.10572442382812,33.159996ZM180.61516042382812,20.783996600000002Q183.68153542382814,20.783996600000002,183.68153542382814,23.8503723L183.68153542382814,49.337624000000005Q183.68153542382814,52.403999,180.61516042382812,52.403999L178.85991142382812,52.403999Q175.79353542382813,52.403999,175.79353542382813,49.337624000000005L175.79353542382813,23.8503723Q175.79353542382813,20.783996600000002,178.85991142382812,20.783996600000002L180.61516042382812,20.783996600000002ZM170.2919104238281,42.980686Q173.08734842382813,43.632,172.5444094238281,46.481623L171.63066042382812,50.370373Q171.08772242382813,53.219999,168.18391032382812,52.568686L166.53915982382813,52.239311Q163.74372192382813,51.587998999999996,164.28665972382814,48.738372999999996L165.20040992382812,44.849623Q165.74334712382813,42,168.64715962382812,42.65131L170.2919104238281,42.980686ZM190.75991042382813,42.65131Q193.66372342382812,42,194.2066614238281,44.849623L195.12041042382813,48.738372999999996Q195.66334942382812,51.587998999999996,192.86791242382813,52.239311L191.22316142382812,52.568686Q188.31934942382813,53.219999,187.77641142382814,50.370373L186.86266142382811,46.481623Q186.31972342382812,43.632,189.1151614238281,42.980686L190.75991042382813,42.65131ZM168.18391032382812,21.4353104Q171.0335354238281,20.783996600000002,171.68484742382813,23.6336212L172.49022342382813,27.31837082Q173.14153442382812,30.167999299999998,170.2919104238281,30.8193092L168.64715962382812,31.1486855Q165.79753492382812,31.7999992,165.14622212382812,28.95037079L164.34084702382813,25.2656212Q163.68953462382814,22.4159966,166.53915982382813,21.7646828L168.18391032382812,21.4353104ZM192.86791242382813,21.7646828Q195.71753742382813,22.4159966,195.06622342382812,25.2656212L194.26084942382812,28.95037079Q193.60953542382813,31.7999992,190.75991042382813,31.1486855L189.1151614238281,30.8193092Q186.2655354238281,30.167999299999998,186.91684942382813,27.31837082L187.72222342382813,23.6336212Q188.37353542382812,20.783996600000002,191.22316142382812,21.4353104L192.86791242382813,21.7646828ZM184.82478542382813,64.05218500000001Q185.20516042382812,62.518997,186.05303542382813,61.745499Q186.90091142382812,60.972,188.37991142382813,60.972L190.13516042382813,60.972Q191.66835042382812,60.972,192.38022242382812,61.765686Q193.09316242382812,62.559372,192.87641142382813,64.038376Q192.06253442382814,69.344498,188.25453542382812,73.576439Q184.44653542382812,77.807312,178.72497342382812,80.440189Q173.00341042382811,83.07306299999999,166.42972232382812,83.698875Q164.95072222382814,83.915627,164.09540982382813,83.202686Q163.24115972382813,82.490814,163.13278462382812,80.957626L163.02228452382812,79.20237399999999Q162.80553462382812,76.244373,165.87190962382812,75.81087500000001Q173.88847242382812,74.70906099999999,178.7727854238281,71.600189Q183.65816142382812,68.49025,184.82478542382813,64.05218500000001ZM194.78572442382813,57.095999Q197.68953742382814,57.095999,197.68953742382814,59.999811L197.68953742382814,61.672188Q197.68953742382814,64.576,194.78572442382813,64.576L165.23334742382812,64.576Q162.32953452382813,64.576,162.32953452382813,61.672188L162.32953452382813,59.999811Q162.32953452382813,57.095999,165.23334742382812,57.095999L194.78572442382813,57.095999ZM177.89516042382812,54.065748Q180.68953542382812,55.287624,179.42728642382812,58.122374L175.52153442382811,66.956001L194.82715942382814,75.269001Q197.62153642382813,76.543999,196.4145354238281,79.270374L195.70053442382812,80.88962599999999Q194.42553742382813,83.68400199999999,191.69916142382812,82.477001L170.34078542382812,73.32887600000001Q167.72172262382813,72.23025100000001,166.95459742382812,70.297562Q166.18853472382813,68.363811,167.39659742382813,65.74475100000001L172.21928542382813,54.858374Q173.44116042382814,52.063998999999995,176.27590942382812,53.326248L177.89516042382812,54.065748ZM262.47441442382814,20.0359955Q265.75753442382813,20.0359955,265.75753442382813,23.3191223L265.75753442382813,25.6608734Q265.75753442382813,28.94399643,262.47441442382814,28.94399643L260.6086544238281,28.94399643Q257.3255384238281,28.94399643,257.3255384238281,25.6608734L257.3255384238281,23.3191223Q257.3255384238281,20.0359955,260.6086544238281,20.0359955L262.47441442382814,20.0359955ZM286.3211644238281,25.067997Q291.9375344238281,25.067997,291.9375344238281,30.6843719L291.9375344238281,35.3158112Q291.9375344238281,38.327999,288.92535442382814,38.327999L287.1977244238281,38.327999Q284.18553442382813,38.327999,284.18553442382813,35.2924347L284.18553442382813,32.8199959L238.8975374238281,32.8199959L238.8975374238281,35.2924347Q238.8975374238281,38.327999,235.88534542382814,38.327999L234.15772242382812,38.327999Q231.14553842382813,38.327999,231.14553842382813,35.3158112L231.14553842382813,30.6843719Q231.14553842382813,25.067997,236.76190942382811,25.067997L286.3211644238281,25.067997ZM288.9529744238281,56.688Q292.07354442382814,56.688,292.07354442382814,59.808561L292.07354442382814,61.591438Q292.07354442382814,64.711998,288.9529744238281,64.711998L234.13009642382812,64.711998Q231.00953642382814,64.711998,231.00953642382814,61.591438L231.00953642382814,59.808561Q231.00953642382814,56.688,234.13009642382812,56.688L288.9529744238281,56.688ZM276.14878442382815,39.348Q279.37347442382816,39.348,280.9151644238281,40.352062000000004Q282.45791442382813,41.356125,282.0233444238281,43.180435Q281.5887944238281,45.004746999999995,279.14716442382814,47.392185L267.5255344238281,58.66L267.5255344238281,77.660686Q267.5255344238281,80.54962499999999,266.05291442382816,82.048813Q264.5813444238281,83.548,261.6382244238281,83.548L254.39409642382813,83.548Q251.27353642382812,83.548,251.27353642382812,80.427437L251.27353642382812,78.64456200000001Q251.27353642382812,75.523998,254.39409642382813,75.523998L259.2295384238281,75.523998L259.2295384238281,58.327436Q259.2295384238281,55.715811,261.08784442382813,54.054062L268.2055344238281,47.371998000000005L243.78610242382814,47.371998000000005Q240.66553542382815,47.371998000000005,240.66553542382815,44.251436L240.66553542382815,42.468559Q240.66553542382815,39.348,243.78610242382814,39.348L276.14878442382815,39.348ZM330.5020444238281,20.919998200000002Q333.89354442382813,20.919998200000002,333.89354442382813,24.3114967L333.89354442382813,37.1719971Q333.89354442382813,46.189436,330.33628442382815,54.650124000000005Q326.77903442382814,63.109749,320.0523544238281,70.305Q313.32565442382815,77.500252,304.06172442382814,82.72243900000001Q301.11753442382815,84.41819000000001,299.5163444238281,81.35181399999999L298.6387144238281,79.624187Q297.8652144238281,78.09100000000001,298.2243544238281,76.971127Q298.58453442382813,75.852314,300.1177244238281,74.970436Q308.17147442382816,70.346436,313.8027144238281,64.41662600000001Q319.43502442382817,58.485748,322.31228442382815,51.590124Q325.1895244238281,44.693436,325.1895244238281,37.1719971L325.1895244238281,24.3114967Q325.1895244238281,20.919998200000002,328.58104442382813,20.919998200000002L330.5020444238281,20.919998200000002ZM330.5020444238281,37.1719971Q333.7851544238281,37.1719971,334.0560944238281,40.563499Q334.65322442382814,47.380499,337.7546644238281,53.672625Q340.85609442382815,59.964748,346.2366044238281,65.372875Q351.6170944238281,70.780998,358.9653444238281,74.970436Q360.4985344238281,75.852314,360.8576644238281,76.971127Q361.21785442382816,78.09100000000001,360.44435442382814,79.624187L359.56672442382813,81.35181399999999Q357.96554442382813,84.41819000000001,355.0213444238281,82.72243900000001Q345.86685442382816,77.55443600000001,339.11253442382815,70.52918600000001Q332.35821442382814,63.503937,328.80096442382813,55.729624Q325.2437244238281,47.954248,325.35209442382813,40.577312Q325.2437244238281,38.881561,326.0639844238281,38.027309Q326.8852844238281,37.1719971,328.58104442382813,37.1719971L330.5020444238281,37.1719971Z" fill="#000000" fill-opacity="1"/></g></svg>