<svg xmlns="http://www.w3.org/2000/svg" xmlns:xlink="http://www.w3.org/1999/xlink" fill="none" version="1.1" width="390" height="100" viewBox="0 0 390 100"><defs><clipPath id="master_svg0_1862_40385"><rect x="0" y="0" width="100" height="100" rx="0"/></clipPath></defs><g><path d="M122.3520002,25.47455978Q122.3520002,22.6939964,123.7970004,21.2489967Q125.2420006,19.803997,128.022563,19.803997L175.97744,19.803997Q178.758003,19.803997,180.203003,21.2489967Q181.64800300000002,22.6939964,181.64800300000002,25.47455978L181.64800300000002,74.789436Q181.64800300000002,77.57,180.203003,79.014999Q178.758003,80.45999900000001,175.97744,80.45999900000001L128.022563,80.45999900000001Q125.2420006,80.45999900000001,123.7970004,79.014999Q122.3520002,77.57,122.3520002,74.789436L122.3520002,25.47455978ZM173.624004,27.5559959L130.376,27.5559959L130.376,72.708L173.624004,72.708L173.624004,27.5559959ZM164.274002,64.494873Q166.960003,64.82,166.634876,67.506001L166.469128,69.07Q166.144001,71.756001,163.45800400000002,71.430874L139.794001,68.81712300000001Q137.108002,68.492001,137.43312600000002,65.806L137.59887700000002,64.242001Q137.924002,61.556,140.610001,61.881126L164.274002,64.494873ZM161.200191,55.301062Q163.832001,55.571999000000005,163.506878,58.203812L163.341129,59.740189Q163.016003,62.372002,160.38419,62.101063L142.867813,60.058937Q140.23600199999998,59.787998,140.561127,57.156187L140.726875,55.619811999999996Q141.05200200000002,52.987999,143.683813,53.258936L161.200191,55.301062ZM140.01181400000002,28.303997Q141.599188,28.303997,142.311064,28.7991219Q143.024002,29.2942467,143.024002,30.5023117L142.481064,30.2079964L163.293316,30.2079964Q165.476753,30.2079964,166.833565,31.2460594Q168.19037600000001,32.2841225,168.196754,34.2646217Q168.20418899999999,36.245125,166.52225099999998,38.863125Q163.859627,43.072748000000004,159.214378,46.342060000000004Q154.56912599999998,49.610312,148.430002,51.823499999999996Q142.291939,54.035624,135.156189,55.124687Q132.402188,55.504000000000005,131.968688,52.709623L131.775313,51.090374Q131.396001,48.350184999999996,134.19037600000001,47.916686999999996Q142.91137700000002,46.651249,149.052628,44.013062000000005Q155.194939,41.374874,158.800003,37.415997000000004L140.671627,37.415997000000004Q137.998377,37.415997000000004,136.635189,36.269562Q135.272001,35.1231232,135.272001,32.5593109L135.272001,30.6648712Q135.272001,29.6204338,136.038063,28.9627457Q136.80518899999998,28.303997,138.284189,28.303997L140.01181400000002,28.303997ZM144.038689,37.873936Q149.712439,41.957122999999996,155.87493899999998,44.385998Q162.038502,46.814873,169.455814,47.916686999999996Q172.264004,48.350184999999996,171.884689,51.090374L171.691315,52.709623Q171.257816,55.504000000000005,168.517628,55.124687Q159.320629,53.723248999999996,151.831066,50.717436Q144.342564,47.710561999999996,139.278688,43.585936000000004Q136.972,41.822186,138.830313,39.637684L139.87368800000002,38.322311Q141.745813,36.123997,144.038689,37.873936ZM202.164871,20.8239975Q205.44799799999998,20.8239975,205.44799799999998,24.1071205L205.44799799999998,50.607997999999995Q205.44799799999998,58.198498,202.759872,65.775188Q200.072815,73.351875,194.344879,79.377312Q192.038185,81.73819,189.7995,79.228561L188.592499,77.883438Q187.492813,76.67643699999999,187.52681,75.502377Q187.560814,74.329376,188.71469100000002,73.06712300000001Q193.082626,68.306061,195.049316,62.579185Q197.015999,56.852312,197.015999,50.607997999999995L197.015999,24.1071205Q197.015999,20.8239975,200.299126,20.8239975L202.164871,20.8239975ZM230.31688,18.919998200000002Q233.60001,18.919998200000002,233.60001,22.2031212L233.60001,35.5608711Q233.60001,38.843998,230.31688,38.843998L228.45113,38.843998Q225.168,38.843998,225.168,35.5608711L225.168,22.2031212Q225.168,18.919998200000002,228.45113,18.919998200000002L230.31688,18.919998200000002ZM247.75143,34.8319969Q250.87201,34.8319969,250.87201,37.95256L250.87201,39.735435Q250.87201,42.855999,247.75143,42.855999L204.352562,42.855999Q201.232002,42.855999,201.232002,39.735435L201.232002,37.95256Q201.232002,34.8319969,204.352562,34.8319969L247.75143,34.8319969ZM237.91269,53.056Q240.80163,53.056,242.30081,54.528624Q243.8,56.000187,243.8,58.943314L243.8,78.196877Q243.8,81.47999999999999,240.51688000000001,81.47999999999999L238.65112,81.47999999999999Q235.368,81.47999999999999,235.368,78.196877L235.368,60.944L204.434372,60.944Q201.36800399999998,60.944,201.36800399999998,57.877624999999995L201.36800399999998,56.122374Q201.36800399999998,53.056,204.434372,53.056L237.91269,53.056ZM283.002,55.091749Q284.37157,54.209873,285.46380999999997,54.461687Q286.55606,54.712437,287.54631,56.027811Q292.45613000000003,62.586624,299.90425,67.028938Q307.35239,71.47018800000001,316.90744,73.566502Q320.01419,74.408001,319.32250999999997,77.460564L318.9655,79.243439Q318.20581000000004,82.41819000000001,315.13943,81.60431299999999Q303.28831,78.502876,294.61513,73.150002Q285.94299,67.796062,280.55611999999996,60.37981Q278.69781,57.816,281.438,56.05225L283.002,55.091749ZM306.93269,20.1439972Q309.82162,20.1439972,311.32082,21.6166229Q312.82001,23.0881844,312.82001,26.031311035L312.82001,34.4919968L316.24126,34.4919968Q319.416,34.4919968,319.416,37.666748L319.416,39.477249Q319.416,42.651999,316.24126,42.651999L310.54732,42.651999Q307.65839,42.651999,306.15918999999997,41.180435Q304.65999999999997,39.707809,304.65999999999997,36.764687L304.65999999999997,28.303997L287.728,28.303997L287.728,28.3719978Q287.728,32.616684,285.59769,36.623371Q283.46844,40.630062,279.41182000000003,43.635874Q278.15063,44.571936,277.05838,44.321186Q275.96613,44.069373999999996,275.19263,42.69981L274.28738,41.108185Q272.75418,38.490185,275.33182,36.563873Q277.57899,34.7809982,278.57349999999997,32.7739334Q279.56799,30.7668724,279.56799,28.3719978L279.56799,26.031311035Q279.56799,23.1423721,281.03957,21.6431847Q282.51219000000003,20.1439972,285.45532000000003,20.1439972L306.93269,20.1439972ZM309.56345,46.187998Q312.18144,46.187998,313.755,47.253687Q315.32962,48.318312,315.55275,50.407187Q315.77695,52.496061,314.36594,55.386061Q311.22626,61.771687,305.98175000000003,66.87062499999999Q300.73831,71.968498,293.77788,75.63624999999999Q286.81744000000003,79.305061,278.43219,81.52249900000001Q276.899,81.916687,275.93532,81.339752Q274.97269,80.76281399999999,274.59232,79.229626L274.20769,77.474377Q273.50218,74.462189,276.51437,73.648312Q283.67032,71.690125,289.28137000000004,68.95631399999999Q294.89243999999997,66.2225,299.04150000000004,62.604687Q303.19057,58.986874,305.952,54.348L279.20676000000003,54.348Q276.03200000000004,54.348,276.03200000000004,51.173248L276.03200000000004,49.362749Q276.03200000000004,46.187998,279.20676000000003,46.187998L309.56345,46.187998ZM263.60818,19.1888084Q266.49818,17.7639961,267.991,20.6678085L272.173,29.1401863Q273.65201,32.0301857,270.74818,33.468811L269.07581,34.2911835Q266.18581,35.7159996,264.69299,32.8121834L260.51099999999997,24.3398094Q259.03200000000004,21.44981,261.93581,20.0111847L263.60818,19.1888084ZM262.90906,39.115997Q265.85326,39.115997,267.40663,40.642811Q268.96001,42.16856,268.96001,45.166937000000004L268.96001,72.231998L269.71544,72.231998Q272.836,72.231998,272.836,75.515125L272.836,77.380875Q272.836,80.664001,269.55287,80.664001L266.71494,80.664001Q263.77075,80.664001,262.21738,79.13718800000001Q260.664,77.61143899999999,260.664,74.61306400000001L260.664,47.547998L259.25513,47.547998Q255.972,47.547998,255.972,44.264874L255.972,42.399124Q255.972,39.115997,259.25513,39.115997L262.90906,39.115997ZM367.32306,18.919998200000002Q370.552,18.919998200000002,370.552,22.1489334L370.552,78.251064Q370.552,81.47999999999999,367.32306,81.47999999999999L365.48494,81.47999999999999Q362.256,81.47999999999999,362.256,78.251064L362.256,22.1489334Q362.256,18.919998200000002,365.48494,18.919998200000002L367.32306,18.919998200000002ZM384.40488,41.972Q387.68799,41.972,387.68799,45.255123L387.68799,47.120874Q387.68799,50.403999,384.40488,50.403999L348.60713,50.403999Q345.32401,50.403999,345.32401,47.120874L345.32401,45.255123Q345.32401,41.972,348.60713,41.972L384.40488,41.972ZM332.35618999999997,19.1749954Q335.24619,17.6959953,336.73900000000003,20.5998077L340.92101,29.0721855Q342.39999,31.9621849,339.49619,33.454998L337.82381,34.3049965Q334.93381,35.7839966,333.44099,32.8801842L329.259,24.4078102Q327.78,21.5178108,330.68381,20.0249977L332.35618999999997,19.1749954ZM332.33707000000004,39.115997Q335.28125,39.115997,336.83463,40.642811Q338.38800000000003,42.16856,338.38800000000003,45.166937000000004L338.38800000000003,72.231998L341.63287,72.231998Q344.916,72.231998,344.916,75.515125L344.916,77.380875Q344.916,80.664001,341.63287,80.664001L336.07493999999997,80.664001Q333.13075000000003,80.664001,331.57738,79.13718800000001Q330.024,77.61143899999999,330.024,74.61306400000001L330.024,47.547998L327.25513,47.547998Q323.972,47.547998,323.972,44.264874L323.972,42.399124Q323.972,39.115997,327.25513,39.115997L332.33707000000004,39.115997Z" fill="#000000" fill-opacity="1"/></g><g clip-path="url(#master_svg0_1862_40385)"><path d="M57.8634,14.828729599999999C57.99675,14.8286748,58.13002,14.8352065,58.262722,14.8483009C58.461887,14.8677559,58.659321,14.9020438,58.853382,14.9508786C59.047523,14.9993806,59.237785,15.062274500000001,59.422581,15.1390381C59.545712,15.1901536,59.666286,15.2472181,59.783878,15.3100295C59.901451,15.3730197,60.015896,15.4416862,60.126804,15.5157857C60.237713,15.5898576,60.344856,15.669415,60.447842,15.754161400000001C60.55093,15.8387456,60.649738,15.9284158,60.7439,16.0228381C60.838249,16.1170812,60.92783,16.2159762,61.012318,16.3191552C61.096951,16.4221931,61.176338,16.5294271,61.250179,16.640451C61.287075,16.6960578,61.322792,16.7524381,61.357307,16.8095536C61.391384,16.8667226,61.424263,16.924749900000002,61.455681,16.9835496C61.486927,17.0424352,61.516628,17.102007399999998,61.545212,17.1621804C61.573795,17.2225251,61.600662,17.2835565,61.6259,17.3451896C61.651737,17.406821700000002,61.67543,17.4689698,61.697918,17.5318036C61.720406,17.5946374,61.741352,17.6579871,61.760582,17.7216802C61.779812,17.785544899999998,61.797321,17.8498378,61.813801,17.914475C61.829765,17.979198,61.844017,18.0441775,61.857235,18.1095872C61.869854,18.1749969,61.881443,18.2406631,61.891312,18.3066735C61.910728,18.4386039,61.923561,18.5714183,61.929768,18.7046237C61.933029,18.771235,61.934662,18.8379321,61.934662,18.9045434L61.934662,19.6425881C61.934662,19.7091994,61.933029,19.7758965,61.929768,19.842593700000002C61.927021,19.909119099999998,61.922043,19.9756446,61.915432,20.0419126C61.902637,20.1746774,61.883213,20.306720300000002,61.857231,20.4375453C61.844013,20.5029545,61.829762,20.5680199,61.813797,20.632658C61.79744,20.697296100000003,61.779697,20.761577600000003,61.760578,20.8254528C61.741348,20.8893166,61.720406,20.952493699999998,61.697914,21.0153294C61.675568,21.0781784,61.651585,21.1404324,61.62598,21.202028300000002C61.600685,21.263679500000002,61.57375,21.324647900000002,61.545204,21.3848667C61.51675,21.4451237,61.4869,21.5047131,61.455673,21.5635834C61.424294,21.6223965,61.391491,21.680439,61.3573,21.737665200000002C61.322708,21.794919999999998,61.286911,21.8512306,61.250172,21.9066811C61.17638,22.0177422,61.096989,22.124979,61.01231,22.227977799999998C60.630268,22.693783,60.149754,23.069141000000002,59.60532,23.327061C59.484768,23.384005000000002,59.36153,23.435081,59.236038,23.480112C59.110466,23.525087,58.982754,23.563847000000003,58.853367,23.596252C58.724045,23.628807000000002,58.593174,23.654877,58.461254,23.674366C58.395245,23.684238,58.329147,23.692391999999998,58.262707,23.69883C58.130005,23.711937,57.996735,23.71847,57.863384,23.718401L21.732338,23.718401C21.483964999999998,23.719002,21.235768999999998,23.731693,20.988628,23.756428C20.617857,23.793762,20.250332,23.858316000000002,19.889029,23.949566C19.407108,24.071249,18.938318000000002,24.240019,18.489421999999998,24.453442000000003C18.152893,24.613529,17.828577,24.798122,17.519095999999998,25.00573C17.209648,25.213366,16.915965999999997,25.443584,16.640448,25.694504000000002C16.364872,25.945362,16.108175,26.216203999999998,15.8724461,26.504826C15.4000797,27.082639999999998,15.0157681,27.72714,14.731987,28.417408000000002C14.6375065,28.647116,14.5543156,28.881308,14.4827099,29.119143C14.4110832,29.356962,14.351265,29.598179,14.3034782,29.841908C14.2555428,30.085629,14.2197037,30.331572,14.1960945,30.578836C14.1722069,30.826069,14.1606312,31.074337,14.1614151,31.322718L14.1614151,66.110569L28.979479,48.145298C29.131823,47.961063,29.299057,47.789665,29.479492,47.632839C29.599716,47.528378,29.725634,47.430656,29.856668,47.340126C29.987642,47.249428,30.123564,47.166096,30.263803,47.090508C30.544355,46.939079,30.840708,46.818954,31.147516,46.7323C31.224159,46.71067,31.301388,46.691177,31.37911,46.673843C31.534533,46.638954,31.691776,46.612732,31.850109,46.595299C31.929285,46.586582,32.008688,46.580055,32.088226,46.575729C32.486376,46.553555,32.885678999999996,46.586575,33.274782,46.673843C33.585978,46.743282,33.888536,46.84692,34.176950000000005,46.982864C34.61009,47.186939,35.006563,47.461136,35.35037,47.794388C35.407540999999995,47.849831,35.46316,47.906849,35.517157,47.965378C35.571234000000004,48.023834,35.623598,48.083836,35.674242,48.14521L52.701977,68.767544L58.396801,61.853802C58.498238,61.73098,58.606388,61.613861,58.720757,61.502975C58.834965,61.391953,58.95533,61.287434,59.08128,61.189919C59.270142,61.043346,59.470768,60.912601,59.681122,60.799007C59.891388,60.685387,60.110714,60.589405,60.336845,60.512047C60.563042,60.434647,60.795219,60.375965,61.031025,60.33659C61.188187,60.310509,61.346649,60.292999,61.505714,60.284142C61.903717,60.262436,62.302814,60.295448,62.691841,60.382256C62.847374,60.416981,63.000862,60.460308,63.151596,60.512043C63.377769,60.589512,63.597176,60.68549,63.807579,60.799004C63.877365,60.836773,63.94664,60.87669,64.01470900000001,60.918236C64.08226400000001,60.959953,64.148705,61.003304,64.214714,61.04871C64.28014,61.093933,64.344261,61.141022,64.406994,61.189915C64.532887,61.287693,64.653381,61.392227,64.76794799999999,61.503056C64.825031,61.558422,64.880482,61.615505,64.93430699999999,61.673962C64.98872800000001,61.732418,65.04092,61.792419,65.091396,61.853794L77.895668,77.380981C77.990692,77.495232,78.062111,77.614464,78.133446,77.71936C80.695229,76.433918,82.31424,73.81943100000001,82.31424,70.957809L82.31424,47.054794C82.31424,46.988182,82.316383,46.921658,82.319733,46.855133C82.326309,46.722084,82.339493,46.589443,82.359222,46.457699C82.378647,46.325905,82.404724,46.195175,82.43734,46.066013C82.453735,46.001377,82.471329,45.937256,82.490562,45.873562C82.510307,45.809956,82.53125,45.746693,82.553741,45.684029C82.576317,45.621193,82.599922,45.559048,82.625763,45.497585C82.651039,45.436047,82.67794,45.375195,82.706451,45.31509C82.763756,45.194809,82.826653,45.077282,82.894951,44.962891C82.929543,44.905807,82.965256,44.849583,83.002075,44.794132C83.112968,44.627827,83.236176,44.47007,83.370667,44.322189C83.415298,44.272869,83.46109,44.224613000000005,83.508011,44.177464C83.555229,44.13039,83.6036,44.08448,83.653076,44.039776C83.751648,43.950176,83.854675,43.865604000000005,83.961754,43.786377C84.01506,43.746632000000005,84.069481,43.708263,84.124931,43.671352C84.180305,43.63435,84.236542,43.598659999999995,84.293602,43.564312C84.350769,43.529976000000005,84.408455,43.497185,84.467171,43.465855000000005C84.525993,43.434512999999995,84.585518,43.404517999999996,84.645714,43.375896C84.766106,43.318726,84.889297,43.267643,85.014824,43.222847C85.077515,43.200336,85.14077,43.179413,85.204529,43.160099C85.331879,43.121136,85.461121,43.088646,85.591751,43.062756C85.787605,43.023551999999995,85.986092,42.998875,86.185585,42.988934C86.252113,42.9855,86.319153,42.983784,86.38559,42.983695999999995L86.390572,42.983695999999995L86.390572,42.969448C86.590637,42.969627,86.790421,42.984604000000004,86.988266,43.014256C87.45118,43.083218,87.89872,43.231609,88.311134,43.452892C88.36998,43.484406,88.428047,43.517348999999996,88.485298,43.551693C88.599594,43.620541,88.71051,43.694851,88.817665,43.774361C88.870888,43.814105999999995,88.923676,43.855221,88.974754,43.897625000000005C89.077957,43.982231,89.176796,44.072021,89.270897,44.166645C89.318138,44.213726,89.364105,44.262074,89.408752,44.311626000000004C89.498421,44.410354999999996,89.582939,44.513641,89.66198,44.621075C89.702156,44.674809,89.740097,44.729233,89.777435,44.784771C89.888206,44.95153,89.986809,45.126064,90.072464,45.307014C90.100449,45.367275,90.127403,45.428219,90.153152,45.489853C90.178474,45.551571,90.202599,45.613892,90.224571,45.67664C90.247147,45.739475,90.268005,45.802822,90.287231,45.866688C90.326019,45.994324,90.358284,46.123852,90.383888,46.254765C90.39711,46.320175,90.408096,46.385925,90.417969,46.451939C90.427841,46.517864,90.436081,46.584129,90.442177,46.650486C90.448784,46.716927,90.453682,46.783363,90.457024,46.850063C90.460289,46.916676,90.461319,46.983372,90.461319,47.050068L90.461319,71.04829000000001C90.461319,71.316364,90.454796,71.58453,90.441574,71.852001C90.428444,72.120075,90.408615,72.38763800000001,90.382858,72.654079C90.356422,72.92104,90.323456,73.18697,90.283974,73.452381C90.244919,73.717625,90.198822,73.981922,90.146629,74.245022C90.09446,74.507992,90.035645,74.769604,89.97023,75.02959100000001C89.905434,75.28975299999999,89.833992,75.548214,89.755974,75.80471399999999C89.600739,76.318089,89.419968,76.823402,89.214333,77.318748C89.111832,77.566612,89.003212,77.811905,88.888573,78.05439C88.773773,78.296715,88.653221,78.536278,88.527016,78.772865C88.273888,79.245781,87.997963,79.706131,87.700211,80.152298C87.551094,80.375153,87.396683,80.594421,87.237106,80.809914C86.917908,81.240685,86.577629,81.655418,86.217506,82.052605C86.037483,82.251526,85.85247,82.445869,85.662643,82.635452C84.90406,83.394745,84.072502,84.077438,83.180008,84.673615C82.734329,84.971855,82.274124,85.247795,81.801086,85.50042C81.564583,85.626984,81.324989,85.747681,81.082527,85.862404C80.840248,85.977242,80.595161,86.08606,80.347488,86.188766C80.099617,86.291115,79.849388,86.387657,79.597,86.478302C79.344482,86.568352,79.089867,86.652412,78.833374,86.730415C78.320213,86.88633,77.799683,87.016876,77.273674,87.121582C77.010651,87.17411,76.746353,87.220078,76.481033,87.259438C76.215622,87.299011,75.949692,87.33197,75.682732,87.357811C75.41629,87.384163,75.148811,87.403992,74.880653,87.417725C74.613182,87.430855,74.345016,87.437469,74.076942,87.437469L22.389435,87.437469C21.852997000000002,87.437447,21.316885,87.411026,20.783041,87.358322C20.516081,87.33197,20.249981,87.299606,19.984566,87.260033C19.719357000000002,87.220566,19.455126,87.174774,19.192099,87.122688C18.929079,87.070229,18.667364,87.011406,18.407187,86.946289C18.147013,86.881035,17.888474000000002,86.809418,17.631802,86.731522C17.118399,86.576111,16.613016000000002,86.39534,16.117514,86.18988C15.8698139,86.087135,15.624588,85.978516,15.3820438,85.86412C14.897295,85.634422,14.4239407,85.381416,13.9636388,85.105988C13.733746100000001,84.967735,13.5071263,84.82412,13.283964600000001,84.675247C12.8378415,84.377335,12.4066911,84.057594,11.9920859,83.717194C11.7848048,83.547096,11.5817056,83.371956,11.382971300000001,83.19194C11.184318099999999,83.011742,10.9900641,82.826767,10.8003812,82.637161C10.6106734,82.447517,10.4257188,82.253174,10.245688900000001,82.054314C9.8852181,81.657005,9.544676299999999,81.242065,9.2253194,80.81102C8.905629600000001,80.380295,8.6074052,79.934044,8.3317342,79.473907C8.055876699999999,79.013817,7.8028593,78.540413,7.5736032,78.055412C7.4590043999999995,77.813065,7.3502998,77.567986,7.2475863,77.320374C7.0425406,76.824585,6.86169338,76.319141,6.70568371,75.80582C6.39429855,74.77843899999999,6.18436241,73.723011,6.078886509,72.654667C6.026371479,72.120815,6.000044822693,71.584713,6.00000095367432,71.04829000000001L6.00000095367432,31.217907C5.99927043915,29.065458,6.42277336,26.933973,7.2462993,24.945299C7.4514656,24.449596,7.6809344,23.964302,7.9338708,23.491184C8.4399552,22.544292,9.037803199999999,21.6493893,9.7188096,20.819356900000002C10.0590692,20.4045806,10.4195733,20.0068345,10.7990088,19.6275659C10.9887137,19.437860999999998,11.1828809,19.2529635,11.3816848,19.0728736C11.7791238,18.7125249,12.1940875,18.3719888,12.6250644,18.0525041C13.055964,17.7328515,13.5023541,17.434628,13.9626098,17.1589189C14.8834934,16.6069608,15.8564434,16.1469369,16.867404999999998,15.7854934C17.372512999999998,15.6047502,17.886225,15.4490199,18.406672,15.318871999999999C19.709198,14.9931092,21.046791,14.8284974,22.389435,14.8287306L57.8634,14.828729599999999ZM61.939041,35.574499L64.557991,40.364494L69.343525,42.983444L64.557995,45.607117L61.934151,50.392475L59.315372,45.607117L54.525291,42.978722000000005L59.315372,40.359772L61.939041,35.574499ZM81.200134,12.5L85.690125,20.708879500000002L93.899261,25.189596L85.690041,29.67984L81.20005,37.898163L76.705086,29.674946L68.500759,25.199123L76.705086,20.7089653L81.200134,12.5Z" fill="#000000" fill-opacity="1" style="mix-blend-mode:passthrough"/></g></svg>