<svg xmlns="http://www.w3.org/2000/svg" xmlns:xlink="http://www.w3.org/1999/xlink" fill="none" version="1.1" width="200" height="200" viewBox="0 0 200 200"><defs><clipPath id="master_svg0_2099_34844"><rect x="0" y="0" width="200" height="200" rx="0"/></clipPath></defs><g clip-path="url(#master_svg0_2099_34844)"><path d="M35.05068916278076,15.26846694946289C24.31470866278076,15.26846694946289,15.507037162780762,24.076139449462893,15.507037162780762,34.81211894946289L15.507037162780762,165.1031269494629C15.507037162780762,175.83909694946288,24.31470866278076,184.6467769494629,35.05068916278076,184.6467769494629L166.34199716278076,184.6467669494629C177.07797716278077,184.6467669494629,185.88496716278075,175.8390369494629,185.88496716278075,165.10305694946288L185.88496716278075,34.81216794946289C185.88496716278075,24.07618904946289,177.07797716278077,15.26846694946289,166.34199716278076,15.26846694946289L35.05068916278076,15.26846694946289ZM35.05068916278076,28.29756694946289L166.34199716278076,28.297519949462888C170.00317716278076,28.297519949462888,172.85664716278077,31.15098994946289,172.85664716278077,34.81216794946289L172.85664716278077,165.10305694946288C172.85664716278077,168.76423694946288,170.00317716278076,171.6177069494629,166.34199716278076,171.6177069494629L35.06901616278076,171.6176769494629C35.056798162780765,171.6176769494629,35.045113162780765,171.6177569494629,35.03289716278076,171.6178769494629C31.430938162780762,171.6521469494629,28.501663162780762,168.7228869494629,28.53594716278076,165.1209169494629C28.53606416278076,165.10870694946288,28.53614016278076,165.0970169494629,28.53614016278076,165.08479694946288L28.53614016278076,34.81211894946289C28.53614016278076,31.15094194946289,31.389513162780762,28.297568949462892,35.05068916278076,28.29756694946289ZM93.68164316278076,57.35576994946289L93.68164316278076,90.44307294946289C93.68164316278076,92.09992594946289,92.33849616278076,93.44307294946289,90.68164316278076,93.44307294946289L57.59433616278076,93.44307294946289C55.93748016278076,93.44307294946289,54.59433616278076,94.78622094946289,54.59433616278076,96.44307294946289L54.59433616278076,103.47217194946289C54.59433616278076,105.12902494946289,55.93748016278076,106.47217194946289,57.59433616278076,106.47217194946289L90.68164316278076,106.47217194946289C92.33849616278076,106.47217194946289,93.68164316278076,107.81531894946289,93.68164316278076,109.47217194946289L93.68164316278076,142.5594869494629C93.68164316278076,144.2163469494629,95.02479116278076,145.5594869494629,96.68164316278076,145.5594869494629L103.71074216278076,145.5594869494629C105.36759516278076,145.5594869494629,106.71074216278076,144.2163469494629,106.71074216278076,142.5594869494629L106.71074216278076,109.47217194946289C106.71074216278076,107.81531894946289,108.05388916278076,106.47217194946289,109.71074216278076,106.47217194946289L142.79803716278076,106.47217194946289C144.45489716278075,106.47217194946289,145.79803716278076,105.12902494946289,145.79803716278076,103.47217194946289L145.79803716278076,96.44307294946289C145.79803716278076,94.78622094946289,144.45489716278075,93.44307294946289,142.79803716278076,93.44307294946289L109.71074216278076,93.44307294946289C108.05388916278076,93.44307294946289,106.71074216278076,92.09992594946289,106.71074216278076,90.44307294946289L106.71074216278076,57.35576994946289C106.71074216278076,55.69891694946289,105.36759516278076,54.35576994946289,103.71074216278076,54.35576994946289L96.68164316278076,54.35576994946289C95.02479116278076,54.35576994946289,93.68164316278076,55.69891694946289,93.68164316278076,57.35576994946289" fill="#000000" fill-opacity="1" style="mix-blend-mode:passthrough"/></g></svg>