<svg xmlns="http://www.w3.org/2000/svg" xmlns:xlink="http://www.w3.org/1999/xlink" fill="none" version="1.1" width="317" height="70.3811264038086" viewBox="0 0 317 70.3811264038086"><defs><clipPath id="master_svg0_2109_35596"><rect x="0" y="0" width="317" height="70.3811264038086" rx="0"/></clipPath><clipPath id="master_svg1_2109_35587"><rect x="0" y="0" width="86" height="70.3811264038086" rx="0"/></clipPath></defs><g clip-path="url(#master_svg0_2109_35596)"><g><path d="M172.588192,6.7759972Q175.22000500000001,6.7759972,175.22000500000001,9.4078102L175.22000500000001,10.94418335Q175.22000500000001,13.575996400000001,172.588192,13.575996400000001L121.4118128,13.575996400000001Q118.7800002,13.575996400000001,118.7800002,10.94418335L118.7800002,9.4078102Q118.7800002,6.7759972,121.4118128,6.7759972L172.588192,6.7759972ZM170.82019,16.159996Q173.452003,16.159996,173.452003,18.791809100000002L173.452003,20.328186000000002Q173.452003,22.959999,170.82019,22.959999L123.179813,22.959999Q120.5480003,22.959999,120.5480003,20.328186000000002L120.5480003,18.791809100000002Q120.5480003,16.159996,123.179813,16.159996L170.82019,16.159996ZM174.832191,25.543999Q177.464005,25.543999,177.464005,28.175812L177.464005,29.712187Q177.464005,32.343998,174.832191,32.343998L119.16781280000001,32.343998Q116.5360003,32.343998,116.5360003,29.712187L116.5360003,28.175812Q116.5360003,25.543999,119.16781280000001,25.543999L174.832191,25.543999ZM147.905251,3.4439963999999996Q151.080002,3.4439963999999996,151.080002,6.6187477L151.080002,25.769249000000002Q151.080002,28.943998,147.905251,28.943998L146.094753,28.943998Q142.920002,28.943998,142.920002,25.769249000000002L142.920002,6.6187477Q142.920002,3.4439963999999996,146.094753,3.4439963999999996L147.905251,3.4439963999999996ZM128.006751,54.073189Q130.516376,52.594189,132.063375,54.955063L132.968626,56.380936Q134.556002,58.836376,132.086752,60.329189Q129.147877,62.152439,126.139938,63.737686Q123.132001,65.32400100000001,121.6700001,65.885002Q118.9978127,67.146187,117.8853755,64.405998L117.2266254,62.841999Q116.1821876,60.169811,118.8140001,58.949001Q123.772688,56.647625,128.006751,54.073189ZM161.774067,31.634249Q163.850189,30.371998,165.126251,32.461937L165.86575299999998,33.722061Q167.128002,35.798185000000004,165.038067,37.074248999999995L142.085939,50.80175Q140.009813,52.063999,138.733751,49.97406L137.994251,48.713936Q136.732,46.63781,138.821939,45.361748L161.774067,31.634249ZM149.075066,49.344002Q152.304001,49.344002,152.304001,52.572937L152.304001,61.638187Q152.304001,67.091999,146.850189,67.091999L139.635815,67.091999Q137.004002,67.091999,137.004002,64.46019L137.004002,62.923813Q137.004002,60.292,139.635815,60.292L144.008001,60.292L144.008001,52.572937Q144.008001,49.344002,147.236938,49.344002L149.075066,49.344002ZM168.012005,43.978374Q168.012005,40.911999,171.078377,40.911999L172.83363,40.911999Q175.900002,40.911999,175.900002,43.978374L175.900002,47.38475Q175.900002,52.675999,170.608753,52.675999L119.0456252,52.675999Q116.4680002,52.675999,116.4680002,50.098373L116.4680002,48.589622Q116.4680002,46.012001,119.0456252,46.012001L168.012005,46.012001L168.012005,43.978374ZM141.646065,27.430998Q143.668001,26.223999,144.943001,28.313936L145.657001,29.57406Q146.864002,31.595999,144.774065,32.870998L139.928001,35.675999000000004L153.28894,35.675999000000004Q155.704002,35.675999000000004,155.704002,38.091060999999996L155.704002,39.584936Q155.704002,42,153.28894,42L127.08981299999999,42Q124.702375,42,123.610126,41.186125000000004Q122.5178757,40.37225,123.121375,39.06325Q123.724875,37.75425,126.059188,36.397436L141.646065,27.430998ZM165.99325199999998,54.073189Q168.592129,55.652061,171.25262800000002,57.047127Q173.914192,58.442188,175.186005,58.949001Q177.817818,60.169811,176.77338,62.841999L176.114628,64.405998Q175.056377,67.146187,172.330002,65.885002Q167.003689,63.446564,161.913254,60.329189Q159.444004,58.836376,161.031376,56.380936L161.936626,54.955063Q163.483627,52.594189,165.99325199999998,54.073189ZM226.26781,26.75631Q229.28,27.461811,228.46613000000002,30.528187Q226.35811999999999,38.064499,222.90926000000002,44.983498Q219.46037,51.901436,215.75650000000002,56.612564Q213.88438,59.136002,211.374756,57.223499L209.921249,56.1525Q207.506187,54.280373,209.36450200000002,51.662376Q217.13669,40.926874,220.70032,28.624186Q221.54181,25.679996,224.54019,26.371685L226.26781,26.75631ZM243.51324,13.1679993Q246.688,13.1679993,246.688,16.3427467L246.688,18.1532478Q246.688,21.327999,243.51324,21.327999L215.25074999999998,21.327999Q212.076004,21.327999,212.076004,18.1532478L212.076004,16.3427467Q212.076004,13.1679993,215.25074999999998,13.1679993L243.51324,13.1679993ZM237.25725,3.9199982Q240.43201,3.9199982,240.43201,7.0947455999999995L240.43201,59.925438Q240.43201,65.868,234.48944,65.868L228.49694,65.868Q225.26801,65.868,225.26801,62.639061L225.26801,60.800938Q225.26801,57.571999,228.49694,57.571999L232.272,57.571999L232.272,7.0947455999999995Q232.272,3.9199982,235.44675,3.9199982L237.25725,3.9199982ZM188.84018700000001,25.339996Q191.74400300000002,25.339996,191.74400300000002,28.243811L191.74400300000002,35.335999Q191.74400300000002,41.158499,191.368942,46.498623Q190.994934,51.837688,190.124748,56.762375Q189.622185,59.68,186.718376,59.082874L185.073624,58.781124Q182.223999,58.238186,182.71275300000002,55.280186Q183.514938,50.627499,183.888939,45.696438Q184.264,40.764311,184.264,35.335999L184.264,28.243811Q184.264,25.339996,187.16781600000002,25.339996L188.84018700000001,25.339996ZM206.385254,13.303996999999999Q209.559998,13.303996999999999,209.559998,16.4787483L209.559998,18.2892494Q209.559998,21.463997,206.385254,21.463997L186.622749,21.463997Q183.44799799999998,21.463997,183.44799799999998,18.2892494L183.44799799999998,16.4787483Q183.44799799999998,13.303996999999999,186.622749,13.303996999999999L206.385254,13.303996999999999ZM200.33325200000002,3.8519974Q203.508003,3.8519974,203.508003,7.026748700000001L203.508003,63.373249Q203.508003,66.548,200.33325200000002,66.548L198.522751,66.548Q195.348,66.548,195.348,63.373249L195.348,7.026748700000001Q195.348,3.8519974,198.522751,3.8519974L200.33325200000002,3.8519974ZM208.30200200000002,33.354437000000004Q210.987999,35.009811,209.34643599999998,37.681999000000005L208.413567,39.245998Q206.758186,41.931999000000005,204.08599900000002,40.290436L200.00599699999998,37.861560999999995Q197.32,36.206186,198.961563,33.533998L199.89444,31.969999Q201.549812,29.283998,204.22199999999998,30.925562L208.30200200000002,33.354437000000004ZM310.642,50.908001Q313.60001,50.908001,313.60001,53.866001L313.60001,55.565998Q313.60001,58.523998,310.642,58.523998L268.48199,58.523998Q265.524,58.523998,265.524,55.565998L265.524,53.866001Q265.524,50.908001,268.48199,50.908001L310.642,50.908001ZM291.56163000000004,31.663998Q294.62801,31.663998,294.62801,34.730373L294.62801,63.413624Q294.62801,66.47999999999999,291.56163000000004,66.47999999999999L289.80638,66.47999999999999Q286.74001,66.47999999999999,286.74001,63.413624L286.74001,34.730373Q286.74001,31.663998,289.80638,31.663998L291.56163000000004,31.663998ZM309.01000999999997,21.123997Q311.96799999999996,21.123997,311.96799999999996,24.081997L311.96799999999996,25.781998Q311.96799999999996,28.739998,309.01000999999997,28.739998L270.11400000000003,28.739998Q267.15601000000004,28.739998,267.15601000000004,25.781998L267.15601000000004,24.081997Q267.15601000000004,21.123997,270.11400000000003,21.123997L309.01000999999997,21.123997ZM287.82056,17.536998699999998Q290.34398999999996,19.0298119,288.86501,21.539436000000002L279.804,36.763998L308.04418999999996,36.763998Q310.948,36.763998,310.948,39.667812L310.948,41.340187Q310.948,44.243999,308.04418999999996,44.243999L276.08099000000004,44.243999Q271.45488,44.243999,270.25426,42.202936Q269.05362,40.160812,271.45488,36.077623L282.33700999999996,17.7314339Q283.82982000000004,15.207996399999999,286.33945,16.6869965L287.82056,17.536998699999998ZM310.302,7.8639984Q313.26000999999997,7.8639984,313.26000999999997,10.8219986L313.26000999999997,12.5219994Q313.26000999999997,15.4799957,310.302,15.4799957L263.96001,15.4799957L263.96001,35.199999Q263.96001,50.558437,258.707,63.766376Q257.54037,66.670189,254.70563,65.40899999999999L253.08638,64.695Q250.29201,63.47419,251.44481,60.638374Q256.004,48.912624,256.004,35.199999L256.004,13.4803734Q256.004,7.8639984,261.62038,7.8639984L310.302,7.8639984ZM286.65181,3.9199982Q289.664,3.9199982,289.664,6.9321861L289.664,8.6598091Q289.664,11.67199707,286.65181,11.67199707L284.24419,11.67199707Q281.23199,11.67199707,281.23199,8.6598091L281.23199,6.9321861Q281.23199,3.9199982,284.24419,3.9199982L286.65181,3.9199982Z" fill="#000000" fill-opacity="1"/></g><g clip-path="url(#master_svg1_2109_35587)"><path d="M17.236195,56.460026L37.345089,56.460026C38.739082,56.459675,39.932144,57.460155,40.174698,58.832878C40.459095,60.476063,41.81501,61.251694,43.136448,61.194241C44.406181,61.251694,45.710388,60.530643,46.069477,58.993748C46.42569,57.468342,47.589134,56.460026,48.835884,56.460026L68.944778,56.460026C73.704422,56.460026,77.562889,52.60157,77.562874,47.841927L77.562874,8.6180973C77.562889,3.8584554,73.704422,8.766782e-7,68.944778,0L48.835884,0C46.641144,0,44.684834,0.89340961,43.179543,2.3096499C41.597157,0.82904655,39.512138,0.0036618849,37.345089,0L17.236195,0C12.476551,0,8.6180983,3.8584538,8.6180973,8.6180973L8.6180973,47.841927C8.6180983,52.601578,12.476551,56.460026,17.236195,56.460026ZM48.835884,5.7453985L68.944778,5.7453985C70.531334,5.7453985,71.817482,7.0315504,71.817482,8.6180973L71.817482,47.841927C71.817482,49.428478,70.531334,50.714626,68.944778,50.714626L48.835884,50.714626C47.854607,50.714039,46.881336,50.891178,45.963188,51.237457L45.963188,9.2127466C45.963188,7.239202,47.316227,5.7453985,48.835884,5.7453985ZM14.363496,8.6180973C14.363496,7.0315504,15.649648,5.7453985,17.236195,5.7453985L37.345089,5.7453985C38.931641,5.7453985,40.217789,7.0315504,40.217789,8.6180973L40.217789,51.20874C39.295116,50.882881,38.32362,50.716755,37.345089,50.717506L17.236195,50.717506C15.649648,50.717506,14.363496,49.431355,14.363496,47.844807L14.363496,8.6180973ZM83.127296,14.363496C81.540749,14.363496,80.254601,15.649648,80.254601,17.236195L80.254601,57.453983C80.254601,59.040535,78.968452,60.326683,77.381897,60.326683L57.273003,60.326683C54.193581,60.327511,51.348103,61.969761,49.806858,64.635735L36.193138,64.635735C34.65189,61.969761,31.806416,60.327511,28.726992,60.326683L8.6180973,60.326683C7.0315495,60.326683,5.7453985,59.040535,5.7453985,57.453983L5.7453985,17.236195C5.7453985,15.649648,4.4592476,14.363496,2.8726993,14.363496C1.2861509,14.363496,0,15.649648,0,17.236195L0,57.453983C2.1916955e-7,62.213631,3.8584533,66.072083,8.6180973,66.072083L28.726992,66.072083C30.045563,66.072083,31.186022,66.968361,31.510639,68.223732C31.837215,69.494011,32.9827,70.38179,34.294285,70.381126L51.708584,70.381126C53.018539,70.381126,54.164745,69.493469,54.492233,68.223732C54.820736,66.956795,55.964127,66.072083,57.273003,66.072083L77.381897,66.072083C82.141541,66.072083,85.999992,62.213631,85.999992,57.453983L85.999992,17.236195C85.999992,15.649648,84.713844,14.363496,83.127296,14.363496ZM21.545244,18.672544L31.703108,18.672544C33.289658,18.672544,34.575806,17.386393,34.575806,15.799846C34.575806,14.213299,33.289658,12.927146,31.703108,12.927146L21.545244,12.927146C19.958696,12.927146,18.672544,14.213299,18.672544,15.799846C18.672544,17.386393,19.958696,18.672544,21.545244,18.672544ZM21.545244,30.163342L31.703108,30.163342C33.289658,30.163342,34.575806,28.877192,34.575806,27.290642C34.575806,25.704092,33.289658,24.417942,31.703108,24.417942L21.545244,24.417942C19.958696,24.417942,18.672544,25.704092,18.672544,27.290642C18.672544,28.877192,19.958696,30.163342,21.545244,30.163342Z" fill="#000000" fill-opacity="1" style="mix-blend-mode:passthrough"/></g></g></svg>