<svg xmlns="http://www.w3.org/2000/svg" xmlns:xlink="http://www.w3.org/1999/xlink" fill="none" version="1.1" width="385" height="97.62162017822266" viewBox="0 0 385 97.62162017822266"><defs><clipPath id="master_svg0_2109_35526"><rect x="0" y="0" width="385" height="97.62162017822266" rx="0"/></clipPath><clipPath id="master_svg1_2109_35464"><rect x="0" y="0" width="86" height="97.62162017822266" rx="0"/></clipPath></defs><g clip-path="url(#master_svg0_2109_35526)"><g clip-path="url(#master_svg1_2109_35464)"><path d="M28.949614,6.4928393C30.452215,5.8854861,32.039455,5.5209799,33.651958,5.410789C32.748291,5.8307662,31.926538,6.3152456,31.263823,6.8351989C31.263823,6.8351989,31.255077,6.8421159,31.255077,6.8421159C28.161295,9.2904167,26.928564,12.579174,26.743046,16.326792C26.743046,16.326792,26.742868,16.330408,26.742868,16.330408C26.708647,17.041182,26.716066,17.843298,26.918242,18.727253C27.122641,19.620707,27.493591,20.461126,28.03204,21.326311C28.894247,22.711737,30.294186,24.319723,32.403458,26.480238C32.403458,26.480238,31.528458,27.333488,31.528458,27.333488C28.363111,24.276255,26.089325,22.550585,24.607183,21.650646C22.845789,20.581141,21.335161,20.223656,20.427948,20.125364C20.422787,20.124823,20.417591,20.124252,20.412394,20.123713C20.409422,20.123426,20.406412,20.123104,20.403435,20.122818C18.790718,19.963034,17.168106,20.305035,15.757243,21.101915C15.371379,21.31621,15.018341,21.584894,14.708983,21.899767C14.704183,21.904675,14.699344,21.909622,14.694576,21.914562C14.229699,22.395065,13.864586,22.962898,13.620338,23.585264C13.376094,24.207634,13.257553,24.872217,13.271528,25.540625C13.285503,26.209085,13.431743,26.868107,13.701825,27.479727C13.75357,27.596943,13.809687,27.712,13.869995,27.824631C13.869995,27.824631,11.47147,30.166864,11.47147,30.166864C11.47147,30.166864,6.1814756,25.00362,6.1814756,25.00362C6.1814756,25.00362,8.7130919,22.529659,8.7130919,22.529659C8.7325134,22.536539,8.7520065,22.543278,8.7715387,22.549906C9.3878155,22.758322,10.042899,22.825613,10.688454,22.746992C11.545753,22.650637,12.92992,22.352495,14.001687,21.333336C14.006989,21.328279,14.012293,21.323195,14.017562,21.318102C14.825551,20.537022,15.125019,19.606518,15.226464,18.870016C15.313792,18.235826,15.26821,17.611732,15.243092,17.267799C15.243092,17.267799,15.240081,17.226086,15.240081,17.226086C15.218152,16.922857,15.207759,16.755081,15.206469,16.642956C16.091394,15.492677,17.053364,14.403673,18.085859,13.383475C18.965513,12.521803,22.677008,9.0184727,28.94628,6.4942007C28.94628,6.4942007,28.949614,6.4928393,28.949614,6.4928393C28.949614,6.4928393,28.949614,6.4928393,28.949614,6.4928393ZM28.829029,32.216476C25.25005,28.642012,22.963326,26.940924,21.817492,26.245165C20.79385,25.623623,20.055664,25.493401,19.859797,25.470465C19.542301,25.440762,19.223806,25.472328,18.921188,25.561701C19.22345,25.871199,19.46526,26.234806,19.633862,26.633858C19.814211,27.06065,19.907095,27.519291,19.907095,27.982626C19.907095,28.445957,19.814211,28.904568,19.633862,29.331388C19.453972,29.757103,19.190737,30.142532,18.859697,30.46497C18.859697,30.46497,18.857153,30.467443,18.857153,30.467443C18.857153,30.467443,13.937903,35.271198,13.937903,35.271198C13.613961,35.593063,13.229745,35.848198,12.807154,36.021645C12.38377,36.195438,11.930325,36.283947,11.472831,36.282154C10.568373,36.283588,9.6979961,35.934921,9.0442705,35.308716C9.0442705,35.308716,9.0337009,35.298546,9.0337009,35.298546C9.0337009,35.298546,9.0260687,35.291122,9.0260687,35.291122C9.0260687,35.291122,1.035602,27.492159,1.035602,27.492159C1.0111916,27.46833,0.9872365,27.444036,0.9637543,27.419313C0.34498006,26.767559,0,25.903168,0,25.004442C0,24.105755,0.34498006,23.241362,0.9637543,22.589607C0.9637543,22.589607,2.9128141,24.440052,2.9128141,24.440052C2.9128141,24.440052,1.0344374,22.517906,1.0344374,22.517906C1.0344374,22.517906,5.9687643,17.69598,5.9687643,17.69598C5.9687643,17.69598,5.9728847,17.691969,5.9728847,17.691969C6.3038139,17.367702,6.6961989,17.112812,7.1270337,16.942244C7.5455413,16.776546,7.9920344,16.693731,8.4417906,16.698139C8.92731,16.699181,9.4027586,16.801022,9.8398647,16.992519C9.8285751,16.712402,9.8267117,16.387779,9.8543406,16.061834C9.9112082,15.390658,10.101703,14.518308,10.699956,13.690037C10.710885,13.67495,10.72196,13.659935,10.733176,13.645065C11.82569,12.196966,13.021944,10.830177,14.312512,9.5554476C14.312512,9.5554476,14.320038,9.5480289,14.320038,9.5480289C15.462611,8.428318,19.757919,4.3996906,26.937092,1.508682C29.408974,0.50980997,32.050419,-0.002453788,34.716484,0.0000088369079C39.234543,0.00040675077,42.788219,1.9678938,44.289669,3.3277638C44.306152,3.3425305,44.322281,3.3574948,44.338051,3.3726563C45.081966,4.0804429,45.763168,4.8515596,46.373432,5.6772528C47.079361,6.6323419,47.075066,7.9376755,46.361961,8.8877831C45.649223,9.8378925,44.39753,10.207416,43.282726,9.7966499C42.888912,9.6515188,42.486851,9.5299692,42.078701,9.4326429C41.240898,9.2578077,40.382309,9.2051325,39.529099,9.2762613C39.529099,9.2762613,39.524796,9.2766209,39.524796,9.2766209C37.750286,9.4217148,35.569592,10.291446,34.586121,11.060662C33.0135,12.307193,32.241989,13.962591,32.11166,16.591391C32.088978,17.064939,32.110153,17.319256,32.158028,17.528635C32.203823,17.72884,32.304665,18.018774,32.5956,18.486233C33.239578,19.521017,34.569065,21.056767,37.391937,23.880398C37.426342,23.915049,37.460384,23.950701,37.492996,23.987215C37.506256,24.001907,37.519157,24.016708,37.532051,24.031612C37.781456,24.043547,38.030861,24.071823,38.278481,24.116652C39.404388,24.32044,40.443222,24.856554,41.261684,25.655939C41.972988,26.346256,43.139393,27.480982,45.030727,29.323145C45.030727,29.323145,48.312057,26.274191,48.312057,26.274191C48.312057,26.274191,48.314926,26.27154,48.314926,26.27154C48.314926,26.27154,48.317799,26.268887,48.317799,26.268887C48.567921,26.037794,48.749241,25.742016,48.842049,25.414238C48.934505,25.086466,48.93486,24.739487,48.842411,24.411602C48.842411,24.411602,48.842411,24.411354,48.842411,24.411354C47.130257,18.319818,47.189018,10.625673,52.537632,5.315721C52.537632,5.315721,52.537994,5.315434,52.537994,5.315434C57.869415,0.021658853,66.194763,-1.3829826,72.701553,1.4027808C72.701553,1.4027808,72.711227,1.4070095,72.711227,1.4070095C72.711227,1.4070095,72.72126,1.4113166,72.72126,1.4113166C73.143387,1.5960888,73.513916,1.8811392,73.800941,2.2416422C74.087624,2.6020555,74.282562,3.0271864,74.367836,3.4802024C74.453117,3.9330931,74.426613,4.3999414,74.290451,4.8401289C74.154633,5.2799587,73.913452,5.6800475,73.587738,6.0056372C73.587738,6.0056372,73.587013,6.0064611,73.587013,6.0064611C73.587013,6.0064611,65.044853,14.548553,65.044853,14.548553C65.044853,14.548553,65.042343,14.550989,65.042343,14.550989C64.694756,14.901663,64.499817,15.375427,64.499817,15.869224C64.499817,16.363197,64.695114,16.837139,65.042702,17.187887C65.042702,17.187887,65.044853,17.189892,65.044853,17.189892C65.044853,17.189892,68.809601,20.956247,68.809601,20.956247C68.809601,20.956247,68.812111,20.958866,68.812111,20.958866C69.163284,21.306492,69.637733,21.501539,70.131874,21.501539C70.626038,21.501539,71.100471,21.306492,71.451653,20.958866C71.451653,20.958866,71.454163,20.956247,71.454163,20.956247C71.454163,20.956247,80.037903,12.369259,80.037903,12.369259C80.037903,12.369259,80.038963,12.368183,80.038963,12.368183C80.038963,12.368183,80.040047,12.367107,80.040047,12.367107C80.35717,12.050729,80.744553,11.814115,81.170609,11.676654C81.59668,11.539195,82.049622,11.504794,82.491478,11.576319C82.933662,11.647808,83.352196,11.823145,83.713425,12.087996C84.074623,12.352809,84.367744,12.699544,84.568779,13.099668C84.568779,13.099668,84.576294,13.115221,84.576294,13.115221C84.576294,13.115221,84.584175,13.130877,84.584175,13.130877C86.010384,16.063946,86.313545,19.825718,85.697906,23.379036C85.077255,26.959736,83.46759,30.66048,80.676819,33.409542C75.40023,38.607792,67.832756,38.718887,61.792187,37.104904C61.792187,37.104904,61.790031,37.104187,61.790031,37.104187C61.465374,37.017117,61.12352,37.02034,60.80064,37.113152C60.477787,37.205967,60.186447,37.385128,59.957832,37.63131C59.957832,37.63131,59.954605,37.634541,59.954605,37.634541C59.954605,37.634541,59.95174,37.638115,59.95174,37.638115C59.95174,37.638115,57.059917,40.728462,57.059917,40.728462C63.485706,46.677307,70.560463,53.088764,73.452293,55.497894C73.982269,55.93615,74.414787,56.480114,74.722954,57.095036C75.031868,57.712452,75.208527,58.387566,75.241119,59.077385C75.273735,59.767197,75.161575,60.45628,74.911819,61.100227C74.662407,61.743084,74.281113,62.32719,73.793053,62.814175C73.793053,62.814175,73.791267,62.815605,73.791267,62.815605C73.791267,62.815605,68.187157,68.417931,68.187157,68.417931C68.181786,68.42366,68.176399,68.429039,68.171021,68.434418C68.171021,68.434418,68.165298,68.439789,68.165298,68.439789C67.676521,68.917465,67.095291,69.290855,66.457443,69.537033C65.819588,69.782867,65.138382,69.896805,64.455025,69.871017C63.772011,69.845566,63.101204,69.681084,62.483421,69.387962C61.865631,69.094833,61.314152,68.679161,60.862282,68.166008C60.855831,68.158844,60.849384,68.15168,60.843285,68.144165C58.390091,65.297836,52.118732,58.529839,46.213974,52.320118C46.213974,52.320118,32.733746,66.727272,32.733746,66.727272C31.873505,67.682602,30.828936,68.454124,29.662748,68.995216C28.486706,69.540985,27.21176,69.840912,25.915781,69.877098C24.619795,69.913651,23.330055,69.685028,22.12541,69.205933C20.92074,68.726463,19.826471,68.006905,18.909472,67.090279C17.992472,66.17363,17.272064,65.079971,16.79224,63.87558C16.312418,62.671192,16.083261,61.381519,16.118807,60.085392C16.154354,58.789276,16.453856,57.51429,16.999006,56.337852C17.54035,55.170017,18.312687,54.123657,19.269281,53.262199C19.269281,53.262199,33.8489,39.713997,33.8489,39.713997C32.80756,38.697739,32.049522,37.954533,31.459871,37.376179C31.459871,37.376179,31.456251,37.372589,31.456251,37.372589C31.456251,37.372589,31.455677,37.372242,31.455677,37.372242C31.455677,37.372242,31.453926,37.370441,31.453926,37.370441C31.096224,37.019623,30.800556,36.729725,30.541185,36.476376C30.535635,36.471001,30.530081,36.465622,30.524599,36.460251C29.655115,35.596359,29.084312,34.477367,28.89543,33.266384C28.840998,32.917355,28.819105,32.565933,28.829029,32.216476C28.829029,32.216476,28.829029,32.216476,28.829029,32.216476ZM34.209217,32.305988C34.200546,32.349205,34.199467,32.393887,34.206352,32.438004C34.218391,32.515263,34.254185,32.586781,34.308693,32.642685C34.57555,32.903309,34.874226,33.196148,35.232422,33.547356C35.232422,33.547356,35.235439,33.550297,35.235439,33.550297C35.858589,34.161449,36.661995,34.949158,37.791134,36.050663C37.791134,36.050663,41.088604,32.986626,41.088604,32.986626C39.307632,31.252283,38.197849,30.172924,37.514492,29.509483C37.514492,29.509483,37.505898,29.50135,37.505898,29.50135C37.455368,29.451759,37.390862,29.418465,37.321346,29.405857C37.255413,29.393923,37.187683,29.400909,37.125698,29.42585C37.125698,29.42585,34.262394,32.254536,34.262394,32.254536C34.262394,32.254536,34.255192,32.261662,34.255192,32.261662C34.239964,32.276566,34.224625,32.291328,34.209217,32.305988C34.209217,32.305988,34.209217,32.305988,34.209217,32.305988ZM10.187278,18.373461C10.187278,18.373461,10.677345,17.86268,10.677345,17.86268C10.677345,17.86268,10.703111,17.889341,10.703111,17.889341C10.703111,17.889341,10.190969,18.407076,10.190969,18.407076C10.190969,18.407076,10.163232,18.435097,10.163232,18.435097C10.163232,18.435097,8.998477,19.612537,8.998477,19.612537C8.998477,19.612537,10.159112,18.402843,10.159112,18.402843C10.159112,18.402843,10.182331,18.378586,10.182331,18.378586C10.182331,18.378586,10.187278,18.373461,10.187278,18.373461C10.187278,18.373461,10.187278,18.373461,10.187278,18.373461ZM10.689349,17.850138C10.689349,17.850138,10.715115,17.877228,10.715115,17.877228C10.715115,17.877228,10.888552,17.701857,10.888552,17.701857C10.878804,17.692215,10.868878,17.682793,10.858774,17.67355C10.858774,17.67355,10.689349,17.850138,10.689349,17.850138C10.689349,17.850138,10.689349,17.850138,10.689349,17.850138ZM64.66143,64.342499C61.935509,61.211666,55.683163,54.473755,49.892708,48.388748C49.892708,48.388748,53.387272,44.653385,53.387272,44.653385C59.584431,50.391163,66.476799,56.644592,69.667107,59.338253C69.667107,59.338253,64.66143,64.342499,64.66143,64.342499C64.66143,64.342499,64.66143,64.342499,64.66143,64.342499ZM46.602776,35.199928C46.602776,35.199928,22.911615,57.215076,22.911615,57.215076C22.911615,57.215076,22.893448,57.231922,22.893448,57.231922C22.893448,57.231922,22.874958,57.248405,22.874958,57.248405C22.453653,57.625732,22.113697,58.085133,21.8759,58.59827C21.638069,59.111073,21.507452,59.667572,21.491934,60.232674C21.476418,60.798141,21.576365,61.360737,21.785704,61.886066C21.995014,62.411396,22.309277,62.888699,22.709257,63.288624C23.109276,63.688171,23.586626,64.002441,24.112135,64.211349C24.637644,64.420265,25.200241,64.519882,25.765593,64.504112C26.330919,64.488342,26.887104,64.357559,27.400105,64.119614C27.913103,63.881321,28.372143,63.541252,28.749189,63.119476C28.749189,63.119476,28.7693,63.097267,28.7693,63.097267C28.7693,63.097267,28.789862,63.075039,28.789862,63.075039C28.789862,63.075039,56.020363,33.972279,56.020363,33.972279C56.020363,33.972279,56.023941,33.968586,56.023941,33.968586C56.916931,33.008698,58.054668,32.310001,59.314964,31.947538C60.576683,31.58461,61.913662,31.572458,63.181824,31.912422C68.381027,33.30114,73.588448,32.84737,76.904907,29.58033C76.904907,29.58033,76.904907,29.580296,76.904907,29.580296C78.731728,27.780628,79.92897,25.187414,80.401619,22.461142C80.586151,21.396116,80.651741,20.360327,80.615898,19.393986C80.615898,19.393986,75.249374,24.76281,75.249374,24.76281C75.249374,24.76281,75.246147,24.766037,75.246147,24.766037C75.246147,24.766037,75.24292,24.7693,75.24292,24.7693C73.884453,26.119101,72.046867,26.876673,70.131874,26.876673C68.216904,26.876673,66.379326,26.119101,65.020844,24.7693C65.020844,24.7693,65.017616,24.766037,65.017616,24.766037C65.017616,24.766037,65.014389,24.762741,65.014389,24.762741C65.014389,24.762741,61.238537,20.985029,61.238537,20.985029C61.238537,20.985029,61.236038,20.982624,61.236038,20.982624C61.236038,20.982624,61.233521,20.980221,61.233521,20.980221C59.882938,19.622105,59.124687,17.784599,59.124687,15.869224C59.124687,15.854279,59.124687,15.839334,59.125042,15.824394C59.125042,15.824394,66.585365,5.4062738,66.585365,5.4062738C62.929195,5.1643572,59.042622,6.4316344,56.325317,9.1299162C56.325317,9.1299162,56.324951,9.1302023,56.324951,9.1302023C52.979832,12.450637,52.544445,17.717018,54.016872,22.956696C54.016872,22.956696,59.125042,15.824142,59.125042,15.824142C59.125042,15.824142,59.125042,15.824394,59.125042,15.824394C59.125042,15.824394,54.017227,22.95698,54.017227,22.95698C54.377369,24.23863,54.376648,25.594917,54.014366,26.876032C53.652794,28.155703,52.945065,29.310677,51.968945,30.213665C51.968945,30.213665,51.965363,30.216995,51.965363,30.216995C51.965363,30.216995,47.029198,34.803776,47.029198,34.803776C46.995155,34.842979,46.959682,34.881428,46.92313,34.919094C46.82243,35.022575,46.71529,35.116177,46.602776,35.199928C46.602776,35.199928,46.602776,35.199928,46.602776,35.199928ZM59.125042,15.824142C59.13686,13.925036,59.893684,12.105662,61.233521,10.758223C61.233521,10.758223,61.236038,10.755608,61.236038,10.755608C61.236038,10.755608,61.238907,10.752991,61.238907,10.752991C61.238907,10.752991,66.585365,5.4062738,66.585365,5.4062738C66.585365,5.4062738,59.125042,15.824142,59.125042,15.824142C59.125042,15.824142,59.125042,15.824142,59.125042,15.824142Z" fill-rule="evenodd" fill="#000000" fill-opacity="1"/><g><path d="M8.4625,88.364063Q8.1034374,87.639844,8.4414062,87.122344Q8.7798437,86.604376,9.5762498,86.484375L10.5254686,86.351719Q11.1779685,86.255625,11.587655999999999,86.534063Q11.9978123,86.8125,12.4524999,87.488907Q13.1298437,88.755938,14.6059375,89.345156Q16.0820312,89.933907,17.6425,89.571095Q19.203437,89.208281,20.08,87.9Q20.619999999999997,87.09,20.65,86.265Q20.679999000000002,85.440001,20.184998999999998,84.78Q19.689999999999998,84.12,18.79,83.78999999999999Q18.099999,83.55,16.1499996,83.280001Q15.7600002,83.25,14.0499997,82.98Q11.8599997,82.59,10.48,80.8050003Q9.0999999,79.0200005,9.0999999,76.73999979999999Q9.0999999,74.460001,10.6599998,72.75Q12.202656300000001,71.02171898,14.6064062,70.5539074Q17.010156000000002,70.0860939,19.341248999999998,70.9992199Q21.672812,71.912343979,23.070156,74.0798435Q23.554844,74.7562504,23.336407,75.322031Q23.117968,75.8873444,22.393749,76.1807823L21.546719,76.5074997Q20.894218000000002,76.7765636,20.412343,76.5703125Q19.930469000000002,76.3635941,19.397968,75.7350006Q18.647968,74.6957817,17.594687,74.3081245Q16.5414057,73.9200001,15.4820309,74.1989059Q14.422656100000001,74.4773445,13.6599998,75.3299999Q13,76.0500011,13,76.9349995Q13,77.8200006,13.5699997,78.5250006Q14.1399999,79.2300005,15.0699997,79.4700003Q15.3999996,79.5600004,15.9399996,79.63500020000001Q16.479999499999998,79.71,17.02,79.7700005Q19.119999999999997,79.9500008,20.2,80.3400002Q22.48,81.1800003,23.635,82.8Q24.789999,84.42,24.744999,86.385Q24.699999,88.35,23.469999,90.120001Q21.807343,92.574375,18.635312,93.141094Q15.4637499,93.707813,12.514374700000001,92.386875Q9.565000099999999,91.065468,8.4625,88.364063ZM28.461248,84.06L35.250153999999995,77.8954687Q35.707655,77.4646883,36.174530000000004,77.2823439Q36.641405,77.1000004,37.266249,77.1000004L38.633123,77.1000004Q39.357342,77.1000004,39.740311,77.3929691Q40.12328,77.6859379,40.027657,78.1706257Q39.93203,78.6548443,39.381248,79.1339064L30.837341,86.58L28.461248,84.06ZM40.718594,90.965626Q41.244999,91.44422,41.292812,91.917187Q41.341091,92.389687,40.993748,92.69484299999999Q40.646873,93,40.089996,93L38.639686999999995,93Q38.03875,93,37.571873,92.818594Q37.105000000000004,92.637188,36.624061999999995,92.230312L28.724686,85.32L31.10078,82.5L40.718594,90.965626ZM31.419998,91.479843Q31.419998,92.227968,31.033749,92.61422Q30.647968,93,29.899841,93L29.100155,93Q28.35203,93,27.96578,92.61422Q27.579998,92.227968,27.579998,91.479843L27.579998,71.78015709Q27.579998,71.03203201,27.96578,70.6462498Q28.35203,70.2600002,29.100155,70.2600002L29.899841,70.2600002Q30.647968,70.2600002,31.033749,70.6462498Q31.419998,71.03203201,31.419998,71.78015709L31.419998,91.479843ZM47.439999,72.55031204Q47.439999,73.2862511,47.047653,73.6781254Q46.655781,74.0695324,45.919842,74.0695324L45.120155,74.0695324Q44.384216,74.0695324,43.991875,73.6781254Q43.599998,73.2862511,43.599998,72.55031204L43.599998,71.77921867Q43.599998,71.04375076,43.991875,70.6518764Q44.384216,70.2600002,45.120155,70.2600002L45.919842,70.2600002Q46.655781,70.2600002,47.047653,70.6518764Q47.439999,71.04375076,47.439999,71.77921867L47.439999,72.55031204ZM47.439999,91.479843Q47.439999,92.216249,47.047653,92.608126Q46.655781,93,45.919842,93L45.120155,93Q44.384216,93,43.991875,92.608126Q43.599998,92.216249,43.599998,91.479843L43.599998,78.6201563Q43.599998,77.88375,43.991875,77.4918756Q44.384216,77.1000004,45.120155,77.1000004L45.919842,77.1000004Q46.655781,77.1000004,47.047653,77.4918756Q47.439999,77.88375,47.439999,78.6201563L47.439999,91.479843ZM55.059998,91.479843Q55.059998,92.215782,54.667656,92.608126Q54.27578,93,53.539841,93L52.740154,93Q52.004215,93,51.611874,92.608126Q51.219997,92.215782,51.219997,91.479843L51.219997,71.78015709Q51.219997,71.04375076,51.611874,70.6518764Q52.004215,70.2600002,52.740154,70.2600002L53.539841,70.2600002Q54.27578,70.2600002,54.667656,70.6518764Q55.059998,71.04375076,55.059998,71.78015709L55.059998,91.479843ZM62.679996,91.479843Q62.679996,92.215782,62.287651,92.608126Q61.895779,93,61.15984,93L60.360153,93Q59.624214,93,59.231873,92.608126Q58.839996,92.215782,58.839996,91.479843L58.839996,71.78015709Q58.839996,71.04375076,59.231873,70.6518764Q59.624214,70.2600002,60.360153,70.2600002L61.15984,70.2600002Q61.895779,70.2600002,62.287651,70.6518764Q62.679996,71.04375076,62.679996,71.78015709L62.679996,91.479843ZM66.49984,90.458437Q66.015152,89.85375,66.209682,89.300156Q66.404213,88.746563,67.08062000000001,88.525312L67.90280899999999,88.252968Q68.483589,88.055626,68.881557,88.22625Q69.279526,88.396875,69.88421600000001,88.929375Q70.465935,89.584688,71.365936,89.840626Q72.266403,90.096094,73.169685,89.859375Q74.073433,89.622656,74.709991,88.92Q75.129997,88.470001,75.159996,87.945Q75.189995,87.42,74.739998,87.030001Q74.289993,86.64,73.389999,86.52L70.89999399999999,86.190001Q68.919994,85.92,67.794994,84.63Q66.669994,83.34,66.654995,81.6599998Q66.639996,79.9800005,67.719997,78.75Q68.94436999999999,77.3034382,70.637028,76.9349995Q72.330154,76.5660934,74.004524,77.0981255Q75.679367,77.6301565,76.842804,78.7228127Q77.447495,79.2318754,77.384216,79.7887506Q77.321404,80.3451567,76.717186,80.7042189L76.021088,81.1035938Q75.488586,81.4148436,75.027336,81.3431253Q74.566559,81.2714062,73.920151,80.85796930000001Q73.410149,80.4431257,72.800774,80.2837505Q72.191399,80.1239061,71.582024,80.29781249999999Q70.972652,80.4717188,70.479996,81.0300007Q70.14999399999999,81.4200001,70.134995,81.88500020000001Q70.119995,82.35,70.43499800000001,82.71000000000001Q70.74999600000001,83.070001,71.379997,83.16L73.869995,83.49Q76.179993,83.78999999999999,77.394997,85.17Q78.609993,86.55,78.579994,88.290001Q78.549995,90.030001,77.409996,91.32Q76.077339,92.808281,73.946404,93.201094Q71.815933,93.593906,69.74218400000001,92.849062Q67.668903,92.10375,66.49984,90.458437Z" fill="#000000" fill-opacity="1"/></g></g><g><path d="M133.325626,28.4599991Q136.392002,28.4599991,136.392002,31.526371L136.392002,33.3496246Q136.392002,36.415997000000004,133.325626,36.415997000000004L119.0445628,36.415997000000004Q115.9240003,36.415997000000004,115.9240003,33.2954369L115.9240003,31.5805588Q115.9240003,28.4599991,119.0445628,28.4599991L133.325626,28.4599991ZM133.325626,48.315998Q136.392002,48.315998,136.392002,51.382374L136.392002,53.205624Q136.392002,56.271999,133.325626,56.271999L119.0445628,56.271999Q115.9240003,56.271999,115.9240003,53.151436000000004L115.9240003,51.436561999999995Q115.9240003,48.315998,119.0445628,48.315998L133.325626,48.315998ZM127.695438,17.783996600000002Q130.816002,17.783996600000002,130.816002,20.9045601L130.816002,73.912689Q130.816002,76.801624,129.343376,78.30081200000001Q127.871814,79.799999,124.928688,79.799999L120.2409377,79.799999Q117.0120001,79.799999,117.0120001,76.571064L117.0120001,74.73293699999999Q117.0120001,71.504002,120.2409377,71.504002L122.7920008,71.504002L122.7920008,20.9045601Q122.7920008,17.783996600000002,125.912563,17.783996600000002L127.695438,17.783996600000002ZM175.335815,24.71999741Q178.348007,24.71999741,178.348007,27.7321854L178.348007,29.5278091Q178.348007,32.5399971,175.335815,32.5399971L141.294376,32.5399971Q138.228001,32.5399971,138.228001,29.4736214L138.228001,27.7863731Q138.228001,24.71999741,141.294376,24.71999741L175.335815,24.71999741ZM159.261253,17.851997400000002Q162.436001,17.851997400000002,162.436001,21.0267487L162.436001,41.333248Q162.436001,44.507998,159.261253,44.507998L157.450752,44.507998Q154.276001,44.507998,154.276001,41.333248L154.276001,21.0267487Q154.276001,17.851997400000002,157.450752,17.851997400000002L159.261253,17.851997400000002ZM145.361626,49.618624Q148.088001,48.247999,149.580814,51.042373999999995Q154.110252,59.343689,160.558563,64.70399900000001Q167.007942,70.064312,175.526005,72.662125Q178.497818,73.557812,177.79231299999998,76.556187L177.407692,78.28381300000001Q177.027313,79.817001,176.09763,80.366314Q175.169003,80.916687,173.635815,80.468311Q162.766441,77.205376,154.706314,70.390499Q146.646191,63.574562,142.372814,54.578375Q140.893814,51.851999,143.742376,50.413374000000005L145.361626,49.618624ZM168.78231399999999,40.495998Q173.13644,40.495998,174.85237899999998,42.674124Q176.569378,44.851186999999996,175.212566,48.988562Q171.135754,61.0065,162.40094,69.023064Q153.667191,77.03856300000001,141.920189,80.35994Q138.921814,81.350189,138.08031499999998,78.28381300000001L137.559689,76.556187Q136.732,73.612,139.744188,72.60793699999999Q150.05575199999998,69.167561,156.762253,63.271751Q163.468754,57.374874,166.992004,48.519999L142.708565,48.519999Q139.588001,48.519999,139.588001,45.399437L139.588001,43.61656Q139.588001,40.495998,142.708565,40.495998L168.78231399999999,40.495998ZM199.515121,19.2704353Q201.87599899999998,20.925808,200.23443600000002,23.2728729L195.75599699999998,29.6839981L208.33599900000002,29.6839981L208.33599900000002,27.4878082Q208.33599900000002,24.58399582,211.239815,24.58399582L212.91218600000002,24.58399582Q215.816,24.58399582,215.816,27.4878082L215.816,31.7643738Q215.816,34.382373799999996,214.45282,35.773186Q213.08963,37.163998,210.41637400000002,37.163998L191.758873,37.163998Q186.699249,37.163998,185.55281100000002,35.041122Q184.406372,32.918247199999996,187.350563,28.7256241L194.114441,19.0568733Q195.769814,16.6959953,198.116875,18.3375587L199.515121,19.2704353ZM209.138191,40.632Q214.59199999999998,40.632,214.59199999999998,46.085812000000004L214.59199999999998,74.754189Q214.59199999999998,80.208,209.138191,80.208L205.051811,80.208Q202.14800300000002,80.208,202.14800300000002,77.30418800000001L202.14800300000002,75.631813Q202.14800300000002,72.728001,205.051811,72.728001L206.975998,72.728001L206.975998,48.111999999999995L193.64800300000002,48.111999999999995L193.64800300000002,77.521999Q193.64800300000002,80.47999999999999,190.690002,80.47999999999999L188.989998,80.47999999999999Q186.031998,80.47999999999999,186.031998,77.521999L186.031998,46.085812000000004Q186.031998,40.632,191.48580900000002,40.632L209.138191,40.632ZM207.744186,51.647999Q210.64800300000002,51.647999,210.64800300000002,54.551811L210.64800300000002,56.224186Q210.64800300000002,59.127998,207.744186,59.127998L192.879814,59.127998Q189.975998,59.127998,189.975998,56.224186L189.975998,54.551811Q189.975998,51.647999,192.879814,51.647999L207.744186,51.647999ZM207.744186,62.664001Q210.64800300000002,62.664001,210.64800300000002,65.56781000000001L210.64800300000002,67.240189Q210.64800300000002,70.144001,207.744186,70.144001L192.879814,70.144001Q189.975998,70.144001,189.975998,67.240189L189.975998,65.56781000000001Q189.975998,62.664001,192.879814,62.664001L207.744186,62.664001ZM224.10563000000002,17.919998200000002Q227.172,17.919998200000002,227.172,20.9863739L227.172,39.543999L238.59601,39.543999L238.59601,38.122372Q238.59601,35.056,241.66238,35.056L243.41763,35.056Q246.48401,35.056,246.48401,38.122372L246.48401,41.843248Q246.48401,44.623812,245.039,46.096436Q243.59399,47.567999,240.75925,47.567999L225.00875000000002,47.567999Q222.22820000000002,47.567999,220.75557,46.122999Q219.284,44.677998,219.284,41.843248L219.284,20.9863739Q219.284,17.919998200000002,222.35037,17.919998200000002L224.10563000000002,17.919998200000002ZM239.13362999999998,22.0244331Q240.61156,21.4134979,241.62201,21.7460594Q242.6335,22.0786209,243.35281,23.3939972L244.17519,24.957996368Q245.60001,27.7385597,242.80563,29.0146217Q239.86569,30.3618736,236.88432,31.444561Q233.90401,32.5261841,232.64600000000002,32.7323112Q231.16701,33.180687,230.23732,32.6313744Q229.30869,32.0809975,228.92831,30.601997400000002L228.54369,28.9019966Q227.784,25.94399643,230.74200000000002,25.13012314Q235.213,23.7403717,239.13362999999998,22.0244331ZM224.10563000000002,48.791998Q227.172,48.791998,227.172,51.858374L227.172,71.844002L238.59601,71.844002L238.59601,70.014374Q238.59601,66.947998,241.66238,66.947998L243.41763,66.947998Q246.48401,66.947998,246.48401,70.014374L246.48401,74.14325Q246.48401,76.923813,245.039,78.395374Q243.59399,79.868,240.75925,79.868L225.00875000000002,79.868Q222.22820000000002,79.868,220.75557,78.423Q219.284,76.978001,219.284,74.14325L219.284,51.858374Q219.284,48.791998,222.35037,48.791998L224.10563000000002,48.791998ZM239.73181,53.208811Q242.51237,51.838186,243.951,54.469999L244.80099,56.033998Q246.28,58.760376,243.53981,60.144814Q239.00400000000002,62.365437,232.64600000000002,64.284313Q231.16701,64.732689,230.23732,64.18337199999999Q229.30869,63.632999,228.92831,62.153999L228.54369,60.453999Q227.784,57.495998,230.74200000000002,56.682123000000004Q235.077,55.482561000000004,239.73181,53.208811ZM269.60400000000004,59.359623Q269.60400000000004,56.741625,270.96718999999996,55.350811Q272.33038,53.959998999999996,275.00363,53.959998999999996L290.99637,53.959998999999996Q293.61438,53.959998999999996,295.00518999999997,55.323187000000004Q296.39599999999996,56.686375,296.39599999999996,59.359623L296.39599999999996,70.728374Q296.39599999999996,73.346375,295.03281000000004,74.73718600000001Q293.66963,76.12799799999999,290.99637,76.12799799999999L275.00363,76.12799799999999Q272.38562,76.12799799999999,270.99481000000003,74.764812Q269.60400000000004,73.40162699999999,269.60400000000004,70.728374L269.60400000000004,59.359623ZM288.78,61.304001L277.22,61.304001L277.22,68.78399999999999L288.78,68.78399999999999L288.78,61.304001ZM273.43111999999996,43.687748Q275.77818,41.991999,277.54193,44.298685L278.53006,45.669312000000005Q280.28,48.016375,277.91913,49.671749Q275.19806,51.590624,272.29850999999996,53.380936Q269.39999,55.170187,267.82962,55.921373Q265.32001,57.292,263.93556,54.714375000000004L263.16844000000003,53.205624Q261.85201,50.695999,264.42963,49.257374Q266.935,47.814499,269.24275,46.391811000000004Q271.55156,44.969124,273.43111999999996,43.687748ZM306.54181,35.191998Q309.26819,35.191998,310.68556,36.582809Q312.10400000000004,37.973621,312.10400000000004,40.754185L312.10400000000004,74.509811Q312.10400000000004,77.236187,310.71320000000003,78.653564Q309.32239000000004,80.071999,306.54181,80.071999L301.62563,80.071999Q298.776,80.071999,298.776,77.222374L298.776,75.577625Q298.776,72.728001,301.62563,72.728001L304.08000000000004,72.728001L304.08000000000004,42.535999000000004L261.91999999999996,42.535999000000004L261.91999999999996,77.359436Q261.91999999999996,80.47999999999999,258.79944,80.47999999999999L257.01656,80.47999999999999Q253.896,80.47999999999999,253.896,77.359436L253.896,40.754185Q253.896,38.027809,255.28682,36.610435Q256.67763,35.191998,259.45819,35.191998L306.54181,35.191998ZM269.298,29.9666214Q272.29637,28.8679962,273.35463,31.8259964L274.28537,34.4779968Q275.384,37.476372,272.42599,38.534622L270.726,39.193375Q267.72763,40.292,266.66936999999996,37.334L265.73863,34.6819992Q264.64,31.683624299999998,267.59801,30.6253738L269.298,29.9666214ZM292.56888000000004,43.687748Q295.26231,45.524811,297.79425000000003,47.090937Q300.32619,48.655998,301.57037,49.257374Q304.14801,50.695999,302.83157,53.205624L302.06444,54.714375000000004Q300.68001000000004,57.292,298.17038,55.921373Q295.37918,54.342499000000004,292.65601000000004,52.661623Q289.93387,50.980749,288.08087,49.671749Q285.72,48.016375,287.46994,45.669312000000005L288.45807,44.298685Q290.22182,41.991999,292.56888000000004,43.687748ZM310.75038,21.5239983Q313.60001,21.5239983,313.60001,24.37362289L313.60001,26.018371600000002Q313.60001,28.8679962,310.75038,28.8679962L255.24962,28.8679962Q252.39999,28.8679962,252.39999,26.018371600000002L252.39999,24.37362289Q252.39999,21.5239983,255.24962,21.5239983L310.75038,21.5239983ZM284.25800000000004,17.579998Q287.216,17.579998,287.216,20.5379982L287.216,22.237999Q287.216,25.19599915,284.25800000000004,25.19599915L281.74199999999996,25.19599915Q278.784,25.19599915,278.784,22.237999L278.784,20.5379982Q278.784,17.579998,281.74199999999996,17.579998L284.25800000000004,17.579998ZM298.40201,30.6253738Q301.36,31.683624299999998,300.26138000000003,34.6819992L299.33063000000004,37.334Q298.27237,40.292,295.274,39.193375L293.57401,38.534622Q290.616,37.476372,291.71463,34.4779968L292.64539,31.8259964Q293.70363,28.8679962,296.702,29.9666214L298.40201,30.6253738ZM356.576,21.0405579Q356.576,17.919998200000002,353.45544,17.919998200000002L351.31876,17.919998200000002Q348.144,17.919998200000002,348.144,21.0947456L348.144,21.9999962L328.95312,21.9999962Q326.06419,21.9999962,324.59157,23.4726219Q323.12,24.94418335,323.12,27.8331223L323.12,49.335999Q323.12,63.7435,318.57463,74.244186Q317.25819,77.18837400000001,319.99838,78.57281499999999L321.61762999999996,79.39518699999999Q323.04715,80.11370099999999,324.09407,79.745209Q325.1232,79.382977,325.78262,77.97037499999999Q331.28,65.457314,331.28,49.335999L331.28,29.9559975L377.71762,29.9559975Q380.784,29.9559975,380.784,26.8896217L380.784,25.066371918Q380.784,21.9999962,377.66345,21.9999962L356.576,21.9999962L356.576,21.0405579ZM358.48001,34.3547478Q358.48001,31.1799965,355.30525,31.1799965L353.49475,31.1799965Q350.32001,31.1799965,350.32001,34.3547478L350.32001,52.056L341.09857,52.056Q338.31799,52.056,336.873,53.500999Q335.42801,54.945999,335.42801,57.726562L335.42801,73.58543800000001Q335.42801,76.366001,336.873,77.811001Q338.31799,79.256001,341.09857,79.256001L373.61743,79.256001Q376.39801,79.256001,377.84302,77.811001Q379.28799,76.366001,379.28799,73.58543800000001L379.28799,57.726562Q379.28799,54.945999,377.84302,53.500999Q376.39801,52.056,373.61743,52.056L358.48001,52.056L358.48001,44.983999L378.642,44.983999Q381.60001,44.983999,381.60001,42.025999L381.60001,40.257999Q381.60001,37.299999,378.58783,37.299999L358.48001,37.299999L358.48001,34.3547478ZM343.452,59.807999L371.26401,59.807999L371.26401,71.504002L343.452,71.504002L343.452,59.807999Z" fill="#000000" fill-opacity="1"/></g></g></svg>