<svg xmlns="http://www.w3.org/2000/svg" xmlns:xlink="http://www.w3.org/1999/xlink" fill="none" version="1.1" width="385" height="86" viewBox="0 0 385 86"><defs><clipPath id="master_svg0_2109_35201"><rect x="0" y="0" width="385" height="86" rx="0"/></clipPath><clipPath id="master_svg1_2109_35182"><rect x="0" y="0" width="86" height="86" rx="0"/></clipPath></defs><g clip-path="url(#master_svg0_2109_35201)"><g><path d="M116.4000001,22.574749Q116.4000001,19.39999771,119.5747504,19.39999771L174.425255,19.39999771Q177.600006,19.39999771,177.600006,22.574749L177.600006,24.3852463Q177.600006,27.559997600000003,174.425255,27.559997600000003L119.5747504,27.559997600000003Q116.4000001,27.559997600000003,116.4000001,24.3852463L116.4000001,22.574749ZM142.852001,15.1489334Q142.852001,11.9199982,146.08094,11.9199982L147.919064,11.9199982Q151.14800300000002,11.9199982,151.14800300000002,15.1489334L151.14800300000002,20.2510605Q151.14800300000002,23.4799957,147.919064,23.4799957L146.08094,23.4799957Q142.852001,23.4799957,142.852001,20.2510605L142.852001,15.1489334ZM117.1596875,70.460564Q116.4680002,67.408001,119.5205626,66.512314Q131.885939,63.099564,140.931002,56.659748Q149.977127,50.218874,154.968754,42.274561Q159.961441,34.33025,160.641441,26.3147469Q161.130192,23.0719986,164.304939,23.3971214L166.143066,23.5628738Q167.73044199999998,23.7254333,168.442314,24.6274986Q169.155254,25.5295601,168.93743899999998,27.1169357Q167.239567,37.564499,161.104691,47.046249Q154.970879,56.526936,144.829313,63.716873Q134.688814,70.90575,121.4383755,74.53631200000001Q118.3581877,75.43199899999999,117.5985003,72.243439L117.1596875,70.460564ZM129.695063,23.3971214Q132.869814,23.0719986,133.358564,26.3009338Q134.852438,35.184498000000005,140.068251,43.136250000000004Q145.285126,51.086937,154.031628,57.175064Q162.77919,63.262123,174.479443,66.512314Q177.532005,67.408001,176.840317,70.460564L176.455692,72.243439Q175.696003,75.486187,172.561626,74.53631200000001Q158.646065,70.743187,148.17937899999998,63.139938Q137.712688,55.536686,131.822189,46.056Q125.932751,36.574248999999995,125.062563,27.130748699999998Q124.84475,25.5433731,125.556625,24.6349335Q126.269564,23.7254333,127.856938,23.5628738L129.695063,23.3971214ZM216.36638,11.239997899999999Q219.216,11.239997899999999,219.216,14.0896225L219.216,15.802372Q219.216,18.65199661,216.36638,18.65199661L213.68781,18.65199661Q210.78400399999998,18.65199661,210.78400399999998,15.7481842L210.78400399999998,14.1438103Q210.78400399999998,11.239997899999999,213.68781,11.239997899999999L216.36638,11.239997899999999ZM238.74475,15.2519989Q244.03601,15.2519989,244.03601,20.5432472L244.03601,22.7659988Q244.03601,25.723999,241.02382,25.723999L239.29619,25.723999Q236.284,25.723999,236.284,22.8201866L236.284,22.0519981L193.716003,22.0519981L193.716003,22.8201866Q193.716003,25.723999,190.703812,25.723999L188.976189,25.723999Q185.963997,25.723999,185.963997,22.7118111L185.963997,20.5432472Q185.963997,15.2519989,191.255249,15.2519989L238.74475,15.2519989ZM224.061,33.088184Q224.98325,31.610249,225.88531,30.945121999999998Q226.78737999999998,30.279999,228.21219000000002,30.279999L229.93982,30.279999Q231.47301,30.279999,232.13069000000002,31.047123Q232.78944,31.813187,232.40906999999999,33.292187Q231.03951,37.877935,225.46988,41.470248999999995Q219.90131,45.062561,210.752129,47.191811Q201.602936,49.321062,189.792191,49.537811000000005Q186.984001,49.591999,186.984001,46.797625L186.984001,45.178373Q186.984001,42.383999,189.83362599999998,42.329811Q200.58081099999998,42.167248,207.907814,40.738186Q215.23482,39.309124,219.10444,37.268061Q222.97512999999998,35.225935,224.061,33.088184ZM241.85364,26.6759987Q244.64801,26.6759987,244.64801,29.470371L244.64801,31.089622Q244.64801,33.883999,241.85364,33.883999L188.146378,33.883999Q185.35199699999998,33.883999,185.35199699999998,31.089622L185.35199699999998,29.470371Q185.35199699999998,26.6759987,188.146378,26.6759987L241.85364,26.6759987ZM208.438004,22.7489967Q211.12400100000002,23.9698105,209.699188,26.5336227L205.208,34.563999L241.2002,42.113062Q243.832,42.655998,243.18069,45.287811000000005L242.85132,46.824186Q242.20001,49.455999,239.56819000000002,48.858873L201.03131100000002,39.918999Q198.032936,39.213499,197.185066,37.443373Q196.337189,35.672185999999996,197.816193,32.891624L202.817375,23.4598083Q204.25599699999998,20.8279991,206.87400100000002,22.034996L208.438004,22.7489967ZM242.28819,52.515999Q245.192,52.515999,245.192,55.419811L245.192,57.092186Q245.192,59.995998,242.28819,59.995998L187.711815,59.995998Q184.807999,59.995998,184.807999,57.092186L184.807999,55.419811Q184.807999,52.515999,187.711815,52.515999L242.28819,52.515999ZM215.90525,47.823999Q219.07999999999998,47.823999,219.07999999999998,50.998749000000004L219.07999999999998,71.305252Q219.07999999999998,74.47999999999999,215.90525,74.47999999999999L214.09476,74.47999999999999Q210.91999800000002,74.47999999999999,210.91999800000002,71.305252L210.91999800000002,50.998749000000004Q210.91999800000002,47.823999,214.09476,47.823999L215.90525,47.823999ZM200.030441,56.875435Q201.79418900000002,54.406189,204.249626,55.831001L205.758377,56.681Q208.39019000000002,58.228001,206.748627,60.737625Q203.41556500000002,65.758999,198.97963,68.957127Q194.544754,72.15525099999999,189.49362200000002,73.897751Q186.657814,74.888,185.762123,72.038376L185.213875,70.39362299999999Q184.332001,67.557812,187.181625,66.499561Q191.511314,64.838875,194.65419,62.485435Q197.798126,60.130936,200.030441,56.875435ZM225.75038,55.831001Q228.20580999999999,54.406189,229.96957,56.875435Q232.52701000000002,60.618626,235.72512999999998,62.892376Q238.92325,65.165062,242.81837,66.55374900000001Q245.668,67.557812,244.78613,70.39362299999999L244.23788,72.038376Q243.34219,74.888,240.50637999999998,73.843563Q234.85811999999999,71.720688,230.55819,68.468376Q226.25826,65.21712500000001,223.25137,60.737625Q221.60982,58.228001,224.24162,56.681L225.75038,55.831001ZM311.52707,20.283996600000002Q314.75601,20.283996600000002,314.75601,23.5129356L314.75601,25.351059Q314.75601,28.579998,311.52707,28.579998L282.89694,28.579998Q279.668,28.579998,279.668,25.351059L279.668,23.5129356Q279.668,20.283996600000002,282.89694,20.283996600000002L311.52707,20.283996600000002ZM287.20963,35.881498Q290.22182,35.175999000000004,290.98150999999996,38.242373L294.33051,53.325623Q295.03601000000003,56.337811,291.96964,57.0975L290.21439,57.454498Q287.20219,58.16,286.4425,55.093624L283.09351000000004,40.010374Q282.38800000000003,36.998186000000004,285.45438,36.238499000000004L287.20963,35.881498ZM306.07326,11.9199982Q309.248,11.9199982,309.248,15.0947456L309.248,67.803249Q309.248,70.74743699999999,307.74881,72.27318600000001Q306.24963,73.799999,303.25125,73.799999L297.02713,73.799999Q293.744,73.799999,293.744,70.516876L293.744,68.651127Q293.744,65.368,297.02713,65.368L301.08799999999997,65.368L301.08799999999997,15.0947456Q301.08799999999997,11.9199982,304.26275999999996,11.9199982L306.07326,11.9199982ZM258.22781,29.599998Q261.24001,29.599998,261.29418999999996,32.612186Q261.67456000000004,40.542686,263.78894,46.780624Q265.90332,53.017498,269.17581,57.514Q272.44831999999997,62.010498,276.64095,65.53587300000001Q279.05600000000004,67.693813,277.08931,70.203438L275.99069,71.684563Q274.01018999999997,74.208,271.60893,72.077686Q263.62212999999997,64.69118900000001,258.83344,55.053249Q254.04475,45.415312,253.54219,32.625999Q253.48801,29.599998,256.50018,29.599998L258.22781,29.599998ZM270.7887,14.5039978Q273.67763,14.5039978,275.17682,15.9766235Q276.67599,17.448185,276.67599,20.3913116L276.67599,31.095997Q276.67599,40.916686999999996,274.31512,48.561375Q271.95532000000003,56.204998,267.82645,61.965874Q263.69757000000004,67.725689,257.79323999999997,72.811874Q255.33781,74.942188,253.4115,72.310375L252.3405,70.801624Q250.42799,68.23781199999999,252.95143,66.147877Q258.33937000000003,61.564251,261.78825,56.790436Q265.23712,52.015564,267.08056999999997,45.745749Q268.924,39.474873,268.924,31.095997L268.924,23.0719986L255.60132,23.0719986Q252.26401,23.0719986,252.26401,19.73468399L252.26401,17.8413086Q252.26401,14.5039978,255.60132,14.5039978L270.7887,14.5039978ZM341.07201,51.426937Q341.07201,45.647999,346.85094000000004,45.647999L374.12106,45.647999Q379.89999,45.647999,379.89999,51.426937L379.89999,68.021061Q379.89999,73.799999,374.12106,73.799999L346.85094000000004,73.799999Q341.07201,73.799999,341.07201,68.021061L341.07201,51.426937ZM371.73999,53.535999L349.23199,53.535999L349.23199,65.91199900000001L371.73999,65.91199900000001L371.73999,53.535999ZM325.90906,32.115997Q328.85326,32.115997,330.40663,33.642811Q331.96001,35.16856,331.96001,38.166937000000004L331.96001,65.231998L334.32088,65.231998Q337.60400000000004,65.231998,337.60400000000004,68.515125L337.60400000000004,70.380875Q337.60400000000004,73.664001,334.32088,73.664001L329.71494,73.664001Q326.77075,73.664001,325.21738,72.13718800000001Q323.664,70.61143899999999,323.664,67.61306400000001L323.664,40.547998L322.25513,40.547998Q318.972,40.547998,318.972,37.264874L318.972,35.399124Q318.972,32.115997,322.25513,32.115997L325.90906,32.115997ZM326.60818,12.1888084Q329.49818,10.7639961,330.991,13.6678085L335.173,22.1401863Q336.65201,25.0301857,333.74818,26.468811L332.07581,27.291183500000002Q329.18581,28.7159996,327.69299,25.812183400000002L323.51099999999997,17.3398094Q322.03200000000004,14.44981,324.93581,13.011184700000001L326.60818,12.1888084ZM379.34964,29.735996Q382.41602,29.735996,382.41602,32.802372L382.41602,34.557625Q382.41602,37.623999,379.34964,37.623999L341.62238,37.623999Q338.55600000000004,37.623999,338.55600000000004,34.557625L338.55600000000004,32.802372Q338.55600000000004,29.735996,341.62238,29.735996L379.34964,29.735996ZM361.35725,17.6999969Q364.53200000000004,17.6999969,364.53200000000004,20.8747482L364.53200000000004,46.417249999999996Q364.53200000000004,49.591999,361.35725,49.591999L359.54675,49.591999Q356.37201,49.591999,356.37201,46.417249999999996L356.37201,20.8747482Q356.37201,17.6999969,359.54675,17.6999969L361.35725,17.6999969ZM358.548,13.7559967Q368.57376,13.7559967,376.27582,12.762558Q379.35602,12.382183099999999,379.84476,15.3401833L380.09125,17.0678101Q380.58002,20.1341858,377.51364,20.5145607Q369.10608,21.6439972,358.548,21.6439972L344.00238,21.6439972Q340.93600000000004,21.6439972,340.93600000000004,18.57762146L340.93600000000004,16.8223724Q340.93600000000004,13.7559967,344.00238,13.7559967L358.548,13.7559967Z" fill="#000000" fill-opacity="1"/></g><g clip-path="url(#master_svg1_2109_35182)"><path d="M46.084236,8.1688557C47.78101,8.1688557,49.156513,9.544363,49.156513,11.241138C49.156513,12.937912,47.78101,14.313421,46.084236,14.313421L17.409599,14.313421C14.412403,14.265412,11.528761,15.458899,9.4421482,17.611002C7.2900434,19.697615,6.0965562,22.581259,6.1445642,25.578455L6.1445642,60.397652C6.1445642,63.510902,7.2423935,66.165359,9.4421482,68.365105C11.528761,70.517212,14.412403,71.710693,17.409601,71.662689L23.554167,71.662689C25.250942,71.662689,26.62645,73.038193,26.62645,74.73497L26.62645,78.085808L36.756786,73.321716C39.07375,72.223091,41.606991,71.656265,44.17123,71.662689L64.517929,71.662689C67.515129,71.710693,70.398766,70.517204,72.485374,68.365105C74.637474,66.278488,75.830963,63.394852,75.782951,60.397652L75.782951,39.915771C75.782951,38.218994,77.158463,36.843487,78.85524,36.843487C80.552017,36.843487,81.927521,38.218994,81.927521,39.915771L81.927521,60.397652C81.927521,65.20681,80.227524,69.307274,76.82753,72.707268C73.427544,76.107262,69.327072,77.807259,64.517921,77.807259L44.167126,77.807259C42.48761,77.807259,40.890026,78.163643,39.374367,78.880508L24.860903,85.709167C22.822996,86.666908,20.481209,85.179459,20.48188,82.927719L20.48188,77.807259L17.409599,77.807259C12.600453,77.807259,8.4999809,76.107262,5.0999885,72.707268C1.6999966,69.307274,0,65.20681,0,60.397652L0,25.578453C0,20.769308,1.6999966,16.668835,5.0999885,13.268845C8.4999809,9.8688517,12.600453,8.1688557,17.409599,8.1688557L46.084236,8.1688557ZM55.096264,28.06086C56.996983,28.06086,58.115292,29.22423,58.115292,31.223263L58.115292,54.564411C58.115292,56.547054,56.996983,57.706329,55.096264,57.706329C53.195541,57.706329,52.073135,56.547054,52.073135,54.564411L52.073135,31.223263C52.073135,29.22423,53.195541,28.06086,55.096264,28.06086ZM35.495102,28.06086C37.854614,28.06086,39.255577,29.101341,40.111717,31.46085L48.034111,52.946339C48.31266,53.724651,48.415073,54.265373,48.415073,54.863445C48.415073,56.526569,47.153389,57.706329,45.391945,57.706329C43.691952,57.706329,42.794842,56.928017,42.254124,55.04369L40.734367,50.484421L30.313187,50.484421L28.79343,54.986336C28.232227,56.907539,27.331026,57.706329,25.73344,57.706329C23.849104,57.706329,22.673447,56.604408,22.673447,54.863445C22.673447,54.363686,22.812723,53.683689,23.070795,52.946339L30.952223,31.481327C31.791981,29.146395,33.213421,28.060854,35.495102,28.06086ZM35.511486,33.984219L35.372211,33.984219L31.632217,45.806358L39.333405,45.806358L35.511486,33.984219ZM73.546333,1.3279084L74.431152,3.9086256C75.660637,7.5104423,78.489548,10.339362,82.091377,11.568849L84.672089,12.453666C85.466507,12.726344,85.999992,13.473516,85.999992,14.313421C85.999992,15.153327,85.466507,15.900496,84.672089,16.173174L82.091377,17.057991C78.489548,18.287479,75.660637,21.116398,74.431152,24.718214L73.546333,27.298933C73.273659,28.093346,72.526489,28.626842,71.686584,28.626842C70.846672,28.626839,70.099495,28.093342,69.82682,27.298933L68.942009,24.718214C67.712524,21.116398,64.883598,18.287479,61.281784,17.057991L58.701069,16.173174C57.906658,15.900496,57.373165,15.153326,57.373165,14.313421C57.373165,13.473515,57.906658,12.726344,58.701069,12.453666L61.281784,11.568849C64.883598,10.339362,67.712524,7.5104432,68.942009,3.9086256L69.82682,1.3279084C70.099503,0.5334968,70.84668,0,71.686584,0C72.526489,-4.6879308e-7,73.273651,0.5334968,73.546333,1.3279084Z" fill="#000000" fill-opacity="0.9200000166893005" style="mix-blend-mode:passthrough"/></g></g></svg>