<svg xmlns="http://www.w3.org/2000/svg" xmlns:xlink="http://www.w3.org/1999/xlink" fill="none" version="1.1" width="380" height="80" viewBox="0 0 380 80"><path d="M31.211628,6.7036262C32.336018,2.7830341,35.921356,0.081406355,39.999992,0.081406355C44.078632,0.081406355,47.663967,2.7830341,48.788364,6.7036262L54.262524,25.731754L73.290657,31.21734C77.816429,32.518452,80.613602,37.044395,79.753365,41.67424L79.553368,42.531361C78.683144,45.554642,76.319656,47.918144,73.296371,48.788361L54.262524,54.262516L48.788368,73.290649C47.487255,77.816414,42.961311,80.613594,38.331467,79.753357L37.474346,79.553352C34.448872,78.684837,32.08292,76.321045,31.211634,73.296364L25.73176,54.26823L6.7036319,48.782639C2.1801603,47.479168,-0.61412537,42.953907,0.24663951,38.325745L0.44663486,37.46862C1.3168544,34.445339,3.6803496,32.081844,6.7036319,31.211624L25.73176,25.737465L31.217346,6.7093377L31.211628,6.7036262ZM40.634258,7.0407605C39.422527,6.6914067,38.156799,7.3894749,37.805756,8.6007233L31.805897,29.457382C31.478107,30.590265,30.591061,31.475157,29.457382,31.800184L8.6007233,37.800041C7.6155753,38.077713,6.9351249,38.97646,6.9351249,39.999992C6.9351249,41.023525,7.6155753,41.922272,8.6007233,42.199944L29.457382,48.199802C30.588867,48.52652,31.473465,49.411118,31.800184,50.542606L37.800041,71.399269C38.077713,72.384415,38.97646,73.064865,39.999992,73.064865C41.023525,73.064865,41.922272,72.384415,42.199944,71.399269L48.199802,50.542606C48.52652,49.411118,49.411118,48.52652,50.542606,48.199802L71.399269,42.199944C72.384415,41.922272,73.064865,41.023525,73.064865,39.999992C73.064865,38.97646,72.384415,38.077713,71.399269,37.800041L50.542606,31.800184C49.411118,31.473465,48.52652,30.588871,48.199802,29.457382L42.199944,8.6007233C41.98085,7.8462024,41.389584,7.257091,40.634258,7.0407605ZM72.17067,15.029146L70.290718,21.560421C70.071632,22.328665,69.369637,22.858459,68.570755,22.858459C67.771889,22.858461,67.069885,22.328667,66.8508,21.560421L64.970848,15.029146L58.43956,13.14919C57.671307,12.930108,57.141518,12.228107,57.141518,11.429232C57.141518,10.630354,57.671307,9.9283524,58.43956,9.7092695L64.970848,7.8293133L66.8508,1.2980372C67.069885,0.52979368,67.771881,0,68.570755,0C69.369637,4.3595526e-7,70.071632,0.5297929,70.290718,1.2980372L72.17067,7.8293133L78.701958,9.7092695C79.470207,9.9283524,80,10.630354,80,11.429232C80,12.228107,79.470207,12.930108,78.701958,13.14919L72.17067,15.029146ZM15.029146,72.17067L13.14919,78.701958C12.930108,79.470207,12.228107,80,11.429232,80C10.630354,80,9.9283524,79.470207,9.7092695,78.701958L7.8293133,72.17067L1.2980372,70.290718C0.5297929,70.071632,0,69.369637,0,68.570755C0,67.771889,0.5297929,67.069885,1.2980372,66.8508L7.8293133,64.970848L9.7092695,58.43956C9.9283524,57.671307,10.630354,57.141518,11.429232,57.141518C12.228107,57.141518,12.930108,57.671307,13.14919,58.43956L15.029146,64.970848L21.560421,66.8508C22.328665,67.069885,22.858459,67.771881,22.858459,68.570755C22.858458,69.369637,22.328665,70.071632,21.560421,70.290718L15.029146,72.17067Z" fill="#000000" fill-opacity="1" style="mix-blend-mode:passthrough"/><g><path d="M169.057629,62.368Q172.12400100000002,62.368,172.12400100000002,65.434376L172.12400100000002,67.189625Q172.12400100000002,70.256001,169.057629,70.256001L114.8743753,70.256001Q111.8080001,70.256001,111.8080001,67.189625L111.8080001,65.434376Q111.8080001,62.368,114.8743753,62.368L169.057629,62.368ZM158.58562899999998,28.98Q161.652004,28.98,161.652004,32.046373L161.652004,33.801624000000004Q161.652004,36.867998,158.58562899999998,36.867998L125.414375,36.867998Q122.348001,36.867998,122.348001,33.801624000000004L122.348001,32.046373Q122.348001,28.98,125.414375,28.98L158.58562899999998,28.98ZM163.617626,44.891998Q166.684002,44.891998,166.684002,47.958374L166.684002,49.713623Q166.684002,52.779999,163.617626,52.779999L120.314376,52.779999Q117.2480001,52.779999,117.2480001,49.713623L117.2480001,47.958374Q117.2480001,44.891998,120.314376,44.891998L163.617626,44.891998ZM142.919064,32.787998Q146.14800300000002,32.787998,146.14800300000002,36.016935000000004L146.14800300000002,63.355064Q146.14800300000002,66.584,142.919064,66.584L141.08094,66.584Q137.852001,66.584,137.852001,63.355064L137.852001,36.016935000000004Q137.852001,32.787998,141.08094,32.787998L142.919064,32.787998ZM146.439129,8.8519974Q148.800003,8.8658104,150.279003,10.7241211Q155.188816,16.6688118,160.787128,21.9547462Q166.38544100000001,27.239624,171.504566,30.915874000000002Q174.02800000000002,32.73381,172.22387700000002,35.189249000000004L171.20812999999998,36.642748Q169.39019,39.111999999999995,166.880566,37.307873Q154.433376,27.98975,145.060001,16.73999786L138.940002,16.73999786Q129.56662599999999,27.98975,117.1194382,37.307873Q114.6098127,39.111999999999995,112.7918754,36.642748L111.7761252,35.189249000000004Q109.9720001,32.73381,112.4954376,30.915874000000002Q118.808813,26.153748,124.297688,20.8688736Q129.787626,15.58399582,133.66681499999999,10.710308099999999Q135.18619,8.8519974,137.560877,8.8519974L146.439129,8.8519974ZM194.515121,10.270435299999999Q196.87599899999998,11.925808,195.23443600000002,14.2728729L190.75599699999998,20.6839981L203.33599900000002,20.6839981L203.33599900000002,18.4878082Q203.33599900000002,15.58399582,206.239815,15.58399582L207.91218600000002,15.58399582Q210.816,15.58399582,210.816,18.4878082L210.816,22.7643738Q210.816,25.3823738,209.45282,26.773186000000003Q208.08963,28.163998,205.41637400000002,28.163998L186.758873,28.163998Q181.699249,28.163998,180.55281100000002,26.041122Q179.406372,23.9182472,182.350563,19.7256241L189.114441,10.0568733Q190.769814,7.6959953,193.116875,9.337558699999999L194.515121,10.270435299999999ZM204.138191,31.631999999999998Q209.59199999999998,31.631999999999998,209.59199999999998,37.085812000000004L209.59199999999998,65.754189Q209.59199999999998,71.208,204.138191,71.208L200.051811,71.208Q197.14800300000002,71.208,197.14800300000002,68.30418800000001L197.14800300000002,66.631813Q197.14800300000002,63.728001,200.051811,63.728001L201.975998,63.728001L201.975998,39.111999999999995L188.64800300000002,39.111999999999995L188.64800300000002,68.521999Q188.64800300000002,71.47999999999999,185.690002,71.47999999999999L183.989998,71.47999999999999Q181.031998,71.47999999999999,181.031998,68.521999L181.031998,37.085812000000004Q181.031998,31.631999999999998,186.48580900000002,31.631999999999998L204.138191,31.631999999999998ZM202.744186,42.647999Q205.64800300000002,42.647999,205.64800300000002,45.551811L205.64800300000002,47.224186Q205.64800300000002,50.127998,202.744186,50.127998L187.879814,50.127998Q184.975998,50.127998,184.975998,47.224186L184.975998,45.551811Q184.975998,42.647999,187.879814,42.647999L202.744186,42.647999ZM202.744186,53.664001Q205.64800300000002,53.664001,205.64800300000002,56.56781L205.64800300000002,58.240189Q205.64800300000002,61.144001,202.744186,61.144001L187.879814,61.144001Q184.975998,61.144001,184.975998,58.240189L184.975998,56.56781Q184.975998,53.664001,187.879814,53.664001L202.744186,53.664001ZM219.10563000000002,8.9199982Q222.172,8.9199982,222.172,11.9863739L222.172,30.543999L233.59601,30.543999L233.59601,29.122372Q233.59601,26.055999999999997,236.66238,26.055999999999997L238.41763,26.055999999999997Q241.48401,26.055999999999997,241.48401,29.122372L241.48401,32.843248Q241.48401,35.623812,240.039,37.096436Q238.59399,38.567999,235.75925,38.567999L220.00875000000002,38.567999Q217.22820000000002,38.567999,215.75557,37.122999Q214.284,35.677998,214.284,32.843248L214.284,11.9863739Q214.284,8.9199982,217.35037,8.9199982L219.10563000000002,8.9199982ZM234.13362999999998,13.0244331Q235.61156,12.4134979,236.62201,12.7460594Q237.6335,13.0786209,238.35281,14.3939972L239.17519,15.957996368Q240.60001,18.7385597,237.80563,20.0146217Q234.86569,21.3618736,231.88432,22.444561Q228.90401,23.526184100000002,227.64600000000002,23.732311199999998Q226.16701,24.180687,225.23732,23.6313744Q224.30869,23.0809975,223.92831,21.601997400000002L223.54369,19.9019966Q222.784,16.94399643,225.74200000000002,16.13012314Q230.213,14.7403717,234.13362999999998,13.0244331ZM219.10563000000002,39.791998Q222.172,39.791998,222.172,42.858374L222.172,62.844002L233.59601,62.844002L233.59601,61.014374Q233.59601,57.947998,236.66238,57.947998L238.41763,57.947998Q241.48401,57.947998,241.48401,61.014374L241.48401,65.14325Q241.48401,67.923813,240.039,69.395374Q238.59399,70.868,235.75925,70.868L220.00875000000002,70.868Q217.22820000000002,70.868,215.75557,69.423Q214.284,67.978001,214.284,65.14325L214.284,42.858374Q214.284,39.791998,217.35037,39.791998L219.10563000000002,39.791998ZM234.73181,44.208811Q237.51237,42.838186,238.951,45.469999L239.80099,47.033998Q241.28,49.760376,238.53981,51.144814Q234.00400000000002,53.365437,227.64600000000002,55.284313Q226.16701,55.732689,225.23732,55.183372Q224.30869,54.632999,223.92831,53.153999L223.54369,51.453999Q222.784,48.495998,225.74200000000002,47.682123000000004Q230.077,46.482561000000004,234.73181,44.208811ZM298.15774999999996,9.735996199999999Q303.92287999999996,9.735996199999999,305.01514,11.994873Q306.10738000000003,14.253746,302.34932000000003,18.7714958L295.4845,26.809311Q293.61238000000003,29.115997,291.26532,27.203499L289.89468,26.1325Q287.58799999999997,24.2603722,289.5005,21.913311L293.504,17.2159958L268.59581000000003,17.2159958Q265.692,17.2159958,265.692,14.3121834L265.692,12.6398087Q265.692,9.735996199999999,268.59581000000003,9.735996199999999L298.15774999999996,9.735996199999999ZM302.76581,22.9279976Q305.49219,22.9279976,306.90956,24.3188095Q308.328,25.7096214,308.328,28.490185L308.328,54.425812Q308.328,57.152187,306.93719,58.570625Q305.54639,59.987999,302.76581,59.987999L297.22382,59.987999Q294.32001,59.987999,294.32001,57.084187L294.32001,55.411812Q294.32001,52.507999,297.22382,52.507999L300.44,52.507999L300.44,30.407997L272.62801,30.407997L272.62801,57.601624Q272.62801,60.667999,269.56163000000004,60.667999L267.80638,60.667999Q264.74001,60.667999,264.74001,57.601624L264.74001,28.490185Q264.74001,25.7638092,266.13081,24.3464355Q267.52162,22.9279976,270.30219,22.9279976L302.76581,22.9279976ZM280.95801,18.6439972Q283.916,18.6439972,283.916,21.601997400000002L283.916,23.3019981Q283.916,26.259998,280.95801,26.259998L278.98599,26.259998Q276.028,26.259998,276.028,23.3019981L276.028,21.601997400000002Q276.028,18.6439972,278.98599,18.6439972L280.95801,18.6439972ZM287.40418999999997,26.803997000000003Q290.308,26.803997000000003,290.308,29.707808999999997L290.308,56.200188Q290.308,59.104,287.40418999999997,59.104L285.73181,59.104Q282.828,59.104,282.828,56.200188L282.828,29.707808999999997Q282.828,26.803997000000003,285.73181,26.803997000000003L287.40418999999997,26.803997000000003ZM301.45363,33.195999Q304.248,33.195999,304.248,35.990374L304.248,37.609623Q304.248,40.403999,301.45363,40.403999L271.61438,40.403999Q268.82001,40.403999,268.82001,37.609623L268.82001,35.990374Q268.82001,33.195999,271.61438,33.195999L301.45363,33.195999ZM301.45363,43.327999Q304.248,43.327999,304.248,46.122374L304.248,47.741625Q304.248,50.535999,301.45363,50.535999L271.61438,50.535999Q268.82001,50.535999,268.82001,47.741625L268.82001,46.122374Q268.82001,43.327999,271.61438,43.327999L301.45363,43.327999ZM254.30943,28.503998Q257.09000000000003,28.503998,258.53499999999997,29.948997Q259.98,31.393997,259.98,34.174561L259.98,55.295998Q259.98,59.172001,261.67999,61.076Q263.38,62.98,266.71200999999996,62.98L307.08382,62.98Q310.09601,62.98,310.09601,65.992188L310.09601,67.787811Q310.09601,70.799999,307.08382,70.799999L266.71200999999996,70.799999Q262.56399999999996,70.799999,259.198,68.760002Q255.832,66.720001,253.92799,63.150002Q252.024,59.580002,252.024,55.295998L252.024,36.323999L249.31038,36.323999Q246.244,36.323999,246.244,33.257624L246.244,31.570374Q246.244,28.503998,249.31038,28.503998L254.30943,28.503998ZM257.07511999999997,60.278061Q259.368,62.354187,257.34607,64.538689L252.88994,69.513313Q250.81381,71.751999,248.57512,69.730064L247.31288,68.60593800000001Q245.02,66.52981199999999,247.04193,64.345314L251.49806,59.370689Q253.57419,57.132,255.81288,59.153938L257.07511999999997,60.278061ZM252.5882,9.2568092Q255.4782,8.1039963,256.64481,11.0078087L260.05119,19.4801865Q261.20399,22.3701859,258.30019,23.5368118L256.62781,24.2231865Q253.73781,25.3759995,252.57118,22.472186999999998L249.16481,13.999809299999999Q248.01199,11.1098099,250.91582,9.943183900000001L252.5882,9.2568092ZM367.92468,10.279998800000001Q370.81363,10.279998800000001,372.31281,11.7526207Q373.81201,13.2241859,373.81201,16.16730881L373.81201,65.048687Q373.81201,67.937626,372.33939,69.436813Q370.86783,70.936001,367.92468,70.936001L363.93075999999996,70.936001Q360.75601,70.936001,360.75601,67.76124999999999L360.75601,65.950748Q360.75601,62.776001,363.93075999999996,62.776001L365.65201,62.776001L365.65201,18.4399986L327.57201,18.4399986L327.57201,38.839998Q327.57201,55.490437,321.54443000000003,69.32418799999999Q320.21419000000003,72.228001,317.37837,70.857376L315.73363,70.062626Q314.30881,69.377312,313.92206,68.32225Q313.53531,67.267189,314.20043999999996,65.788189Q316.89494,59.503502,318.15294,52.85331Q319.41200000000003,46.203123000000005,319.41200000000003,38.839998L319.41200000000003,16.16730881Q319.41200000000003,13.2783737,320.88356,11.7791862Q322.35618999999997,10.279998800000001,325.29931999999997,10.279998800000001L367.92468,10.279998800000001ZM366.62524,28.095997Q369.79999,28.095997,369.79999,31.270747999999998L369.79999,33.081249Q369.79999,36.255999,366.62524,36.255999L326.46275,36.255999Q323.28799000000004,36.255999,323.28799000000004,33.081249L323.28799000000004,31.270747999999998Q323.28799000000004,28.095997,326.46275,28.095997L366.62524,28.095997ZM366.62524,46.115999Q369.79999,46.115999,369.79999,49.290749L369.79999,51.10125Q369.79999,54.276001,366.62524,54.276001L326.46275,54.276001Q323.28799000000004,54.276001,323.28799000000004,51.10125L323.28799000000004,49.290749Q323.28799000000004,46.115999,326.46275,46.115999L366.62524,46.115999ZM347.44925,14.3599968Q350.62399,14.3599968,350.62399,17.5347481L350.62399,66.537251Q350.62399,69.712002,347.44925,69.712002L345.63874999999996,69.712002Q342.464,69.712002,342.464,66.537251L342.464,17.5347481Q342.464,14.3599968,345.63874999999996,14.3599968L347.44925,14.3599968Z" fill="#000000" fill-opacity="1"/></g></svg>