<svg xmlns="http://www.w3.org/2000/svg" xmlns:xlink="http://www.w3.org/1999/xlink" fill="none" version="1.1" width="383" height="84.49169921875" viewBox="0 0 383 84.49169921875"><path d="M0,23.044542L0,61.198288C-0.0000082557035,73.925446,10.317388,84.242844,23.044544,84.242836L50.417454,84.242836L50.726051,84.226807C52.257874,84.067963,53.421844,82.777054,53.421844,81.237015C53.421844,79.696983,52.257874,78.406082,50.726051,78.247246L50.417454,78.231209L23.044546,78.231209C13.637522,78.231209,6.011621,70.605309,6.011621,61.198284L6.011621,23.044542C6.01162,13.637519,13.63752,6.01162,23.044546,6.0116191L62.621048,6.0116191C72.028069,6.01162,79.653969,13.637517,79.653969,23.044542L79.653969,45.916748C79.653969,47.576813,80.999718,48.922558,82.659775,48.922558C84.319847,48.922558,85.665588,47.576813,85.665588,45.916748L85.665588,23.044542C85.665588,10.317393,75.348198,0,62.621048,0L23.044544,0C10.317393,-0.0000013759504,-9.1730038e-7,10.317393,0,23.044542Z" fill="#000000" fill-opacity="1" style="mix-blend-mode:passthrough"/><path d="M65.37827884143067,48.58593923413086C66.96534884143065,45.82059523413086,71.05325084143067,45.82059523413086,72.64031784143066,48.58593923413086L72.94090084143066,49.227180234130856L76.34347684143066,58.16445123413086L85.28475384143067,61.57103323413086L85.92599284143066,61.87161623413086C88.69133584143066,63.45868323413086,88.69133584143066,67.54658523413086,85.92599284143066,69.13365523413086L85.28475384143067,69.43423423413086L76.34346984143066,72.83681123413086L72.94089284143067,81.77809923413085C71.65039684143066,85.16865123413086,67.07755884143066,85.38106123413087,65.37827084143066,82.41933423413086L65.07368284143067,81.77809923413085L61.66710084143067,72.83681123413086L52.72982784143066,69.43423423413086C49.11483784143066,68.05957823413087,49.11483784143066,62.94168423413086,52.72982784143066,61.56702823413086L61.66710084143067,58.16044623413086L65.07368284143067,49.223169234130864L65.37827884143067,48.58593923413086ZM67.00141684143065,61.05804423413086C66.63047584143067,62.03545423413086,65.90900184143067,62.83979023413086,64.97751084143067,63.31440323413086L64.56470684143066,63.49475123413086L59.29452284143066,65.49863023413086L64.56470684143066,67.51051723413086L64.97751084143067,67.69086823413086C65.77103984143066,68.09163623413086,66.42029784143067,68.74089823413087,66.82106584143067,69.53442723413086L67.00141684143065,69.94322223413086L69.00529284143067,75.21340523413086L71.01718284143067,69.94322223413086L71.19753084143066,69.53442723413086C71.67116384143065,68.60367623413086,72.47397384143066,67.88229723413086,73.44988484143067,67.51051723413086L78.72006784143066,65.50263623413086L73.44988484143067,63.49475123413086C72.47397384143066,63.12296723413086,71.67116384143065,62.40158823413086,71.19753084143066,61.47084423413086L71.01718284143067,61.05804423413086L69.00930184143067,55.78785923413086L67.00141684143065,61.05804423413086ZM34.50661374143066,24.40319717413086C36.71888924143067,23.71386426413086,38.842997841430666,24.363118484130858,40.698581841430666,25.22879313413086C42.570201841430666,26.09446803413086,44.830567841430664,27.50118493413086,47.53579684143067,29.17241433413086L51.36720484143066,31.57706263413086C52.513417841430666,32.322505034130856,53.51535584143066,33.019850734130856,54.35698084143067,33.68513683413086C55.83984984143066,34.867422234130856,57.17443084143066,36.234064234130855,57.843721841430664,38.04957123413086L58.092198841430665,38.85512923413086L58.092198841430665,38.86715323413086L58.21243084143066,39.42823723413086C58.44889084143067,40.75480123413086,58.41282284143067,42.11743323413086,58.092198841430665,43.43197423413086C58.06346084143067,43.551660234130864,58.027320841430665,43.66944723413086,57.983985841430666,43.784654234130855C57.378818841430665,45.82860523413086,55.96408484143066,47.335516234130864,54.356979841430665,48.61398723413086C52.67372484143067,49.952574234130864,50.33320084143067,51.39135723413086,47.52778084143067,53.12670923413086L47.52778084143067,53.12270323413086C44.822551841430666,54.793932234130864,42.56619084143067,56.20465823413086,40.698581841430666,57.07033123413086C38.842997841430666,57.93200323413086,36.72289564143067,58.58125323413086,34.51062064143066,57.89994023413086L34.478559041430664,57.88792023413086C33.04035714143066,57.42481623413086,31.749370541430665,56.59134323413086,30.735324341430665,55.47125223413086L30.731317541430663,55.47525823413086C29.240436671430665,53.84009723413086,28.747483161430665,51.699960234130856,28.527055871430665,49.55982223413086C28.302621841430664,47.39163223413086,28.302621841430664,44.57819223413086,28.302621841430664,41.14756223413086C28.302621841430664,37.71693123413086,28.302621841430664,34.90750123413086,28.527055871430665,32.73930833413086C28.747483161430665,30.59917263413086,29.240433041430663,28.459033934130858,30.731317541430663,26.81986543413086L31.132093441430666,26.411076034130858C32.084720841430666,25.487471834130858,33.24042364143067,24.79981589413086,34.50661374143066,24.40319717413086ZM34.31424144143067,41.14756223413086C34.31424144143067,44.714454234130855,34.31424144143067,47.15517423413086,34.50260684143066,48.938619234130854C34.64287714143067,50.297245234130855,34.86330414143066,50.922453234130856,35.03162904143066,51.223034234130864L35.175909041430664,51.42342223413086L35.17991634143066,51.435444234130856L35.42839814143066,51.66789223413086C35.679638841430666,51.88218723413086,35.969333641430666,52.04675323413086,36.282048741430664,52.15282823413086L36.38224414143066,52.16886123413086C36.570609141430666,52.18088323413086,37.063558541430666,52.12878023413086,38.169698741430665,51.61578923413086C39.632524841430666,50.93447523413086,41.528192841430666,49.76821923413086,44.365672841430666,48.00881723413086L48.09287884143066,45.676311234130864C49.11885984143066,45.01102623413086,49.948461841430664,44.43791923413086,50.61775784143066,43.90889323413086C51.94031484143066,42.85886423413086,52.17677284143066,42.30980523413086,52.24490184143066,42.02525323413086L52.256925841430665,41.97716123413086C52.384379841430665,41.416397234130855,52.38301084143066,40.83403223413086,52.252917841430666,40.27387023413086L52.14871784143067,40.00535023413086C51.988404841430665,39.68473223413086,51.607671841430665,39.17574823413086,50.61775784143066,38.39023023413086C49.80422984143067,37.76069423413086,48.96168184143066,37.169571234130856,48.09287884143066,36.61880623413086L44.373687841430666,34.28629923413086C41.528187841430665,32.53090383413086,39.632521841430666,31.36064193413086,38.16969494143066,30.67932603413086C37.06756684143066,30.17034153413086,36.57461264143066,30.11824273413086,36.38624664143067,30.12625603413086L36.28605224143067,30.14228723413086L36.28605224143067,30.14629363413086C35.856979341430666,30.28309253413086,35.472300041430664,30.53216173413086,35.17189884143066,30.86768813413086C35.01960464143066,31.04002003413086,34.69096894143066,31.55702113413086,34.502603541430666,33.36050703413086C34.318248241430666,35.14395623413086,34.314237641430665,37.58066523413086,34.31424144143067,41.14756223413086Z" fill="#000000" fill-opacity="1" style="mix-blend-mode:passthrough"/><g><path d="M157.111439,24.1799965Q160.232002,24.1799965,160.232002,27.30056L160.232002,35.671999Q160.232002,47.614498,155.415691,57.20356Q150.600441,66.792625,139.838377,72.681Q137.112001,74.21418800000001,135.727564,71.365623L134.96044,69.746376Q133.698189,67.02000000000001,136.38419,65.473Q144.915001,60.645,148.561501,53.24575Q152.20800400000002,45.846498,152.20800400000002,35.671999L152.20800400000002,27.30056Q152.20800400000002,24.1799965,155.328564,24.1799965L157.111439,24.1799965ZM168.691628,12.551998099999999Q174.308002,12.551998099999999,174.308002,18.16837311L174.308002,50.367435Q174.308002,53.487999,171.18743899999998,53.487999L169.404564,53.487999Q166.284004,53.487999,166.284004,50.367435L166.284004,20.031997699999998L146.564003,20.031997699999998L146.564003,50.367435Q146.564003,53.487999,143.443439,53.487999L141.660564,53.487999Q138.540001,53.487999,138.540001,50.367435L138.540001,18.16837311Q138.540001,12.551998099999999,144.156376,12.551998099999999L168.691628,12.551998099999999ZM163.299438,50.360001Q166.420002,50.360001,166.420002,53.48056L166.420002,64.77600100000001L173.717255,64.77600100000001Q176.89200599999998,64.77600100000001,176.89200599999998,67.950748L176.89200599999998,69.76124999999999Q176.89200599999998,72.936001,173.717255,72.936001L164.22913,72.936001Q161.340191,72.936001,159.867565,71.463375Q158.396004,69.991814,158.396004,67.102875L158.396004,53.48056Q158.396004,50.360001,161.516563,50.360001L163.299438,50.360001ZM126.661251,40.296Q129.836,40.296,129.836,43.470749L129.836,70.305252Q129.836,73.47999999999999,126.661251,73.47999999999999L124.850751,73.47999999999999Q121.676001,73.47999999999999,121.676001,70.305252L121.676001,43.470749Q121.676001,40.296,124.850751,40.296L126.661251,40.296ZM128.551439,22.0719986Q132.744064,22.0719986,134.351625,24.1683121Q135.959188,26.263561199999998,134.494001,30.184185Q132.032188,36.991623000000004,127.894814,43.471811Q123.758501,49.950936999999996,118.7063131,55.397312Q116.5621877,57.703999,114.3235002,55.465313L113.1165001,54.230686Q110.931999996,52.046188,113.1303127,49.685311999999996Q117.4706254,45.060249,120.7218752,40.203562000000005Q123.973125,35.346874,126.164001,30.231998L117.0987501,30.231998Q113.9240003,30.231998,113.9240003,27.0572472L113.9240003,25.2467461Q113.9240003,22.0719986,117.0987501,22.0719986L128.551439,22.0719986ZM131.528564,42.754622999999995Q134.038189,41.383999,135.422626,43.907436000000004L138.869377,50.420563Q140.240002,52.930187,137.716564,54.314625L136.23543899999999,55.109375Q133.725813,56.48,132.341375,53.956562L128.894627,47.443436Q127.524,44.933811,130.047438,43.549374L131.528564,42.754622999999995ZM123.450376,10.440811199999999Q126.34037599999999,9.015995,127.724813,11.8656235L129.567188,15.4143715Q130.992001,18.30437088,128.142376,19.6888084L126.497626,20.5111847Q123.607626,21.935997,122.223188,19.0863724L120.3808126,15.5376205Q118.9560003,12.6476212,121.805626,11.2631836L123.450376,10.440811199999999ZM242.11038,12.619998899999999Q244.96001,12.619998899999999,244.96001,15.4696236L244.96001,17.11437225Q244.96001,19.9639969,242.11038,19.9639969L215.44163,19.9639969Q212.59199999999998,19.9639969,212.59199999999998,17.11437225L212.59199999999998,15.4696236Q212.59199999999998,12.619998899999999,215.44163,12.619998899999999L242.11038,12.619998899999999ZM238.26837999999998,25.063999199999998Q240.88638,25.063999199999998,242.27719,26.427185100000003Q243.668,27.790374800000002,243.668,30.463623L243.668,56.514Q243.668,59.472,240.71001,59.472L239.01001,59.472Q236.05200000000002,59.472,236.05200000000002,56.514L236.05200000000002,32.407997L221.09199999999998,32.407997L221.09199999999998,56.514Q221.09199999999998,59.472,218.13400000000001,59.472L216.43401,59.472Q213.476,59.472,213.476,56.514L213.476,30.463623Q213.476,27.845623,214.83919,26.4548111Q216.20238,25.063999199999998,218.87563,25.063999199999998L238.26837999999998,25.063999199999998ZM229.422,35.467999Q232.38,35.467999,232.38,38.425999000000004L232.38,46.823999Q232.38,55.814873,228.70587999999998,62.255749Q225.03280999999998,68.69556399999999,216.298,73.101749Q213.62581,74.41819000000001,212.45919,71.678001L211.77281,70.11399800000001Q210.620003,67.495998,213.30599999999998,66.165749Q217.79719,63.881374,220.30788,61.167751Q222.81857,58.454124,223.79076,55.067936Q224.76400999999998,51.680687,224.76400999999998,46.823999L224.76400999999998,38.425999000000004Q224.76400999999998,35.467999,227.72199999999998,35.467999L229.422,35.467999ZM243.5777,66.49406400000001Q245.65381,68.515999,243.63188,70.64631299999999L242.48013,71.825687Q240.40401,74.010189,238.27369,71.93406300000001L231.92632,65.777939Q229.85019,63.756001,231.87213,61.625687L233.02388000000002,60.446312Q235.10001,58.26181,237.23032,60.337936L243.5777,66.49406400000001ZM229.40819,16.291996Q232.312,16.291996,232.312,19.1958084L232.312,25.8321838Q232.312,28.735996,229.40819,28.735996L227.73582,28.735996Q224.832,28.735996,224.832,25.8321838L224.832,19.1958084Q224.832,16.291996,227.73582,16.291996L229.40819,16.291996ZM199.216187,10.9199982Q202.120003,10.9199982,202.120003,13.8238106L202.120003,31.612186Q202.120003,34.515999,199.216187,34.515999L197.543816,34.515999Q194.639999,34.515999,194.639999,31.612186L194.639999,13.8238106Q194.639999,10.9199982,197.543816,10.9199982L199.216187,10.9199982ZM186.677628,15.067997Q189.47199999999998,15.067997,189.47199999999998,17.86237335L189.47199999999998,30.639999L208.423813,30.639999Q211.436,30.639999,211.436,33.652187L211.436,35.37981Q211.436,38.391998,208.423813,38.391998L187.66362800000002,38.391998Q185.045624,38.391998,183.65481599999998,37.028811000000005Q182.264,35.665623,182.264,32.992374L182.264,17.86237335Q182.264,15.067997,185.05837200000002,15.067997L186.677628,15.067997ZM207.730003,16.9719963Q210.688004,16.9719963,210.688004,19.9299965L210.688004,21.6299973Q210.688004,24.5879974,207.730003,24.5879974L201.337997,24.5879974Q198.38000499999998,24.5879974,198.38000499999998,21.6299973L198.38000499999998,19.9299965Q198.38000499999998,16.9719963,201.337997,16.9719963L207.730003,16.9719963ZM197.149628,33.155998Q199.94400000000002,33.155998,199.94400000000002,35.950373L199.94400000000002,54.909622Q199.94400000000002,57.703999,197.149628,57.703999L195.53037999999998,57.703999Q192.736,57.703999,192.736,54.909622L192.736,35.950373Q192.736,33.155998,195.53037999999998,33.155998L197.149628,33.155998ZM208.87219199999998,42.853436Q210.296997,42.961811,210.982315,43.728937Q211.66763,44.494999,211.50507,45.919810999999996Q210.71669,53.320126,207.48668700000002,59.285Q204.256691,65.249874,198.624374,68.977127Q192.992065,72.705437,185.181625,73.372688Q183.756813,73.589439,182.929123,72.930687Q182.10144,72.272999,181.993065,70.848186L181.854935,69.17581200000001Q181.638191,66.326187,184.487816,65.89268899999999Q190.788437,64.926876,194.92475100000001,62.179249Q199.06106599999998,59.431625,201.23706099999998,55.234749Q203.413063,51.036812,204.025063,45.525622999999996Q204.350189,42.607997999999995,207.199814,42.770561L208.87219199999998,42.853436ZM188.010002,43.248686Q190.695999,43.9,190.04468500000002,46.640186L187.879311,55.371811Q187.22799700000002,58.152374,184.473999,57.392685L182.91000400000001,56.995312Q180.223999,56.344002,180.875313,53.603813L183.040688,44.872187Q183.692001,42.091623,186.445999,42.851310999999995L188.010002,43.248686ZM278.076,30.938560000000003Q278.076,28.157997,279.52099999999996,26.7129974Q280.966,25.2679977,283.74657,25.2679977L304.90944,25.2679977Q307.69,25.2679977,309.13500999999997,26.7129974Q310.58000000000004,28.157997,310.58000000000004,30.938560000000003L310.58000000000004,42.717436Q310.58000000000004,45.497999,309.13500999999997,46.942999Q307.69,48.387999,304.90944,48.387999L283.74657,48.387999Q280.966,48.387999,279.52099999999996,46.942999Q278.076,45.497999,278.076,42.717436L278.076,30.938560000000003ZM302.41999999999996,32.883999L286.23600999999996,32.883999L286.23600999999996,40.771999L302.41999999999996,40.771999L302.41999999999996,32.883999ZM268.63036999999997,49.582249000000004Q271.52037,48.32,272.74225,51.169624L276.81375,60.158375Q278.076,63.048374,275.22638,64.27024800000001L273.58163,65.00975Q270.69162,66.271999,269.46976,63.422375L265.39824999999996,54.433624Q264.13599999999997,51.543625,266.98563,50.321747L268.63036999999997,49.582249000000004ZM264.36125000000004,21.0519981Q267.536,21.0519981,267.536,24.2267494L267.536,39.751999Q267.536,49.056311,264.97751,56.768997Q262.42006000000003,64.481686,256.42012,71.622749Q254.33018,74.146187,251.92894,71.907501L250.63907,70.7005Q249.431,69.600811,249.37682,68.454376Q249.32263,67.308998,250.42232,66.046749Q255.34807,60.102062,257.3275,53.967186Q259.308,47.832312,259.308,39.751999L259.308,24.280933400000002Q259.308,21.0519981,262.53693999999996,21.0519981L264.36125000000004,21.0519981ZM272.16742999999997,37.303999000000005Q275.28799000000004,37.303999000000005,275.28799000000004,40.424561L275.28799000000004,42.207436Q275.28799000000004,45.327999,272.16742999999997,45.327999L252.50056,45.327999Q249.38,45.327999,249.38,42.207436L249.38,40.424561Q249.38,37.303999000000005,252.50056,37.303999000000005L272.16742999999997,37.303999000000005ZM309.66200000000003,64.299999Q312.62,64.299999,312.62,67.257999L312.62,69.02600100000001Q312.62,71.984001,309.66200000000003,71.984001L278.98019,71.984001Q275.96799999999996,71.984001,275.96799999999996,68.971813L275.96799999999996,67.312187Q275.96799999999996,64.299999,278.98019,64.299999L309.66200000000003,64.299999ZM285.48163,51.324749Q288.548,50.835999,288.98256000000003,53.902374L289.81345,59.057625Q290.248,62.124001,287.18163000000004,62.612751L285.42638,62.859249Q282.36,63.348,281.92545,60.281624L281.09456,55.126373Q280.65999999999997,52.059998,283.72638,51.571251L285.48163,51.324749ZM305.33763,51.571251Q308.40400999999997,52.059998,307.96943999999996,55.126373L307.13856999999996,60.281624Q306.70401000000004,63.348,303.63763,62.859249L301.88239,62.612751Q298.81601,62.124001,299.25056,59.057625L300.08144,53.902374Q300.51601,50.835999,303.58238,51.324749L305.33763,51.571251ZM256.41907000000003,11.1239967Q259.64799,11.1239967,259.64799,14.352935800000001L259.64799,17.0399971L272.16742999999997,17.0399971Q275.28799000000004,17.0399971,275.28799000000004,20.1605606L275.28799000000004,21.943435700000002Q275.28799000000004,25.063999199999998,272.16742999999997,25.063999199999998L257.23932,25.063999199999998Q254.35037,25.063999199999998,252.85118,23.5924339Q251.35201,22.119812,251.35201,19.1766853L251.35201,14.352935800000001Q251.35201,11.1239967,254.58093,11.1239967L256.41907000000003,11.1239967ZM308.642,12.4839973Q311.60001,12.4839973,311.60001,15.4419975L311.60001,17.14199829Q311.60001,20.099998499999998,308.642,20.099998499999998L280.082,20.099998499999998Q277.12401,20.099998499999998,277.12401,17.14199829L277.12401,15.4419975Q277.12401,12.4839973,280.082,12.4839973L308.642,12.4839973ZM330.164,55.555626Q330.164,52.937622,331.52719,51.546814Q332.89038,50.155998,335.56363,50.155998L350.26437,50.155998Q352.88239,50.155998,354.27319,51.519188Q355.664,52.882374,355.664,55.555626L355.664,67.264374Q355.664,69.882374,354.30081,71.27318600000001Q352.93762000000004,72.664001,350.26437,72.664001L335.56363,72.664001Q332.94561999999996,72.664001,331.55481,71.30081200000001Q330.164,69.937626,330.164,67.264374L330.164,55.555626ZM348.18401,57.636002L337.644,57.636002L337.644,65.183998L348.18401,65.183998L348.18401,57.636002ZM350.95819,12.3479958Q356.41200000000003,12.3479958,356.41200000000003,17.80181122L356.41200000000003,26.206184399999998Q356.41200000000003,31.66,350.95819,31.66L326.75763,31.66Q323.908,31.66,323.908,28.810371L323.908,27.2336235Q323.908,24.3839989,326.75763,24.3839989L348.524,24.3839989L348.524,19.6239967L327.85201,19.6239967L327.85201,42.743999Q327.85201,50.14431,326.84476,57.088814Q325.83856000000003,64.03331399999999,323.74225,70.712189Q322.73819000000003,73.616001,319.84819,72.67993899999999L318.17581,72.10406499999999Q315.272,71.15418600000001,316.26225,68.26418699999999Q318.15456,62.251499,319.05875000000003,55.932812Q319.964,49.614124000000004,319.964,42.743999L319.964,17.80181122Q319.964,12.3479958,325.41782,12.3479958L350.95819,12.3479958ZM353.44019000000003,37.303999000000005Q356.34398999999996,37.303999000000005,356.34398999999996,40.207811L356.34398999999996,41.880185999999995Q356.34398999999996,44.783998,353.44019000000003,44.783998L332.38782000000003,44.783998Q329.48401,44.783998,329.48401,41.880185999999995L329.48401,40.207811Q329.48401,37.303999000000005,332.38782000000003,37.303999000000005L353.44019000000003,37.303999000000005ZM343.67581,28.055999999999997Q346.688,28.055999999999997,346.688,31.068184000000002L346.688,50.883812Q346.688,53.896,343.67581,53.896L341.94818,53.896Q338.93600000000004,53.896,338.93600000000004,50.883812L338.93600000000004,31.068184000000002Q338.93600000000004,28.055999999999997,341.94818,28.055999999999997L343.67581,28.055999999999997ZM364.06201,15.3399963Q367.02002,15.3399963,367.02002,18.29799652L367.02002,55.562Q367.02002,58.52,364.06201,58.52L362.36199999999997,58.52Q359.40400999999997,58.52,359.40400999999997,55.562L359.40400999999997,18.29799652Q359.40400999999997,15.3399963,362.36199999999997,15.3399963L364.06201,15.3399963ZM376.17981,10.9199982Q379.19202,10.9199982,379.19202,13.9321861L379.19202,66.803249Q379.19202,69.74743699999999,377.69281,71.27318600000001Q376.19363,72.799999,373.19525,72.799999L367.21552,72.799999Q363.82401,72.799999,363.82401,69.408501L363.82401,67.487499Q363.82401,64.096001,367.21552,64.096001L371.37201,64.096001L371.37201,13.9863739Q371.37201,10.9199982,374.43839,10.9199982L376.17981,10.9199982Z" fill="#000000" fill-opacity="1"/></g></svg>