<svg xmlns="http://www.w3.org/2000/svg" viewBox="0 0 24 24" width="24" height="24">
  <path fill="#07C160" d="M12 2C6.48 2 2 6.48 2 12s4.48 10 10 10 10-4.48 10-10S17.52 2 12 2zm0 3.5c3.59 0 6.5 2.69 6.5 6.01 0 1.23-.4 2.37-1.08 3.32.18.38.48.82.92 1.18.22.18.46.34.72.46.13.06.26.11.4.15.07.02.14.04.21.05.04.01.07.01.11.02.18.03.3.2.27.38-.03.16-.17.27-.32.27-.02 0-.04 0-.06-.01-.5-.08-.96-.26-1.37-.5-.41-.24-.77-.55-1.06-.91-.05-.06-.1-.13-.14-.19-1.08.69-2.4 1.1-3.82 1.1-3.59 0-6.5-2.69-6.5-6.01S8.41 5.5 12 5.5z"/>
  <path fill="#07C160" d="M9 10.5c-.55 0-1 .45-1 1s.45 1 1 1 1-.45 1-1-.45-1-1-1zm3 0c-.55 0-1 .45-1 1s.45 1 1 1 1-.45 1-1-.45-1-1-1zm3 0c-.55 0-1 .45-1 1s.45 1 1 1 1-.45 1-1-.45-1-1-1z"/>
</svg>
