<svg xmlns="http://www.w3.org/2000/svg" viewBox="0 0 24 24" width="24" height="24">
  <path fill="#0089FF" d="M12 2C6.48 2 2 6.48 2 12s4.48 10 10 10 10-4.48 10-10S17.52 2 12 2zm4.64 6.8c-.3 1.95-1.66 4.65-3.02 6.78-.16.25-.34.5-.52.74l.01.02c.06.08.12.17.16.26.1.22.12.46.06.7-.06.23-.2.43-.4.57-.2.14-.43.21-.67.21-.25 0-.49-.08-.69-.23-.2-.15-.34-.36-.4-.6-.04-.16-.04-.33 0-.49.02-.08.05-.16.09-.23-.5.5-1.04.93-1.6 1.3-.56.36-1.15.65-1.77.86-.62.21-1.27.33-1.93.37-.66.04-1.32-.03-1.96-.21-.64-.18-1.22-.5-1.7-.94-.48-.44-.82-.98-1-1.6-.18-.62-.2-1.27-.06-1.9.14-.63.42-1.2.82-1.7.4-.5.9-.9 1.47-1.2.57-.3 1.18-.48 1.82-.54.64-.06 1.28.02 1.88.23.6.21 1.14.54 1.6.97.46.43.82.95 1.06 1.53.24.58.35 1.2.32 1.83.5-.78.93-1.6 1.28-2.46.35-.86.6-1.75.74-2.67.14-.92.17-1.85.09-2.78-.08-.93-.28-1.84-.6-2.71.7.86 1.22 1.84 1.54 2.9.32 1.06.42 2.15.3 3.25z"/>
  <path fill="#0089FF" d="M9.5 13.2c-.3 0-.6.06-.87.18-.28.12-.52.3-.72.52-.2.22-.35.48-.43.77-.08.29-.1.59-.05.88.05.29.16.57.33.81.17.24.39.44.64.58.25.14.53.22.82.23.29.01.57-.04.84-.15.27-.11.5-.28.7-.5.2-.22.34-.47.42-.75.08-.28.1-.57.06-.86-.04-.29-.14-.56-.3-.8-.16-.24-.37-.44-.62-.59-.25-.15-.53-.23-.82-.25-.04 0-.08 0-.12 0z"/>
</svg>
