<svg xmlns="http://www.w3.org/2000/svg" viewBox="0 0 1024 1024" width="200" height="200"><path d="M146.286 0h731.428A146.286 146.286 0 0 1 1024 146.286v731.428A146.286 146.286 0 0 1 877.714 1024H146.286A146.286 146.286 0 0 1 0 877.714V146.286A146.286 146.286 0 0 1 146.286 0z" fill="#1677FF"/><path d="M770.36 387.1c-16.18-7.86-32.36-15.7-49.55-22.55-2.01-12.7-3.01-26.41-3.01-41.62 0-80.84 27.92-148.16 27.92-170.69 0-26.92-29.92-94.6-159.18-94.6-129.25 0-170.69 67.68-170.69 96.6 0 22.03 27.92 89.85 27.92 170.69 0 12.7-1 25.92-3.01 39.62-18.69 7.36-37.88 16.7-56.07 25.05C302.3 422.16 245.96 437.37 245.96 510.74c0 67.18 51.55 95.1 132.76 95.1 102.11 0 162.18-72.69 162.18-72.69s50.55 36.37 116.12 76.69c-25.92 23.53-58.57 42.62-97.61 56.07-52.05 17.7-112.61 25.42-175.69 25.42-149.66 0-274.52-58.57-274.52-156.67 0-66.18 65.68-120.62 148.66-152.66 31.92-12.2 66.18-22.55 102.61-32.43 4.51-15.19 9.01-31.42 12.5-49.05 3.51 17.7 8.01 34.36 12.5 49.55 36.86-9.51 75.69-17.7 116.12-23.53-40.12-5.51-78.69-12.2-115.62-19.69 5.01-19.19 9.01-39.87 12.5-61.07 4 21.53 8.51 42.62 13.5 62.07 40.12 6.01 79.69 11.2 117.13 15.19 3.01 8.51 6.01 16.7 9.01 24.42-39.43-3.01-79.85-7.01-120.13-12.2 40.62 5.51 81.16 9.51 119.63 12.5 3.01 7.36 6.01 14.69 9.01 21.55 38.86 2.5 75.69 4 109.11 4 17.2 0 34.36-0.5 51.05-1 1 1 2 1.5 3.01 2.5 14.7 5.51 29.42 11.2 43.62 17.2 14.2 6.01 28.42 12.2 42.12 18.7-0.5 0-0.5 0-1 0.5-0.5 0-0.5 0-1 0.5z m-348.87 161.18c-25.42 26.92-77.19 38.37-129.76 12.2-44.62-22.55-50.05-67.18-27.42-99.6 19.19-27.42 53.55-43.62 84.65-54.07 26.92-9.01 55.55-16.7 85.15-23.03 1 7.01 1.5 14.2 1.5 21.55 0 60.07-13.7 142.66-14.12 142.95z" fill="#FFF"/></svg>
