<svg xmlns="http://www.w3.org/2000/svg" viewBox="0 0 1024 1024" width="200" height="200"><path d="M950.7 750.6c-24 53.1-35.4 76.8-66.3 123.8-43.1 65.6-103.8 147.2-179 147.9-66.9 0.6-84-43.5-174.8-43-90.7 0.5-109.6 43.8-176.5 43.1-75.2-0.7-132.8-74.4-175.9-140C57.7 699.1 45.1 483.9 119.4 369.5c52.8-81.3 136.1-128.9 214.4-128.9 79.8 0 129.9 43.7 195.8 43.7 64 0 102.9-43.8 195.1-43.8 69.7 0 143.5 38 196.2 103.5-172.4 94.6-144.4 340.7 29.8 406.6zM654.8 167.3c-35.9 46-97.7 81.7-157.4 79.8-10.9-59.4 17.1-120.4 51-161.7 37.4-45.2 101.4-80 156.1-83.8 9.3 62.1-16.2 122.7-49.7 165.7z" fill="#000"/></svg>
