<svg xmlns="http://www.w3.org/2000/svg" xmlns:xlink="http://www.w3.org/1999/xlink" fill="none" version="1.1" width="42" height="42" viewBox="0 0 42 42"><path d="M33.094294000000005,22.137636C33.075834,18.859816,34.560902,16.389143,37.560787,14.56665C35.882906,12.162643,33.345566000000005,10.840642,29.999027,10.5862923C26.82992,10.3360462,23.36339,12.432373,22.094719,12.432373C20.754258999999998,12.432373,17.686686,10.6724415,15.273447,10.6724415C10.2931271,10.749362,5,14.643569,5,22.566336C5,24.907784,5.42767552,27.325127,6.2830274,29.816309C7.4275987,33.095154,11.552565600000001,41.128689,15.854963,40.99844C18.105133000000002,40.94511,19.695838000000002,39.402599,22.623932,39.402599C25.464844,39.402599,26.936583,40.99844,29.446228,40.99844C33.786572,40.936901,37.517712,33.633595,38.604843,30.344498C32.782505,27.599989,33.094291999999996,22.30686,33.094291999999996,22.138664L33.094294000000005,22.137636ZM28.042185,7.4756446C30.479012,4.5813994000000005,30.257483,1.94765538,30.18569,1C28.031929,1.12512328,25.541767,2.4666094999999997,24.124388,4.1147504C22.561373,5.8839121,21.642433,8.071518900000001,21.840376,10.5380888C24.167465,10.715518,26.291485,9.5186415,28.042185,7.4756446Z" fill="var(--el-text-color-primary)" fill-opacity="1" style="mix-blend-mode:passthrough"/></svg>