<svg xmlns="http://www.w3.org/2000/svg" xmlns:xlink="http://www.w3.org/1999/xlink" fill="none" version="1.1" width="42" height="42" viewBox="0 0 42 42"><defs><clipPath id="master_svg0_2050_34440"><rect x="0" y="0" width="42" height="42" rx="0"/></clipPath></defs><g clip-path="url(#master_svg0_2050_34440)"><path d="M5.3613701,13.140995C8.240907700000001,7.4216101000000005,14.15897,3.5,20.999998,3.5C25.716949,3.5,29.678247,5.2341627,32.709074,8.057962400000001L27.689722,13.0772953C25.876198,11.3432379,23.569174,10.4602227,20.999998,10.4602227C16.441983999999998,10.4602227,12.5839691,13.538648,11.207962,17.675001C10.857874899999999,18.724999,10.6590042,19.846577,10.6590042,21C10.6590042,22.153423,10.857874899999999,23.275,11.207962,24.324999C12.5839691,28.4613,16.441983999999998,31.539724,20.999998,31.539724C23.354448,31.539724,25.359074,30.91935,26.926199,29.869349C28.779449,28.628426,30.012497,26.775,30.418148,24.5875L20.999998,24.5875L20.999998,17.81815L37.481674,17.81815C37.688698,18.963525,37.799999,20.156849,37.799999,21.397774C37.799999,26.727226,35.890923,31.213524,32.581671,34.260273C29.686298,36.933052,25.724998,38.5,20.999998,38.5C14.15897,38.5,8.240907700000001,34.578424,5.3613701,28.859076C4.17616487,26.496574,3.5,23.823799,3.5,21C3.5,18.176201,4.17616487,15.503443,5.3613701,13.140995Z" fill="var(--el-text-color-primary)" fill-opacity="1" style="mix-blend-mode:passthrough"/></g></svg>