<svg xmlns="http://www.w3.org/2000/svg" xmlns:xlink="http://www.w3.org/1999/xlink" fill="none" version="1.1" width="42" height="42" viewBox="0 0 42 42"><defs><clipPath id="master_svg0_2050_34428"><rect x="0" y="0" width="42" height="42" rx="0"/></clipPath></defs><g clip-path="url(#master_svg0_2050_34428)"><path d="M26.8703250625,25.171209828125C29.7901150625,19.957209828125002,30.8329410625,14.951891828125,30.8329410625,14.951891828125L30.3116130625,14.951891828125L25.8277490625,14.951891828125L21.1353300625,14.951891828125L21.1353300625,11.406640528125L32.6056480625,11.406640528125L32.6056480625,9.842319028125L21.1353300625,9.842319028125L21.1353300625,4.315673828125L15.9213320625,4.315673828125L15.9213320625,9.842319028125L5.4935030625,9.842319028125L5.4935030625,11.406640528125L15.9213320625,11.406640528125L15.9213320625,15.056275828125L6.9533996625,15.056275828125L6.9533996625,16.620387828125L24.9934410625,16.620387828125C24.9934410625,16.933243828125,24.9934410625,16.933243828125,24.6805420625,17.141589828125C24.6805420625,19.018851828125,23.3251550625,21.625747828125,22.2822880625,23.711396828125C8.9347486625,18.497314828125,5.0763468625,21.625873828125,4.0336065625,22.147075828125C-4.8299021375,28.403857828125,3.5123200625,36.224664828125,4.8679590625,36.016194828124995C14.2529220625,38.101588828125,20.3008520625,34.138936828125,24.4720670625,29.238042828125C24.7849230625,29.550941828125,24.9934410625,29.550941828125,25.3062510625,29.550941828125C28.2259620625,31.115050828125,41.9906960625,37.684398828125,41.9906960625,37.684398828125L41.9906960625,29.863837828125C39.9051320625,29.655028828125,32.2928390625,27.048093828125,26.8703250625,25.171209828125ZM20.0924640625,27.569379828125C13.5230360625,35.911727828124995,5.7021441625,33.304834828124996,4.4509305625,32.783458828125C1.3225396625,31.949111828125,0.2797148825,26.213948828125,4.1380743625,24.441198828125C10.7075020625,22.355672828125,16.4428310625,24.753926828125,20.6137960625,26.839576828125C20.3008980625,27.256564828125,20.0924640625,27.569379828125,20.0924640625,27.569379828125Z" fill="var(--el-text-color-primary)" fill-opacity="1" style="mix-blend-mode:passthrough"/></g></svg>