<?xml version="1.0" standalone="no"?>
<!DOCTYPE svg PUBLIC "-//W3C//DTD SVG 1.1//EN" "http://www.w3.org/Graphics/SVG/1.1/DTD/svg11.dtd">
<svg t="1762170075595" class="icon" viewBox="0 0 1024 1024" version="1.1" xmlns="http://www.w3.org/2000/svg" p-id="24621" xmlns:xlink="http://www.w3.org/1999/xlink" width="200" height="200">
  <path d="M298.666667 136.533333a34.133333 34.133333 0 1 1 0 68.266667H196.266667a34.133333 34.133333 0 0 0-34.133334 34.133333v631.466667a34.133333 34.133333 0 0 0 34.133334 34.133333h460.8a34.133333 34.133333 0 0 0 34.133333-34.133333V640a34.133333 34.133333 0 1 1 68.266667 0v230.4a102.4 102.4 0 0 1-102.4 102.4H196.266667a102.4 102.4 0 0 1-102.4-102.4V238.933333a102.4 102.4 0 0 1 102.4-102.4H298.666667zM426.666667 725.333333a42.666667 42.666667 0 1 1 0 85.333334 42.666667 42.666667 0 0 1 0-85.333334zM870.4 51.2a102.4 102.4 0 0 1 102.4 102.4v204.8a102.4 102.4 0 0 1-102.4 102.4h-135.466667l-149.333333 91.989333a42.666667 42.666667 0 0 1-55.893333-9.856l-2.858667-4.096a42.666667 42.666667 0 0 1-6.314667-22.357333V460.8h-29.866666a98.133333 98.133333 0 0 1-97.92-91.434667L392.533333 362.666667V153.6a102.4 102.4 0 0 1 102.4-102.4h375.466667z m0 68.266667h-375.466667a34.133333 34.133333 0 0 0-34.133333 34.133333v209.066667a29.866667 29.866667 0 0 0 29.866667 29.866666h55.466666a42.666667 42.666667 0 0 1 42.666667 42.666667v35.413333l116.565333-71.765333a42.666667 42.666667 0 0 1 16.512-5.888l5.888-0.426667H870.4a34.133333 34.133333 0 0 0 34.133333-34.133333V153.6a34.133333 34.133333 0 0 0-34.133333-34.133333z" fill="#666666" p-id="24622"></path>
</svg>