<svg xmlns="http://www.w3.org/2000/svg" xmlns:xlink="http://www.w3.org/1999/xlink" fill="none" version="1.1" width="522" height="67" viewBox="0 0 522 67"><g><path d="M48.447266,53L58.007812,53L35.664062,22.492188Q34.160156,20.451172,31.582031,20.451172Q30.400391,20.451172,29.379883,20.988281Q28.359375,21.525391,27.714844,22.492188L5.3710938,53L14.824219,53L31.689453,30.011719L48.447266,53ZM68.75,25.392578L68.75,53L75.947266,53L75.947266,18.839844L68.75,25.392578ZM134.59961,53Q136.5332,53,137.87598,51.657227Q139.21875,50.314453,139.21875,48.380859L139.21875,33.126953L118.59375,33.126953L110.9668,40.216797L132.12891,40.216797L132.12891,45.910156L101.72852,45.910156Q99.902344,45.910156,98.398438,45.104492Q96.894531,44.298828,95.927734,42.902344Q93.886719,39.894531,93.886719,36.779297Q93.886719,32.912109,96.572266,30.226562Q99.257812,27.541016,103.01758,27.541016L139.21875,27.541016L139.21875,20.451172L103.01758,20.451172Q98.613281,20.451172,94.853516,22.65332Q91.09375,24.855469,88.891602,28.561523Q86.689453,32.267578,86.689453,36.779297Q86.689453,40.96875,88.945312,45.373047Q90.771484,48.917969,94.155273,50.958984Q97.539062,53,101.51367,53L134.59961,53ZM202.59766,45.910156L166.28906,45.910156Q162.5293,45.910156,159.84375,43.224609Q157.1582,40.539062,157.1582,36.779297Q157.1582,32.912109,159.84375,30.226562Q162.5293,27.541016,166.28906,27.541016L195.18555,27.541016L202.59766,20.451172L166.28906,20.451172Q161.88477,20.451172,158.125,22.65332Q154.36523,24.855469,152.16309,28.561523Q149.96094,32.267578,149.96094,36.779297Q149.96094,41.183594,152.16309,44.889648Q154.36523,48.595703,158.125,50.797852Q161.88477,53,166.28906,53L195.18555,53L202.59766,45.910156ZM287.24609,20.34375L280.37109,27.541016L264.6875,27.541016L264.6875,53L257.59766,53L257.59766,27.541016L234.82422,27.541016L241.80664,20.34375L287.24609,20.34375ZM337.30469,53Q342.7832,53,346.59668,49.186523Q350.41016,45.373047,350.41016,40.001953L350.41016,33.556641Q350.41016,28.185547,346.59668,24.318359Q342.7832,20.451172,337.30469,20.451172L310.98633,20.451172Q305.61523,20.451172,301.80176,24.318359Q297.98828,28.185547,297.98828,33.556641L297.98828,40.001953Q297.98828,45.373047,301.80176,49.186523Q305.61523,53,310.98633,53L337.30469,53ZM337.30469,27.648438Q339.77539,27.648438,341.54785,29.367188Q343.32031,31.085938,343.32031,33.556641L343.32031,40.001953Q343.32031,42.472656,341.54785,44.191406Q339.77539,45.910156,337.30469,45.910156L310.98633,45.910156Q308.51562,45.910156,306.79688,44.191406Q305.07812,42.472656,305.07812,40.001953L305.07812,33.556641Q305.07812,31.085938,306.79688,29.367188Q308.51562,27.648438,310.98633,27.648438L337.30469,27.648438ZM425.71289,53L435.27344,53L412.92969,22.492188Q411.42578,20.451172,408.84766,20.451172Q407.66602,20.451172,406.64551,20.988281Q405.625,21.525391,404.98047,22.492188L382.63672,53L392.08984,53L408.95508,30.011719L425.71289,53ZM493.92578,53Q495.85938,53,497.20215,51.657227Q498.54492,50.314453,498.54492,48.380859L498.54492,33.126953L477.91992,33.126953L470.29297,40.216797L491.45508,40.216797L491.45508,45.910156L461.05469,45.910156Q459.22852,45.910156,457.72461,45.104492Q456.2207,44.298828,455.25391,42.902344Q453.21289,39.894531,453.21289,36.779297Q453.21289,32.912109,455.89844,30.226562Q458.58398,27.541016,462.34375,27.541016L498.54492,27.541016L498.54492,20.451172L462.34375,20.451172Q457.93945,20.451172,454.17969,22.65332Q450.41992,24.855469,448.21777,28.561523Q446.01562,32.267578,446.01562,36.779297Q446.01562,40.96875,448.27148,45.373047Q450.09766,48.917969,453.48145,50.958984Q456.86523,53,460.83984,53L493.92578,53ZM509.28711,25.392578L509.28711,53L516.48438,53L516.48438,18.839844L509.28711,25.392578Z" fill="currentColor" fill-opacity="1"/></g></svg>
