<svg xmlns="http://www.w3.org/2000/svg" xmlns:xlink="http://www.w3.org/1999/xlink" fill="none" version="1.1" width="4000" height="4000" viewBox="0 0 4000 4000"><defs><clipPath id="master_svg0_2011_35063"><rect x="0" y="0" width="4000" height="4000" rx="0"/></clipPath><radialGradient cx="0" cy="0" r="1" gradientUnits="userSpaceOnUse" id="master_svg1_2011_34493" gradientTransform="translate(2864.9104960758705 -275.65759965777397) rotate(123.43312762101039) scale(3555.8645625154995 5327.130007015939)"><stop offset="23.803700506687164%" stop-color="var(--el-text-color-primary)" stop-opacity="1"/><stop offset="24.65450018644333%" stop-color="var(--el-text-color-primary)" stop-opacity="1"/><stop offset="44.24639940261841%" stop-color="var(--el-text-color-primary)" stop-opacity="1"/><stop offset="57.23379850387573%" stop-color="var(--el-text-color-primary)" stop-opacity="1"/><stop offset="75.78269839286804%" stop-color="var(--el-text-color-primary)" stop-opacity="1"/><stop offset="98.25760126113892%" stop-color="var(--el-text-color-primary)" stop-opacity="1"/></radialGradient><radialGradient cx="0" cy="0" r="1" gradientUnits="userSpaceOnUse" id="master_svg2_2011_34494" gradientTransform="translate(2864.91001426055 -275.6577424070274) rotate(123.43313008875697) scale(3555.864344670564 5327.129666613926)"><stop offset="23.803700506687164%" stop-color="var(--el-text-color-primary)" stop-opacity="1"/><stop offset="24.65450018644333%" stop-color="var(--el-text-color-primary)" stop-opacity="1"/><stop offset="44.24639940261841%" stop-color="var(--el-text-color-primary)" stop-opacity="1"/><stop offset="57.23379850387573%" stop-color="var(--el-text-color-primary)" stop-opacity="1"/><stop offset="75.78269839286804%" stop-color="var(--el-text-color-primary)" stop-opacity="1"/><stop offset="98.25760126113892%" stop-color="var(--el-text-color-primary)" stop-opacity="1"/></radialGradient><linearGradient x1="0.45717665553092957" y1="0.5660388469696045" x2="5.006422849420459" y2="-1.807030335298819" id="master_svg3_2011_34495"><stop offset="0%" stop-color="var(--el-text-color-primary)" stop-opacity="1"/><stop offset="94.06359791755676%" stop-color="var(--el-text-color-primary)" stop-opacity="1"/></linearGradient><linearGradient x1="0.06673768907785416" y1="0.8804346323013306" x2="3.628099466894706" y2="-1.0413301404582507" id="master_svg4_2011_34496"><stop offset="0%" stop-color="var(--el-text-color-primary)" stop-opacity="1"/><stop offset="94.06359791755676%" stop-color="var(--el-text-color-primary)" stop-opacity="1"/></linearGradient><linearGradient x1="-0.6111147403717041" y1="1.3338284492492676" x2="3.3682619147251973" y2="-0.9366708960375671" id="master_svg5_2011_34497"><stop offset="0%" stop-color="var(--el-text-color-primary)" stop-opacity="1"/><stop offset="94.06359791755676%" stop-color="var(--el-text-color-primary)" stop-opacity="1"/></linearGradient><linearGradient x1="-2.013084888458252" y1="1.6087591648101807" x2="2.829544040253704" y2="-2.1999483257235757" id="master_svg6_2011_34498"><stop offset="0%" stop-color="var(--el-text-color-primary)" stop-opacity="1"/><stop offset="94.06359791755676%" stop-color="var(--el-text-color-primary)" stop-opacity="1"/></linearGradient><linearGradient x1="-3.5491318702697754" y1="1.8281728029251099" x2="1.4063704614866819" y2="-2.775659484704728" id="master_svg7_2011_34499"><stop offset="0%" stop-color="var(--el-text-color-primary)" stop-opacity="1"/><stop offset="94.06359791755676%" stop-color="var(--el-text-color-primary)" stop-opacity="1"/></linearGradient><linearGradient x1="-2.9644079208374023" y1="1.8687002658843994" x2="1.3866747669397785" y2="-1.0895858684400452" id="master_svg8_2011_34500"><stop offset="0%" stop-color="var(--el-text-color-primary)" stop-opacity="1"/><stop offset="94.06359791755676%" stop-color="var(--el-text-color-primary)" stop-opacity="1"/></linearGradient><linearGradient x1="-5.96795654296875" y1="2.061343193054199" x2="-0.9414298203689331" y2="-2.7216953622872535" id="master_svg9_2011_34501"><stop offset="0%" stop-color="var(--el-text-color-primary)" stop-opacity="1"/><stop offset="94.06359791755676%" stop-color="var(--el-text-color-primary)" stop-opacity="1"/></linearGradient></defs><g clip-path="url(#master_svg0_2011_35063)"><path d="M4000,488.99756C4000,218.93155,3781.0674,0,3511.0022,0L488.99753,0C218.93153,0,0,218.93155,0,488.99756L0,3511.0027C0,3781.0676,218.93153,4000,488.99753,4000L3511.0022,4000C3781.0674,4000,4000,3781.0676,4000,3511.0027L4000,488.99756ZM521.49878,3274.6001Q521.49878,3277,523.09882,3280.2Q552.69879,3321.8,572.69879,3327.3999Q589.49878,3329,599.8988,3325.8Q633.49878,3314.6001,662.29883,3307.3999Q619.09882,3428.2,536.69879,3497Q531.09882,3501.8,531.09882,3505Q531.09882,3507.3999,535.09882,3508.6001Q539.09882,3509.8,543.09882,3509.8Q549.49878,3509.8,551.09882,3509Q683.09882,3457.8,742.29883,3321Q760.69885,3337.8,791.8988,3375.3999Q798.29883,3382.6001,804.29883,3389.8Q810.29883,3397,816.69885,3403.3999Q823.8988,3410.6001,831.8988,3410.6001Q843.8988,3410.6001,853.8988,3397Q863.8988,3383.3999,865.49878,3364.2Q867.8988,3343.3999,861.8988,3330.6001Q855.8988,3317.8,835.09882,3308.2Q820.69885,3301,802.69885,3298.2Q784.69885,3295.3999,751.8988,3295.3999Q755.09882,3286.6001,755.8988,3284.2Q780.69885,3278.6001,783.09882,3278.6001Q802.29883,3273.8,821.49878,3271Q840.69885,3268.2,848.69885,3266.6001Q863.09882,3265,871.09882,3263.3999Q891.8988,3260.2,891.8988,3249.8Q891.8988,3244.2,888.69885,3238.6001Q875.8988,3218.6001,852.69885,3205Q849.49878,3202.6001,842.29883,3202.6001Q833.49878,3202.6001,817.8988,3207Q802.29883,3211.3999,797.49878,3212.2L780.69885,3217L772.69885,3218.6001Q775.8988,3204.2,777.8988,3190.2Q779.8988,3176.2,780.69885,3171.3999Q782.29883,3161.8,775.09882,3154.6001L848.69885,3139.3999Q867.09882,3133.8,867.09882,3122.6001Q867.09882,3120.2,863.8988,3112.2Q860.69885,3104.2,849.09882,3093Q837.49878,3081.8,826.29883,3074.6001Q816.69885,3069,811.09882,3069Q806.29883,3069,799.8988,3071.3999L767.8988,3081L706.29883,3100.2Q717.49878,3081.8,723.8988,3064.2Q724.69885,3061.8,728.69885,3053.8Q732.69885,3045.8,732.69885,3040.2Q732.69885,3033,727.09882,3027.3999Q712.69885,3012.2,689.8988,2999.3999Q667.09882,2986.6001,643.09882,2981.8Q634.29883,2980.2,627.49878,2984.2Q620.69879,2988.2,620.69879,2997.8L621.49878,3017Q621.49878,3059.3999,605.49878,3119.8Q589.49878,3180.2,551.8988,3248.2Q549.49878,3252.2,551.09882,3254.6001Q552.69879,3257,556.69879,3257Q562.29883,3257,566.29883,3253.8Q627.09882,3205,667.09882,3157L672.69879,3161Q682.29883,3168.2,690.29883,3168.2L690.29883,3181.8Q687.8988,3209.8,680.69879,3241Q655.09882,3247.3999,642.29883,3249.8Q598.29883,3260.2,534.29883,3265Q521.49878,3265.8,521.49878,3274.6001ZM3305.8989,3641L3305.8989,3139.0469L3436.7583,3019.9062L3436.7583,3641L3305.8989,3641ZM1374.2988,3048.2Q1374.2988,3050.6001,1375.8988,3053.8Q1378.2988,3060.2,1385.4988,3075.8Q1392.6989,3091.3999,1405.4988,3117.3999Q1418.2988,3143.3999,1431.0988,3163.3999Q1436.6989,3172.2,1444.6989,3176.2Q1452.6989,3180.2,1459.0988,3177Q1476.6989,3168.2,1486.6989,3155.3999Q1496.6989,3142.6001,1500.6989,3118.6001Q1501.4988,3113.8,1501.4988,3105Q1501.4988,3071.3999,1474.6989,3056.6001Q1447.8988,3041.8,1403.8988,3041.8Q1388.6989,3041.8,1381.4988,3042.6001Q1374.2988,3043.3999,1374.2988,3048.2ZM3110.5864,3641L2936.7583,3641L2632.0708,3223.0312L2325.4302,3641L2153.5552,3641L2559.8052,3086.3125Q2571.5239,3068.7344,2590.0786,3058.9688Q2608.6333,3049.2031,2630.1177,3049.2031Q2676.9927,3049.2031,2704.3364,3086.3125L3110.5864,3641ZM1060.6987,3315.3999Q1071.8988,3347.3999,1078.2988,3357Q1079.8988,3361.8,1084.6987,3364.6001Q1089.4988,3367.3999,1095.8988,3367.3999Q1107.0989,3367.3999,1117.4988,3359.3999Q1133.4988,3346.6001,1141.8988,3336.2Q1150.2988,3325.8,1153.4988,3307.3999Q1156.6987,3287.3999,1158.2988,3254.6001Q1162.2988,3212.2,1164.6987,3198.6001Q1166.2988,3189.8,1171.0989,3174.2Q1175.8988,3158.6001,1179.8988,3151.3999Q1182.2988,3146.6001,1182.2988,3137.8Q1182.2988,3130.6001,1179.8988,3123.3999Q1177.4988,3116.2,1172.6987,3113Q1159.8988,3101.8,1140.2988,3089.8Q1120.6987,3077.8,1107.8988,3073.8Q1104.6987,3071.3999,1099.0989,3071.3999Q1091.0989,3071.3999,1084.6987,3075.3999Q1080.6987,3077,1070.2988,3083Q1059.8988,3089,1046.2988,3091.3999Q1013.4988,3099.3999,971.09882,3105Q960.69885,3094.6001,940.29883,3091Q919.8988,3087.3999,886.29883,3087.3999Q879.09882,3087.3999,879.09882,3093.8Q879.09882,3094.6001,880.69885,3099.3999Q887.09882,3118.6001,891.49878,3170.2Q895.8988,3221.8,895.8988,3268.2Q895.8988,3298.6001,892.69885,3321Q891.09882,3333.8,898.29883,3348.2Q905.49878,3362.6001,916.29883,3372.2Q927.09882,3381.8,935.8988,3381.8Q945.49878,3381.8,957.09882,3373.3999Q968.69879,3365,977.09882,3351Q985.49884,3337,985.49884,3321.8Q1007.8988,3318.6001,1060.6987,3315.3999ZM1550.2988,3624.2Q1550.2988,3631.3999,1554.2988,3638.6001Q1571.0989,3676.2,1585.4988,3688.2Q1589.4988,3692.2,1595.0989,3692.2Q1600.6989,3692.2,1608.6989,3688.2Q1611.0989,3687.3999,1624.2988,3682.6001Q1637.4988,3677.8,1677.4988,3673Q1779.8988,3657,1867.8988,3657Q1927.8988,3657,1998.2988,3664.2Q2007.8988,3665,2014.6987,3656.2Q2021.4988,3647.3999,2020.6987,3636.2Q2018.2988,3607.3999,2007.4988,3589Q1996.6987,3570.6001,1983.0989,3563Q1969.4988,3555.3999,1958.2988,3556.2Q1871.8988,3560.2,1670.2988,3591.3999Q1675.0989,3329.8,1679.0989,3201.8Q1717.4988,3190.6001,1771.4988,3184.6001Q1825.4988,3178.6001,1876.6987,3178.6001Q1896.6987,3178.6001,1927.0989,3180.2Q1944.6987,3181,1950.2988,3179.8Q1955.8988,3178.6001,1960.6987,3172.2Q1966.2988,3165.8,1966.2988,3156.2Q1966.2988,3145,1959.0989,3133.8Q1955.8988,3128.2,1950.6987,3117.8Q1945.4988,3107.3999,1939.4988,3098.6001Q1933.4988,3089.8,1925.4988,3084.2Q1917.4988,3077,1905.4988,3077Q1896.6987,3077,1887.0989,3081Q1843.0989,3095.3999,1787.4988,3107.8Q1731.8988,3120.2,1679.8988,3127.3999Q1679.0989,3124.2,1675.8988,3117.8Q1668.6989,3104.2,1640.6989,3095Q1612.6989,3085.8,1585.4988,3085.8Q1568.6989,3085.8,1568.6989,3097.8L1569.4988,3102.6001Q1587.8988,3182.6001,1587.8988,3335.3999Q1587.8988,3458.6001,1578.2988,3569Q1577.4988,3584.2,1573.8988,3592.6001Q1570.2988,3601,1563.0989,3605.8Q1556.6989,3610.6001,1553.4988,3614.6001Q1550.2988,3618.6001,1550.2988,3624.2ZM1066.2988,3245.8Q1046.2988,3246.6001,983.8988,3252.2L981.49884,3169Q1024.6987,3161,1060.6987,3160.2Q1067.0989,3160.2,1069.0989,3161.8Q1071.0989,3163.3999,1071.0989,3167.3999Q1069.4988,3210.6001,1066.2988,3245.8ZM1300.6989,3226.6001Q1300.6989,3228.2,1303.0988,3232.2Q1314.2988,3249.8,1345.4988,3317.8Q1348.6989,3325.8,1352.6989,3334.2Q1356.6989,3342.6001,1360.6989,3351.3999Q1366.2988,3363.3999,1376.6989,3363.3999L1379.0988,3363.3999Q1390.2988,3361.8,1402.2988,3350.2Q1414.2988,3338.6001,1422.6989,3321.8Q1431.0988,3305,1431.0988,3287.3999Q1431.0988,3249.8,1405.0988,3235Q1379.0988,3220.2,1339.0988,3220.2Q1327.8988,3220.2,1307.0988,3221.8Q1300.6989,3223.3999,1300.6989,3226.6001ZM1331.0988,3645.8Q1348.6989,3679.3999,1365.4988,3695.3999Q1371.8988,3701,1381.4988,3701Q1390.2988,3701,1397.8988,3695.8Q1405.4988,3690.6001,1408.6989,3681.8Q1423.8988,3649,1434.2988,3607Q1444.6989,3565,1459.8988,3485.8Q1479.8988,3389,1499.8988,3301.8Q1500.6989,3298.6001,1499.4988,3296.6001Q1498.2988,3294.6001,1495.8988,3294.6001Q1492.6989,3294.6001,1490.2988,3299.3999Q1440.6989,3420.2,1368.6989,3529Q1350.2988,3555.3999,1327.8988,3564.2Q1323.0988,3565.8,1316.6989,3567.3999Q1310.2988,3569,1307.0988,3571Q1303.8988,3573,1303.8988,3577.8L1305.4988,3585.8Q1313.4988,3612.2,1331.0988,3645.8ZM703.09882,3407.3999Q703.09882,3410.6001,703.8988,3413Q715.8988,3433.8,715.8988,3549Q715.8988,3591.3999,714.29883,3649Q713.49878,3660.2,711.09882,3671.3999Q708.69879,3682.6001,708.69879,3689Q708.69879,3701.8,720.69885,3715.8Q732.69885,3729.8,748.29883,3739.3999Q763.8988,3749,771.8988,3749Q787.09882,3749,796.29883,3735Q805.49878,3721,808.69885,3698.6001Q859.09882,3694.6001,940.69885,3693Q943.09882,3698.6001,951.09882,3717Q959.09882,3735.3999,964.69885,3743.3999Q977.49884,3758.6001,987.8988,3758.6001Q990.29883,3758.6001,996.69879,3757Q1045.4988,3740.2,1056.6987,3675.3999Q1064.6987,3613,1064.6987,3490.6001Q1064.6987,3483.3999,1067.8988,3476.6001Q1071.0989,3469.8,1071.8988,3468.2Q1077.4988,3455.3999,1077.4988,3449.8Q1077.4988,3441.8,1071.8988,3436.2Q1063.0989,3425.8,1038.6987,3410.2Q1014.2988,3394.6001,995.09882,3386.6001Q983.8988,3381,977.49884,3381Q973.49884,3381,967.09882,3383.3999Q951.8988,3389.8,904.29883,3401.8Q856.69885,3413.8,809.49878,3424.2Q806.29883,3421,804.69885,3420.2Q786.29883,3410.6001,761.09882,3405.3999Q735.8988,3400.2,709.49878,3401Q703.09882,3401,703.09882,3407.3999ZM861.09882,3519Q834.29883,3523.3999,807.09882,3525.8Q807.8988,3510.6001,807.8988,3485Q856.69885,3474.6001,952.69885,3464.2Q958.29883,3463.3999,961.49878,3466.6001Q964.69885,3469.8,964.69885,3474.6001Q964.69885,3506.6001,963.09882,3557.3999Q961.49878,3608.2,959.09882,3640.2Q953.49878,3632.2,945.09882,3626.2Q936.69885,3620.2,929.49878,3620.2Q920.69885,3620.2,907.8988,3623.3999Q895.09882,3626.6001,885.49878,3627.3999Q849.49878,3631.3999,808.69885,3633.8Q807.8988,3616.2,807.8988,3578.6001Q814.29883,3582.6001,823.8988,3582.6001L827.8988,3582.6001Q854.29883,3581,884.69885,3578.2Q915.09882,3575.3999,934.29883,3573Q944.69885,3571.3999,948.69885,3564.2Q952.69885,3557,951.09882,3548.2Q939.09882,3520.2,922.29883,3510.6001Q919.09882,3507.3999,912.69885,3507.3999Q907.09882,3507.3999,900.69885,3509.8Q887.8988,3514.6001,861.09882,3519Z" fill-rule="evenodd" fill="var(--el-text-color-primary)" fill-opacity="1"/><path d="M831.34302,2500.8213C869.36963,2591.9331,945.24127,2706.1812,978.42377,2751.9175C1087.83801,2858.636,1204.4255,2797.6538,1202.63165,2797.6538C1355.0951,2733.9797,1357.7875,2640.7119,1355.9926,2640.7119C1372.1361,2550.1365,1155.09937,2296.3481,1155.99579,2297.2456C1124.42761,2259.9363000000003,999.34918,2032.9833,940.7561,1924.1747C886.34833,1809.084,777.17377,1578.7383,775.73895,1578.016C659.15146,1328.70703,612.51562,1164.59326,610.72174,1163.69696C515.65836,899.14255,531.80087,780.7663,534.49112,778.97253C558.70541,636.3819100000001,716.54828,716.19687,714.75443,717.0932C796.36658,735.92624,1138.05945,981.64764,1137.16302,980.75122C1260.9248,1058.7723999999998,1507.5563,1291.04095,1506.6589,1291.04095C1661.8126,1445.2896,1649.2589,1487.4395,1651.043,1490.1296C1671.674,1557.3859,1616.9718,1611.1991,1616.0742,1610.3018C1487.8229,1726.881,1340.7465,1804.0057,1340.7465,1802.2108C1205.3219,1844.3685,1168.5517,1898.1709,1168.5517,1895.4785C1016.98676,2041.6622,1135.3692,2163.626,1136.2655,2163.626C1222.3618000000001,2270.3444,1399.0386,2110.7101000000002,1398.141,2111.6077C1435.8021,2094.5671,1884.2222,1691.9028,1884.2222,1691.0164C1950.2305,1633.6133,2018.745,1640.1908,2044.7607,1650.6536C2084.2168,1656.9357,2222.3295,1754.6797,2233.9857,1762.7566C2249.2318,1777.1046,2339.811,1835.3942,2338.0161,1835.3942C2613.344,2002.1969,2843.8311,2206.6702,2842.0359,2205.7727C2937.1025,2302.6191,3007.9595,2301.7327999999998,3007.9595,2302.6191C3131.7122,2306.209,3201.6716,2160.9337,3201.6716,2160.0364C3255.4763,2025.5193,3129.9282,1959.1528,3129.9282,1957.3579C3091.1838,1937.275,3004.9604,1897.569,2966.6975,1880.2332C2921.8564,1847.0498,2805.2722,1798.6321,2806.1697,1798.6321C2752.354,1777.816,2520.0723,1636.9076,2410.6677,1569.0526C2280.0305,1488.037,2018.745,1325.65796,2018.745,1324.22314C2001.704,1323.32568,1256.4407,810.3598,1257.3383,809.4634699999999C1202.63165,761.03696,1042.09857,657.00873,1042.09857,655.21495C788.2948,466.888252,583.8172,430.11963000000003,581.1269500000001,429.222849C335.39507000000003,381.69275700000003,287.863258,477.649723,284.275986,476.752831C154.235371,635.48558,219.704088,883.89706,217.910451,883.89706C234.412169,992.94763,303.1095,1172.06714,335.39507000000003,1247.99573C386.21622,1382.2150299999998,487.85632,1650.4784,487.85632,1649.7562C490.54767,1662.3093,653.771,2094.5671,654.6673900000001,2094.5671C727.3114,2289.1687,832.24048,2499.0266,831.34302,2500.8213Z" fill="url(#master_svg1_2011_34493)" fill-opacity="1" style="mix-blend-mode:passthrough"/><path d="M3449.198941875,1545.281063125L3681.021181875,1048.458163125C3685.213131875,1039.4903831249999,3717.795591875,980.750973125,3718.244501875,979.853543125C3760.841611875,911.248903125,3789.538881875,822.018543125,3789.538881875,821.569853125C3821.826111875,721.576813125,3738.875301875,695.122146125,3738.875301875,694.673439125C3731.695681875,691.085884125,3532.598391875,658.802250125,3533.4959118750003,658.802250125C3394.485811875,635.485311125,3424.080661875,792.423953125,3421.388271875,792.423953125C3429.465421875,860.579863125,3397.178191875,949.362613125,3395.383361875,948.466243125C3364.530001875,1058.951633125,3245.614411875,1264.137393125,3190.014691875,1352.9200431250001C3121.850361875,1459.937073125,2985.707904875,1673.7896531249999,2986.430163875,1673.078253125C2909.302081875,1777.104253125,2975.671592875,1828.225353125,2974.774043875,1830.009253125C3020.512473875,1886.514853125,3168.934971875,1949.740353125,3173.422451875,1949.740353125C3274.935611875,1993.145753125,3343.067111875,1846.754153125,3363.993711875,1769.027353125C3399.8705718749998,1646.713313125,3435.7367518749998,1568.899043125,3449.198941875,1545.281063125Z" fill="url(#master_svg2_2011_34494)" fill-opacity="1" style="mix-blend-mode:passthrough"/><path d="M2354.15817625,1372.20074859375L2294.07122625,1429.14748859375L2076.59765625,1212.57093859375L2147.44342825,1143.96630859375L2354.15817625,1372.20074859375Z" fill="url(#master_svg3_2011_34495)" fill-opacity="0.41999998688697815" style="mix-blend-mode:passthrough"/><path d="M2442.955690625,1297.3187290625C2431.113450625,1303.7758490625001,2396.462130625,1334.9836690625,2380.625010625,1349.7814990625L2180.181640625,1116.1668090625L2255.514762625,1054.7361910625L2323.668150625,1141.7250990625L2344.299100625,1123.7895090625L2278.378494625,1035.0067710625L2357.750320625,978.5087890625L2529.496280625,1232.7492790625L2462.678410625,1281.6244790625L2385.101410625,1177.5962990625L2364.481410625,1194.1868290625L2442.955690625,1295.5248990625L2443.842280625,1296.4223290625L2442.955690625,1297.3187290625Z" fill="url(#master_svg4_2011_34496)" fill-opacity="0.41999998688697815" style="mix-blend-mode:passthrough"/><path d="M2525.456850625,1167.283085L2389.587890625,959.226675L2470.754684625,908.558743C2513.056290625,981.348495,2597.922440625,1126.928005,2598.995010625,1126.928005C2606.623500625,1134.550725,2612.895140625,1127.824315,2612.895140625,1126.928005C2619.713730625,1122.981445,2617.229230625,1113.625125,2615.138610625,1109.440035L2496.759570625,894.209583L2581.505200625,848.921875L2661.325960625,1010.7931550000001C2684.6491406249997,1058.770995,2692.715610625,1084.778045,2693.613160625,1084.778045C2699.446560625,1132.756955,2651.464660625,1165.041625,2650.567110625,1164.144255C2587.787520625,1211.494935,2540.998440625,1185.966155,2525.456850625,1167.283085Z" fill="url(#master_svg5_2011_34497)" fill-opacity="0.41999998688697815" style="mix-blend-mode:passthrough"/><path d="M2820.967839375,1079.3984956250001C2810.646939375,1079.3984956250001,2748.775859375,1109.440735625,2746.083479375,1112.130885625C2702.884330375,1019.910535625,2616.398373815,835.291423625,2616.037109375,834.573467625C2627.518210375,825.964647625,2680.315994375,804.381294225,2705.270225375,794.666015625C2743.237719375,888.978904625,2819.533999375,1077.963655625,2820.967839375,1079.3984956250001Z" fill="url(#master_svg6_2011_34498)" fill-opacity="0.41999998688697815" style="mix-blend-mode:passthrough"/><path d="M2916.484177,1041.7322737499999L2820.96875,752.51699475L2913.791794,723.37109375L2994.94749,1023.34799375L2916.484177,1041.7322737499999Z" fill="url(#master_svg7_2011_34499)" fill-opacity="0.41999998688697815" style="mix-blend-mode:passthrough"/><path d="M3029.4751665,696.01872453125L2951.8984375,714.85066253125L3025.4365925,1011.68975453125L3090.9085575,994.65054453125L3067.1471375,861.92517453125L3134.8518875,989.27029453125L3204.3624275,976.71496453125L3166.2415475,673.59814453125L3084.1882975,685.70587853125L3106.6032575,817.53379453125L3029.4751665,696.01872453125Z" fill="url(#master_svg8_2011_34500)" fill-opacity="0.41999998688697815" style="mix-blend-mode:passthrough"/><path d="M3236.65049025,971.78253296875L3204.36328125,673.59836796875L3204.36328125,669.11446996875C3226.24195625,665.52799796875,3321.99814125,659.84789656875,3367.13455125,657.45654296875L3372.0706812500002,719.33586896875L3305.70143125,722.0260009687499L3308.39381125,778.97163296875L3365.78836125,776.73022296875L3367.13455125,835.02200296875L3312.43238125,838.60847296875L3316.90890125,967.7474029687501L3236.65049025,971.78253296875Z" fill="url(#master_svg9_2011_34501)" fill-opacity="0.41999998688697815" style="mix-blend-mode:passthrough"/></g></svg>