<svg xmlns="http://www.w3.org/2000/svg" xmlns:xlink="http://www.w3.org/1999/xlink" fill="none" version="1.1" width="1062" height="67" viewBox="0 0 1062 67"><g><path d="M84.375,42.9375Q84.375,50.75,78.75,56.375Q73.125,62,65.3125,62L26.71875,62Q18.90625,62,13.359375,56.375Q7.8125,50.75,7.8125,42.9375L7.8125,22.3125L18.125,12.15625L18.125,42.9375Q18.125,46.53125,20.625,49.03125Q23.125,51.53125,26.71875,51.53125L41.09375,51.53125L41.09375,33.09375L51.09375,33.09375L51.09375,51.53125L65.3125,51.53125Q68.90625,51.53125,71.484375,49.03125Q74.0625,46.53125,74.0625,42.9375L74.0625,22.3125L84.375,12.15625L84.375,42.9375ZM164.84375,24.96875L176.40625,14.65625L111.5625,14.65625L100,24.96875L164.84375,24.96875ZM164.84375,43.40625L176.40625,33.09375L111.5625,33.09375L100,43.40625L164.84375,43.40625ZM164.84375,62L176.40625,51.6875L111.5625,51.6875L100,62L164.84375,62ZM202.5,51.6875L202.5,12.3125L192.03125,22.46875L192.03125,55.28125Q192.03125,58.09375,194.0625,60.046875Q196.09375,62,198.90625,62L268.4375,62L268.4375,51.6875L202.5,51.6875ZM360.625,51.6875L307.8125,51.6875Q302.34375,51.6875,298.4375,47.78125Q294.53125,43.875,294.53125,38.40625Q294.53125,32.78125,298.4375,28.875Q302.34375,24.96875,307.8125,24.96875L349.84375,24.96875L360.625,14.65625L307.8125,14.65625Q301.40625,14.65625,295.9375,17.859375Q290.46875,21.0625,287.26562,26.453125Q284.0625,31.84375,284.0625,38.40625Q284.0625,44.8125,287.26562,50.203125Q290.46875,55.59375,295.9375,58.796875Q301.40625,62,307.8125,62L349.84375,62L360.625,51.6875ZM433.4375,62Q441.40625,62,446.95312,56.453125Q452.5,50.90625,452.5,43.09375L452.5,33.71875Q452.5,25.90625,446.95312,20.28125Q441.40625,14.65625,433.4375,14.65625L395.15625,14.65625Q387.34375,14.65625,381.79688,20.28125Q376.25,25.90625,376.25,33.71875L376.25,43.09375Q376.25,50.90625,381.79688,56.453125Q387.34375,62,395.15625,62L433.4375,62ZM433.4375,25.125Q437.03125,25.125,439.60938,27.625Q442.1875,30.125,442.1875,33.71875L442.1875,43.09375Q442.1875,46.6875,439.60938,49.1875Q437.03125,51.6875,433.4375,51.6875L395.15625,51.6875Q391.5625,51.6875,389.0625,49.1875Q386.5625,46.6875,386.5625,43.09375L386.5625,33.71875Q386.5625,30.125,389.0625,27.625Q391.5625,25.125,395.15625,25.125L433.4375,25.125ZM507.96875,29.8125Q507.34375,30.28125,506.25,30.28125Q505.46875,30.28125,504.53125,29.8125L478.4375,14.5L468.125,14.5L468.125,62L478.4375,62L478.4375,27.625L504.6875,42.46875Q505.625,42.78125,506.25,42.78125Q507.03125,42.78125,507.96875,42.46875L534.0625,27.625L534.0625,62L544.375,62L544.375,14.5L534.0625,14.5L507.96875,29.8125ZM624.84375,24.96875L636.40625,14.65625L571.5625,14.65625L560,24.96875L624.84375,24.96875ZM624.84375,43.40625L636.40625,33.09375L571.5625,33.09375L560,43.40625L624.84375,43.40625ZM624.84375,62L636.40625,51.6875L571.5625,51.6875L560,62L624.84375,62ZM683.28125,21.84375L683.28125,62L693.75,62L693.75,12.3125L683.28125,21.84375ZM775.3125,33.09375L719.6875,33.09375L719.6875,14.65625L709.375,14.65625L709.375,62L719.6875,62L719.6875,43.40625L775.3125,43.40625L775.3125,62L785.625,62L785.625,14.65625L775.3125,14.65625L775.3125,33.09375ZM858.75,62Q866.5625,62,872.1875,56.375Q877.8125,50.75,877.8125,42.9375L877.8125,14.5L867.5,14.5L867.5,42.9375Q867.5,46.53125,864.92188,49.03125Q862.34375,51.53125,858.75,51.53125L820.15625,51.53125Q816.5625,51.53125,814.0625,49.03125Q811.5625,46.53125,811.5625,42.9375L811.5625,14.5L801.25,14.5L801.25,42.9375Q801.25,50.75,806.79688,56.375Q812.34375,62,820.15625,62L858.75,62ZM893.4375,21.84375L893.4375,62L903.90625,62L903.90625,12.3125L893.4375,21.84375ZM1013.4375,62L1027.3438,62L994.84375,17.625Q992.65625,14.65625,988.90625,14.65625Q987.1875,14.65625,985.70312,15.4375Q984.21875,16.21875,983.28125,17.625L950.78125,62L964.53125,62L989.0625,28.5625L1013.4375,62ZM1042.9688,21.84375L1042.9688,62L1053.4375,62L1053.4375,12.3125L1042.9688,21.84375Z" fill="currentColor" fill-opacity="1"/></g></svg>
