<?xml version="1.0" standalone="no"?><!DOCTYPE svg PUBLIC "-//W3C//DTD SVG 1.1//EN" "http://www.w3.org/Graphics/SVG/1.1/DTD/svg11.dtd"><svg t="1763799477699" class="icon" viewBox="0 0 1024 1024" version="1.1" xmlns="http://www.w3.org/2000/svg" p-id="55008" width="200" height="200"><path d="M512 12.8C230.4 12.8 0 243.2 0 524.8c0 227.2 147.2 419.2 348.8 486.4 25.6 3.2 35.2-9.6 35.2-25.6v-86.4c-144 32-172.8-67.2-172.8-67.2-22.4-57.6-57.6-73.6-57.6-73.6-48-32 3.2-32 3.2-32 51.2 3.2 80 51.2 80 51.2 44.8 76.8 118.4 54.4 150.4 41.6 3.2-32 19.2-54.4 32-67.2-115.2-12.8-233.6-57.6-233.6-252.8 0-54.4 19.2-102.4 51.2-137.6-6.4-12.8-22.4-64 6.4-134.4 0 0 41.6-12.8 140.8 51.2 41.6-12.8 83.2-16 128-16s86.4 6.4 128 16C739.2 211.2 780.8 224 780.8 224c28.8 70.4 9.6 121.6 6.4 134.4 32 35.2 51.2 80 51.2 137.6 0 195.2-118.4 240-233.6 252.8 19.2 16 35.2 48 35.2 96v140.8c0 12.8 9.6 28.8 35.2 25.6C876.8 944 1024 752 1024 524.8c0-281.6-230.4-512-512-512z" fill="#FFFFFF" p-id="55009"></path></svg>