<?xml version="1.0" standalone="no"?><!DOCTYPE svg PUBLIC "-//W3C//DTD SVG 1.1//EN" "http://www.w3.org/Graphics/SVG/1.1/DTD/svg11.dtd"><svg t="1763799352862" class="icon" viewBox="0 0 1024 1024" version="1.1" xmlns="http://www.w3.org/2000/svg" p-id="32479" xmlns:xlink="http://www.w3.org/1999/xlink" width="200" height="200"><defs><linearGradient id="emailGrad" x1="0%" y1="0%" x2="100%" y2="100%"><stop offset="0%" stop-color="#4285F4"/><stop offset="100%" stop-color="#34A853"/></linearGradient></defs><path d="M512 64C265.6 64 64 265.6 64 512s201.6 448 448 448 448-201.6 448-448S758.4 64 512 64z" fill="#4285F4" p-id="32480"/><path d="M768 384c0-17.6-14.4-32-32-32H288c-17.6 0-32 14.4-32 32v256c0 17.6 14.4 32 32 32h448c17.6 0 32-14.4 32-32V384z" fill="#FFFFFF" p-id="32481"/><path d="M704 416L512 560 320 416" fill="none" stroke="#4285F4" stroke-width="48" stroke-linecap="round" stroke-linejoin="round" p-id="32482"/><path d="M288 352c-12.8 0-24 7.4-29.3 18.1-4.2 8.5-2.1 18.7 5.1 25.1l224 198.6c7.1 6.3 17.6 6.3 24.7 0l224-198.6c7.2-6.4 9.3-16.6 5.1-25.1-5.3-10.7-16.5-18.1-29.3-18.1H288z" fill="#4285F4" p-id="32483"/><path d="M288 640h448v32H288z" fill="#FFFFFF" opacity="0" p-id="32484"/></svg>
