<?xml version="1.0" standalone="no"?><!DOCTYPE svg PUBLIC "-//W3C//DTD SVG 1.1//EN" "http://www.w3.org/Graphics/SVG/1.1/DTD/svg11.dtd"><svg t="1763026684485" class="icon" viewBox="0 0 1024 1024" version="1.1" xmlns="http://www.w3.org/2000/svg" p-id="1514" xmlns:xlink="http://www.w3.org/1999/xlink" width="200" height="200"><path d="M512 64a38.4 38.4 0 0 1 38.4 38.4v819.2a38.4 38.4 0 0 1-76.8 0V102.4a38.4 38.4 0 0 1 38.4-38.4zM307.2 268.8a38.4 38.4 0 0 1 38.4 38.4v409.6a38.4 38.4 0 0 1-76.8 0V307.2A38.4 38.4 0 0 1 307.2 268.8zM716.8 371.2a38.4 38.4 0 0 1 38.4 38.4v307.2a38.4 38.4 0 0 1-76.8 0V409.6a38.4 38.4 0 0 1 38.4-38.4zM102.4 371.2a38.4 38.4 0 0 1 38.4 38.4v204.8a38.4 38.4 0 0 1-76.8 0V409.6A38.4 38.4 0 0 1 102.4 371.2zM921.6 473.6a38.4 38.4 0 0 1 38.4 38.4v102.4a38.4 38.4 0 0 1-76.8 0v-102.4a38.4 38.4 0 0 1 38.4-38.4zM826.4704 36.864a20.48 20.48 0 0 1 36.6592 0l38.144 76.6464a20.48 20.48 0 0 0 9.216 9.216l76.6464 38.144a20.48 20.48 0 0 1 0 36.6592l-76.6464 38.1952a20.48 20.48 0 0 0-9.216 9.216l-38.144 76.5952a20.48 20.48 0 0 1-36.6592 0l-38.144-76.6464a20.48 20.48 0 0 0-9.216-9.216l-76.6464-38.144a20.48 20.48 0 0 1 0-36.6592l76.6464-38.144a20.48 20.48 0 0 0 9.216-9.216L826.4704 36.864z" p-id="1515" fill="#2c2c2c"></path></svg>