<?xml version="1.0" standalone="no"?><!DOCTYPE svg PUBLIC "-//W3C//DTD SVG 1.1//EN" "http://www.w3.org/Graphics/SVG/1.1/DTD/svg11.dtd"><svg t="1763204533057" class="icon" viewBox="0 0 1024 1024" version="1.1" xmlns="http://www.w3.org/2000/svg" p-id="16695" xmlns:xlink="http://www.w3.org/1999/xlink" width="200" height="200"><path d="M504.768 756.544c23.36-3.904 75.2 25.92 76.8 26.88 1.792 0.96 57.984 29.376 51.2 42.432-6.656 13.056-52.288 36.864-52.288 36.864s-49.664 28.416-68.992 28.416c-19.2 0-70.464-28.16-70.464-28.16s-52.224-27.776-52.608-38.336c-0.32-10.688 50.304-38.592 50.304-38.592s42.24-25.472 66.048-29.504z m-89.792-62.976c1.92 1.024 58.048 29.376 51.456 42.24-6.784 13.12-52.48 36.928-52.48 36.928s-49.664 28.416-68.928 28.416c-19.328 0-70.592-28.224-70.592-28.224s-52.224-27.712-52.608-38.336c-0.32-10.56 50.368-38.464 50.368-38.464s42.24-25.536 65.984-29.568c23.296-3.84 75.2 26.048 76.8 27.008z m335.232-4.736c1.92 0.896 58.112 29.312 51.328 42.24-6.656 13.12-52.352 36.928-52.352 36.928s-49.664 28.48-69.056 28.48c-19.072 0-70.464-28.224-70.464-28.224s-52.224-27.776-52.672-38.4c-0.256-10.496 50.432-38.4 50.432-38.4s42.24-25.6 65.984-29.44c23.296-4.032 75.2 25.92 76.8 26.88zM583.744 599.04c1.792 1.024 57.984 29.312 51.328 42.24-6.72 13.056-52.352 36.864-52.352 36.864s-49.6 28.48-68.992 28.48c-16.256 0-55.552-20.224-67.2-26.496l-3.392-1.792s-52.224-27.712-52.544-38.336c-0.32-10.56 50.24-38.272 50.24-38.272s42.24-25.6 66.048-29.632c23.296-3.84 75.2 26.048 76.8 26.944z m174.784-92.16l1.024 0.64 2.752 1.6 7.36 4.416c13.696 8.32 37.504 23.936 48 36.992 14.848 18.496 14.144 78.208 14.08 80.192 0.064 1.92 2.88 64.896-11.648 65.664-11.136 0.384-38.08-15.36-50.88-23.232l-6.08-3.84-0.896-0.512s-49.088-29.568-58.56-46.272c-8.64-15.616-9.792-66.56-9.92-74.368V545.92c-0.192-8.32-0.64-58.432 7.68-63.488 8.32-4.992 50.176 20.16 57.088 24.384z m-438.848-25.216l3.072 0.64c6.016 3.712 7.36 31.232 7.616 49.152v16.512c-0.192 7.808-1.28 58.816-10.048 74.368-9.344 16.768-58.624 46.08-58.624 46.08s-42.88 28.16-57.792 27.584c-14.4-0.64-11.776-63.36-11.648-65.472V625.92c0.128-14.72 1.6-59.904 14.144-75.584 15.104-18.688 58.048-43.008 58.048-43.008s34.048-21.12 50.752-25.088l4.48-0.64z m274.688-74.944s42.944 24.384 58.112 43.072c14.848 18.432 14.08 78.272 13.952 80.32 0.064 1.92 2.88 64.768-11.648 65.344-14.656 0.512-57.728-27.52-57.728-27.52l-2.112-1.28a479.168 479.168 0 0 1-9.28-5.888l-11.264-7.552c-14.208-9.792-30.784-22.528-35.904-31.552-9.408-16.832-9.984-75.264-9.984-75.264s-1.408-59.072 7.68-64.64c9.088-5.504 58.24 24.96 58.24 24.96z m-109.568-25.664l3.072 0.64c9.024 5.44 7.616 64.64 7.616 64.64s-0.512 58.432-9.984 75.2c-8.832 15.552-51.328 41.856-57.792 45.76l-1.728 1.088-6.08 3.84c-12.8 7.872-39.68 23.616-50.752 23.168-14.528-0.512-11.776-63.36-11.584-65.344v-4.736c0.128-14.72 1.472-60.032 14.08-75.584 15.104-18.624 58.048-43.008 58.048-43.008s34.112-21.184 50.752-25.088l4.352-0.64z m270.592-63.296l0.96 0.64 2.816 1.6 7.36 4.416c13.696 8.384 37.504 24 48 36.992 12.608 15.68 13.952 60.928 14.08 75.648V441.6c0 2.048 2.688 64.768-11.712 65.408-14.784 0.64-57.792-27.52-57.792-27.52s-49.152-29.504-58.752-46.336c-9.28-16.768-9.792-75.264-9.792-75.264s-1.472-59.136 7.68-64.64c8.192-5.056 50.24 20.224 57.152 24.448z m-432.512-25.152l3.072 0.64c9.088 5.504 7.68 64.576 7.68 64.576s-0.576 58.496-10.048 75.328c-9.6 16.896-58.624 46.272-58.624 46.272s-43.008 28.16-57.792 27.52c-14.528-0.512-11.776-63.36-11.712-65.344v-4.672c0.192-14.72 1.6-59.968 14.208-75.648 15.04-18.688 58.048-43.008 58.048-43.008s34.048-21.184 50.752-25.088l4.48-0.64zM490.88 192.64c6.08 3.584 7.424 31.104 7.68 49.024v11.136l-0.064 3.2v1.216s-0.448 58.432-9.92 75.328c-8.768 15.552-51.328 41.856-57.792 45.76l-0.832 0.512s-43.008 28.096-57.792 27.52c-13.248-0.64-11.904-53.504-11.584-63.872v-6.4c0.192-14.72 1.536-59.904 14.08-75.456 15.104-18.752 58.112-43.008 58.112-43.008s49.024-30.528 58.112-24.96z m42.112 0c9.088-5.504 58.24 25.088 58.24 25.088l2.816 1.6 7.36 4.416c13.632 8.32 37.504 24 47.936 36.992 14.72 18.304 14.08 78.144 14.08 80.128v1.664c0.32 10.432 1.536 63.232-11.712 63.68-14.72 0.512-57.728-27.52-57.728-27.52s-49.216-29.44-58.56-46.272C525.952 315.52 525.44 257.28 525.44 257.28v-1.152l-0.064-3.2v-11.2c0.192-17.92 1.536-45.44 7.68-49.024z" p-id="16696" fill="#ffffff"></path></svg>